<svg width="44" height="44" viewBox="0 0 44 44" fill="none" xmlns="http://www.w3.org/2000/svg">
<path d="M27.5007 22H18.334" stroke="white" stroke-width="2" stroke-linecap="round" stroke-linejoin="round"/>
<path d="M27.5007 14.6667H18.334" stroke="white" stroke-width="2" stroke-linecap="round" stroke-linejoin="round"/>
<path d="M34.834 31.1667V9.16667C34.834 8.19421 34.4477 7.26158 33.76 6.57394C33.0724 5.88631 32.1398 5.5 31.1673 5.5H7.33398" stroke="white" stroke-width="2" stroke-linecap="round" stroke-linejoin="round"/>
<path d="M14.666 38.5H36.666C37.6385 38.5 38.5711 38.1137 39.2587 37.4261C39.9464 36.7384 40.3327 35.8058 40.3327 34.8333V33C40.3327 32.5138 40.1395 32.0475 39.7957 31.7036C39.4519 31.3598 38.9856 31.1667 38.4993 31.1667H20.166C19.6798 31.1667 19.2135 31.3598 18.8697 31.7036C18.5258 32.0475 18.3327 32.5138 18.3327 33V34.8333C18.3327 35.8058 17.9464 36.7384 17.2587 37.4261C16.5711 38.1137 15.6385 38.5 14.666 38.5ZM14.666 38.5C13.6936 38.5 12.7609 38.1137 12.0733 37.4261C11.3857 36.7384 10.9993 35.8058 10.9993 34.8333V9.16667C10.9993 8.19421 10.613 7.26158 9.92541 6.57394C9.23777 5.88631 8.30514 5.5 7.33268 5.5C6.36022 5.5 5.42759 5.88631 4.73996 6.57394C4.05232 7.26158 3.66602 8.19421 3.66602 9.16667V12.8333C3.66602 13.3196 3.85917 13.7859 4.20299 14.1297C4.5468 14.4735 5.01312 14.6667 5.49935 14.6667H10.9993" stroke="white" stroke-width="2" stroke-linecap="round" stroke-linejoin="round"/>
</svg>
