<svg width="44" height="44" viewBox="0 0 44 44" fill="none" xmlns="http://www.w3.org/2000/svg">
<g clip-path="url(#clip0_1800_10597)">
<path d="M43.944 4.83537C43.8877 4.53467 43.6526 4.29963 43.3519 4.24326C40.7541 3.75616 35.8287 6.44266 28.297 12.4568C26.4834 13.905 24.6587 15.4408 22.9485 16.9278C22.0231 15.0685 20.2022 13.771 18.125 13.5189V10.6662H18.3373C19.6663 10.6662 20.7476 9.58496 20.7476 8.25585V7.30306C20.7476 5.97404 19.6664 4.89269 18.3373 4.89269H5.25886C3.92984 4.89269 2.84848 5.97395 2.84848 7.30306V8.25594C2.84848 9.58496 3.92975 10.6663 5.25886 10.6663H5.47104V13.5196C2.39396 13.8874 0 16.5119 0 19.6864V22.8509C0 26.0255 2.39396 28.6499 5.47104 29.0178V30.2981C5.47104 30.7076 5.80302 31.0396 6.21251 31.0396C6.622 31.0396 6.95398 30.7076 6.95398 30.2981V29.0635H12.5669C12.4327 29.7261 12.3494 30.4229 12.3191 31.1499C12.2553 32.6799 12.4382 33.9566 12.5537 34.5849L8.59177 38.5468C8.30216 38.8364 8.30216 39.3058 8.59177 39.5954C8.73649 39.7401 8.92633 39.8126 9.11608 39.8126C9.30583 39.8126 9.49566 39.7403 9.64038 39.5954L13.6023 35.6335C14.1413 35.7326 15.1573 35.8812 16.4016 35.8812C16.6075 35.8812 16.8199 35.8771 17.0372 35.8681C19.9202 35.7479 22.3306 34.798 24.0078 33.1207C26.2298 30.8988 31.3772 25.3419 35.7303 19.8902C41.7446 12.3586 44.4312 7.43403 43.944 4.83537ZM5.25886 9.18329C4.74753 9.18329 4.33151 8.76727 4.33151 8.25594V7.30306C4.33151 6.79173 4.74753 6.37571 5.25886 6.37571H18.3373C18.8486 6.37571 19.2646 6.79173 19.2646 7.30306V8.25594C19.2646 8.76727 18.8486 9.18329 18.3373 9.18329H5.25886ZM16.642 10.6663V13.4737H6.95415V10.6663H16.642ZM1.48302 19.6864C1.48302 17.0788 3.60396 14.9574 6.21139 14.9567C6.21182 14.9567 6.21216 14.9568 6.21268 14.9568H17.3835C17.384 14.9568 17.3845 14.9567 17.385 14.9567C19.3306 14.9573 21.0775 16.1673 21.7821 17.9496C20.7616 18.8506 19.7973 19.72 18.917 20.527H1.48302V19.6864ZM12.9737 27.5807H6.22402C6.22016 27.5806 6.21637 27.5801 6.21259 27.5801C6.21002 27.5801 6.20752 27.5805 6.20495 27.5805C3.60052 27.5763 1.48302 25.4564 1.48302 22.851V22.01H17.318C16.3934 22.8783 15.6246 23.6213 15.0665 24.1795C14.1415 25.1045 13.4391 26.2534 12.9737 27.5807ZM34.5715 18.965C30.2559 24.3696 25.1585 29.8729 22.9591 32.0722C21.5372 33.4942 19.5373 34.2722 17.0149 34.3848C16.2203 34.4203 15.4956 34.3803 14.9152 34.3209L38.6175 10.6186C38.9071 10.329 38.9071 9.85962 38.6175 9.57001C38.3278 9.2804 37.8584 9.2804 37.5688 9.57001L13.8666 33.2721C13.8071 32.6916 13.7672 31.967 13.8026 31.1725C13.9151 28.65 14.6932 26.65 16.1152 25.2281C18.3146 23.0288 23.8177 17.9314 29.2224 13.6158C37.3273 7.14391 40.936 5.76839 42.514 5.67334C42.4188 7.25133 41.0433 10.8601 34.5715 18.965Z" fill="white"/>
</g>
<defs>
<clipPath id="clip0_1800_10597">
<rect width="44" height="44" fill="white"/>
</clipPath>
</defs>
</svg>
