<svg width="44" height="44" viewBox="0 0 44 44" fill="none" xmlns="http://www.w3.org/2000/svg">
<path d="M23.834 38.5H38.5007" stroke="white" stroke-width="2" stroke-linecap="round" stroke-linejoin="round"/>
<path d="M27.5 9.16675L34.8333 16.5001" stroke="white" stroke-width="2" stroke-linecap="round" stroke-linejoin="round"/>
<path d="M38.8182 12.4887C39.7875 11.5197 40.3322 10.2052 40.3323 8.83461C40.3325 7.46399 39.7882 6.14943 38.8191 5.18013C37.8501 4.21083 36.5357 3.66619 35.165 3.66602C33.7944 3.66584 32.4799 4.21016 31.5106 5.17921L7.0429 29.6524C6.61723 30.0768 6.30244 30.5994 6.12623 31.174L3.7044 39.1527C3.65701 39.3113 3.65343 39.4797 3.69404 39.6401C3.73464 39.8005 3.81792 39.947 3.93502 40.0639C4.05213 40.1808 4.1987 40.2638 4.35919 40.3042C4.51967 40.3445 4.68809 40.3407 4.84656 40.293L12.8271 37.873C13.4012 37.6984 13.9237 37.3855 14.3487 36.9619L38.8182 12.4887Z" stroke="white" stroke-width="2" stroke-linecap="round" stroke-linejoin="round"/>
</svg>
