<svg width="44" height="44" viewBox="0 0 44 44" fill="none" xmlns="http://www.w3.org/2000/svg">
<path d="M24.5673 3.66675H11.0007C10.0282 3.66675 9.09556 4.05306 8.40793 4.74069C7.72029 5.42832 7.33398 6.36095 7.33398 7.33341V36.6667C7.33398 37.6392 7.72029 38.5718 8.40793 39.2595C9.09556 39.9471 10.0282 40.3334 11.0007 40.3334H33.0007C33.9731 40.3334 34.9057 39.9471 35.5934 39.2595C36.281 38.5718 36.6673 37.6392 36.6673 36.6667V23.1001" stroke="white" stroke-width="2" stroke-linecap="round" stroke-linejoin="round"/>
<path d="M3.66602 11H10.9993" stroke="white" stroke-width="2" stroke-linecap="round" stroke-linejoin="round"/>
<path d="M3.66602 18.3333H10.9993" stroke="white" stroke-width="2" stroke-linecap="round" stroke-linejoin="round"/>
<path d="M3.66602 25.6667H10.9993" stroke="white" stroke-width="2" stroke-linecap="round" stroke-linejoin="round"/>
<path d="M3.66602 33H10.9993" stroke="white" stroke-width="2" stroke-linecap="round" stroke-linejoin="round"/>
<path d="M39.1931 10.3144C39.9234 9.58413 40.3337 8.5936 40.3337 7.56078C40.3337 6.52795 39.9234 5.53743 39.1931 4.80711C38.4628 4.07679 37.4723 3.6665 36.4395 3.6665C35.4066 3.6665 34.4161 4.07679 33.6858 4.80711L24.5008 13.9958C24.0649 14.4314 23.7459 14.9699 23.5731 15.5614L22.0386 20.8231C21.9926 20.9809 21.9898 21.1481 22.0306 21.3073C22.0714 21.4665 22.1542 21.6118 22.2704 21.728C22.3866 21.8442 22.5319 21.927 22.6911 21.9678C22.8503 22.0085 23.0175 22.0058 23.1753 21.9598L28.437 20.4253C29.0285 20.2525 29.567 19.9335 30.0026 19.4976L39.1931 10.3144Z" stroke="white" stroke-width="2" stroke-linecap="round" stroke-linejoin="round"/>
</svg>
