<svg width="80" height="80" viewBox="0 0 80 80" fill="none" xmlns="http://www.w3.org/2000/svg">
<g clip-path="url(#clip0_1772_6744)">
<path d="M64.479 75.7721C65.1649 75.7721 65.8418 76.0331 66.3566 76.5303C69.6479 79.7085 74.4489 80.7668 78.7168 79.4422C75.9701 73.72 75.5895 67.1644 77.718 61.0945C80.3596 53.5424 81.0216 45.9729 78.0152 38.3812C75.374 31.7121 70.2772 26.1713 63.8267 23.0117C64.2235 25.1274 64.4235 27.283 64.4235 29.4614C64.4237 38.708 60.8681 47.4046 54.4123 53.9495C47.9556 60.4953 39.3006 64.1759 30.0418 64.3135C28.3216 64.3404 26.6091 64.2392 24.916 64.0161C30.0045 72.9355 39.6014 78.7446 50.1471 78.901C54.7604 78.9723 59.1899 78.0058 63.315 76.0359C63.6865 75.8582 64.0843 75.7721 64.479 75.7721Z" fill="#00B5E6"/>
<path d="M30.1183 0.00587804C13.6934 -0.320261 0.039693 12.9673 8.90619e-05 29.3886C-0.00961391 33.4007 0.773554 37.2906 2.32801 40.9508C2.35058 41.0041 2.37157 41.058 2.39058 41.1126C4.5191 47.1825 4.1387 53.738 1.39177 59.4603C5.66009 60.7843 10.4605 59.7267 13.752 56.5483C14.5629 55.7649 15.7761 55.5677 16.7936 56.054C20.9181 58.0239 25.3482 58.9934 29.9613 58.9193C46.2577 58.6774 59.0231 45.7378 59.0229 29.4611C59.0231 13.5397 46.0563 0.326274 30.1183 0.00587804ZM13.7698 33.8611C11.41 33.8611 9.49692 31.9512 9.49692 29.5954C9.49692 27.2395 11.41 25.3296 13.7698 25.3296C16.1296 25.3296 18.0427 27.2395 18.0427 29.5954C18.0425 31.9512 16.1296 33.8611 13.7698 33.8611ZM29.5116 33.8611C27.1518 33.8611 25.2387 31.9512 25.2387 29.5954C25.2387 27.2395 27.1518 25.3296 29.5116 25.3296C31.8714 25.3296 33.7844 27.2395 33.7844 29.5954C33.7844 31.9512 31.8714 33.8611 29.5116 33.8611ZM45.2536 33.8611C42.8937 33.8611 40.9807 31.9512 40.9807 29.5954C40.9807 27.2395 42.8937 25.3296 45.2536 25.3296C47.6134 25.3296 49.5264 27.2395 49.5264 29.5954C49.5264 31.9512 47.6134 33.8611 45.2536 33.8611Z" fill="#00B5E6"/>
</g>
<defs>
<clipPath id="clip0_1772_6744">
<rect width="80" height="80" fill="white"/>
</clipPath>
</defs>
</svg>
