<svg width="100" height="100" viewBox="0 0 100 100" fill="none" xmlns="http://www.w3.org/2000/svg">
<g clip-path="url(#clip0_1791_10465)">
<path fill-rule="evenodd" clip-rule="evenodd" d="M23.3332 14.5833H6.25C4.59375 14.5833 3.00001 15.2417 1.83334 16.4135C0.65626 17.5865 0 19.176 0 20.8333V79.1667C0 82.6187 2.80208 85.4167 6.25 85.4167H38.2917L43.6147 96.0531C44.823 98.4719 47.2917 100 50 100C52.7083 100 55.177 98.4719 56.3853 96.0531L61.7083 85.4167H93.75C97.1979 85.4167 100 82.6187 100 79.1667C100 67.1969 100 32.8031 100 20.8333C100 19.176 99.3437 17.5865 98.1667 16.4135C97 15.2417 95.4062 14.5833 93.75 14.5833H49.1458L47.8854 11.2094C47.25 9.48021 45.5938 8.33333 43.75 8.33333C41.9062 8.33333 40.25 9.48021 39.6146 11.2094L38.3647 14.5833H30.8334L31.2291 13.5219L34.3959 12.3469C35.6354 11.8854 36.4583 10.7 36.4583 9.375C36.4583 8.05 35.6354 6.86458 34.3959 6.40312L31.2291 5.22813L30.0522 2.06667C29.5939 0.82396 28.4062 0 27.0833 0C25.7604 0 24.5728 0.82396 24.1145 2.06667L22.9375 5.22813L19.7708 6.40312C18.5312 6.86458 17.7083 8.05 17.7083 9.375C17.7083 10.7 18.5312 11.8854 19.7708 12.3469L22.9375 13.5219L23.3332 14.5833ZM36.8126 18.75H6.25C5.69792 18.75 5.16676 18.9698 4.78134 19.3604C4.38551 19.751 4.16667 20.2812 4.16667 20.8333V79.1667C4.16667 80.3177 5.09375 81.25 6.25 81.25H39.5833C40.375 81.25 41.0938 81.6958 41.448 82.4021C41.448 82.4021 45.2187 89.9552 47.3437 94.1896C47.8437 95.1969 48.875 95.8333 50 95.8333C51.125 95.8333 52.1563 95.1969 52.6563 94.1896C54.7813 89.9552 58.552 82.4021 58.552 82.4021C58.9062 81.6958 59.625 81.25 60.4167 81.25H93.75C94.9062 81.25 95.8333 80.3177 95.8333 79.1667C95.8333 67.1969 95.8333 32.8031 95.8333 20.8333C95.8333 20.2812 95.6145 19.751 95.2187 19.3604C94.8332 18.9698 94.3021 18.75 93.75 18.75H50.6874L50.7812 19.0073L58.5833 21.9052C60.3125 22.5469 61.4583 24.1969 61.4583 26.0417C61.4583 27.8865 60.3125 29.5365 58.5833 30.1781L50.7812 33.076L47.8854 40.874C47.25 42.6031 45.5938 43.75 43.75 43.75C41.9062 43.75 40.25 42.6031 39.6146 40.874L36.7188 33.076L28.9167 30.1781C27.1875 29.5365 26.0417 27.8865 26.0417 26.0417C26.0417 24.1969 27.1875 22.5469 28.9167 21.9052L36.7188 19.0073L36.8126 18.75ZM66.802 35.7104L56.3853 62.7937C55.979 63.8667 56.5104 65.0729 57.5834 65.4865C58.6563 65.8989 59.8647 65.3625 60.2814 64.2896L70.698 37.2062C71.1043 36.1333 70.5729 34.9271 69.5 34.5135C68.427 34.101 67.2186 34.6375 66.802 35.7104ZM75.4583 40.8844L82.7499 50L75.4583 59.1156C74.7395 60.0135 74.8854 61.325 75.7812 62.0437C76.6771 62.7615 77.9896 62.6156 78.7084 61.7177L87.0417 51.301C87.6563 50.5406 87.6563 49.4594 87.0417 48.699L78.7084 38.2823C77.9896 37.3844 76.6771 37.2385 75.7812 37.9563C74.8854 38.675 74.7395 39.9865 75.4583 40.8844ZM37.5 60.4167H50C51.1458 60.4167 52.0833 59.4833 52.0833 58.3333C52.0833 57.1833 51.1458 56.25 50 56.25H37.5C36.3542 56.25 35.4167 57.1833 35.4167 58.3333C35.4167 59.4833 36.3542 60.4167 37.5 60.4167ZM15.625 60.4167H28.125C29.2708 60.4167 30.2083 59.4833 30.2083 58.3333C30.2083 57.1833 29.2708 56.25 28.125 56.25H15.625C14.4792 56.25 13.5417 57.1833 13.5417 58.3333C13.5417 59.4833 14.4792 60.4167 15.625 60.4167ZM43.9791 39.4229C43.9479 39.5187 43.8542 39.5833 43.75 39.5833C43.6458 39.5833 43.5521 39.5187 43.5209 39.4229L40.2916 30.7302C40.0728 30.1615 39.6354 29.7135 39.0625 29.5021L30.3645 26.2729C30.2707 26.2365 30.2083 26.1448 30.2083 26.0417C30.2083 25.9385 30.2707 25.8469 30.3645 25.8104L39.0625 22.5813C39.6354 22.3698 40.0728 21.9219 40.2916 21.3531L43.5209 12.6604C43.5521 12.5646 43.6458 12.5 43.75 12.5C43.8542 12.5 43.9479 12.5646 43.9791 12.6604L47.2084 21.3531C47.4272 21.9219 47.8646 22.3698 48.4375 22.5813L57.1355 25.8104C57.2293 25.8469 57.2917 25.9385 57.2917 26.0417C57.2917 26.1448 57.2293 26.2365 57.1355 26.2729L48.4375 29.5021C47.8646 29.7135 47.4272 30.1615 47.2084 30.7302L43.9791 39.4229ZM27.0833 6.03021L27.6563 7.57396C27.8646 8.14271 28.3125 8.59063 28.8854 8.80104L30.427 9.375L28.8854 9.94896C28.3125 10.1594 27.8646 10.6073 27.6563 11.176L27.0833 12.7198L26.5104 11.176C26.302 10.6073 25.8542 10.1594 25.2813 9.94896L23.7396 9.375L25.2813 8.80104C25.8542 8.59063 26.302 8.14271 26.5104 7.57396L27.0833 6.03021Z" fill="#6D30FB"/>
</g>
<defs>
<clipPath id="clip0_1791_10465">
<rect width="100" height="100" fill="white"/>
</clipPath>
</defs>
</svg>
