<svg width="100" height="100" viewBox="0 0 100 100" fill="none" xmlns="http://www.w3.org/2000/svg">
<g clip-path="url(#clip0_1791_10449)">
<path d="M23.9062 37.0797C23.9062 36.7171 23.7622 36.3694 23.5058 36.113C23.2494 35.8566 22.9017 35.7125 22.5391 35.7125C18.5101 35.7181 14.6477 37.3214 11.7991 40.1707C8.95056 43.02 7.3483 46.8827 7.34375 50.9117C7.34375 51.0913 7.37911 51.2691 7.44782 51.4349C7.51653 51.6008 7.61724 51.7515 7.74419 51.8785C7.87115 52.0054 8.02186 52.1062 8.18774 52.1749C8.35361 52.2436 8.5314 52.2789 8.71094 52.2789C8.89048 52.2789 9.06826 52.2436 9.23414 52.1749C9.40001 52.1062 9.55073 52.0054 9.67769 51.8785C9.80464 51.7515 9.90535 51.6008 9.97405 51.4349C10.0428 51.2691 10.0781 51.0913 10.0781 50.9117C10.0818 47.6075 11.3959 44.4397 13.732 42.103C16.0681 39.7663 19.2356 38.4514 22.5398 38.4469C22.9023 38.4467 23.2499 38.3026 23.5061 38.0462C23.7623 37.7898 23.9062 37.4422 23.9062 37.0797Z" fill="#6D30FB"/>
<path d="M35.7898 7.86877C33.6863 7.87126 31.6696 8.70799 30.1821 10.1954C28.6947 11.6829 27.8579 13.6996 27.8555 15.8032C27.8555 16.1658 27.9995 16.5135 28.2559 16.7699C28.5123 17.0263 28.8601 17.1703 29.2227 17.1703C29.5853 17.1703 29.933 17.0263 30.1894 16.7699C30.4458 16.5135 30.5898 16.1658 30.5898 15.8032C30.5898 14.4239 31.1377 13.1012 32.113 12.1259C33.0883 11.1507 34.411 10.6028 35.7902 10.6028C37.1695 10.6028 38.4922 11.1507 39.4675 12.1259C40.4427 13.1012 40.9906 14.4239 40.9906 15.8032C40.9906 16.1658 41.1347 16.5135 41.3911 16.7699C41.6475 17.0263 41.9952 17.1703 42.3578 17.1703C42.7204 17.1703 43.0682 17.0263 43.3246 16.7699C43.581 16.5135 43.725 16.1658 43.725 15.8032C43.7225 13.6994 42.8857 11.6826 41.3981 10.1952C39.9104 8.7077 37.8935 7.87105 35.7898 7.86877Z" fill="#6D30FB"/>
<path d="M28.0293 27.8562H28.6152C30.3985 27.8581 32.1081 28.5673 33.369 29.8282C34.6299 31.0891 35.3392 32.7988 35.341 34.582V39.0015C35.3392 40.7847 34.6299 42.4944 33.369 43.7553C32.1081 45.0162 30.3985 45.7254 28.6152 45.7273C28.2526 45.7273 27.9049 45.8713 27.6485 46.1277C27.3921 46.3841 27.248 46.7319 27.248 47.0945C27.248 47.4571 27.3921 47.8048 27.6485 48.0612C27.9049 48.3176 28.2526 48.4617 28.6152 48.4617C31.1233 48.4588 33.5279 47.4612 35.3014 45.6877C37.0749 43.9142 38.0725 41.5096 38.0754 39.0015V34.582C38.0725 32.0739 37.0749 29.6693 35.3014 27.8958C33.5279 26.1223 31.1233 25.1247 28.6152 25.1218H28.0293C27.6667 25.1218 27.3189 25.2659 27.0626 25.5223C26.8062 25.7787 26.6621 26.1264 26.6621 26.489C26.6621 26.8516 26.8062 27.1994 27.0626 27.4558C27.3189 27.7122 27.6667 27.8562 28.0293 27.8562Z" fill="#6D30FB"/>
<path d="M36.7188 62.2312C37.0814 62.2312 37.4291 62.0872 37.6855 61.8308C37.9419 61.5744 38.0859 61.2266 38.0859 60.864C38.0859 60.5014 37.9419 60.1537 37.6855 59.8973C37.4291 59.6409 37.0814 59.4968 36.7188 59.4968H28.9062C26.809 59.4946 24.7984 58.6604 23.3154 57.1775C21.8325 55.6945 20.9984 53.6839 20.9961 51.5867C20.9961 51.2241 20.8521 50.8763 20.5957 50.6199C20.3393 50.3635 19.9915 50.2195 19.6289 50.2195C19.2663 50.2195 18.9186 50.3635 18.6622 50.6199C18.4058 50.8763 18.2617 51.2241 18.2617 51.5867C18.265 54.4088 19.3876 57.1143 21.3831 59.1098C23.3786 61.1054 26.0842 62.2279 28.9062 62.2312H36.7188Z" fill="#6D30FB"/>
<path d="M41.6992 78.4421C39.1101 78.4392 36.6279 77.4094 34.7971 75.5787C32.9663 73.7479 31.9365 71.2656 31.9336 68.6765C31.9336 68.3139 31.7896 67.9662 31.5332 67.7098C31.2768 67.4534 30.929 67.3093 30.5664 67.3093C30.2038 67.3093 29.8561 67.4534 29.5997 67.7098C29.3433 67.9662 29.1992 68.3139 29.1992 68.6765C29.2029 71.9906 30.5211 75.1678 32.8645 77.5112C35.2079 79.8546 38.3852 81.1728 41.6992 81.1765C42.0618 81.1765 42.4096 81.0325 42.666 80.7761C42.9224 80.5197 43.0664 80.1719 43.0664 79.8093C43.0664 79.4467 42.9224 79.099 42.666 78.8426C42.4096 78.5862 42.0618 78.4421 41.6992 78.4421Z" fill="#6D30FB"/>
<path d="M22.3005 75.5961C21.2047 75.4309 20.2192 74.8377 19.5601 73.9468C18.9011 73.0559 18.6223 71.94 18.7848 70.8438C18.814 70.6651 18.8075 70.4824 18.7655 70.3063C18.7235 70.1302 18.647 69.9641 18.5403 69.8178C18.4336 69.6715 18.299 69.5479 18.1441 69.4541C17.9893 69.3602 17.8174 69.2981 17.6383 69.2712C17.4593 69.2444 17.2767 69.2534 17.1011 69.2976C16.9255 69.3419 16.7605 69.4207 16.6157 69.5292C16.4708 69.6378 16.3489 69.7741 16.2571 69.9302C16.1653 70.0862 16.1054 70.2589 16.0809 70.4383C15.8117 72.2517 16.2727 74.0978 17.3628 75.5718C18.4529 77.0457 20.0831 78.0272 21.8958 78.3008C21.9633 78.3106 22.0315 78.3156 22.0997 78.3157C22.4448 78.3156 22.7772 78.1851 23.0301 77.9502C23.2829 77.7152 23.4376 77.3934 23.463 77.0492C23.4884 76.7049 23.3827 76.3639 23.1671 76.0943C22.9515 75.8248 22.6419 75.6469 22.3005 75.5961Z" fill="#6D30FB"/>
<path d="M36.1328 90.0344C34.5793 90.0328 33.0899 89.4149 31.9914 88.3164C30.8929 87.2179 30.2751 85.7285 30.2734 84.175C30.2734 83.8124 30.1294 83.4647 29.873 83.2083C29.6166 82.9519 29.2689 82.8079 28.9062 82.8079C28.5436 82.8079 28.1959 82.9519 27.9395 83.2083C27.6831 83.4647 27.5391 83.8124 27.5391 84.175C27.5415 86.4535 28.4478 88.6379 30.0589 90.249C31.67 91.8601 33.8544 92.7663 36.1328 92.7688C36.4954 92.7688 36.8432 92.6248 37.0996 92.3684C37.356 92.112 37.5 91.7642 37.5 91.4016C37.5 91.039 37.356 90.6913 37.0996 90.4349C36.8432 90.1785 36.4954 90.0344 36.1328 90.0344Z" fill="#6D30FB"/>
<path d="M94.5792 55.0047C93.617 55.0056 92.6728 55.2646 91.8448 55.7547L74.1104 38.0203C73.8541 37.7638 73.5065 37.6197 73.144 37.6195H51.3667V29.1586H89.3409C89.6734 30.4341 90.4593 31.5448 91.5516 32.2828C92.6439 33.0207 93.9676 33.3353 95.2751 33.1677C96.5826 33.0001 97.7842 32.3618 98.655 31.3722C99.5259 30.3826 100.006 29.1096 100.006 27.7914C100.006 26.4732 99.5259 25.2002 98.655 24.2106C97.7842 23.221 96.5826 22.5827 95.2751 22.4151C93.9676 22.2474 92.6439 22.5621 91.5516 23.3C90.4593 24.0379 89.6734 25.1486 89.3409 26.4242H51.3667V20.3047H73.144C73.5065 20.3045 73.8541 20.1603 74.1104 19.9039L79.9698 14.0445C81.1413 14.6543 82.4949 14.8163 83.7773 14.5C85.0596 14.1838 86.1828 13.4111 86.9365 12.3265C87.6902 11.242 88.0228 9.9199 87.8721 8.60778C87.7214 7.29565 87.0976 6.08344 86.1176 5.19803C85.1376 4.31262 83.8685 3.81472 82.5478 3.79751C81.2272 3.78031 79.9456 4.24499 78.9428 5.10457C77.9401 5.96415 77.285 7.15971 77.1001 8.46746C76.9152 9.77521 77.2133 11.1055 77.9385 12.2093L72.5776 17.5703H51.3667V15.5031C51.3638 11.4784 49.8031 7.61101 47.0119 4.71149C44.2206 1.81198 40.4154 0.105413 36.3937 -0.0505455C32.372 -0.206504 28.446 1.20025 25.4386 3.8749C22.4312 6.54954 20.5758 10.2844 20.2612 14.2968C17.06 14.7672 14.1346 16.3732 12.0192 18.8215C9.90382 21.2698 8.7394 24.3972 8.73853 27.6328C8.73704 29.2761 9.04007 30.9054 9.63228 32.4382C6.70151 34.4854 4.29974 37.2004 2.62528 40.3589C0.950815 43.5175 0.0516968 47.029 0.00216393 50.6036C-0.0473689 54.1782 0.754104 57.7134 2.34041 60.9171C3.92671 64.1208 6.25233 66.9013 9.12525 69.0289C8.67897 70.8517 8.6185 72.7476 8.94773 74.5951C9.27696 76.4426 9.98861 78.201 11.0371 79.7574C12.0855 81.3138 13.4476 82.634 15.0361 83.6333C16.6245 84.6325 18.4043 85.2888 20.2612 85.5601C20.5758 89.5727 22.4313 93.3077 25.4389 95.9823C28.4465 98.657 32.3727 100.064 36.3945 99.9075C40.4163 99.7513 44.2215 98.0444 47.0127 95.1446C49.8038 92.2448 51.3642 88.3772 51.3667 84.3523V84.1086H66.3276L72.1542 91.5132C71.3836 92.5906 71.0323 93.912 71.1659 95.2298C71.2996 96.5476 71.909 97.7715 72.8802 98.6723C73.8514 99.573 75.1176 100.089 76.4417 100.123C77.7658 100.157 79.0571 99.7079 80.0735 98.8586C81.09 98.0093 81.762 96.8186 81.9637 95.5095C82.1654 94.2004 81.8829 92.8626 81.1692 91.7468C80.4555 90.6309 79.3595 89.8135 78.0864 89.4477C76.8134 89.0819 75.4506 89.1927 74.2534 89.7593L68.0659 81.8961C67.938 81.7335 67.7748 81.602 67.5888 81.5116C67.4027 81.4212 67.1985 81.3742 66.9917 81.3742H51.3667V73.1711H65.8057C66.1382 74.4466 66.9241 75.5573 68.0164 76.2953C69.1087 77.0332 70.4325 77.3478 71.74 77.1802C73.0475 77.0126 74.2491 76.3743 75.1199 75.3847C75.9907 74.3951 76.4711 73.1221 76.4711 71.8039C76.4711 70.4857 75.9907 69.2127 75.1199 68.2231C74.2491 67.2335 73.0475 66.5952 71.74 66.4276C70.4325 66.2599 69.1087 66.5745 68.0164 67.3125C66.9241 68.0504 66.1382 69.1611 65.8057 70.4367H51.3667V62.2336H74.3987C74.7312 63.5091 75.5171 64.6198 76.6094 65.3578C77.7017 66.0957 79.0254 66.4103 80.3329 66.2427C81.6404 66.0751 82.842 65.4368 83.7129 64.4472C84.5837 63.4576 85.0641 62.1846 85.0641 60.8664C85.0641 59.5482 84.5837 58.2752 83.7129 57.2856C82.842 56.296 81.6404 55.6577 80.3329 55.4901C79.0254 55.3224 77.7017 55.6371 76.6094 56.375C75.5171 57.1129 74.7312 58.2236 74.3987 59.4992H51.3667V51.2961H59.5846C59.9484 52.5632 60.7616 53.6544 61.8718 54.3653C62.9821 55.0763 64.3133 55.3583 65.6165 55.1585C66.9196 54.9588 68.1053 54.2911 68.9517 53.2802C69.798 52.2694 70.247 50.9848 70.2147 49.6669C70.1823 48.3489 69.6707 47.0879 68.7757 46.1199C67.8808 45.1518 66.6637 44.5431 65.3523 44.4076C64.0409 44.2721 62.7251 44.6192 61.6511 45.3838C60.5771 46.1484 59.8186 47.2782 59.5174 48.5617H51.3667V40.3586H72.5776L89.9096 57.6898C89.3075 58.7202 89.0626 59.9206 89.2131 61.1045C89.3635 62.2884 89.9009 63.3894 90.7416 64.2364C91.5824 65.0834 92.6794 65.629 93.8621 65.7882C95.0448 65.9475 96.2471 65.7116 97.2819 65.1171C98.3167 64.5227 99.1262 63.603 99.5844 62.5011C100.043 61.3992 100.124 60.1767 99.816 59.0238C99.5078 57.8708 98.8275 56.852 97.8806 56.1256C96.9337 55.3992 95.7734 55.0059 94.5799 55.007L94.5792 55.0047ZM94.5792 25.1054C95.1104 25.1053 95.6298 25.2627 96.0716 25.5577C96.5134 25.8528 96.8578 26.2722 97.0612 26.763C97.2646 27.2537 97.3179 27.7938 97.2144 28.3149C97.1108 28.836 96.8551 29.3146 96.4795 29.6903C96.1039 30.0661 95.6253 30.3219 95.1042 30.4256C94.5832 30.5293 94.0431 30.4762 93.5523 30.2729C93.0614 30.0697 92.6419 29.7254 92.3467 29.2837C92.0515 28.842 91.894 28.3226 91.894 27.7914C91.8946 27.0793 92.1777 26.3966 92.6811 25.8931C93.1845 25.3895 93.8671 25.1063 94.5792 25.1054ZM82.4698 6.54997C83.0009 6.54997 83.52 6.70745 83.9616 7.0025C84.4031 7.29755 84.7473 7.71691 84.9505 8.20756C85.1538 8.69821 85.207 9.2381 85.1033 9.75897C84.9997 10.2798 84.744 10.7583 84.3685 11.1338C83.993 11.5093 83.5145 11.7651 82.9936 11.8687C82.4728 11.9723 81.9329 11.9191 81.4422 11.7159C80.9516 11.5127 80.5322 11.1685 80.2372 10.7269C79.9421 10.2853 79.7846 9.7662 79.7846 9.23512C79.7855 8.52323 80.0686 7.84073 80.572 7.33735C81.0754 6.83396 81.7579 6.5508 82.4698 6.54997ZM79.2471 94.6531C79.2471 95.1842 79.0896 95.7033 78.7946 96.1449C78.4995 96.5865 78.0802 96.9306 77.5895 97.1339C77.0989 97.3371 76.559 97.3903 76.0381 97.2867C75.5173 97.183 75.0388 96.9273 74.6633 96.5518C74.2878 96.1763 74.032 95.6978 73.9284 95.1769C73.8248 94.6561 73.878 94.1162 74.0812 93.6255C74.2844 93.1349 74.6286 92.7155 75.0702 92.4205C75.5117 92.1254 76.0309 91.9679 76.562 91.9679C77.2739 91.9688 77.9564 92.2519 78.4597 92.7553C78.9631 93.2587 79.2463 93.9412 79.2471 94.6531ZM71.044 69.1164C71.5753 69.1162 72.0947 69.2736 72.5365 69.5687C72.9783 69.8638 73.3227 70.2833 73.5261 70.7741C73.7295 71.2649 73.7828 71.805 73.6791 72.3261C73.5755 72.8472 73.3197 73.3259 72.944 73.7016C72.5683 74.0772 72.0897 74.3331 71.5686 74.4367C71.0475 74.5403 70.5074 74.487 70.0166 74.2836C69.5257 74.0803 69.1063 73.7359 68.8112 73.2941C68.5161 72.8522 68.3587 72.3328 68.3588 71.8015C68.3597 71.0896 68.6428 70.4071 69.1462 69.9037C69.6496 69.4004 70.3321 69.1172 71.044 69.1164ZM79.6377 58.1789C80.169 58.1787 80.6885 58.3361 81.1303 58.6312C81.5721 58.9263 81.9165 59.3458 82.1199 59.8366C82.3232 60.3274 82.3765 60.8675 82.2729 61.3886C82.1693 61.9097 81.9135 62.3884 81.5378 62.7641C81.1621 63.1397 80.6834 63.3956 80.1623 63.4992C79.6412 63.6028 79.1011 63.5495 78.6103 63.3461C78.1195 63.1428 77.7 62.7984 77.4049 62.3566C77.1099 61.9147 76.9524 61.3953 76.9526 60.864C76.9534 60.1521 77.2366 59.4696 77.74 58.9663C78.2434 58.4629 78.9259 58.1797 79.6377 58.1789ZM64.7893 47.1093C65.3206 47.1092 65.84 47.2666 66.2818 47.5616C66.7236 47.8567 67.0679 48.2761 67.2714 48.7669C67.4748 49.2577 67.5281 49.7977 67.4245 50.3188C67.321 50.8399 67.0652 51.3185 66.6896 51.6942C66.314 52.07 65.8354 52.3258 65.3144 52.4295C64.7933 52.5332 64.2532 52.4801 63.7624 52.2768C63.2716 52.0736 62.852 51.7293 62.5569 51.2876C62.2617 50.8459 62.1042 50.3265 62.1042 49.7953C62.1048 49.0833 62.3878 48.4006 62.8913 47.897C63.3947 47.3934 64.0773 47.1102 64.7893 47.1093ZM48.6323 84.3507C48.6102 87.7395 47.2495 90.9821 44.8469 93.372C42.4443 95.7618 39.1944 97.1051 35.8056 97.1092C32.4168 97.1132 29.1638 95.7776 26.7555 93.3934C24.3472 91.0093 22.9788 87.7699 22.9487 84.3812C22.9487 84.3593 22.9487 84.3359 22.9487 84.3179C22.9488 83.9678 22.8146 83.6311 22.5737 83.377C22.3329 83.1229 22.0037 82.9709 21.6542 82.9523C20.0068 82.8673 18.4011 82.4038 16.9618 81.5979C15.5224 80.792 14.2881 79.6653 13.3547 78.3052C12.4212 76.9451 11.8137 75.3882 11.5792 73.7554C11.3447 72.1225 11.4896 70.4576 12.0026 68.8898C12.0946 68.6075 12.0921 68.3029 11.9956 68.0221C11.899 67.7413 11.7136 67.4996 11.4674 67.3336C8.72776 65.487 6.49355 62.9844 4.96829 60.0536C3.44303 57.1229 2.67518 53.8571 2.73466 50.5537C2.79414 47.2504 3.67907 44.0144 5.30885 41.1404C6.93864 38.2665 9.26149 35.8459 12.0659 34.0992C12.3528 33.9202 12.5632 33.6412 12.6564 33.3161C12.7496 32.991 12.719 32.6429 12.5706 32.339C11.7884 30.7451 11.4141 28.9819 11.4812 27.2076C11.5484 25.4333 12.055 23.7034 12.9555 22.1732C13.8561 20.643 15.1223 19.3602 16.6408 18.44C18.1593 17.5198 19.8825 16.9909 21.6557 16.9007C22.0053 16.8821 22.3344 16.7301 22.5753 16.4761C22.8161 16.222 22.9503 15.8852 22.9503 15.5351C22.9503 15.5179 22.9503 15.4953 22.9503 15.4726C22.9803 12.084 24.3485 8.84453 26.7568 6.46032C29.165 4.07612 32.418 2.74043 35.8068 2.74435C39.1956 2.74826 42.4455 4.09147 44.8482 6.48124C47.2509 8.871 48.6116 12.1136 48.6338 15.5023L48.6323 84.3507ZM94.5792 63.1109C94.0479 63.1109 93.5286 62.9534 93.0869 62.6582C92.6451 62.363 92.3009 61.9435 92.0976 61.4526C91.8943 60.9618 91.8412 60.4217 91.9449 59.9007C92.0486 59.3796 92.3045 58.901 92.6802 58.5254C93.0559 58.1498 93.5346 57.8941 94.0556 57.7905C94.5767 57.687 95.1168 57.7403 95.6076 57.9437C96.0983 58.1471 96.5178 58.4915 96.8128 58.9333C97.1079 59.3751 97.2653 59.8945 97.2651 60.4257C97.2641 61.1376 96.9807 61.8201 96.4772 62.3233C95.9736 62.8265 95.291 63.1103 94.5792 63.1109Z" fill="#6D30FB"/>
<path d="M90.5266 35.2781C89.4545 35.2779 88.4065 35.5957 87.515 36.1912C86.6235 36.7867 85.9287 37.6332 85.5183 38.6236C85.1079 39.614 85.0005 40.7039 85.2095 41.7554C85.4186 42.8068 85.9348 43.7727 86.6928 44.5309C87.4508 45.289 88.4166 45.8053 89.468 46.0145C90.5195 46.2237 91.6094 46.1164 92.5999 45.7062C93.5903 45.296 94.4369 44.6012 95.0326 43.7098C95.6282 42.8185 95.9461 41.7705 95.9461 40.6984C95.9444 39.2615 95.373 37.8839 94.357 36.8678C93.341 35.8516 91.9635 35.2799 90.5266 35.2781ZM90.5266 43.3835C89.9953 43.3837 89.4759 43.2263 89.034 42.9312C88.5922 42.6361 88.2478 42.2167 88.0444 41.7258C87.8411 41.235 87.7878 40.6949 87.8914 40.1738C87.995 39.6527 88.2509 39.174 88.6265 38.7984C89.0022 38.4227 89.4809 38.1669 90.002 38.0632C90.5231 37.9596 91.0632 38.0129 91.554 38.2163C92.0448 38.4197 92.4643 38.7641 92.7594 39.2059C93.0545 39.6477 93.2119 40.1671 93.2117 40.6984C93.2109 41.4103 92.9277 42.0928 92.4243 42.5962C91.921 43.0996 91.2385 43.3827 90.5266 43.3835Z" fill="#6D30FB"/>
<path d="M90.5266 72.4274C89.4545 72.4272 88.4065 72.745 87.515 73.3405C86.6235 73.936 85.9287 74.7825 85.5183 75.7729C85.1079 76.7633 85.0005 77.8532 85.2095 78.9047C85.4186 79.9561 85.9348 80.922 86.6928 81.6801C87.4508 82.4383 88.4166 82.9546 89.468 83.1638C90.5195 83.373 91.6094 83.2657 92.5999 82.8555C93.5903 82.4452 94.4369 81.7505 95.0326 80.8591C95.6282 79.9677 95.9461 78.9197 95.9461 77.8477C95.9444 76.4108 95.373 75.0332 94.357 74.017C93.341 73.0009 91.9635 72.4292 90.5266 72.4274ZM90.5266 80.5328C89.9953 80.533 89.4759 80.3756 89.0341 80.0806C88.5923 79.7855 88.2479 79.3661 88.0445 78.8753C87.8411 78.3845 87.7878 77.8444 87.8914 77.3234C87.9949 76.8023 88.2507 76.3236 88.6263 75.9479C89.0019 75.5722 89.4805 75.3163 90.0015 75.2126C90.5225 75.1089 91.0626 75.1621 91.5535 75.3653C92.0443 75.5686 92.4638 75.9129 92.759 76.3546C93.0542 76.7963 93.2117 77.3156 93.2117 77.8469C93.2111 78.5589 92.928 79.2416 92.4246 79.7452C91.9212 80.2487 91.2386 80.532 90.5266 80.5328Z" fill="#6D30FB"/>
</g>
<defs>
<clipPath id="clip0_1791_10449">
<rect width="100" height="100" fill="white"/>
</clipPath>
</defs>
</svg>
