<svg width="100" height="100" viewBox="0 0 100 100" fill="none" xmlns="http://www.w3.org/2000/svg">
<path fill-rule="evenodd" clip-rule="evenodd" d="M51.041 6.25H10.416C8.75977 6.25 7.16603 6.90834 5.99936 8.08021C4.82228 9.25313 4.16602 10.8427 4.16602 12.5V93.75C4.16602 97.2021 6.9681 100 10.416 100H72.916C76.3639 100 79.166 97.2021 79.166 93.75C79.166 83.1969 79.166 56.25 79.166 56.25C79.166 55.1 78.2285 54.1667 77.0827 54.1667C75.9368 54.1667 74.9993 55.1 74.9993 56.25V93.75C74.9993 94.901 74.0723 95.8333 72.916 95.8333H10.416C9.25977 95.8333 8.33268 94.901 8.33268 93.75C8.33268 78.7375 8.33268 27.5125 8.33268 12.5C8.33268 11.9479 8.55152 11.4177 8.94736 11.0271C9.33277 10.6365 9.86393 10.4167 10.416 10.4167H51.041C52.1868 10.4167 53.1243 9.48333 53.1243 8.33333C53.1243 7.18333 52.1868 6.25 51.041 6.25ZM20.3118 77.0833H63.0202C64.166 77.0833 65.1035 76.15 65.1035 75C65.1035 73.85 64.166 72.9167 63.0202 72.9167H20.3118C19.166 72.9167 18.2285 73.85 18.2285 75C18.2285 76.15 19.166 77.0833 20.3118 77.0833ZM20.3118 65.625H63.0202C64.166 65.625 65.1035 64.6917 65.1035 63.5417C65.1035 62.3917 64.166 61.4583 63.0202 61.4583H20.3118C19.166 61.4583 18.2285 62.3917 18.2285 63.5417C18.2285 64.6917 19.166 65.625 20.3118 65.625ZM39.5827 30.2083H20.8327C19.6868 30.2083 18.7493 31.1417 18.7493 32.2917C18.7493 33.4417 19.6868 34.375 20.8327 34.375H28.1243V55.2083C28.1243 56.3583 29.0618 57.2917 30.2077 57.2917C31.3535 57.2917 32.291 56.3583 32.291 55.2083V34.375H39.5827C40.7285 34.375 41.666 33.4417 41.666 32.2917C41.666 31.1417 40.7285 30.2083 39.5827 30.2083ZM42.1868 55.2083H63.0202C64.166 55.2083 65.1035 54.275 65.1035 53.125C65.1035 51.975 64.166 51.0417 63.0202 51.0417H42.1868C41.041 51.0417 40.1035 51.975 40.1035 53.125C40.1035 54.275 41.041 55.2083 42.1868 55.2083ZM85.2494 28.4437C84.9474 27.626 84.166 27.0833 83.3014 27.0833C82.4264 27.0833 81.6453 27.626 81.3432 28.4437L78.8639 35.149L72.1556 37.6292C71.3431 37.9323 70.8014 38.7115 70.8014 39.5833C70.8014 40.4552 71.3431 41.2344 72.1556 41.5375L78.8639 44.0177L81.3432 50.7229C81.6453 51.5406 82.4264 52.0833 83.3014 52.0833C84.166 52.0833 84.9474 51.5406 85.2494 50.7229L87.7285 44.0177L94.4368 41.5375C95.2597 41.2344 95.8014 40.4552 95.8014 39.5833C95.8014 38.7115 95.2597 37.9323 94.4368 37.6292L87.7285 35.149L85.2494 28.4437ZM47.916 44.7917H56.2493C57.3952 44.7917 58.3327 43.8583 58.3327 42.7083C58.3327 41.5583 57.3952 40.625 56.2493 40.625H47.916C46.7702 40.625 45.8327 41.5583 45.8327 42.7083C45.8327 43.8583 46.7702 44.7917 47.916 44.7917ZM83.3014 35.1698L84.1556 37.4927C84.364 38.0635 84.8222 38.5125 85.3847 38.724L87.7076 39.5833L85.3847 40.4427C84.8222 40.6542 84.364 41.1031 84.1556 41.674L83.3014 43.9969L82.4367 41.674C82.2284 41.1031 81.7806 40.6542 81.2076 40.4427L78.8847 39.5833L81.2076 38.724C81.7806 38.5125 82.2284 38.0635 82.4367 37.4927L83.3014 35.1698ZM66.5409 1.36042C66.2388 0.542708 65.4577 0 64.5827 0C63.7077 0 62.9266 0.542708 62.6245 1.36042L57.614 14.9083L44.0723 19.9208C43.2494 20.2239 42.7077 21.0031 42.7077 21.875C42.7077 22.7469 43.2494 23.526 44.0723 23.8292L57.614 28.8417L62.6245 42.3896C62.9266 43.2073 63.7077 43.75 64.5827 43.75C65.4577 43.75 66.2388 43.2073 66.5409 42.3896L71.5514 28.8417L85.093 23.8292C85.916 23.526 86.4577 22.7469 86.4577 21.875C86.4577 21.0031 85.916 20.2239 85.093 19.9208L71.5514 14.9083L66.5409 1.36042ZM64.5827 8.08646L67.9785 17.2521C68.1869 17.8229 68.6347 18.2719 69.2076 18.4833L78.3743 21.875L69.2076 25.2667C68.6347 25.4781 68.1869 25.9271 67.9785 26.4979L64.5827 35.6635L61.1868 26.4979C60.9785 25.9271 60.5307 25.4781 59.9577 25.2667L50.791 21.875L59.9577 18.4833C60.5307 18.2719 60.9785 17.8229 61.1868 17.2521L64.5827 8.08646ZM47.916 34.375H52.0827C53.2285 34.375 54.166 33.4417 54.166 32.2917C54.166 31.1417 53.2285 30.2083 52.0827 30.2083H47.916C46.7702 30.2083 45.8327 31.1417 45.8327 32.2917C45.8327 33.4417 46.7702 34.375 47.916 34.375ZM81.2493 7.29167H79.166C78.0202 7.29167 77.0827 8.225 77.0827 9.375C77.0827 10.525 78.0202 11.4583 79.166 11.4583H81.2493V13.5417C81.2493 14.6917 82.1868 15.625 83.3327 15.625C84.4785 15.625 85.416 14.6917 85.416 13.5417V11.4583H87.4993C88.6452 11.4583 89.5827 10.525 89.5827 9.375C89.5827 8.225 88.6452 7.29167 87.4993 7.29167H85.416V5.20833C85.416 4.05833 84.4785 3.125 83.3327 3.125C82.1868 3.125 81.2493 4.05833 81.2493 5.20833V7.29167Z" fill="#6D30FB"/>
</svg>
