<svg width="74" height="74" viewBox="0 0 74 74" fill="none" xmlns="http://www.w3.org/2000/svg">
<path d="M61.6565 73.63H12.3429C10.1008 73.636 7.94776 72.753 6.35545 71.1745C4.76314 69.5961 3.86136 67.4509 3.84766 65.2088V62.8556C3.84859 62.6951 3.88411 62.5367 3.95179 62.3911C4.01947 62.2455 4.11772 62.1162 4.23986 62.012L23.0951 46.0946C23.2951 45.9266 23.5479 45.8344 23.8092 45.8344C24.0704 45.8344 24.3233 45.9266 24.5233 46.0946L35.6233 55.4408L53.3981 40.4114C53.5981 40.2434 53.8509 40.1512 54.1122 40.1512C54.3734 40.1512 54.6263 40.2434 54.8263 40.4114L69.7595 52.9914C69.8816 53.0956 69.9798 53.2249 70.0475 53.3705C70.1152 53.5161 70.1507 53.6745 70.1517 53.835V65.2088C70.138 67.4509 69.2362 69.5961 67.6439 71.1745C66.0516 72.753 63.8985 73.636 61.6565 73.63ZM6.06766 63.3736V65.2088C6.0794 66.8627 6.74666 68.4444 7.92306 69.6069C9.09947 70.7695 10.689 71.4179 12.3429 71.41H61.6565C63.3103 71.4179 64.8998 70.7695 66.0762 69.6069C67.2527 68.4444 67.9199 66.8627 67.9317 65.2088V54.3752L54.1085 42.7128L36.3115 57.72C36.1103 57.8887 35.8562 57.9811 35.5937 57.9811C35.3312 57.9811 35.077 57.8887 34.8759 57.72L23.7759 48.3738L6.06766 63.3736Z" fill="#0D0D0D"/>
<path d="M4.95766 63.9656C4.79634 63.9676 4.63676 63.9321 4.49146 63.862C4.2988 63.7739 4.13562 63.6321 4.02144 63.4536C3.90727 63.2751 3.84694 63.0675 3.84766 62.8556V33.4184C3.86136 31.1764 4.76314 29.0312 6.35545 27.4527C7.94777 25.8743 10.1008 24.9913 12.3429 24.9972H61.6565C63.8985 24.9913 66.0516 25.8743 67.6439 27.4527C69.2362 29.0312 70.138 31.1764 70.1517 33.4184V53.8572C70.1525 54.0694 70.0925 54.2773 69.9788 54.4564C69.8651 54.6355 69.7025 54.7783 69.5102 54.8678C69.3179 54.9574 69.1039 54.9899 68.8937 54.9616C68.6834 54.9333 68.4857 54.8454 68.3239 54.7082L54.1085 42.7128L36.3115 57.72C36.1103 57.8886 35.8562 57.9811 35.5937 57.9811C35.3312 57.9811 35.077 57.8886 34.8759 57.72L23.7759 48.3738L5.67546 63.7066C5.47369 63.874 5.2198 63.9656 4.95766 63.9656ZM12.3577 27.2172C11.5375 27.2114 10.7242 27.3671 9.96417 27.6756C9.20418 27.9841 8.51239 28.4392 7.92831 29.0151C7.34422 29.5909 6.87928 30.2762 6.56003 31.0317C6.24078 31.7872 6.07347 32.5982 6.06766 33.4184V60.4654L23.0877 46.0946C23.2877 45.9266 23.5405 45.8344 23.8018 45.8344C24.063 45.8344 24.3159 45.9266 24.5159 46.0946L35.6159 55.4408L53.3981 40.4114C53.5981 40.2434 53.8509 40.1512 54.1122 40.1512C54.3734 40.1512 54.6263 40.2434 54.8263 40.4114L67.9317 51.5114V33.4184C67.9199 31.7646 67.2527 30.1829 66.0763 29.0203C64.8998 27.8578 63.3104 27.2093 61.6565 27.2172H12.3577Z" fill="#0D0D0D"/>
<path d="M37.0002 45.6876C36.468 45.6874 35.9381 45.6178 35.424 45.4804C34.4368 45.2152 33.5366 44.6952 32.8137 43.9725C32.0909 43.2497 31.5707 42.3496 31.3054 41.3625C31.04 40.3753 31.0388 39.3358 31.3019 38.348C31.565 37.3602 32.0831 36.459 32.8044 35.7346C33.5444 34.9906 34.4688 34.4567 35.4831 34.1876C36.4973 33.9184 37.5648 33.9237 38.5764 34.2028C39.5558 34.4629 40.4502 34.9747 41.1707 35.6874C41.8911 36.4001 42.4126 37.2888 42.6834 38.2654C42.9206 39.137 42.9532 40.0516 42.7785 40.9379C42.6038 41.8242 42.2267 42.6581 41.6765 43.3745C41.1263 44.0909 40.4179 44.6704 39.6067 45.0678C38.7955 45.4652 37.9035 45.6697 37.0002 45.6654V45.6876ZM37.0002 36.2156C36.5122 36.2147 36.0288 36.3104 35.578 36.4971C35.1271 36.6838 34.7177 36.9578 34.3732 37.3034C33.9207 37.759 33.5974 38.3265 33.4362 38.948C33.275 39.5694 33.2817 40.2226 33.4556 40.8406C33.6227 41.4387 33.9426 41.9831 34.3837 42.4203C34.8248 42.8575 35.372 43.1725 35.9716 43.3344C36.6087 43.5108 37.2811 43.5155 37.9206 43.3478C38.5601 43.1801 39.1438 42.8462 39.6124 42.3798C40.0648 41.9242 40.3881 41.3567 40.5493 40.7352C40.7105 40.1138 40.7039 39.4606 40.53 38.8426C40.3628 38.2445 40.043 37.7001 39.6019 37.2629C39.1608 36.8257 38.6136 36.5107 38.014 36.3488C37.6831 36.2614 37.3424 36.2166 37.0002 36.2156Z" fill="#0D0D0D"/>
<path d="M36.9996 27.2172C36.7053 27.2172 36.4229 27.1002 36.2148 26.8921C36.0066 26.6839 35.8896 26.4016 35.8896 26.1072V11.8992C35.8896 11.6048 36.0066 11.3225 36.2148 11.1143C36.4229 10.9061 36.7053 10.7892 36.9996 10.7892C37.294 10.7892 37.5764 10.9061 37.7845 11.1143C37.9927 11.3225 38.1096 11.6048 38.1096 11.8992V26.1072C38.1096 26.4016 37.9927 26.6839 37.7845 26.8921C37.5764 27.1002 37.294 27.2172 36.9996 27.2172Z" fill="#0D0D0D"/>
<path d="M37.0002 13.0092C35.7538 12.999 34.5383 12.6204 33.5065 11.9211C32.4747 11.2218 31.6728 10.2331 31.2015 9.07916C30.7303 7.92526 30.6108 6.65777 30.858 5.43613C31.1053 4.21448 31.7083 3.09323 32.5912 2.21342C33.4741 1.33361 34.5974 0.734518 35.8199 0.491512C37.0424 0.248505 38.3095 0.372433 39.4618 0.847705C40.614 1.32298 41.6 2.12837 42.2957 3.16258C42.9913 4.19679 43.3657 5.41362 43.3716 6.66003C43.3716 7.49569 43.2066 8.32313 42.8861 9.0949C42.5657 9.86667 42.096 10.5676 41.5041 11.1575C40.9121 11.7473 40.2096 12.2145 39.4367 12.5323C38.6638 12.8501 37.8358 13.0122 37.0002 13.0092ZM37.0002 2.59003C35.9119 2.58599 34.866 3.01094 34.0889 3.77277C33.3118 4.5346 32.8663 5.57195 32.8488 6.66003C32.8488 7.76105 33.2861 8.81697 34.0647 9.59551C34.8432 10.3741 35.8991 10.8114 37.0002 10.8114C38.1012 10.8114 39.1571 10.3741 39.9356 9.59551C40.7142 8.81697 41.1516 7.76105 41.1516 6.66003C41.134 5.57195 40.6885 4.5346 39.9114 3.77277C39.1343 3.01094 38.0884 2.58599 37.0002 2.59003Z" fill="#0D0D0D"/>
</svg>
