<svg width="100" height="100" viewBox="0 0 100 100" fill="none" xmlns="http://www.w3.org/2000/svg">
<path d="M48.4375 42.1875H45.3125C44.2768 42.1886 43.2839 42.6005 42.5516 43.3328C41.8192 44.0651 41.4073 45.0581 41.4062 46.0938V56.25C41.4062 56.6644 41.5709 57.0618 41.8639 57.3549C42.1569 57.6479 42.5543 57.8125 42.9688 57.8125C43.3832 57.8125 43.7806 57.6479 44.0736 57.3549C44.3666 57.0618 44.5312 56.6644 44.5312 56.25V51.5625H49.2188V56.25C49.2188 56.6644 49.3834 57.0618 49.6764 57.3549C49.9694 57.6479 50.3668 57.8125 50.7812 57.8125C51.1957 57.8125 51.5931 57.6479 51.8861 57.3549C52.1791 57.0618 52.3438 56.6644 52.3438 56.25V46.0938C52.3427 45.0581 51.9308 44.0651 51.1984 43.3328C50.4661 42.6005 49.4732 42.1886 48.4375 42.1875ZM44.5312 48.4375V46.0938C44.5315 45.8866 44.6139 45.6881 44.7604 45.5416C44.9068 45.3952 45.1054 45.3128 45.3125 45.3125H48.4375C48.6446 45.3128 48.8432 45.3952 48.9896 45.5416C49.1361 45.6881 49.2185 45.8866 49.2188 46.0938V48.4375H44.5312Z" fill="#6D30FB"/>
<path d="M55.4688 43.75V56.25C55.4688 56.6644 55.6334 57.0618 55.9264 57.3549C56.2194 57.6479 56.6168 57.8125 57.0312 57.8125C57.4457 57.8125 57.8431 57.6479 58.1361 57.3549C58.4291 57.0618 58.5938 56.6644 58.5938 56.25V43.75C58.5938 43.3356 58.4291 42.9382 58.1361 42.6451C57.8431 42.3521 57.4457 42.1875 57.0312 42.1875C56.6168 42.1875 56.2194 42.3521 55.9264 42.6451C55.6334 42.9382 55.4688 43.3356 55.4688 43.75Z" fill="#6D30FB"/>
<path d="M78.17 50C79.7351 48.4845 81.1823 46.9641 82.4575 45.4531C88.3638 38.4219 90.3013 32.2656 87.9106 28.125C83.1895 19.9605 65.496 23.6839 50.0111 31.0024C46.4201 29.2926 42.726 27.8082 38.9503 26.5579C41.6411 15.8666 45.9761 9.375 50.02 9.375C51.7388 9.375 53.5044 10.5312 55.1763 12.6406C55.9687 11.9455 56.9012 11.4286 57.9107 11.125C55.5513 7.95312 52.8638 6.25 50.02 6.25C44.0773 6.25 38.9419 13.8744 35.9521 25.6434C24.2672 22.3475 15.1004 22.9799 12.1294 28.125C7.41626 36.2872 19.4917 49.7646 33.564 59.5119C33.8786 63.4734 34.4399 67.4115 35.2447 71.3031C24.6451 74.3163 16.8587 73.8097 14.8325 70.3125C13.9731 68.8125 14.0981 66.7188 15.0825 64.2344C14.0722 63.8748 13.1467 63.311 12.3638 62.5781C10.7856 66.2031 10.6763 69.375 12.1294 71.875C13.895 74.9219 17.8325 76.3906 23.1919 76.3906C27.517 76.286 31.8085 75.6004 35.951 74.3523C38.9407 86.1237 44.0766 93.75 50.02 93.75C59.4577 93.75 65.0659 76.6125 66.4681 59.4871C69.7526 57.2275 72.895 54.7678 75.8772 52.122C77.3487 53.5296 78.7471 55.0117 80.0669 56.5625C84.9888 62.4219 86.8638 67.4375 85.2075 70.3125C84.5828 71.1636 83.773 71.8617 82.8392 72.3543C81.9055 72.8469 80.872 73.1211 79.8169 73.1562C79.8979 73.6154 79.9397 74.0806 79.9419 74.5468C79.9378 75.1461 79.8697 75.7432 79.7388 76.328C83.6763 75.8593 86.4575 74.3749 87.9106 71.8749C90.3013 67.7343 88.3638 61.578 82.4575 54.5468C81.1823 53.0358 79.7351 51.5155 78.17 50ZM33.1763 50C33.1763 51.8587 33.2238 53.6822 33.3064 55.4739C19.7858 45.6149 11.918 34.7583 14.8325 29.6875C16.8589 26.1804 24.6454 25.6763 35.2455 28.6929C33.8288 35.7058 33.1354 42.8456 33.1763 50ZM50.02 90.625C45.9763 90.625 41.6414 84.134 38.9507 73.4436C45.734 71.163 52.2652 68.1923 58.4419 64.5781C60.0456 63.6523 61.5972 62.6899 63.1221 61.713C61.346 78.3811 55.8886 90.625 50.02 90.625ZM56.8794 61.875C50.9726 65.3292 44.731 68.1761 38.2503 70.3722C36.915 63.6646 36.262 56.8391 36.3012 50C36.262 43.1599 36.9153 36.3333 38.251 29.6248C44.7312 31.8228 50.9725 34.6707 56.8794 38.125C62.8248 41.5187 68.417 45.4967 73.573 50C68.417 54.5033 62.8248 58.4813 56.8794 61.875ZM58.4419 35.4219C56.8302 34.4916 55.2253 33.6201 53.6304 32.7951C68.9355 26.0055 82.2672 24.6087 85.2076 29.6875C86.8638 32.5625 84.9888 37.5781 80.0669 43.4375C78.7472 44.9883 77.3488 46.4704 75.8773 47.878C70.5015 43.1472 64.6598 38.9738 58.4419 35.4219Z" fill="#6D30FB"/>
<path d="M60.2227 23.2656C62.8115 23.2656 64.9102 21.167 64.9102 18.5781C64.9102 15.9893 62.8115 13.8906 60.2227 13.8906C57.6338 13.8906 55.5352 15.9893 55.5352 18.5781C55.5352 21.167 57.6338 23.2656 60.2227 23.2656Z" fill="#6D30FB"/>
<path d="M17.707 61.5624C20.2959 61.5624 22.3945 59.4637 22.3945 56.8749C22.3945 54.286 20.2959 52.1874 17.707 52.1874C15.1182 52.1874 13.0195 54.286 13.0195 56.8749C13.0195 59.4637 15.1182 61.5624 17.707 61.5624Z" fill="#6D30FB"/>
<path d="M72.1289 79.2344C74.7177 79.2344 76.8164 77.1357 76.8164 74.5469C76.8164 71.958 74.7177 69.8594 72.1289 69.8594C69.5401 69.8594 67.4414 71.958 67.4414 74.5469C67.4414 77.1357 69.5401 79.2344 72.1289 79.2344Z" fill="#6D30FB"/>
</svg>
