<svg width="74" height="74" viewBox="0 0 74 74" fill="none" xmlns="http://www.w3.org/2000/svg">
<g clip-path="url(#clip0_1697_3283)">
<path d="M42.8615 5.86147C42.8615 4.73919 42.5393 3.64049 41.9333 2.69593C41.3272 1.75136 40.4627 1.00064 39.4425 0.532962C38.4223 0.0652842 37.2893 -0.0996884 36.1781 0.0576466C35.0669 0.214982 34.0242 0.68801 33.174 1.42053C32.3237 2.15304 31.7016 3.11425 31.3816 4.18994C31.0616 5.26563 31.0571 6.41057 31.3687 7.48874C31.6803 8.5669 32.2948 9.53295 33.1393 10.2721C33.9838 11.0113 35.0227 11.4924 36.1327 11.6585V19.3146H13.2048C11.8264 19.3162 10.5049 19.8644 9.53025 20.8391C8.55557 21.8138 8.00731 23.1353 8.00574 24.5137V25.0299H5.44364C4.37712 25.0311 3.35463 25.4554 2.60048 26.2095C1.84634 26.9637 1.42212 27.9861 1.4209 29.0527V53.4062C1.42212 54.4727 1.84634 55.4952 2.60048 56.2493C3.35463 57.0035 4.37712 57.4277 5.44364 57.4289H8.00574V57.945C8.00731 59.3234 8.55557 60.645 9.53024 61.6197C10.5049 62.5943 11.8264 63.1426 13.2048 63.1443H29.7444L36.2648 73.5924C36.3427 73.7173 36.4511 73.8202 36.5798 73.8916C36.7085 73.963 36.8533 74.0005 37.0004 74.0005C37.1476 74.0005 37.2924 73.963 37.4211 73.8916C37.5498 73.8202 37.6582 73.7173 37.7361 73.5924L44.2565 63.1443H60.7949C62.1733 63.1426 63.4948 62.5943 64.4695 61.6197C65.4442 60.645 65.9924 59.3234 65.994 57.945V57.4289H68.5561C69.6226 57.4277 70.6451 57.0035 71.3993 56.2493C72.1534 55.4952 72.5776 54.4727 72.5788 53.4062V29.0527C72.5776 27.9861 72.1534 26.9637 71.3993 26.2095C70.6451 25.4554 69.6226 25.0311 68.5561 25.0299H65.994V24.5137C65.9924 23.1353 65.4442 21.8138 64.4695 20.8391C63.4948 19.8644 62.1733 19.3162 60.7949 19.3146H37.8671V11.6585C39.2551 11.449 40.5222 10.749 41.4385 9.68546C42.3548 8.62193 42.8596 7.26527 42.8615 5.86147ZM5.44364 55.6941C4.83694 55.6934 4.25528 55.4521 3.82628 55.0231C3.39728 54.5941 3.15596 54.0124 3.15527 53.4057V29.0522C3.15608 28.4456 3.39744 27.8641 3.82643 27.4352C4.25542 27.0062 4.83701 26.765 5.44364 26.7643H8.00574V55.6941H5.44364ZM68.5561 26.7643C69.1628 26.765 69.7445 27.0063 70.1735 27.4353C70.6025 27.8643 70.8438 28.446 70.8445 29.0527V53.4062C70.8438 54.0129 70.6025 54.5945 70.1735 55.0235C69.7445 55.4525 69.1628 55.6938 68.5561 55.6945H65.994V26.7643H68.5561ZM64.2596 24.5137V57.9446C64.2586 58.8632 63.8932 59.7439 63.2437 60.3934C62.5942 61.043 61.7135 61.4084 60.7949 61.4094H43.7749C43.6277 61.4094 43.483 61.4469 43.3543 61.5183C43.2256 61.5896 43.1172 61.6926 43.0393 61.8175L36.9999 71.4948L30.9605 61.8175C30.8826 61.6926 30.7741 61.5896 30.6454 61.5183C30.5167 61.4469 30.372 61.4094 30.2248 61.4094H13.2048C12.2862 61.4084 11.4056 61.043 10.756 60.3934C10.1065 59.7439 9.74115 58.8632 9.74012 57.9446V24.5137C9.74119 23.5951 10.1066 22.7145 10.7561 22.0649C11.4056 21.4154 12.2863 21.05 13.2048 21.049H60.7949C61.7135 21.05 62.5941 21.4154 63.2436 22.0649C63.8932 22.7145 64.2585 23.5951 64.2596 24.5137ZM32.8726 5.86147C32.8726 5.04518 33.1146 4.2472 33.5681 3.56846C34.0216 2.88972 34.6662 2.3607 35.4203 2.0483C36.1745 1.7359 37.0043 1.65414 37.805 1.81338C38.6056 1.97261 39.341 2.36568 39.9182 2.94288C40.4954 3.52008 40.8885 4.25548 41.0478 5.05609C41.2071 5.8567 41.1253 6.68656 40.8129 7.44072C40.5006 8.19488 39.9716 8.83947 39.2929 9.29299C38.6141 9.7465 37.8162 9.98856 36.9999 9.98856C35.9057 9.98734 34.8566 9.55213 34.0829 8.77842C33.3091 8.00471 32.8739 6.95568 32.8726 5.86147ZM24.205 41.7551C25.3643 41.7551 26.4976 41.4113 27.4615 40.7672C28.4254 40.1231 29.1767 39.2077 29.6204 38.1366C30.064 37.0655 30.1801 35.8869 29.9539 34.7499C29.7277 33.6128 29.1695 32.5684 28.3497 31.7486C27.5299 30.9289 26.4855 30.3706 25.3484 30.1445C24.2114 29.9183 23.0328 30.0344 21.9617 30.4781C20.8906 30.9218 19.9752 31.6731 19.3311 32.637C18.6871 33.601 18.3433 34.7343 18.3433 35.8936C18.3451 37.4477 18.9632 38.9376 20.0621 40.0364C21.161 41.1353 22.6509 41.7534 24.205 41.7551ZM24.205 31.7664C25.0212 31.7664 25.8192 32.0084 26.4979 32.4619C27.1766 32.9155 27.7056 33.56 28.018 34.3142C28.3304 35.0683 28.4121 35.8982 28.2529 36.6988C28.0936 37.4994 27.7006 38.2348 27.1233 38.812C26.5461 39.3892 25.8107 39.7823 25.0101 39.9415C24.2095 40.1008 23.3797 40.0191 22.6255 39.7067C21.8714 39.3943 21.2268 38.8653 20.7733 38.1866C20.3198 37.5079 20.0777 36.7099 20.0777 35.8936C20.0789 34.7994 20.5142 33.7503 21.2879 32.9766C22.0617 32.2029 23.1107 31.7676 24.205 31.7664ZM49.7948 41.7551C50.9541 41.7551 52.0874 41.4113 53.0514 40.7673C54.0153 40.1232 54.7667 39.2077 55.2103 38.1367C55.654 37.0656 55.7701 35.887 55.5439 34.75C55.3177 33.6129 54.7595 32.5685 53.9397 31.7487C53.1199 30.9289 52.0755 30.3707 50.9384 30.1445C49.8014 29.9183 48.6228 30.0344 47.5517 30.4781C46.4806 30.9217 45.5652 31.6731 44.9211 32.637C44.277 33.601 43.9333 34.7343 43.9333 35.8936C43.935 37.4476 44.5531 38.9375 45.652 40.0364C46.7509 41.1353 48.2408 41.7534 49.7948 41.7551ZM49.7948 31.7664C50.6111 31.7664 51.4091 32.0084 52.0878 32.4619C52.7665 32.9154 53.2956 33.5599 53.608 34.3141C53.9204 35.0682 54.0021 35.8981 53.8429 36.6987C53.6836 37.4993 53.2906 38.2347 52.7134 38.812C52.1362 39.3892 51.4008 39.7823 50.6002 39.9415C49.7996 40.1008 48.9697 40.0191 48.2155 39.7067C47.4614 39.3943 46.8168 38.8653 46.3633 38.1866C45.9098 37.5079 45.6677 36.7099 45.6677 35.8936C45.669 34.7994 46.1042 33.7504 46.8779 32.9767C47.6516 32.203 48.7006 31.7676 49.7948 31.7664ZM46.5368 51.6852C46.5368 51.9152 46.4454 52.1358 46.2828 52.2984C46.1201 52.4611 45.8996 52.5524 45.6696 52.5524H27.9755C27.7455 52.5524 27.5249 52.4611 27.3623 52.2984C27.1997 52.1358 27.1083 51.9152 27.1083 51.6852C27.1083 51.4552 27.1997 51.2347 27.3623 51.072C27.5249 50.9094 27.7455 50.8181 27.9755 50.8181H45.6696C45.8996 50.8181 46.1201 50.9094 46.2828 51.072C46.4454 51.2347 46.5368 51.4552 46.5368 51.6852Z" fill="#0D0D0D"/>
</g>
<defs>
<clipPath id="clip0_1697_3283">
<rect width="74" height="74" fill="white"/>
</clipPath>
</defs>
</svg>
