<svg width="74" height="74" viewBox="0 0 74 74" fill="none" xmlns="http://www.w3.org/2000/svg">
<path d="M62.2843 8.25159H28.3654C24.9652 8.25159 22.1988 11.0179 22.1988 14.4182V56.4319C22.1988 60.4892 18.9081 63.7805 14.8503 63.7805C14.8474 63.7805 14.8451 63.7819 14.8425 63.7819C10.8017 63.7698 7.51474 60.4774 7.51474 56.4398V25.676C7.51474 23.356 9.39741 21.469 11.7116 21.469H19.2504C19.7933 21.469 20.2332 21.029 20.2332 20.4862C20.2332 19.9433 19.7933 19.5033 19.2504 19.5033H11.7116C8.31313 19.5033 5.54883 22.2726 5.54883 25.6763V56.4406C5.54883 61.5619 9.71884 65.7377 14.8451 65.7487H14.8471C14.8506 65.7487 14.8532 65.7467 14.8566 65.7467H59.1367C64.2196 65.7467 68.4511 61.6469 68.4511 56.4322V14.4182C68.4508 11.0179 65.6845 8.25159 62.2843 8.25159ZM66.4849 56.4319C66.4849 60.6086 63.0769 63.7805 59.1364 63.7805H20.5723C22.8027 62.0346 24.1645 59.3801 24.1645 56.4319V14.4182C24.1645 12.1019 26.0491 10.2172 28.3654 10.2172H62.2843C64.6005 10.2172 66.4852 12.1019 66.4852 14.4182L66.4849 56.4319Z" fill="#0D0D0D"/>
<path d="M59.4921 20.4347H31.1576C30.6148 20.4347 30.1748 20.8746 30.1748 21.4175V35.2844C30.1748 35.8273 30.6148 36.2672 31.1576 36.2672H59.4921C60.035 36.2672 60.4749 35.8273 60.4749 35.2844V21.4175C60.4749 20.8746 60.035 20.4347 59.4921 20.4347ZM58.5093 34.3016H32.1407V22.4003H58.5093V34.3016Z" fill="#0D0D0D"/>
<path d="M59.4921 42.0548H31.1576C30.6148 42.0548 30.1748 42.4948 30.1748 43.0376C30.1748 43.5805 30.6148 44.0204 31.1576 44.0204H59.4921C60.035 44.0204 60.4749 43.5805 60.4749 43.0376C60.4749 42.4951 60.035 42.0548 59.4921 42.0548Z" fill="#0D0D0D"/>
<path d="M49.3555 51.5977H31.1576C30.6148 51.5977 30.1748 52.0376 30.1748 52.5805C30.1748 53.1233 30.6148 53.5633 31.1576 53.5633H49.3555C49.8984 53.5633 50.3384 53.1233 50.3384 52.5805C50.3384 52.0379 49.8984 51.5977 49.3555 51.5977Z" fill="#0D0D0D"/>
</svg>
