<svg width="100" height="100" viewBox="0 0 100 100" fill="none" xmlns="http://www.w3.org/2000/svg">
<path d="M81.2507 58.3334H72.9173V54.1667C72.9173 53.6142 72.6978 53.0843 72.3071 52.6936C71.9164 52.3029 71.3865 52.0834 70.834 52.0834C70.2814 52.0834 69.7515 52.3029 69.3608 52.6936C68.9701 53.0843 68.7507 53.6142 68.7507 54.1667V58.3334H60.4173C59.8648 58.3334 59.3349 58.5529 58.9442 58.9436C58.5535 59.3343 58.334 59.8642 58.334 60.4167C58.334 60.9692 58.5535 61.4991 58.9442 61.8898C59.3349 62.2806 59.8648 62.5 60.4173 62.5H75.8756C75.3655 66.0394 73.5655 69.2654 70.8215 71.5584C69.2187 70.2197 67.9233 68.5513 67.0236 66.6667C66.9119 66.411 66.7499 66.1803 66.5474 65.9883C66.3448 65.7964 66.1057 65.6471 65.8443 65.5493C65.583 65.4515 65.3046 65.4072 65.0258 65.4191C64.7469 65.431 64.4734 65.4987 64.2212 65.6184C63.9691 65.738 63.7436 65.9071 63.5581 66.1156C63.3725 66.324 63.2308 66.5677 63.1412 66.832C63.0517 67.0963 63.0161 67.3759 63.0367 67.6542C63.0573 67.9325 63.1336 68.2039 63.2611 68.4521C64.2293 70.4598 65.5527 72.2759 67.1673 73.8125C65.3159 74.6011 63.3234 75.0051 61.3111 75C61.0412 75.0013 60.7744 75.0566 60.5262 75.1627C60.2781 75.2687 60.0537 75.4234 59.8664 75.6176C59.679 75.8118 59.5324 76.0415 59.4352 76.2932C59.3381 76.545 59.2923 76.8137 59.3007 77.0834C59.318 77.6434 59.5533 78.1745 59.9565 78.5636C60.3596 78.9528 60.8987 79.1692 61.459 79.1667C64.7699 79.1655 68.0206 78.2809 70.8757 76.6042C73.7571 78.2739 77.0266 79.1576 80.3569 79.1667C80.6267 79.1654 80.8936 79.1102 81.1417 79.0041C81.3899 78.898 81.6142 78.7433 81.8016 78.5492C81.989 78.355 82.1356 78.1253 82.2328 77.8735C82.3299 77.6218 82.3757 77.3531 82.3673 77.0834C82.3499 76.5233 82.1146 75.9922 81.7115 75.6031C81.3084 75.214 80.7693 74.9976 80.209 75C78.26 74.9924 76.3326 74.5914 74.5423 73.8209C77.6452 70.8029 79.6045 66.8017 80.0861 62.5H81.2507C81.8032 62.5 82.3331 62.2806 82.7238 61.8898C83.1145 61.4991 83.334 60.9692 83.334 60.4167C83.334 59.8642 83.1145 59.3343 82.7238 58.9436C82.3331 58.5529 81.8032 58.3334 81.2507 58.3334Z" fill="#6D30FB"/>
<path d="M29.1662 19.7916C28.7663 19.7917 28.375 19.9069 28.0388 20.1234C27.7027 20.3399 27.4359 20.6485 27.2703 21.0125L16.8537 43.9291C16.6394 44.4296 16.6296 44.9941 16.8263 45.5018C17.023 46.0094 17.4106 46.4199 17.9062 46.6454C18.4017 46.8708 18.9659 46.8933 19.4778 46.7081C19.9897 46.5228 20.4088 46.1445 20.6453 45.6541L24.3516 37.5H33.9808L37.687 45.6541C37.9235 46.1445 38.3426 46.5228 38.8546 46.7081C39.3665 46.8933 39.9306 46.8708 40.4262 46.6454C40.9218 46.4199 41.3094 46.0094 41.5061 45.5018C41.7028 44.9941 41.693 44.4296 41.4787 43.9291L31.062 21.0125C30.8965 20.6485 30.6297 20.3399 30.2935 20.1234C29.9574 19.9069 29.566 19.7917 29.1662 19.7916ZM26.2495 33.3333L29.1662 26.9104L32.0828 33.3333H26.2495Z" fill="#6D30FB"/>
<path d="M85.4173 41.6666H56.2507C53.489 41.6699 50.8414 42.7685 48.8886 44.7212C46.9358 46.674 45.8373 49.3216 45.834 52.0833V81.25C45.8373 84.0116 46.9358 86.6592 48.8886 88.612C50.8414 90.5648 53.489 91.6633 56.2507 91.6666H85.4173C88.179 91.6633 90.8266 90.5648 92.7794 88.612C94.7321 86.6592 95.8307 84.0116 95.834 81.25V52.0833C95.8307 49.3216 94.7321 46.674 92.7794 44.7212C90.8266 42.7685 88.179 41.6699 85.4173 41.6666ZM91.6673 81.25C91.6673 82.9076 91.0088 84.4973 89.8367 85.6694C88.6646 86.8415 87.0749 87.5 85.4173 87.5H56.2507C54.593 87.5 53.0033 86.8415 51.8312 85.6694C50.6591 84.4973 50.0007 82.9076 50.0007 81.25V52.0833C50.0007 50.4257 50.6591 48.836 51.8312 47.6639C53.0033 46.4918 54.593 45.8333 56.2507 45.8333H85.4173C87.0749 45.8333 88.6646 46.4918 89.8367 47.6639C91.0088 48.836 91.6673 50.4257 91.6673 52.0833V81.25Z" fill="#6D30FB"/>
<path d="M49.9993 18.75V35.9375C49.9993 36.4901 50.2188 37.02 50.6095 37.4107C51.0002 37.8014 51.5301 38.0209 52.0827 38.0209C52.6352 38.0209 53.1651 37.8014 53.5558 37.4107C53.9465 37.02 54.166 36.4901 54.166 35.9375V18.75C54.1627 15.9884 53.0642 13.3408 51.1114 11.388C49.1586 9.43521 46.511 8.33668 43.7493 8.33337H14.5827C11.821 8.33668 9.17343 9.43521 7.22064 11.388C5.26785 13.3408 4.16932 15.9884 4.16602 18.75V47.9167C4.16932 50.6784 5.26785 53.326 7.22064 55.2787C9.17343 57.2315 11.821 58.3301 14.5827 58.3334H39.5827C40.1352 58.3334 40.6651 58.1139 41.0558 57.7232C41.4465 57.3325 41.666 56.8026 41.666 56.25C41.666 55.6975 41.4465 55.1676 41.0558 54.7769C40.6651 54.3862 40.1352 54.1667 39.5827 54.1667H14.5827C12.9251 54.1667 11.3354 53.5082 10.1633 52.3361C8.99116 51.164 8.33268 49.5743 8.33268 47.9167V18.75C8.33268 17.0924 8.99116 15.5027 10.1633 14.3306C11.3354 13.1585 12.9251 12.5 14.5827 12.5H43.7493C45.407 12.5 46.9967 13.1585 48.1688 14.3306C49.3409 15.5027 49.9993 17.0924 49.9993 18.75Z" fill="#6D30FB"/>
<path d="M67.2766 26.4729C67.6696 26.8524 68.1958 27.0624 68.7421 27.0577C69.2883 27.0529 69.8108 26.8338 70.1971 26.4475C70.5834 26.0613 70.8025 25.5388 70.8072 24.9925C70.812 24.4463 70.602 23.92 70.2225 23.5271L69.6121 22.9167H79.1662C79.7188 22.9167 80.2487 23.1362 80.6394 23.5269C81.0301 23.9176 81.2496 24.4475 81.2496 25V31.25C81.2496 31.8025 81.469 32.3324 81.8597 32.7231C82.2504 33.1138 82.7804 33.3333 83.3329 33.3333C83.8854 33.3333 84.4153 33.1138 84.806 32.7231C85.1967 32.3324 85.4162 31.8025 85.4162 31.25V25C85.4162 23.3424 84.7577 21.7527 83.5856 20.5806C82.4135 19.4085 80.8238 18.75 79.1662 18.75H69.6121L70.2225 18.1396C70.4215 17.9474 70.5802 17.7175 70.6894 17.4633C70.7985 17.2092 70.856 16.9358 70.8584 16.6592C70.8608 16.3826 70.8081 16.1082 70.7033 15.8522C70.5986 15.5962 70.4439 15.3635 70.2483 15.1679C70.0527 14.9723 69.8201 14.8176 69.564 14.7129C69.308 14.6081 69.0337 14.5554 68.757 14.5578C68.4804 14.5602 68.2071 14.6177 67.9529 14.7269C67.6987 14.8361 67.4688 14.9948 67.2766 15.1938L63.11 19.3604C62.7194 19.7511 62.5 20.2809 62.5 20.8333C62.5 21.3858 62.7194 21.9156 63.11 22.3063L67.2766 26.4729Z" fill="#6D30FB"/>
<path d="M32.7236 73.527C32.3306 73.1475 31.8044 72.9376 31.2581 72.9423C30.7119 72.9471 30.1894 73.1661 29.8031 73.5524C29.4168 73.9387 29.1977 74.4612 29.193 75.0075C29.1883 75.5537 29.3982 76.08 29.7777 76.4729L30.3882 77.0833H20.834C20.2814 77.0833 19.7515 76.8638 19.3608 76.4731C18.9701 76.0824 18.7507 75.5525 18.7507 75V68.75C18.7507 68.1974 18.5312 67.6675 18.1405 67.2768C17.7498 66.8861 17.2199 66.6666 16.6673 66.6666C16.1148 66.6666 15.5849 66.8861 15.1942 67.2768C14.8035 67.6675 14.584 68.1974 14.584 68.75V75C14.584 76.6576 15.2425 78.2473 16.4146 79.4194C17.5867 80.5915 19.1764 81.25 20.834 81.25H30.3882L29.7777 81.8604C29.5788 82.0526 29.42 82.2824 29.3109 82.5366C29.2017 82.7908 29.1442 83.0642 29.1418 83.3408C29.1394 83.6174 29.1921 83.8917 29.2969 84.1478C29.4016 84.4038 29.5563 84.6364 29.7519 84.832C29.9475 85.0276 30.1801 85.1823 30.4362 85.2871C30.6922 85.3918 30.9665 85.4445 31.2432 85.4421C31.5198 85.4397 31.7932 85.3823 32.0473 85.2731C32.3015 85.1639 32.5314 85.0052 32.7236 84.8062L36.8902 80.6395C37.2808 80.2489 37.5002 79.7191 37.5002 79.1666C37.5002 78.6142 37.2808 78.0844 36.8902 77.6937L32.7236 73.527Z" fill="#6D30FB"/>
</svg>
