<svg width="74" height="74" viewBox="0 0 74 74" fill="none" xmlns="http://www.w3.org/2000/svg">
<path d="M52.3973 61.1067H11.2647C10.0911 61.1054 8.96593 60.6387 8.13608 59.8088C7.30623 58.979 6.83948 57.8538 6.83822 56.6803V21.1347H64.382V54.7107C64.3875 55.0005 64.5066 55.2766 64.7135 55.4796C64.9204 55.6826 65.1987 55.7963 65.4886 55.7964C65.7785 55.7964 66.0568 55.6826 66.2637 55.4796C66.4706 55.2766 66.5897 55.0006 66.5952 54.7107V11.7301C66.5933 9.96977 65.8932 8.28206 64.6484 7.0373C63.4036 5.79253 61.7159 5.09238 59.9556 5.09045H11.2647C9.50431 5.09238 7.8166 5.79253 6.57184 7.03729C5.32707 8.28206 4.62692 9.96977 4.625 11.7301V56.6803C4.62692 58.4406 5.32707 60.1283 6.57183 61.3731C7.8166 62.6179 9.50431 63.318 11.2647 63.3199H52.3973C52.6877 63.3152 52.9646 63.1966 53.1683 62.9896C53.372 62.7825 53.4862 62.5037 53.4862 62.2133C53.4862 61.9229 53.372 61.6441 53.1683 61.4371C52.9646 61.23 52.6877 61.1114 52.3973 61.1067ZM6.83822 11.7301C6.83948 10.5565 7.30623 9.43139 8.13608 8.60154C8.96593 7.77169 10.0911 7.30493 11.2647 7.30368H59.9555C61.1291 7.30493 62.2543 7.77169 63.0841 8.60154C63.914 9.43139 64.3807 10.5565 64.382 11.7301V18.9215H6.83822V11.7301Z" fill="#0D0D0D"/>
<path d="M14.5303 12.0742C14.2405 12.0812 13.9651 12.2016 13.7631 12.4095C13.5611 12.6174 13.4488 12.8963 13.4502 13.1861C13.4516 13.4759 13.5667 13.7537 13.7706 13.9596C13.9746 14.1655 14.2512 14.2832 14.541 14.2874C14.8308 14.2804 15.1062 14.16 15.3082 13.9521C15.5101 13.7442 15.6225 13.4654 15.6211 13.1756C15.6197 12.8857 15.5046 12.608 15.3007 12.4021C15.0967 12.1961 14.8201 12.0784 14.5303 12.0742Z" fill="#0D0D0D"/>
<path d="M21.5605 12.0742C21.2708 12.0812 20.9953 12.2016 20.7934 12.4095C20.5914 12.6174 20.4791 12.8963 20.4805 13.1861C20.4819 13.4759 20.5969 13.7537 20.8009 13.9596C21.0049 14.1655 21.2815 14.2832 21.5713 14.2874C21.861 14.2804 22.1365 14.16 22.3385 13.9521C22.5404 13.7442 22.6528 13.4654 22.6513 13.1756C22.6499 12.8857 22.5349 12.608 22.3309 12.4021C22.127 12.1961 21.8504 12.0784 21.5605 12.0742Z" fill="#0D0D0D"/>
<path d="M28.5908 12.0742C28.3011 12.0812 28.0256 12.2016 27.8236 12.4095C27.6217 12.6174 27.5093 12.8963 27.5108 13.1861C27.5122 13.4759 27.6272 13.7537 27.8312 13.9596C28.0351 14.1655 28.3117 14.2832 28.6016 14.2874C28.8913 14.2804 29.1668 14.16 29.3687 13.9521C29.5707 13.7442 29.683 13.4654 29.6816 13.1756C29.6802 12.8857 29.5652 12.608 29.3612 12.4021C29.1572 12.1961 28.8806 12.0784 28.5908 12.0742Z" fill="#0D0D0D"/>
<path d="M56.8958 12.0742H35.6747C35.385 12.08 35.1091 12.1991 34.9063 12.406C34.7035 12.6129 34.5899 12.8911 34.5898 13.1808C34.5898 13.4705 34.7034 13.7487 34.9062 13.9556C35.1091 14.1625 35.3849 14.2817 35.6746 14.2874H56.8958C57.1855 14.2817 57.4613 14.1625 57.6642 13.9556C57.867 13.7487 57.9806 13.4706 57.9806 13.1808C57.9806 12.8911 57.867 12.6129 57.6642 12.406C57.4613 12.1991 57.1855 12.08 56.8958 12.0742Z" fill="#0D0D0D"/>
<path d="M68.1983 62.1177C68.1983 62.1177 60.0882 54.007 57.7954 51.7138C59.2323 49.2948 59.9914 46.5335 59.9927 43.7199C59.1284 22.7815 29.285 22.7754 28.4175 43.7197C28.2494 55.7511 41.9912 63.5726 52.1943 57.3123C53.8026 58.9178 60.8592 65.9673 62.5993 67.7107C66.4089 71.3628 71.7765 65.852 68.1983 62.1177ZM30.6308 43.7197C30.6308 40.1196 32.0609 36.6669 34.6066 34.1212C37.1522 31.5755 40.6049 30.1453 44.2051 30.1453C47.8052 30.1453 51.2579 31.5754 53.8036 34.1211C56.3493 36.6668 57.7795 40.1195 57.7795 43.7196C57.0366 61.722 31.3764 61.7272 30.6308 43.7197ZM66.6302 66.1513C66.2995 66.4704 65.8578 66.6485 65.3983 66.648C64.9387 66.6475 64.4974 66.4684 64.1674 66.1486C62.349 64.327 56.7026 58.6867 54.0517 56.0393C54.9633 55.3094 55.7917 54.4813 56.522 53.57L66.6367 63.6857C66.7987 63.8478 66.9271 64.0402 67.0145 64.252C67.1019 64.4638 67.1466 64.6908 67.146 64.9199C67.1454 65.149 67.0995 65.3757 67.011 65.5871C66.9225 65.7984 66.7931 65.9902 66.6302 66.1513Z" fill="#0D0D0D"/>
</svg>
