<svg width="18" height="18" viewBox="0 0 18 18" fill="none" xmlns="http://www.w3.org/2000/svg">
<path d="M11.5312 2.98828L13.5 2.25L14.2383 0.246094C14.3086 0.0820312 14.4375 0 14.625 0C14.8125 0 14.9414 0.0820312 15.0117 0.246094L15.75 2.25L17.7539 2.98828C17.918 3.05859 18 3.1875 18 3.375C18 3.5625 17.918 3.69141 17.7539 3.76172L15.75 4.5L15.0117 6.50391C14.9414 6.66797 14.8125 6.75 14.625 6.75C14.4375 6.75 14.3086 6.66797 14.2383 6.50391L13.5 4.5L11.5312 3.76172C11.3438 3.69141 11.25 3.5625 11.25 3.375C11.25 3.1875 11.3438 3.05859 11.5312 2.98828ZM6.1875 2.56641C6.30469 2.35547 6.48047 2.25 6.71484 2.25C6.94922 2.25 7.11328 2.35547 7.20703 2.56641L9.07031 6.57422L13.0781 8.4375C13.2891 8.55469 13.3945 8.73047 13.3945 8.96484C13.3945 9.19922 13.2891 9.36328 13.0781 9.45703L9.07031 11.3203L7.20703 15.3281C7.11328 15.5391 6.94922 15.6445 6.71484 15.6445C6.48047 15.6445 6.30469 15.5391 6.1875 15.3281L4.32422 11.3203L0.316406 9.45703C0.105469 9.36328 0 9.19922 0 8.96484C0 8.73047 0.105469 8.55469 0.316406 8.4375L4.32422 6.57422L6.1875 2.56641ZM5.87109 7.3125C5.68359 7.66406 5.41406 7.93359 5.0625 8.12109L3.23438 8.96484L5.0625 9.77344C5.41406 9.9375 5.68359 10.2188 5.87109 10.6172L6.71484 12.4102L7.52344 10.6172C7.6875 10.2188 7.96875 9.9375 8.36719 9.77344L10.1602 8.96484L8.36719 8.12109C7.96875 7.93359 7.6875 7.66406 7.52344 7.3125L6.71484 5.48438L5.87109 7.3125ZM14.2383 11.5312C14.3086 11.3438 14.4375 11.25 14.625 11.25C14.8125 11.25 14.9414 11.3438 15.0117 11.5312L15.75 13.5L17.7539 14.2383C17.918 14.3086 18 14.4375 18 14.625C18 14.8125 17.918 14.9414 17.7539 15.0117L15.75 15.75L15.0117 17.7539C14.9414 17.918 14.8125 18 14.625 18C14.4375 18 14.3086 17.918 14.2383 17.7539L13.5 15.75L11.5312 15.0117C11.3438 14.9414 11.25 14.8125 11.25 14.625C11.25 14.4375 11.3438 14.3086 11.5312 14.2383L13.5 13.5L14.2383 11.5312Z" fill="white"/>
</svg>
