<svg width="20" height="20" viewBox="0 0 20 20" fill="none" xmlns="http://www.w3.org/2000/svg">
<path d="M3 5.75C2.4561 5.75 1.92442 5.58872 1.47218 5.28654C1.01995 4.98437 0.667474 4.55488 0.459333 4.05238C0.251192 3.54988 0.196732 2.99695 0.302842 2.4635C0.408951 1.93006 0.670863 1.44005 1.05546 1.05546C1.44005 0.670863 1.93006 0.408951 2.4635 0.302842C2.99695 0.196732 3.54988 0.251192 4.05238 0.459333C4.55488 0.667474 4.98437 1.01995 5.28654 1.47218C5.58872 1.92442 5.75 2.4561 5.75 3C5.74947 3.72918 5.45957 4.42835 4.94396 4.94396C4.42835 5.45957 3.72918 5.74947 3 5.75ZM3 1.75C2.75277 1.75 2.5111 1.82331 2.30554 1.96066C2.09998 2.09802 1.93976 2.29324 1.84515 2.52165C1.75054 2.75005 1.72579 3.00139 1.77402 3.24386C1.82225 3.48634 1.9413 3.70907 2.11612 3.88389C2.29093 4.0587 2.51366 4.17775 2.75614 4.22598C2.99861 4.27421 3.24995 4.24946 3.47836 4.15485C3.70676 4.06024 3.90199 3.90003 4.03934 3.69446C4.17669 3.4889 4.25 3.24723 4.25 3C4.24947 2.66864 4.11761 2.35101 3.8833 2.1167C3.64899 1.8824 3.33136 1.75053 3 1.75ZM10 5.75C9.4561 5.75 8.92442 5.58872 8.47218 5.28654C8.01995 4.98437 7.66747 4.55488 7.45933 4.05238C7.25119 3.54988 7.19673 2.99695 7.30284 2.4635C7.40895 1.93006 7.67086 1.44005 8.05546 1.05546C8.44005 0.670863 8.93006 0.408951 9.4635 0.302842C9.99695 0.196732 10.5499 0.251192 11.0524 0.459333C11.5549 0.667474 11.9844 1.01995 12.2865 1.47218C12.5887 1.92442 12.75 2.4561 12.75 3C12.7495 3.72918 12.4596 4.42835 11.944 4.94396C11.4284 5.45957 10.7292 5.74947 10 5.75ZM10 1.75C9.75278 1.75 9.5111 1.82331 9.30554 1.96066C9.09998 2.09802 8.93976 2.29324 8.84515 2.52165C8.75054 2.75005 8.72579 3.00139 8.77402 3.24386C8.82225 3.48634 8.9413 3.70907 9.11612 3.88389C9.29093 4.0587 9.51366 4.17775 9.75614 4.22598C9.99862 4.27421 10.2499 4.24946 10.4784 4.15485C10.7068 4.06024 10.902 3.90003 11.0393 3.69446C11.1767 3.4889 11.25 3.24723 11.25 3C11.2495 2.66864 11.1176 2.35101 10.8833 2.1167C10.649 1.8824 10.3314 1.75053 10 1.75ZM17 5.75C16.4561 5.75 15.9244 5.58872 15.4722 5.28654C15.0199 4.98437 14.6675 4.55488 14.4593 4.05238C14.2512 3.54988 14.1967 2.99695 14.3028 2.4635C14.409 1.93006 14.6709 1.44005 15.0555 1.05546C15.4401 0.670863 15.9301 0.408951 16.4635 0.302842C16.997 0.196732 17.5499 0.251192 18.0524 0.459333C18.5549 0.667474 18.9844 1.01995 19.2865 1.47218C19.5887 1.92442 19.75 2.4561 19.75 3C19.7495 3.72918 19.4596 4.42835 18.944 4.94396C18.4284 5.45957 17.7292 5.74947 17 5.75ZM17 1.75C16.7528 1.75 16.5111 1.82331 16.3055 1.96066C16.1 2.09802 15.9398 2.29324 15.8452 2.52165C15.7505 2.75005 15.7258 3.00139 15.774 3.24386C15.8223 3.48634 15.9413 3.70907 16.1161 3.88389C16.2909 4.0587 16.5137 4.17775 16.7561 4.22598C16.9986 4.27421 17.25 4.24946 17.4784 4.15485C17.7068 4.06024 17.902 3.90003 18.0393 3.69446C18.1767 3.4889 18.25 3.24723 18.25 3C18.2495 2.66864 18.1176 2.35101 17.8833 2.1167C17.649 1.8824 17.3314 1.75053 17 1.75ZM3 12.75C2.4561 12.75 1.92442 12.5887 1.47218 12.2865C1.01995 11.9844 0.667474 11.5549 0.459333 11.0524C0.251192 10.5499 0.196732 9.99695 0.302842 9.4635C0.408951 8.93006 0.670863 8.44005 1.05546 8.05546C1.44005 7.67086 1.93006 7.40895 2.4635 7.30284C2.99695 7.19673 3.54988 7.25119 4.05238 7.45933C4.55488 7.66747 4.98437 8.01995 5.28654 8.47218C5.58872 8.92442 5.75 9.4561 5.75 10C5.74947 10.7292 5.45957 11.4284 4.94396 11.944C4.42835 12.4596 3.72918 12.7495 3 12.75ZM3 8.75C2.75277 8.75 2.5111 8.82331 2.30554 8.96066C2.09998 9.09802 1.93976 9.29324 1.84515 9.52165C1.75054 9.75006 1.72579 10.0014 1.77402 10.2439C1.82225 10.4863 1.9413 10.7091 2.11612 10.8839C2.29093 11.0587 2.51366 11.1778 2.75614 11.226C2.99861 11.2742 3.24995 11.2495 3.47836 11.1549C3.70676 11.0602 3.90199 10.9 4.03934 10.6945C4.17669 10.4889 4.25 10.2472 4.25 10C4.24947 9.66864 4.11761 9.35101 3.8833 9.1167C3.64899 8.8824 3.33136 8.75053 3 8.75ZM10 12.75C9.4561 12.75 8.92442 12.5887 8.47218 12.2865C8.01995 11.9844 7.66747 11.5549 7.45933 11.0524C7.25119 10.5499 7.19673 9.99695 7.30284 9.4635C7.40895 8.93006 7.67086 8.44005 8.05546 8.05546C8.44005 7.67086 8.93006 7.40895 9.4635 7.30284C9.99695 7.19673 10.5499 7.25119 11.0524 7.45933C11.5549 7.66747 11.9844 8.01995 12.2865 8.47218C12.5887 8.92442 12.75 9.4561 12.75 10C12.7495 10.7292 12.4596 11.4284 11.944 11.944C11.4284 12.4596 10.7292 12.7495 10 12.75ZM10 8.75C9.75278 8.75 9.5111 8.82331 9.30554 8.96066C9.09998 9.09802 8.93976 9.29324 8.84515 9.52165C8.75054 9.75006 8.72579 10.0014 8.77402 10.2439C8.82225 10.4863 8.9413 10.7091 9.11612 10.8839C9.29093 11.0587 9.51366 11.1778 9.75614 11.226C9.99862 11.2742 10.2499 11.2495 10.4784 11.1549C10.7068 11.0602 10.902 10.9 11.0393 10.6945C11.1767 10.4889 11.25 10.2472 11.25 10C11.2495 9.66864 11.1176 9.35101 10.8833 9.1167C10.649 8.8824 10.3314 8.75053 10 8.75ZM17 12.75C16.4561 12.75 15.9244 12.5887 15.4722 12.2865C15.0199 11.9844 14.6675 11.5549 14.4593 11.0524C14.2512 10.5499 14.1967 9.99695 14.3028 9.4635C14.409 8.93006 14.6709 8.44005 15.0555 8.05546C15.4401 7.67086 15.9301 7.40895 16.4635 7.30284C16.997 7.19673 17.5499 7.25119 18.0524 7.45933C18.5549 7.66747 18.9844 8.01995 19.2865 8.47218C19.5887 8.92442 19.75 9.4561 19.75 10C19.7495 10.7292 19.4596 11.4284 18.944 11.944C18.4284 12.4596 17.7292 12.7495 17 12.75ZM17 8.75C16.7528 8.75 16.5111 8.82331 16.3055 8.96066C16.1 9.09802 15.9398 9.29324 15.8452 9.52165C15.7505 9.75006 15.7258 10.0014 15.774 10.2439C15.8223 10.4863 15.9413 10.7091 16.1161 10.8839C16.2909 11.0587 16.5137 11.1778 16.7561 11.226C16.9986 11.2742 17.25 11.2495 17.4784 11.1549C17.7068 11.0602 17.902 10.9 18.0393 10.6945C18.1767 10.4889 18.25 10.2472 18.25 10C18.2495 9.66864 18.1176 9.35101 17.8833 9.1167C17.649 8.8824 17.3314 8.75053 17 8.75ZM3 19.75C2.4561 19.75 1.92442 19.5887 1.47218 19.2865C1.01995 18.9844 0.667474 18.5549 0.459333 18.0524C0.251192 17.5499 0.196732 16.997 0.302842 16.4635C0.408951 15.9301 0.670863 15.4401 1.05546 15.0555C1.44005 14.6709 1.93006 14.409 2.4635 14.3028C2.99695 14.1967 3.54988 14.2512 4.05238 14.4593C4.55488 14.6675 4.98437 15.0199 5.28654 15.4722C5.58872 15.9244 5.75 16.4561 5.75 17C5.74947 17.7292 5.45957 18.4284 4.94396 18.944C4.42835 19.4596 3.72918 19.7495 3 19.75ZM3 15.75C2.75277 15.75 2.5111 15.8233 2.30554 15.9607C2.09998 16.098 1.93976 16.2932 1.84515 16.5217C1.75054 16.7501 1.72579 17.0014 1.77402 17.2439C1.82225 17.4863 1.9413 17.7091 2.11612 17.8839C2.29093 18.0587 2.51366 18.1778 2.75614 18.226C2.99861 18.2742 3.24995 18.2495 3.47836 18.1549C3.70676 18.0602 3.90199 17.9 4.03934 17.6945C4.17669 17.4889 4.25 17.2472 4.25 17C4.24947 16.6686 4.11761 16.351 3.8833 16.1167C3.64899 15.8824 3.33136 15.7505 3 15.75ZM10 19.75C9.4561 19.75 8.92442 19.5887 8.47218 19.2865C8.01995 18.9844 7.66747 18.5549 7.45933 18.0524C7.25119 17.5499 7.19673 16.997 7.30284 16.4635C7.40895 15.9301 7.67086 15.4401 8.05546 15.0555C8.44005 14.6709 8.93006 14.409 9.4635 14.3028C9.99695 14.1967 10.5499 14.2512 11.0524 14.4593C11.5549 14.6675 11.9844 15.0199 12.2865 15.4722C12.5887 15.9244 12.75 16.4561 12.75 17C12.7495 17.7292 12.4596 18.4284 11.944 18.944C11.4284 19.4596 10.7292 19.7495 10 19.75ZM10 15.75C9.75278 15.75 9.5111 15.8233 9.30554 15.9607C9.09998 16.098 8.93976 16.2932 8.84515 16.5217C8.75054 16.7501 8.72579 17.0014 8.77402 17.2439C8.82225 17.4863 8.9413 17.7091 9.11612 17.8839C9.29093 18.0587 9.51366 18.1778 9.75614 18.226C9.99862 18.2742 10.2499 18.2495 10.4784 18.1549C10.7068 18.0602 10.902 17.9 11.0393 17.6945C11.1767 17.4889 11.25 17.2472 11.25 17C11.2495 16.6686 11.1176 16.351 10.8833 16.1167C10.649 15.8824 10.3314 15.7505 10 15.75ZM17 19.75C16.4561 19.75 15.9244 19.5887 15.4722 19.2865C15.0199 18.9844 14.6675 18.5549 14.4593 18.0524C14.2512 17.5499 14.1967 16.997 14.3028 16.4635C14.409 15.9301 14.6709 15.4401 15.0555 15.0555C15.4401 14.6709 15.9301 14.409 16.4635 14.3028C16.997 14.1967 17.5499 14.2512 18.0524 14.4593C18.5549 14.6675 18.9844 15.0199 19.2865 15.4722C19.5887 15.9244 19.75 16.4561 19.75 17C19.7495 17.7292 19.4596 18.4284 18.944 18.944C18.4284 19.4596 17.7292 19.7495 17 19.75ZM17 15.75C16.7528 15.75 16.5111 15.8233 16.3055 15.9607C16.1 16.098 15.9398 16.2932 15.8452 16.5217C15.7505 16.7501 15.7258 17.0014 15.774 17.2439C15.8223 17.4863 15.9413 17.7091 16.1161 17.8839C16.2909 18.0587 16.5137 18.1778 16.7561 18.226C16.9986 18.2742 17.25 18.2495 17.4784 18.1549C17.7068 18.0602 17.902 17.9 18.0393 17.6945C18.1767 17.4889 18.25 17.2472 18.25 17C18.2495 16.6686 18.1176 16.351 17.8833 16.1167C17.649 15.8824 17.3314 15.7505 17 15.75Z" fill="url(#paint0_linear_1613_3979)"/>
<defs>
<linearGradient id="paint0_linear_1613_3979" x1="0.25" y1="0.25" x2="18.3027" y2="9.77398" gradientUnits="userSpaceOnUse">
<stop offset="0.18" stop-color="#6D30FB"/>
<stop offset="1" stop-color="#C13DFF"/>
</linearGradient>
</defs>
</svg>
