<svg width="60" height="50" viewBox="0 0 60 50" fill="none" xmlns="http://www.w3.org/2000/svg">
<path d="M29.3806 30.3469C36.0553 30.3469 41.4662 24.9419 41.4662 18.2746C41.4662 11.6073 36.0553 6.20239 29.3806 6.20239C22.7059 6.20239 17.2949 11.6073 17.2949 18.2746C17.2949 24.9419 22.7059 30.3469 29.3806 30.3469Z" fill="#00B5E6"/>
<path d="M36.5649 15.613H32.0684V11.1216H26.7155V15.613H22.1953V20.96H26.7155V25.4514H32.0684V20.96H36.5649V15.613Z" fill="#E4E4E6"/>
<path d="M53.9334 34.981H6.04282C2.71213 34.981 0 37.6901 0 41.0171V43.9638C0 47.2908 2.71213 50 6.04282 50H24.8374C28.1681 50 30.8803 47.2908 30.8803 43.9638V43.2984V40.3041V37.9277H53.9572C55.6701 37.9277 57.05 39.3298 57.05 41.0171C57.05 42.7281 55.6701 44.1064 53.9572 44.1064H42.7994V47.0532H53.9572C57.2879 47.0532 60 44.3441 60 41.0171C59.9762 37.6901 57.2641 34.981 53.9334 34.981ZM27.9064 43.9638C27.9064 45.6749 26.5028 47.0532 24.8136 47.0532H6.01903C4.30611 47.0532 2.92625 45.6749 2.92625 43.9638V41.0171C2.92625 39.3061 4.30611 37.9277 6.01903 37.9277H27.9064V40.3041V43.2984V43.9638Z" fill="#00171D"/>
<path opacity="0.5" d="M48.4376 44.1064H42.7754V47.0532H48.4376V44.1064Z" fill="#E4E4E6"/>
<path opacity="0.5" d="M16.6777 34.981V37.904H26.1702H27.9069V40.2804V43.2984V43.5599H30.857V43.2984V40.2804V37.904H33.2122H42.1099V34.981H16.6777Z" fill="#E4E4E6"/>
<path d="M43.6315 0.974365H37.6838V2.66163H43.6315C45.3444 2.66163 46.7243 4.06372 46.7243 5.75098V18.5837C46.7243 19.0827 46.7005 19.5818 46.6529 20.0808C45.8916 28.9449 38.4213 35.9078 29.3571 35.9078C20.2928 35.9078 12.8464 28.9449 12.0613 20.0808C12.0137 19.5818 11.9899 19.0827 11.9899 18.5837V5.75098C11.9899 4.03995 13.3936 2.66163 15.0827 2.66163H21.0304V0.974365H15.0827C12.4419 0.974365 10.3008 3.11315 10.3008 5.75098V18.5837C10.3008 19.0827 10.3246 19.5818 10.3484 20.0808C11.1097 29.8717 19.3412 37.5951 29.3095 37.5951C39.3016 37.5951 47.5093 29.8717 48.2706 20.0808C48.3182 19.5818 48.3182 19.0827 48.3182 18.5837V5.75098C48.4134 3.11315 46.2722 0.974365 43.6315 0.974365Z" fill="#E4E4E6"/>
<path opacity="0.3" d="M48.4144 11.0742V18.5837C48.4144 19.0828 48.3907 19.5818 48.3669 20.0809H46.6777C46.7253 19.5818 46.7491 19.0828 46.7491 18.5837V11.0742H48.4144Z" fill="#00171D"/>
<path opacity="0.3" d="M12.1098 20.0809H10.4206C10.373 19.5818 10.373 19.0828 10.373 18.5837V11.0742H12.0622V18.5837C12.0384 19.0828 12.0622 19.5818 12.1098 20.0809Z" fill="#00171D"/>
<path d="M29.3814 38.3079C18.4852 38.3079 9.61133 29.4438 9.61133 18.5598V15.0189C9.61133 14.1396 10.325 13.4504 11.1815 13.4504C12.0618 13.4504 12.7517 14.1634 12.7517 15.0189V18.5598C12.7517 27.709 20.1982 35.1472 29.3576 35.1472C38.517 35.1472 45.9634 27.709 45.9634 18.5598V15.0189C45.9634 14.1396 46.6772 13.4504 47.5336 13.4504C48.4139 13.4504 49.1038 14.1634 49.1038 15.0189V18.5598C49.1514 29.4676 40.2775 38.3079 29.3814 38.3079Z" fill="#00171D"/>
<path d="M33.7823 36.5257C33.7823 38.9497 31.8077 40.8983 29.4048 40.8983C28.9528 40.8983 28.5246 40.827 28.1201 40.7082C27.8584 40.6369 27.6205 40.5419 27.4064 40.423C26.0028 39.7101 25.0273 38.2367 25.0273 36.5257C25.0273 34.8384 26.0028 33.3651 27.4064 32.6284C27.6443 32.5095 27.8822 32.4145 28.1201 32.3432C28.5246 32.2244 28.9528 32.1531 29.4048 32.1531C31.8077 32.1531 33.7823 34.1017 33.7823 36.5257Z" fill="#00171D"/>
<path d="M29.3817 39.7337C31.1555 39.7337 32.5934 38.2974 32.5934 36.5256C32.5934 34.7537 31.1555 33.3174 29.3817 33.3174C27.6079 33.3174 26.1699 34.7537 26.1699 36.5256C26.1699 38.2974 27.6079 39.7337 29.3817 39.7337Z" fill="white"/>
<path d="M31.426 36.5257C31.426 37.6663 30.4981 38.5694 29.38 38.5694C28.238 38.5694 27.334 37.6426 27.334 36.5257C27.334 35.385 28.2618 34.4819 29.38 34.4819C30.5219 34.4819 31.426 35.4087 31.426 36.5257Z" fill="#00171D"/>
<path d="M25.3122 0.926743V2.75659C25.3122 3.25564 24.9077 3.65963 24.4081 3.65963H22.029C21.5294 3.65963 21.125 3.25564 21.125 2.75659V0.926743C21.125 0.427693 21.5294 0.023702 22.029 0.023702H24.4081C24.8839 -6.22775e-05 25.3122 0.403929 25.3122 0.926743Z" fill="#00171D"/>
<path d="M25.3117 0.926805V2.75665C25.3117 3.2557 24.9073 3.65969 24.4077 3.65969H22.5996V0H24.4077C24.8835 0 25.3117 0.403991 25.3117 0.926805Z" fill="#00B5E6"/>
<path d="M33.4727 0.926743V2.75659C33.4727 3.25564 33.8771 3.65963 34.3767 3.65963H36.7558C37.2554 3.65963 37.6598 3.25564 37.6598 2.75659V0.926743C37.6598 0.427693 37.2554 0.023702 36.7558 0.023702H34.3767C33.8771 -6.22775e-05 33.4727 0.403929 33.4727 0.926743Z" fill="#00171D"/>
<path d="M33.4727 0.926805V2.75665C33.4727 3.2557 33.8771 3.65969 34.3767 3.65969H36.1848V0H34.3767C33.8771 0 33.4727 0.403991 33.4727 0.926805Z" fill="#00B5E6"/>
<path d="M46.0596 45.6036C46.0596 48.0275 44.085 49.9762 41.6822 49.9762C41.2301 49.9762 40.8019 49.9049 40.3975 49.7861C40.1358 49.7148 39.8979 49.6197 39.6838 49.5009C38.2801 48.788 37.3047 47.3146 37.3047 45.6036C37.3047 43.9163 38.2801 42.4429 39.6838 41.7062C39.9217 41.5874 40.1596 41.4924 40.3975 41.4211C40.8019 41.3023 41.2301 41.231 41.6822 41.231C44.085 41.231 46.0596 43.1796 46.0596 45.6036Z" fill="#00171D"/>
<path d="M41.659 48.8119C43.4328 48.8119 44.8707 47.3755 44.8707 45.6037C44.8707 43.8319 43.4328 42.3955 41.659 42.3955C39.8852 42.3955 38.4473 43.8319 38.4473 45.6037C38.4473 47.3755 39.8852 48.8119 41.659 48.8119Z" fill="white"/>
<path d="M43.7053 45.6035C43.7053 46.7442 42.7774 47.6473 41.6593 47.6473C40.5173 47.6473 39.6133 46.7205 39.6133 45.6035C39.6133 44.4629 40.5411 43.5598 41.6593 43.5598C42.8012 43.5598 43.7053 44.4629 43.7053 45.6035Z" fill="#00171D"/>
</svg>
