<svg width="51" height="51" viewBox="0 0 51 51" fill="none" xmlns="http://www.w3.org/2000/svg">
<g clip-path="url(#clip0_1772_6765)">
<path d="M32.5376 50.9995C32.4114 50.9995 32.2847 50.999 32.157 50.9978C28.2269 50.963 24.1957 49.7928 20.1757 47.5194C17.0192 45.7343 13.8463 43.2568 10.7453 40.1557C3.67904 33.0896 0.0644471 25.9191 0.00199431 18.8436C-0.0376487 14.3595 0.471934 7.83597 5.33329 2.97451C7.23287 1.07493 9.60269 0.0188157 12.0061 0.000787098L12.07 0.000488281H12.0867C14.9955 0.000488281 17.6965 1.59209 19.1374 4.15733L20.7618 7.04918L20.7895 7.10685C21.6152 8.82705 22.0194 10.1483 22.1001 11.391C22.2156 13.1687 21.6416 14.707 20.3944 15.9635L15.8805 20.6423C16.5515 22.4981 18.2684 26.4996 21.531 29.7692C24.7607 32.9919 28.6545 34.6359 30.499 35.2826L35.0238 30.5864C36.2917 29.3209 37.796 28.7169 39.4926 28.7907C40.7961 28.8476 42.1704 29.2839 43.9482 30.2052L44.0073 30.2371L46.8434 31.8301C49.4134 33.2738 51.0062 35.9822 51.0001 38.8988L50.9997 38.9689C50.9818 41.3647 49.9258 43.7346 48.0261 45.6341C45.9148 47.7454 43.2526 49.249 40.1132 50.103C37.8983 50.7056 35.4165 50.9995 32.5376 50.9995ZM12.0853 3.98472C12.0825 3.98472 12.0798 3.98472 12.077 3.98472L12.0352 3.98491C10.6856 3.99507 9.30566 4.63673 8.15063 5.79176C4.34829 9.59411 3.95275 15.0416 3.98602 18.8083C4.03901 24.8025 7.26096 31.0369 13.5624 37.3384C19.9294 43.7055 26.1974 46.9607 32.1922 47.0137C35.9454 47.0469 41.3778 46.6477 45.2087 42.8167C46.3639 41.6617 47.0055 40.2818 47.0157 38.9314L47.0159 38.8833C47.0189 37.4157 46.2051 36.0413 44.8921 35.3037L42.0859 33.7275C39.3191 32.2995 38.5243 32.7261 37.8511 33.3936L31.7134 39.7645L30.5947 39.4841C30.3237 39.4161 23.8986 37.7613 18.7151 32.5878L18.7124 32.5851C13.5512 27.4138 11.7643 20.9118 11.6907 20.6375L11.399 19.5493L17.5612 13.1623C18.1435 12.5788 18.5962 11.7673 17.2247 8.88751L15.6638 6.10851C14.9274 4.798 13.5568 3.98472 12.0853 3.98472ZM43.9983 7.00227C39.4832 2.48714 33.48 0.000587887 27.0946 0.000587887V3.98481C38.0792 3.98481 47.0158 12.9214 47.0158 23.9059H51C51 17.5205 48.5134 11.5173 43.9983 7.00227ZM27.0946 15.9374V19.9216C29.2915 19.9216 31.0789 21.7089 31.0789 23.9058H35.0631C35.0631 19.512 31.4884 15.9374 27.0946 15.9374ZM27.0946 7.96894V11.9532C33.6853 11.9532 39.0473 17.3151 39.0473 23.9058H43.0315C43.0315 15.1182 35.8824 7.96894 27.0946 7.96894Z" fill="#00B5E6"/>
</g>
<defs>
<clipPath id="clip0_1772_6765">
<rect width="51" height="51" fill="white"/>
</clipPath>
</defs>
</svg>
