<svg width="60" height="60" viewBox="0 0 60 60" fill="none" xmlns="http://www.w3.org/2000/svg">
<path d="M60 30C60 24.7738 57.4318 20.0131 53.0916 17.1421C53.2093 16.5701 53.271 15.9925 53.271 15.4206C53.271 10.6262 49.3738 6.72897 44.5794 6.72897C44.4673 6.72897 44.3607 6.72897 44.2542 6.73458C43.8393 2.94953 40.6206 0 36.729 0C33.7963 0 31.2561 1.67664 30 4.11589C28.7439 1.67664 26.2037 0 23.271 0C19.3794 0 16.1607 2.95514 15.7458 6.73458C15.6393 6.73458 15.5327 6.72897 15.4206 6.72897C10.6262 6.72897 6.72897 10.6262 6.72897 15.4206C6.72897 15.9925 6.79065 16.5701 6.90841 17.1421C2.57383 20.0131 0 24.7738 0 30C0 35.2262 2.56822 39.9869 6.90841 42.8579C6.79065 43.4299 6.72897 44.0075 6.72897 44.5794C6.72897 49.3738 10.6262 53.271 15.4206 53.271C15.5327 53.271 15.6393 53.271 15.7458 53.2654C16.1607 57.0505 19.3794 60 23.271 60C26.2037 60 28.7439 58.3234 30 55.8841C31.2561 58.3234 33.7963 60 36.729 60C40.6206 60 43.8393 57.0449 44.2542 53.2654C44.3607 53.2654 44.4673 53.271 44.5794 53.271C49.3738 53.271 53.271 49.3738 53.271 44.5794C53.271 44.0075 53.2093 43.4299 53.0916 42.8579C57.4262 39.9869 60 35.2262 60 30ZM51.6953 41.7533L51.1458 42.0841L51.3196 42.7009C51.4935 43.3234 51.5832 43.957 51.5832 44.5794C51.5832 48.443 48.4374 51.5888 44.5738 51.5888C44.2093 51.5888 43.8393 51.5439 43.5589 51.5047L42.6056 51.3757V52.4299C42.6056 55.6766 39.9645 58.3178 36.7178 58.3178C33.471 58.3178 30.8299 55.6766 30.8299 52.4299V45.7009H29.1477V52.4299C29.1477 55.6766 26.5065 58.3178 23.2598 58.3178C20.0131 58.3178 17.372 55.6766 17.372 52.4579V51.3757L16.4243 51.5047C16.1439 51.5439 15.7738 51.5888 15.4093 51.5888C11.5458 51.5888 8.4 48.443 8.4 44.5794C8.4 43.9514 8.48972 43.3234 8.66355 42.7009L8.83738 42.0841L8.28785 41.7533C4.14393 39.2355 1.66542 34.8393 1.66542 30C1.66542 25.1607 4.13832 20.7645 8.28785 18.2467L8.83738 17.9159L8.66355 17.2991C8.48972 16.6766 8.4 16.043 8.4 15.4206C8.4 11.557 11.5458 8.41121 15.4093 8.41121C15.7738 8.41121 16.1439 8.45607 16.4243 8.49533L17.3776 8.6243V7.57009C17.3776 4.32336 20.0187 1.68224 23.2654 1.68224C26.5122 1.68224 29.1533 4.32336 29.1533 7.57009V12.0561H30.8355V7.57009C30.8355 4.32336 33.4766 1.68224 36.7234 1.68224C39.9701 1.68224 42.6112 4.32337 42.6112 7.54206V8.6243L43.5589 8.49533C43.8393 8.45607 44.2093 8.41121 44.5738 8.41121C48.4374 8.41121 51.5832 11.557 51.5832 15.4206C51.5832 16.0486 51.4935 16.6766 51.3196 17.2991L51.1458 17.9159L51.6953 18.2467C55.8393 20.7645 58.3178 25.1607 58.3178 30C58.3178 34.8393 55.8449 39.2355 51.6953 41.7533Z" fill="url(#paint0_linear_1657_3305)"/>
<path d="M24.3929 17.9438C20.8378 17.9438 17.9443 20.8373 17.9443 24.3924V41.2149H19.6266V30.841H29.1593V41.2149H30.8415V24.3924C30.8415 20.8373 27.9481 17.9438 24.3929 17.9438ZM29.1593 29.1588H19.6266V24.3924C19.6266 21.7625 21.763 19.6261 24.3929 19.6261C27.0228 19.6261 29.1593 21.7625 29.1593 24.3924V29.1588ZM34.4864 19.6261H38.1313V39.5326H34.4864V41.2149H43.4584V39.5326H39.8135V19.6261H43.4584V17.9438H34.4864V19.6261Z" fill="url(#paint1_linear_1657_3305)"/>
<defs>
<linearGradient id="paint0_linear_1657_3305" x1="0" y1="0" x2="55.5468" y2="29.3046" gradientUnits="userSpaceOnUse">
<stop offset="0.18" stop-color="#6D30FB"/>
<stop offset="1" stop-color="#C13DFF"/>
</linearGradient>
<linearGradient id="paint1_linear_1657_3305" x1="17.9443" y1="17.9438" x2="40.5693" y2="31.0305" gradientUnits="userSpaceOnUse">
<stop offset="0.18" stop-color="#6D30FB"/>
<stop offset="1" stop-color="#C13DFF"/>
</linearGradient>
</defs>
</svg>
