<svg width="60" height="60" viewBox="0 0 60 60" fill="none" xmlns="http://www.w3.org/2000/svg">
<path d="M24.6507 0C22.6585 0.00116918 20.7156 0.619631 19.0893 1.7703C17.4631 2.92097 16.2333 4.5473 15.5692 6.42556H15.0123C12.4561 6.42556 10.0046 7.44102 8.19702 9.24856C6.38948 11.0561 5.37401 13.5076 5.37401 16.0639C5.37132 17.5022 5.69347 18.9226 6.31643 20.2191C4.43455 21.0655 2.83727 22.4376 1.7167 24.1702C0.596134 25.9029 0 27.9225 0 29.9859C0 32.0494 0.596134 34.0689 1.7167 35.8016C2.83727 37.5343 4.43455 38.9064 6.31643 39.7528C5.69347 41.0492 5.37132 42.4696 5.37401 43.908C5.37401 46.4642 6.38948 48.9158 8.19702 50.7233C10.0046 52.5308 12.4561 53.5463 15.0123 53.5463H15.5692C16.3299 55.6859 17.8216 57.4883 19.7814 58.6355C21.7411 59.7827 24.0429 60.2012 26.281 59.8171C28.5191 59.4329 30.5497 58.2709 32.0148 56.5359C33.4799 54.8009 34.2853 52.6043 34.289 50.3335V43.908H32.1472V50.3335C32.1364 52.1589 31.46 53.9177 30.2448 55.2798C29.0296 56.642 27.3591 57.5139 25.5468 57.7321C23.7344 57.9503 21.9047 57.4997 20.401 56.4648C18.8972 55.4299 17.8227 53.882 17.3791 52.1113C17.3205 51.8736 17.1822 51.6633 16.9874 51.5152C16.7925 51.3671 16.5528 51.2902 16.3082 51.2974H16.1368C15.7651 51.3604 15.3893 51.3961 15.0123 51.4044C13.0242 51.4044 11.1174 50.6146 9.71153 49.2088C8.30567 47.8029 7.51586 45.8962 7.51586 43.908C7.51402 42.4411 7.94625 41.0066 8.75814 39.7849C8.85061 39.6462 8.90942 39.4878 8.92987 39.3223C8.95032 39.1568 8.93186 38.9889 8.87594 38.8318C8.81973 38.6745 8.72751 38.5325 8.60664 38.4172C8.48577 38.3019 8.33961 38.2165 8.17984 38.1678C6.43379 37.6255 4.90701 36.5389 3.82274 35.0667C2.73847 33.5946 2.15357 31.8143 2.15357 29.9859C2.15357 28.1576 2.73847 26.3772 3.82274 24.9051C4.90701 23.433 6.43379 22.3463 8.17984 21.8041C8.33961 21.7553 8.48577 21.6699 8.60664 21.5546C8.72751 21.4393 8.81973 21.2974 8.87594 21.1401C8.93186 20.983 8.95032 20.815 8.92987 20.6496C8.90942 20.4841 8.85061 20.3257 8.75814 20.187C7.94625 18.9653 7.51402 17.5307 7.51586 16.0639C7.51586 14.0757 8.30567 12.1689 9.71153 10.7631C11.1174 9.35721 13.0242 8.56741 15.0123 8.56741C15.3997 8.5706 15.7864 8.60281 16.1689 8.66379C16.4347 8.70647 16.7067 8.64753 16.931 8.49869C17.1552 8.34986 17.3152 8.12205 17.3791 7.8606C17.8227 6.0899 18.8972 4.54192 20.401 3.50706C21.9047 2.47221 23.7344 2.02159 25.5468 2.23976C27.3591 2.45792 29.0296 3.32987 30.2448 4.69203C31.46 6.05419 32.1364 7.81294 32.1472 9.63833V16.0639H34.289V9.63833C34.289 7.08209 33.2736 4.63054 31.466 2.823C29.6585 1.01546 27.2069 0 24.6507 0ZM32.1472 37.4824H34.289V22.4894H32.1472V37.4824Z" fill="url(#paint0_linear_1657_3295)"/>
<path d="M47.1405 49.3696V44.9788C47.1405 44.2756 47.002 43.5793 46.7329 42.9297C46.4638 42.28 46.0694 41.6897 45.5722 41.1925C45.0749 40.6953 44.4847 40.3008 43.835 40.0317C43.1853 39.7627 42.4891 39.6241 41.7859 39.6241H26.7072C25.9011 39.6221 25.1048 39.8021 24.3779 40.1507C23.651 40.4993 23.0123 41.0075 22.5092 41.6375L20.7957 43.7793C20.4967 44.1512 20.1185 44.4519 19.6888 44.6593C19.259 44.8668 18.7884 44.9759 18.3112 44.9788H7.51624C7.23221 44.9788 6.95982 45.0916 6.75898 45.2924C6.55814 45.4933 6.44531 45.7657 6.44531 46.0497C6.44531 46.3337 6.55814 46.6061 6.75898 46.807C6.95982 47.0078 7.23221 47.1206 7.51624 47.1206H18.3112C19.1173 47.1227 19.9136 46.9427 20.6405 46.5941C21.3674 46.2455 22.0062 45.7373 22.5092 45.1073L24.2227 42.9654C24.5217 42.5935 24.8999 42.2929 25.3297 42.0854C25.7594 41.878 26.23 41.7689 26.7072 41.766H41.7859C42.638 41.766 43.4551 42.1045 44.0576 42.707C44.6602 43.3095 44.9986 44.1267 44.9986 44.9788V49.3696C43.6985 49.635 42.5432 50.3737 41.7567 51.4425C40.9703 52.5112 40.6087 53.834 40.7421 55.1542C40.8754 56.4745 41.4943 57.6981 42.4786 58.588C43.4629 59.4779 44.7426 59.9706 46.0696 59.9706C47.3965 59.9706 48.6762 59.4779 49.6606 58.588C50.6449 57.6981 51.2637 56.4745 51.3971 55.1542C51.5305 53.834 51.1689 52.5112 50.3824 51.4425C49.596 50.3737 48.4407 49.635 47.1405 49.3696ZM46.0696 57.8299C45.4342 57.8299 44.813 57.6415 44.2847 57.2884C43.7563 56.9354 43.3445 56.4336 43.1014 55.8466C42.8582 55.2595 42.7946 54.6136 42.9185 53.9903C43.0425 53.3671 43.3485 52.7947 43.7978 52.3453C44.2471 51.896 44.8196 51.59 45.4428 51.4661C46.066 51.3421 46.712 51.4057 47.2991 51.6489C47.8861 51.8921 48.3879 52.3039 48.7409 52.8322C49.0939 53.3605 49.2824 53.9817 49.2824 54.6171C49.2824 55.4692 48.9439 56.2864 48.3414 56.8889C47.7388 57.4914 46.9217 57.8299 46.0696 57.8299ZM51.4242 5.35452C51.424 4.34139 51.1364 3.34911 50.5947 2.49292C50.0531 1.63673 49.2797 0.951775 48.3643 0.5176C47.4489 0.083426 46.4291 -0.0821476 45.4234 0.0401097C44.4177 0.162367 43.4673 0.567438 42.6826 1.20828C41.8979 1.84912 41.3111 2.69942 40.9904 3.66044C40.6696 4.62146 40.6281 5.65375 40.8706 6.63742C41.1132 7.6211 41.6298 8.51578 42.3605 9.21756C43.0912 9.91935 44.006 10.3994 44.9986 10.6021V14.9929C44.9986 15.8449 44.6602 16.6621 44.0576 17.2646C43.4551 17.8671 42.638 18.2056 41.7859 18.2056H26.7072C26.2255 18.2047 25.7502 18.0954 25.3164 17.886C24.8827 17.6765 24.5015 17.3722 24.2013 16.9955L22.4878 14.8536C21.9859 14.2285 21.3501 13.724 20.6272 13.3773C19.9043 13.0307 19.1129 12.8509 18.3112 12.851H7.51624C7.23221 12.851 6.95982 12.9638 6.75898 13.1647C6.55814 13.3655 6.44531 13.6379 6.44531 13.9219C6.44531 14.206 6.55814 14.4783 6.75898 14.6792C6.95982 14.88 7.23221 14.9929 7.51624 14.9929H18.3112C18.7929 14.9938 19.2682 15.103 19.702 15.3125C20.1358 15.522 20.5169 15.8263 20.8171 16.203L22.5306 18.3448C23.0325 18.97 23.6683 19.4745 24.3912 19.8211C25.1141 20.1678 25.9056 20.3476 26.7072 20.3475H41.7859C42.4891 20.3475 43.1853 20.209 43.835 19.9399C44.4847 19.6708 45.0749 19.2764 45.5722 18.7791C46.0694 18.2819 46.4638 17.6916 46.7329 17.042C47.002 16.3923 47.1405 15.696 47.1405 14.9929V10.6021C48.35 10.3552 49.437 9.698 50.2176 8.74175C50.9982 7.78551 51.4245 6.58892 51.4242 5.35452ZM46.0696 8.5673C45.4342 8.5673 44.813 8.37887 44.2847 8.02584C43.7563 7.67282 43.3445 7.17105 43.1014 6.58399C42.8582 5.99694 42.7946 5.35095 42.9185 4.72774C43.0425 4.10452 43.3485 3.53206 43.7978 3.08274C44.2471 2.63342 44.8196 2.32744 45.4428 2.20347C46.066 2.07951 46.712 2.14313 47.2991 2.3863C47.8861 2.62946 48.3879 3.04125 48.7409 3.56959C49.0939 4.09793 49.2824 4.71909 49.2824 5.35452C49.2824 6.2066 48.9439 7.02378 48.3414 7.62629C47.7388 8.22881 46.9217 8.5673 46.0696 8.5673ZM52.4951 22.4893C50.694 22.4914 48.9538 23.142 47.593 24.3219C46.2322 25.5018 45.3416 27.1322 45.0843 28.9149H22.4021C22.1367 27.6147 21.398 26.4594 20.3292 25.673C19.2605 24.8865 17.9377 24.5249 16.6175 24.6583C15.2972 24.7917 14.0735 25.4105 13.1836 26.3948C12.2937 27.3792 11.801 28.6589 11.801 29.9858C11.801 31.3128 12.2937 32.5925 13.1836 33.5768C14.0735 34.5611 15.2972 35.18 16.6175 35.3133C17.9377 35.4467 19.2605 35.0851 20.3292 34.2986C21.398 33.5122 22.1367 32.3569 22.4021 31.0567H45.0843C45.2897 32.4793 45.8996 33.8129 46.8415 34.8985C47.7834 35.9842 49.0176 36.7762 50.397 37.1801C51.7764 37.5841 53.2428 37.583 54.6215 37.177C56.0003 36.771 57.2333 35.9771 58.1736 34.8901C59.1139 33.803 59.7219 32.4686 59.9251 31.0457C60.1283 29.6228 59.9182 28.1715 59.3198 26.8647C58.7214 25.5579 57.7599 24.4507 56.5499 23.6749C55.3399 22.8992 53.9324 22.4876 52.4951 22.4893ZM17.1546 33.1986C16.5191 33.1986 15.898 33.0102 15.3696 32.6571C14.8413 32.3041 14.4295 31.8023 14.1864 31.2153C13.9432 30.6282 13.8796 29.9823 14.0035 29.359C14.1275 28.7358 14.4335 28.1634 14.8828 27.714C15.3321 27.2647 15.9046 26.9587 16.5278 26.8348C17.151 26.7108 17.797 26.7744 18.3841 27.0176C18.9711 27.2608 19.4729 27.6726 19.8259 28.2009C20.1789 28.7292 20.3674 29.3504 20.3674 29.9858C20.3674 30.8379 20.0289 31.6551 19.4264 32.2576C18.8238 32.8601 18.0067 33.1986 17.1546 33.1986ZM52.4951 35.3404C51.4361 35.3404 50.4008 35.0264 49.5203 34.438C48.6397 33.8497 47.9534 33.0134 47.5481 32.0349C47.1428 31.0565 47.0368 29.9799 47.2434 28.9412C47.45 27.9025 47.96 26.9484 48.7088 26.1995C49.4577 25.4507 50.4118 24.9407 51.4505 24.7341C52.4892 24.5275 53.5658 24.6335 54.5443 25.0388C55.5227 25.4441 56.359 26.1304 56.9473 27.0109C57.5357 27.8915 57.8498 28.9268 57.8498 29.9858C57.8498 31.406 57.2856 32.7679 56.2814 33.7721C55.2772 34.7763 53.9153 35.3404 52.4951 35.3404Z" fill="url(#paint1_linear_1657_3295)"/>
<defs>
<linearGradient id="paint0_linear_1657_3295" x1="0" y1="0" x2="37.1934" y2="11.2219" gradientUnits="userSpaceOnUse">
<stop offset="0.18" stop-color="#6D30FB"/>
<stop offset="1" stop-color="#C13DFF"/>
</linearGradient>
<linearGradient id="paint1_linear_1657_3295" x1="6.44531" y1="0.000976563" x2="58.3122" y2="24.4373" gradientUnits="userSpaceOnUse">
<stop offset="0.18" stop-color="#6D30FB"/>
<stop offset="1" stop-color="#C13DFF"/>
</linearGradient>
</defs>
</svg>
