<svg width="274" height="60" viewBox="0 0 274 60" fill="none" xmlns="http://www.w3.org/2000/svg">
<path d="M0 59.3132L11.3103 56.9871L3.6407 48.3551L0 59.3132ZM274 18.3136L266.646 9.41135L262.613 20.2313L274 18.3136ZM5.27686 54.7271L5.91831 55.4943C7.44221 54.2201 8.98667 52.9708 10.5508 51.7461L9.93436 50.9587L9.31788 50.1713C7.73703 51.4091 6.17593 52.6719 4.63542 53.9599L5.27686 54.7271ZM13.1056 48.5292L13.7054 49.3293C15.2944 48.1382 16.9026 46.9715 18.5291 45.8291L17.9543 45.0108L17.3795 44.1924C15.7364 45.3466 14.1115 46.5254 12.5058 47.729L13.1056 48.5292ZM21.2474 42.7471L21.8055 43.5769C23.453 42.4687 25.1181 41.3846 26.8001 40.3242L26.2668 39.4783L25.7335 38.6324C24.035 39.7031 22.3533 40.7981 20.6893 41.9174L21.2474 42.7471ZM29.6684 37.3797L30.1852 38.2358C31.8848 37.2098 33.6007 36.2073 35.332 35.2281L34.8397 34.3576L34.3474 33.4872C32.5998 34.4756 30.8676 35.4877 29.1516 36.5236L29.6684 37.3797ZM38.3361 32.4227L38.8122 33.3021C40.5586 32.3566 42.3197 31.4342 44.0949 30.5345L43.6428 29.6425L43.1908 28.7506C41.3997 29.6583 39.6225 30.5891 37.86 31.5434L38.3361 32.4227ZM47.2221 27.8683L47.6583 28.7682C49.446 27.9016 51.2471 27.0575 53.0607 26.2358L52.648 25.3249L52.2353 24.414C50.4061 25.2428 48.5894 26.0942 46.7859 26.9685L47.2221 27.8683ZM56.2995 23.7076L56.6968 24.6253C58.5208 23.8358 60.3567 23.0683 62.2038 22.3226L61.8294 21.3953L61.4551 20.4681C59.5929 21.2198 57.7417 21.9937 55.9023 22.7899L56.2995 23.7076ZM65.5437 19.9309L65.903 20.8641C67.7586 20.1496 69.6248 19.4568 71.5008 18.7853L71.1638 17.8438L70.8267 16.9023C68.9361 17.579 67.055 18.2774 65.1844 18.9976L65.5437 19.9309ZM74.9322 16.5277L75.2546 17.4743C77.1372 16.8332 79.0289 16.2131 80.929 15.6139L80.6283 14.6602L80.3275 13.7065C78.4131 14.3102 76.507 14.935 74.6098 15.5811L74.9322 16.5277ZM84.4449 13.4879L84.7314 14.446C86.6372 13.876 88.5507 13.3267 90.4713 12.7979L90.2058 11.8338L89.9403 10.8696C88.0059 11.4023 86.0783 11.9556 84.1584 12.5298L84.4449 13.4879ZM94.0636 10.8012L94.3152 11.769C96.2408 11.2683 98.1729 10.7879 100.111 10.3274L99.8794 9.35453L99.6483 8.38162C97.697 8.84527 95.7513 9.32912 93.812 9.83338L94.0636 10.8012ZM103.772 8.45808L103.99 9.43409C105.932 9.00081 107.88 8.58737 109.832 8.19357L109.634 7.21332L109.436 6.23307C107.471 6.62953 105.51 7.04579 103.554 7.48206L103.772 8.45808ZM113.555 6.44962L113.739 7.43243C115.696 7.06487 117.657 6.71681 119.62 6.38804L119.455 5.40176L119.29 4.41549C117.314 4.74642 115.34 5.09679 113.37 5.46681L113.555 6.44962ZM123.399 4.7678L123.552 5.75614C125.52 5.45283 127.491 5.1687 129.464 4.90354L129.331 3.91245L129.198 2.92137C127.212 3.18822 125.228 3.47418 123.247 3.77946L123.399 4.7678ZM133.293 3.4056L133.413 4.3983C135.391 4.15797 137.371 3.93655 139.351 3.73383L139.249 2.73903L139.147 1.74423C137.155 1.94822 135.163 2.17104 133.172 2.4129L133.293 3.4056ZM143.224 2.35707L143.313 3.35306C145.299 3.1747 147.285 3.015 149.27 2.87378L149.199 1.8763L149.128 0.878818C147.131 1.02092 145.133 1.1816 143.134 1.36108L143.224 2.35707ZM153.182 1.61747L153.241 2.61574C155.233 2.49858 157.223 2.39989 159.211 2.31948L159.171 1.32029L159.131 0.321109C157.13 0.402017 155.128 0.501308 153.124 0.619194L153.182 1.61747ZM163.158 1.18329L163.187 2.18289C165.182 2.12644 167.175 2.08833 169.165 2.06833L169.155 1.06838L169.145 0.0684285C167.143 0.0885512 165.138 0.126899 163.13 0.183686L163.158 1.18329ZM173.146 1.05243L173.144 2.05242C175.14 2.05654 177.133 2.07884 179.121 2.11913L179.141 1.11933L179.161 0.119538C177.162 0.0790076 175.157 0.0565649 173.148 0.0524288L173.146 1.05243ZM183.133 1.2245L183.101 2.22397C185.096 2.28868 187.086 2.37148 189.069 2.47216L189.12 1.47345L189.171 0.474733C187.175 0.373436 185.173 0.290126 183.166 0.225025L183.133 1.2245ZM193.111 1.70057L193.048 2.69859C195.04 2.82421 197.024 2.96786 199.001 3.12932L199.082 2.13264L199.164 1.13596C197.175 0.973496 195.178 0.828949 193.174 0.702552L193.111 1.70057ZM203.069 2.48342L202.976 3.47901C204.962 3.66628 206.94 3.87158 208.908 4.09468L209.02 3.10104L209.133 2.10741C207.152 1.88289 205.162 1.67629 203.163 1.48784L203.069 2.48342ZM212.998 3.57772L212.872 4.56983C214.854 4.82023 216.825 5.08875 218.785 5.37514L218.93 4.38566L219.074 3.39617C217.102 3.10789 215.118 2.83762 213.123 2.58561L212.998 3.57772ZM222.884 4.99022L222.726 5.97772C224.702 6.29307 226.664 6.62671 228.613 6.97837L228.791 5.99425L228.969 5.01014C227.006 4.65608 225.03 4.32019 223.042 4.00273L222.884 4.99022ZM232.715 6.72997L232.524 7.71155C234.49 8.09428 236.442 8.49551 238.378 8.91499L238.59 7.93766L238.802 6.96034C236.852 6.53785 234.886 6.13378 232.906 5.74838L232.715 6.72997ZM242.475 8.80856L242.249 9.78273C244.204 10.2359 246.142 10.7079 248.061 11.1984L248.309 10.2295L248.557 9.26066C246.622 8.76641 244.67 8.29089 242.7 7.83439L242.475 8.80856ZM252.164 11.2461L251.902 12.211C253.835 12.7367 255.749 13.2815 257.642 13.8451L257.927 12.8866L258.212 11.9282C256.304 11.3601 254.375 10.8109 252.427 10.2811L252.164 11.2461ZM261.756 14.0612L261.455 15.0147C263.363 15.6175 265.249 16.2397 267.11 16.881L267.436 15.9356L267.762 14.9901C265.883 14.3431 263.982 13.7155 262.057 13.1076L261.756 14.0612ZM0 59.3132L11.3103 56.9871L3.6407 48.3551L0 59.3132ZM274 18.3136L266.646 9.41135L262.613 20.2313L274 18.3136ZM5.27686 54.7271L5.91831 55.4943C7.44221 54.2201 8.98667 52.9708 10.5508 51.7461L9.93436 50.9587L9.31788 50.1713C7.73703 51.4091 6.17593 52.6719 4.63542 53.9599L5.27686 54.7271ZM13.1056 48.5292L13.7054 49.3293C15.2944 48.1382 16.9026 46.9715 18.5291 45.8291L17.9543 45.0108L17.3795 44.1924C15.7364 45.3466 14.1115 46.5254 12.5058 47.729L13.1056 48.5292ZM21.2474 42.7471L21.8055 43.5769C23.453 42.4687 25.1181 41.3846 26.8001 40.3242L26.2668 39.4783L25.7335 38.6324C24.035 39.7031 22.3533 40.7981 20.6893 41.9174L21.2474 42.7471ZM29.6684 37.3797L30.1852 38.2358C31.8848 37.2098 33.6007 36.2073 35.332 35.2281L34.8397 34.3576L34.3474 33.4872C32.5998 34.4756 30.8676 35.4877 29.1516 36.5236L29.6684 37.3797ZM38.3361 32.4227L38.8122 33.3021C40.5586 32.3566 42.3197 31.4342 44.0949 30.5345L43.6428 29.6425L43.1908 28.7506C41.3997 29.6583 39.6225 30.5891 37.86 31.5434L38.3361 32.4227ZM47.2221 27.8683L47.6583 28.7682C49.446 27.9016 51.2471 27.0575 53.0607 26.2358L52.648 25.3249L52.2353 24.414C50.4061 25.2428 48.5894 26.0942 46.7859 26.9685L47.2221 27.8683ZM56.2995 23.7076L56.6968 24.6253C58.5208 23.8358 60.3567 23.0683 62.2038 22.3226L61.8294 21.3953L61.4551 20.4681C59.5929 21.2198 57.7417 21.9937 55.9023 22.7899L56.2995 23.7076ZM65.5437 19.9309L65.903 20.8641C67.7586 20.1496 69.6248 19.4568 71.5008 18.7853L71.1638 17.8438L70.8267 16.9023C68.9361 17.579 67.055 18.2774 65.1844 18.9976L65.5437 19.9309ZM74.9322 16.5277L75.2546 17.4743C77.1372 16.8332 79.0289 16.2131 80.929 15.6139L80.6283 14.6602L80.3275 13.7065C78.4131 14.3102 76.507 14.935 74.6098 15.5811L74.9322 16.5277ZM84.4449 13.4879L84.7314 14.446C86.6372 13.876 88.5507 13.3267 90.4713 12.7979L90.2058 11.8338L89.9403 10.8696C88.0059 11.4023 86.0783 11.9556 84.1584 12.5298L84.4449 13.4879ZM94.0636 10.8012L94.3152 11.769C96.2408 11.2683 98.1729 10.7879 100.111 10.3274L99.8794 9.35453L99.6483 8.38162C97.697 8.84527 95.7513 9.32912 93.812 9.83338L94.0636 10.8012ZM103.772 8.45808L103.99 9.43409C105.932 9.00081 107.88 8.58737 109.832 8.19357L109.634 7.21332L109.436 6.23307C107.471 6.62953 105.51 7.04579 103.554 7.48206L103.772 8.45808ZM113.555 6.44962L113.739 7.43243C115.696 7.06487 117.657 6.71681 119.62 6.38804L119.455 5.40176L119.29 4.41549C117.314 4.74642 115.34 5.09679 113.37 5.46681L113.555 6.44962ZM123.399 4.7678L123.552 5.75614C125.52 5.45283 127.491 5.1687 129.464 4.90354L129.331 3.91245L129.198 2.92137C127.212 3.18822 125.228 3.47418 123.247 3.77946L123.399 4.7678ZM133.293 3.4056L133.413 4.3983C135.391 4.15797 137.371 3.93655 139.351 3.73383L139.249 2.73903L139.147 1.74423C137.155 1.94822 135.163 2.17104 133.172 2.4129L133.293 3.4056ZM143.224 2.35707L143.313 3.35306C145.299 3.1747 147.285 3.015 149.27 2.87378L149.199 1.8763L149.128 0.878818C147.131 1.02092 145.133 1.1816 143.134 1.36108L143.224 2.35707ZM153.182 1.61747L153.241 2.61574C155.233 2.49858 157.223 2.39989 159.211 2.31948L159.171 1.32029L159.131 0.321109C157.13 0.402017 155.128 0.501308 153.124 0.619194L153.182 1.61747ZM163.158 1.18329L163.187 2.18289C165.182 2.12644 167.175 2.08833 169.165 2.06833L169.155 1.06838L169.145 0.0684285C167.143 0.0885512 165.138 0.126899 163.13 0.183686L163.158 1.18329ZM173.146 1.05243L173.144 2.05242C175.14 2.05654 177.133 2.07884 179.121 2.11913L179.141 1.11933L179.161 0.119538C177.162 0.0790076 175.157 0.0565649 173.148 0.0524288L173.146 1.05243ZM183.133 1.2245L183.101 2.22397C185.096 2.28868 187.086 2.37148 189.069 2.47216L189.12 1.47345L189.171 0.474733C187.175 0.373436 185.173 0.290126 183.166 0.225025L183.133 1.2245ZM193.111 1.70057L193.048 2.69859C195.04 2.82421 197.024 2.96786 199.001 3.12932L199.082 2.13264L199.164 1.13596C197.175 0.973496 195.178 0.828949 193.174 0.702552L193.111 1.70057ZM203.069 2.48342L202.976 3.47901C204.962 3.66628 206.94 3.87158 208.908 4.09468L209.02 3.10104L209.133 2.10741C207.152 1.88289 205.162 1.67629 203.163 1.48784L203.069 2.48342ZM212.998 3.57772L212.872 4.56983C214.854 4.82023 216.825 5.08875 218.785 5.37514L218.93 4.38566L219.074 3.39617C217.102 3.10789 215.118 2.83762 213.123 2.58561L212.998 3.57772ZM222.884 4.99022L222.726 5.97772C224.702 6.29307 226.664 6.62671 228.613 6.97837L228.791 5.99425L228.969 5.01014C227.006 4.65608 225.03 4.32019 223.042 4.00273L222.884 4.99022ZM232.715 6.72997L232.524 7.71155C234.49 8.09428 236.442 8.49551 238.378 8.91499L238.59 7.93766L238.802 6.96034C236.852 6.53785 234.886 6.13378 232.906 5.74838L232.715 6.72997ZM242.475 8.80856L242.249 9.78273C244.204 10.2359 246.142 10.7079 248.061 11.1984L248.309 10.2295L248.557 9.26066C246.622 8.76641 244.67 8.29089 242.7 7.83439L242.475 8.80856ZM252.164 11.2461L251.902 12.211C253.835 12.7367 255.749 13.2815 257.642 13.8451L257.927 12.8866L258.212 11.9282C256.304 11.3601 254.375 10.8109 252.427 10.2811L252.164 11.2461ZM261.756 14.0612L261.455 15.0147C263.363 15.6175 265.249 16.2397 267.11 16.881L267.436 15.9356L267.762 14.9901C265.883 14.3431 263.982 13.7155 262.057 13.1076L261.756 14.0612Z" fill="url(#paint0_linear_1657_3319)"/>
<defs>
<linearGradient id="paint0_linear_1657_3319" x1="0" y1="1.05176" x2="45.3143" y2="113.481" gradientUnits="userSpaceOnUse">
<stop offset="0.18" stop-color="#6D30FB"/>
<stop offset="1" stop-color="#C13DFF"/>
</linearGradient>
</defs>
</svg>
