<svg width="60" height="60" viewBox="0 0 60 60" fill="none" xmlns="http://www.w3.org/2000/svg">
<path d="M40.6862 31.0659V22.4987C40.6862 21.9307 40.4606 21.3859 40.0589 20.9843C39.6572 20.5826 39.1125 20.3569 38.5444 20.3569H29.9772C29.4092 20.3569 28.8644 20.5826 28.4628 20.9843C28.0611 21.3859 27.8354 21.9307 27.8354 22.4987V31.0659C27.8354 31.6339 28.0611 32.1787 28.4628 32.5804C28.8644 32.982 29.4092 33.2077 29.9772 33.2077H38.5444C39.1125 33.2077 39.6572 32.982 40.0589 32.5804C40.4606 32.1787 40.6862 31.6339 40.6862 31.0659ZM29.9772 22.4987H38.5444V31.0659H29.9772V22.4987Z" fill="url(#paint0_linear_1657_3314)"/>
<path d="M59.9625 24.6404C59.245 11.6612 48.3326 0.866523 35.0963 0.06335C31.4289 -0.190048 27.7487 0.318521 24.2875 1.55704C20.8263 2.79557 17.6589 4.73722 14.9849 7.25978C12.4082 9.65547 10.3543 12.5577 8.9519 15.7844C7.54953 19.0112 6.82894 22.4929 6.83533 26.0112V31.8476C6.83589 32.0201 6.79161 32.1899 6.70682 32.3402L0.28144 44.12C0.0971027 44.4371 0 44.7974 0 45.1642C0 45.531 0.0971027 45.8912 0.28144 46.2083C0.469235 46.5336 0.739264 46.8037 1.06444 46.9917C1.38961 47.1797 1.7585 47.2788 2.13409 47.2792H6.84604V50.4919C6.88552 53.0425 7.93457 55.4735 9.76327 57.252C11.592 59.0305 14.0512 60.0115 16.6019 59.98H27.8356C29.8238 59.98 31.7305 59.1902 33.1363 57.7844C34.5421 56.3786 35.3319 54.4719 35.3319 52.4837V38.5621H40.6864C42.1065 38.5621 43.4684 37.998 44.4726 36.9938C45.4767 35.9896 46.0409 34.6277 46.0409 33.2076V32.1367H49.2536C49.5376 32.1367 49.81 32.0239 50.0108 31.8231C50.2116 31.6222 50.3244 31.3498 50.3244 31.0658C50.3244 30.7818 50.2116 30.5094 50.0108 30.3086C49.81 30.1077 49.5376 29.9949 49.2536 29.9949H46.0409V23.5695H49.2536C49.5376 23.5695 49.81 23.4567 50.0108 23.2559C50.2116 23.055 50.3244 22.7827 50.3244 22.4986C50.3244 22.2146 50.2116 21.9422 50.0108 21.7414C49.81 21.5406 49.5376 21.4277 49.2536 21.4277H46.0409V20.3568C46.0409 18.9367 45.4767 17.5748 44.4726 16.5707C43.4684 15.5665 42.1065 15.0024 40.6864 15.0024H39.6155V11.7897C39.6155 11.5057 39.5027 11.2333 39.3018 11.0324C39.101 10.8316 38.8286 10.7188 38.5446 10.7188C38.2606 10.7188 37.9882 10.8316 37.7873 11.0324C37.5865 11.2333 37.4737 11.5057 37.4737 11.7897V15.0024H31.0483V11.7897C31.0483 11.5057 30.9355 11.2333 30.7346 11.0324C30.5338 10.8316 30.2614 10.7188 29.9774 10.7188C29.6934 10.7188 29.421 10.8316 29.2202 11.0324C29.0193 11.2333 28.9065 11.5057 28.9065 11.7897V15.0024H27.8356C26.4155 15.0024 25.0536 15.5665 24.0494 16.5707C23.0453 17.5748 22.4811 18.9367 22.4811 20.3568V21.4277H19.2684C18.9844 21.4277 18.712 21.5406 18.5112 21.7414C18.3104 21.9422 18.1975 22.2146 18.1975 22.4986C18.1975 22.7827 18.3104 23.055 18.5112 23.2559C18.712 23.4567 18.9844 23.5695 19.2684 23.5695H22.4811V29.9949H19.2684C18.9844 29.9949 18.712 30.1077 18.5112 30.3086C18.3104 30.5094 18.1975 30.7818 18.1975 31.0658C18.1975 31.3498 18.3104 31.6222 18.5112 31.8231C18.712 32.0239 18.9844 32.1367 19.2684 32.1367H22.4811V33.2076C22.4811 34.6277 23.0453 35.9896 24.0494 36.9938C25.0536 37.998 26.4155 38.5621 27.8356 38.5621H33.1901V52.4837C33.1901 53.9038 32.626 55.2658 31.6218 56.2699C30.6176 57.2741 29.2557 57.8382 27.8356 57.8382H16.6019C15.6148 57.8524 14.6346 57.6714 13.7176 57.3057C12.8006 56.94 11.9649 56.3968 11.2584 55.7072C10.5519 55.0177 9.9886 54.1953 9.60079 53.2875C9.21298 52.3796 9.00831 51.4041 8.99854 50.4169V47.2042C8.99854 46.6362 8.77289 46.0914 8.37122 45.6898C7.96956 45.2881 7.42479 45.0624 6.85675 45.0624L2.13409 45.1267L8.55947 33.3468C8.81539 32.8806 8.95154 32.358 8.9557 31.8261V26.0112C8.96113 22.7934 9.62956 19.6113 10.9193 16.6633C12.2091 13.7153 14.0924 11.0647 16.452 8.87683C18.9072 6.53889 21.8197 4.73443 25.0063 3.57702C28.1928 2.4196 31.5845 1.93428 34.9678 2.1516C47.1118 2.93335 57.1568 12.8606 57.8207 24.7475C57.9939 27.8677 57.5411 30.991 56.4892 33.9336C55.4372 36.8762 53.8072 39.5786 51.6952 41.8819C50.0772 43.6561 49.1798 45.9703 49.1786 48.3715V58.9091C49.1786 59.1931 49.2914 59.4655 49.4922 59.6664C49.6931 59.8672 49.9655 59.98 50.2495 59.98C50.5335 59.98 50.8059 59.8672 51.0067 59.6664C51.2076 59.4655 51.3204 59.1931 51.3204 58.9091V48.3394C51.3202 46.469 52.0192 44.6661 53.2801 43.2847C55.5797 40.7788 57.3554 37.8387 58.503 34.637C59.6505 31.4353 60.1467 28.0366 59.9625 24.6404ZM24.6229 33.2076V20.3568C24.6229 19.5048 24.9614 18.6876 25.5639 18.0851C26.1664 17.4826 26.9836 17.1442 27.8356 17.1442H40.6864C41.5384 17.1442 42.3556 17.4826 42.9581 18.0851C43.5606 18.6876 43.8991 19.5048 43.8991 20.3568V33.2076C43.8991 34.0597 43.5606 34.8768 42.9581 35.4793C42.3556 36.0818 41.5384 36.4203 40.6864 36.4203H27.8356C26.9836 36.4203 26.1664 36.0818 25.5639 35.4793C24.9614 34.8768 24.6229 34.0597 24.6229 33.2076Z" fill="url(#paint1_linear_1657_3314)"/>
<defs>
<linearGradient id="paint0_linear_1657_3314" x1="27.8354" y1="20.3569" x2="39.7324" y2="26.6334" gradientUnits="userSpaceOnUse">
<stop offset="0.18" stop-color="#6D30FB"/>
<stop offset="1" stop-color="#C13DFF"/>
</linearGradient>
<linearGradient id="paint1_linear_1657_3314" x1="0" y1="0" x2="55.539" y2="29.3099" gradientUnits="userSpaceOnUse">
<stop offset="0.18" stop-color="#6D30FB"/>
<stop offset="1" stop-color="#C13DFF"/>
</linearGradient>
</defs>
</svg>
