<svg width="51" height="68" viewBox="0 0 51 68" fill="none" xmlns="http://www.w3.org/2000/svg">
<path d="M50.2447 9.00033C50.2447 5.81424 47.6558 3.22232 44.4728 3.22232H37.1849C36.6878 1.36979 34.9986 0 32.9912 0H17.2532C15.2458 0 13.557 1.36965 13.0598 3.22232H5.77144C2.58891 3.22232 0 5.8141 0 9.00033V61.9888C0 65.1749 2.58891 67.7668 5.77144 67.7668H44.4727C47.6556 67.7668 50.2445 65.1751 50.2445 61.9888V58.855C50.2445 58.3985 49.8746 58.0286 49.4182 58.0286C48.9619 58.0286 48.5919 58.3986 48.5919 58.855V61.9888C48.5919 64.2633 46.7441 66.114 44.4728 66.114H5.77158C3.50068 66.114 1.65279 64.2634 1.65279 61.9888V9.00033C1.65279 6.72588 3.50055 4.87512 5.77158 4.87512H12.9073V9.98225C12.9073 11.2428 13.9329 12.2683 15.1934 12.2683H35.0514C36.3124 12.2683 37.3375 11.2428 37.3375 9.98225V4.87512H44.4728C46.7441 4.87512 48.5919 6.72574 48.5919 9.00033V48.1187C48.5919 48.5752 48.9619 48.945 49.4182 48.945C49.8746 48.945 50.2445 48.5751 50.2445 48.1187V9.00033H50.2447ZM35.6847 9.98225C35.6847 10.3316 35.4006 10.6157 35.0513 10.6157H15.1934C14.8441 10.6157 14.56 10.3316 14.56 9.98225V4.34602C14.56 2.86111 15.7683 1.65279 17.2532 1.65279H32.9912C34.4761 1.65279 35.6847 2.86111 35.6847 4.34602V9.98225Z" fill="white"/>
<path d="M49.4181 52.1245C48.9616 52.1245 48.5918 52.4945 48.5918 52.9508V54.0287C48.5918 54.4852 48.9618 54.8551 49.4181 54.8551C49.8745 54.8551 50.2445 54.4851 50.2445 54.0287V52.9508C50.2446 52.4945 49.8746 52.1245 49.4181 52.1245Z" fill="white"/>
<path d="M45.139 19.0659C45.2068 18.8119 45.1712 18.5413 45.0396 18.3134L43.0711 14.9035C42.7974 14.4287 42.1905 14.2672 41.7166 14.5404L40.5972 15.1867V14.0658C40.5972 13.518 40.153 13.0742 39.6056 13.0742H35.6686C35.1212 13.0742 34.677 13.5181 34.677 14.0658V15.1867L33.5575 14.5404C33.0837 14.2672 32.4768 14.4287 32.2031 14.9035L30.2346 18.3134C30.1029 18.5413 30.0674 18.8119 30.1352 19.0659C30.2037 19.3199 30.3695 19.5366 30.5974 19.6683L31.7163 20.3139L30.7459 20.874C30.518 21.0057 30.352 21.2224 30.2837 21.4764C30.2159 21.7304 30.2514 22.001 30.3831 22.2289L32.3515 25.6388C32.6252 26.1136 33.2321 26.2751 33.706 26.0019L34.677 25.4413V26.7335C34.677 27.2813 35.1212 27.7251 35.6686 27.7251H39.6056C40.153 27.7251 40.5972 27.2812 40.5972 26.7335V25.4417L41.5676 26.0018C41.7955 26.1332 42.0661 26.1687 42.3204 26.1009C42.5741 26.0328 42.7911 25.8669 42.9221 25.6389L44.8906 22.229C45.1643 21.7549 45.0023 21.1483 44.5277 20.8746L43.5573 20.3142L44.6767 19.6686C44.9045 19.5366 45.0705 19.3199 45.139 19.0659ZM41.078 21.1726L42.6772 22.0959L41.7004 23.788L40.1012 22.8652C39.7938 22.6876 39.4168 22.6876 39.1095 22.8652C38.8029 23.0421 38.6137 23.3694 38.6137 23.7239V25.7418H36.6601V23.7239C36.6601 23.3698 36.4709 23.0421 36.1642 22.8652C35.8569 22.6876 35.4798 22.688 35.1726 22.8649L33.5727 23.7885L32.5959 22.0963L34.1957 21.173C34.5024 20.9958 34.6916 20.6685 34.6916 20.314C34.6916 19.9595 34.5024 19.6322 34.1957 19.455L32.4474 18.4463L33.4242 16.7541L35.1726 17.7633C35.4799 17.9402 35.857 17.9404 36.1642 17.763C36.4709 17.5861 36.6601 17.2585 36.6601 16.9043V15.0577H38.6137V16.9043C38.6137 17.2584 38.8029 17.5861 39.1095 17.763C39.4169 17.9406 39.794 17.9402 40.1012 17.7633L41.8495 16.7541L42.8264 18.4463L41.078 19.455C40.7714 19.6322 40.5821 19.9595 40.5821 20.314C40.5821 20.6681 40.7714 20.9957 41.078 21.1726Z" fill="white"/>
<path d="M13.9187 27.7209C13.9187 26.4113 12.8531 25.3457 11.5435 25.3457H7.08029C5.77066 25.3457 4.70508 26.4113 4.70508 27.7209V32.1844C4.70508 33.494 5.77066 34.5596 7.08029 34.5596H11.5435C12.8531 34.5596 13.9187 33.494 13.9187 32.1844V27.7209ZM11.9353 32.1844C11.9353 32.4004 11.7594 32.5762 11.5435 32.5762H7.08029C6.86428 32.5762 6.68846 32.4003 6.68846 32.1844V27.7209C6.68846 27.5049 6.86441 27.3291 7.08029 27.3291H11.5435C11.7595 27.3291 11.9353 27.505 11.9353 27.7209V32.1844Z" fill="white"/>
<path d="M13.9187 41.7463C13.9187 40.4367 12.8531 39.3711 11.5435 39.3711H7.08029C5.77066 39.3711 4.70508 40.4367 4.70508 41.7463V46.2095C4.70508 47.5191 5.77066 48.5847 7.08029 48.5847H11.5435C12.8531 48.5847 13.9187 47.5191 13.9187 46.2095V41.7463ZM11.9353 46.2095C11.9353 46.4255 11.7594 46.6013 11.5435 46.6013H7.08029C6.86428 46.6013 6.68846 46.4254 6.68846 46.2095V41.7463C6.68846 41.5303 6.86441 41.3545 7.08029 41.3545H11.5435C11.7595 41.3545 11.9353 41.5304 11.9353 41.7463V46.2095Z" fill="white"/>
<path d="M11.5435 53.3955H7.08029C5.77066 53.3955 4.70508 54.4611 4.70508 55.7707V60.2339C4.70508 61.5435 5.77066 62.6091 7.08029 62.6091H11.5435C12.8531 62.6091 13.9187 61.5435 13.9187 60.2339V55.7707C13.9187 54.4611 12.8531 53.3955 11.5435 53.3955ZM11.9353 60.2339C11.9353 60.4499 11.7594 60.6257 11.5435 60.6257H7.08029C6.86428 60.6257 6.68846 60.4498 6.68846 60.2339V55.7707C6.68846 55.5547 6.86441 55.3789 7.08029 55.3789H11.5435C11.7595 55.3789 11.9353 55.5548 11.9353 55.7707V60.2339Z" fill="white"/>
<path d="M29.2156 25.3457H17.1186C16.5707 25.3457 16.127 25.7896 16.127 26.3373C16.127 26.885 16.5709 27.3289 17.1186 27.3289H29.2156C29.763 27.3289 30.2072 26.885 30.2072 26.3373C30.2072 25.7896 29.763 25.3457 29.2156 25.3457Z" fill="white"/>
<path d="M17.1186 32.5638H23.167C23.7148 32.5638 24.1586 32.1199 24.1586 31.5722C24.1586 31.0245 23.7147 30.5806 23.167 30.5806H17.1186C16.5707 30.5806 16.127 31.0245 16.127 31.5722C16.127 32.1199 16.5709 32.5638 17.1186 32.5638Z" fill="white"/>
<path d="M29.2156 39.3711H17.1186C16.5707 39.3711 16.127 39.815 16.127 40.3627C16.127 40.9105 16.5709 41.3543 17.1186 41.3543H29.2156C29.763 41.3543 30.2072 40.9104 30.2072 40.3627C30.2072 39.8149 29.763 39.3711 29.2156 39.3711Z" fill="white"/>
<path d="M17.1186 46.5887H23.167C23.7148 46.5887 24.1586 46.1448 24.1586 45.5971C24.1586 45.0493 23.7147 44.6055 23.167 44.6055H17.1186C16.5707 44.6055 16.127 45.0494 16.127 45.5971C16.127 46.1448 16.5709 46.5887 17.1186 46.5887Z" fill="white"/>
<path d="M30.2072 54.3871C30.2072 53.8393 29.763 53.3955 29.2156 53.3955H17.1186C16.5707 53.3955 16.127 53.8394 16.127 54.3871C16.127 54.935 16.5709 55.3788 17.1186 55.3788H29.2156C29.763 55.3789 30.2072 54.935 30.2072 54.3871Z" fill="white"/>
<path d="M17.1186 58.6304C16.5707 58.6304 16.127 59.0743 16.127 59.622C16.127 60.1698 16.5709 60.6136 17.1186 60.6136H23.167C23.7148 60.6136 24.1586 60.1697 24.1586 59.622C24.1586 59.0742 23.7147 58.6304 23.167 58.6304H17.1186Z" fill="white"/>
</svg>
