<svg width="30" height="30" viewBox="0 0 30 30" fill="none" xmlns="http://www.w3.org/2000/svg">
<g clip-path="url(#clip0_1731_6303)">
<path d="M9.80357 13.5048C10.0024 13.505 10.1932 13.426 10.3338 13.2854C10.4744 13.1448 10.5534 12.954 10.5532 12.7552C10.5532 12.3411 10.889 12.0053 11.303 12.0053C11.7171 12.0053 12.0529 12.3411 12.0529 12.7552C12.0529 13.1692 12.3884 13.5048 12.8025 13.5048C13.2168 13.5048 13.5523 13.1692 13.5523 12.7552C13.5523 11.5127 12.5452 10.5059 11.303 10.5059C10.0608 10.5059 9.05371 11.5127 9.05371 12.7552C9.05371 12.954 9.13251 13.1448 9.2731 13.2854C9.41395 13.426 9.60451 13.505 9.80357 13.5048Z" fill="url(#paint0_linear_1731_6303)"/>
<path d="M19.9642 18.4583C17.1641 19.8581 12.9387 19.8581 10.1381 18.4583C9.76765 18.273 9.31735 18.4232 9.13202 18.7936C8.94695 19.164 9.09687 19.6145 9.46727 19.7996C11.2125 20.6228 13.1218 21.0374 15.051 21.0121C16.9802 21.0374 18.8898 20.6225 20.6347 19.7996C21.0051 19.6145 21.1553 19.164 20.9703 18.7936C20.7849 18.4232 20.3346 18.273 19.9642 18.4583Z" fill="url(#paint1_linear_1731_6303)"/>
<path d="M27.7972 12.0057H27.0474V9.75644C27.0455 7.68697 25.3681 6.0096 23.2986 6.00768H21.0493V4.36984C22.082 4.00494 22.7017 2.94865 22.5164 1.86902C22.331 0.789125 21.395 0 20.2994 0C19.2039 0 18.2679 0.789125 18.0825 1.86902C17.8972 2.94865 18.5169 4.00494 19.5496 4.36984V6.00768H10.5523V4.36984C11.5853 4.00494 12.2047 2.94865 12.0197 1.86902C11.8343 0.789125 10.8983 0 9.80276 0C8.70721 0 7.77092 0.789125 7.58585 1.86902C7.40052 2.94865 8.01995 4.00494 9.0529 4.36984V6.00768H6.80359C4.73413 6.00987 3.05703 7.68697 3.05483 9.75644V12.0057H2.30497C1.06335 12.0071 0.0570369 13.0134 0.0556641 14.2551V17.2542C0.0570369 18.4958 1.06335 19.5022 2.30497 19.5035H3.05483V22.5024C3.05703 24.5722 4.73413 26.2493 6.80359 26.2515H10.5523V29.2504C10.5526 29.523 10.7006 29.774 10.9389 29.906C11.1773 30.0381 11.4686 30.0304 11.6995 29.886L17.5155 26.2515H23.2986C25.3681 26.2495 27.0455 24.5722 27.0474 22.5024V19.5035H27.7972C29.0389 19.5022 30.0452 18.4958 30.0465 17.2542V14.2551C30.0452 13.0134 29.0389 12.0071 27.7972 12.0057ZM20.2994 1.50906C20.7135 1.50906 21.0493 1.84459 21.0493 2.25865C21.0493 2.67298 20.7135 3.00851 20.2994 3.00851C19.8854 3.00851 19.5496 2.67298 19.5496 2.25865C19.5504 1.84514 19.8857 1.50988 20.2994 1.50906ZM9.80276 1.50906C10.2168 1.50906 10.5523 1.84459 10.5523 2.25865C10.5523 2.67298 10.2168 3.00851 9.80276 3.00851C9.38871 3.00851 9.0529 2.67298 9.0529 2.25865C9.05345 1.84486 9.38871 1.50961 9.80276 1.50906ZM2.30497 18.0038C1.89119 18.0035 1.55566 17.668 1.55511 17.2542V14.2551C1.55566 13.8413 1.89119 13.5057 2.30497 13.5052H3.05483V18.0038H2.30497ZM25.5479 22.5024C25.5466 23.7443 24.5402 24.7506 23.2986 24.7517H17.3003C17.16 24.7517 17.0224 24.7913 16.9035 24.866L12.0521 27.8973V25.5016C12.0521 25.3028 11.9733 25.112 11.8324 24.9714C11.6918 24.8308 11.501 24.7517 11.3022 24.7517H6.80359C5.56197 24.7506 4.55566 23.7443 4.55428 22.5024V9.75644C4.55566 8.51481 5.56197 7.5085 6.80359 7.50713H23.2986C24.5402 7.5085 25.5466 8.51481 25.5479 9.75644V22.5024ZM28.5468 17.2542C28.5463 17.668 28.211 18.0033 27.7972 18.0038H27.0474V13.5052H27.7972C28.211 13.506 28.5463 13.8413 28.5468 14.2551V17.2542Z" fill="url(#paint2_linear_1731_6303)"/>
<path d="M18.8001 10.5059C17.5585 10.5072 16.5522 11.5135 16.5508 12.7552C16.5508 13.1692 16.8863 13.5048 17.3004 13.5048C17.7147 13.5048 18.0502 13.1692 18.0502 12.7552C18.0502 12.3411 18.386 12.0053 18.8001 12.0053C19.2141 12.0053 19.5497 12.3411 19.5497 12.7552C19.5497 13.1692 19.8855 13.5048 20.2995 13.5048C20.7136 13.5048 21.0494 13.1692 21.0494 12.7552C21.048 11.5135 20.0417 10.5072 18.8001 10.5059Z" fill="url(#paint3_linear_1731_6303)"/>
</g>
<defs>
<linearGradient id="paint0_linear_1731_6303" x1="9.05371" y1="10.5059" x2="12.3273" y2="13.0966" gradientUnits="userSpaceOnUse">
<stop offset="0.18" stop-color="#6D30FB"/>
<stop offset="1" stop-color="#C13DFF"/>
</linearGradient>
<linearGradient id="paint1_linear_1731_6303" x1="9.05273" y1="18.3789" x2="11.1491" y2="23.4157" gradientUnits="userSpaceOnUse">
<stop offset="0.18" stop-color="#6D30FB"/>
<stop offset="1" stop-color="#C13DFF"/>
</linearGradient>
<linearGradient id="paint2_linear_1731_6303" x1="0.0556641" y1="0" x2="27.8243" y2="14.6453" gradientUnits="userSpaceOnUse">
<stop offset="0.18" stop-color="#6D30FB"/>
<stop offset="1" stop-color="#C13DFF"/>
</linearGradient>
<linearGradient id="paint3_linear_1731_6303" x1="16.5508" y1="10.5059" x2="19.8244" y2="13.0966" gradientUnits="userSpaceOnUse">
<stop offset="0.18" stop-color="#6D30FB"/>
<stop offset="1" stop-color="#C13DFF"/>
</linearGradient>
<clipPath id="clip0_1731_6303">
<rect width="30" height="30" fill="white"/>
</clipPath>
</defs>
</svg>
