<svg width="30" height="30" viewBox="0 0 30 30" fill="none" xmlns="http://www.w3.org/2000/svg">
<g clip-path="url(#clip0_1731_6275)">
<path d="M11.678 21.6651L5.7227 22.5835C4.96771 22.7159 4.31047 22.0584 4.44336 21.3035L4.73598 19.6406H3.40625" stroke="url(#paint0_linear_1731_6275)" stroke-width="1.5" stroke-miterlimit="10" stroke-linecap="round" stroke-linejoin="round"/>
<path d="M10.0889 21.9102L12.0131 27.2468" stroke="url(#paint1_linear_1731_6275)" stroke-width="1.5" stroke-miterlimit="10" stroke-linecap="round" stroke-linejoin="round"/>
<path d="M4.74938 18.1251H2.83506C2.83506 18.1251 3.14192 16.4166 3.14192 16.123C3.14192 15.8294 1.18547 15.6826 1.11206 15.389C1.03864 15.0954 3.36211 13.1134 3.43553 12.4527C3.50895 11.7921 2.92166 10.3239 2.92166 10.3239C2.38307 8.3491 3.92368 5.65836 4.7492 4.68969C6.54217 2.88828 9.02409 1.65137 11.7665 1.65137C13.8649 1.65137 15.8108 2.32215 17.4123 3.45787" stroke="url(#paint2_linear_1731_6275)" stroke-width="1.5" stroke-miterlimit="10" stroke-linecap="round" stroke-linejoin="round"/>
<path d="M16.0434 15.1716C15.3211 16.2817 14.0695 17.0157 12.6464 17.0157C10.4098 17.0157 8.59668 15.2026 8.59668 12.966C8.59668 10.7294 10.1239 8.91631 12.6464 8.91631C13.5547 8.91631 14.2489 9.24602 14.2489 9.24602L18.8182 4.67676C19.2794 5.14574 20.9575 6.51912 21.369 9.24162" stroke="url(#paint3_linear_1731_6275)" stroke-width="1.5" stroke-miterlimit="10" stroke-linecap="round" stroke-linejoin="round"/>
<path d="M19.049 12.966H15.2177C14.7958 12.966 14.4055 12.718 14.2489 12.3262C13.9821 11.6585 13.3099 11.1966 12.5366 11.2446C11.6777 11.298 10.9786 11.997 10.9253 12.856C10.8631 13.8584 11.6577 14.6908 12.6467 14.6908C12.8974 14.6908 13.1357 14.6373 13.3507 14.5411" stroke="url(#paint4_linear_1731_6275)" stroke-width="1.5" stroke-miterlimit="10" stroke-linecap="round" stroke-linejoin="round"/>
<path d="M15.8369 10.6467L18.0783 8.41895" stroke="url(#paint5_linear_1731_6275)" stroke-width="1.5" stroke-miterlimit="10" stroke-linecap="round" stroke-linejoin="round"/>
<path d="M16.1943 19.2545V23.6577C16.1943 24.5457 16.6681 25.3662 17.4371 25.8102L21.2504 28.0118C22.0194 28.4558 22.9668 28.4558 23.7358 28.0118L27.5492 25.8102C28.3181 25.3662 28.7919 24.5457 28.7919 23.6577V19.2545C28.7919 18.3665 28.3181 17.546 27.5492 17.102L23.7358 14.9004C22.9668 14.4564 22.0194 14.4564 21.2504 14.9004L17.4371 17.102C16.6681 17.546 16.1943 18.3665 16.1943 19.2545Z" stroke="url(#paint6_linear_1731_6275)" stroke-width="1.5" stroke-miterlimit="10" stroke-linecap="round" stroke-linejoin="round"/>
<path d="M20.061 23.1616L18.5469 21.4563L20.333 19.751" stroke="url(#paint7_linear_1731_6275)" stroke-width="1.5" stroke-miterlimit="10" stroke-linecap="round" stroke-linejoin="round"/>
<path d="M24.6523 19.751L26.4385 21.4563L24.6523 23.1616" stroke="url(#paint8_linear_1731_6275)" stroke-width="1.5" stroke-miterlimit="10" stroke-linecap="round" stroke-linejoin="round"/>
<path d="M21.5576 23.1616L23.085 19.751" stroke="url(#paint9_linear_1731_6275)" stroke-width="1.5" stroke-miterlimit="10" stroke-linecap="round" stroke-linejoin="round"/>
<path d="M21.3691 9.24178H23.9498L24.9197 7.84766" stroke="url(#paint10_linear_1731_6275)" stroke-width="1.5" stroke-miterlimit="10" stroke-linecap="round" stroke-linejoin="round"/>
<path d="M21.5244 11.2412H26.6877" stroke="url(#paint11_linear_1731_6275)" stroke-width="1.5" stroke-miterlimit="10" stroke-linecap="round" stroke-linejoin="round"/>
<path d="M27.6564 12.2103C28.1915 12.2103 28.6253 11.7765 28.6253 11.2414C28.6253 10.7063 28.1915 10.2725 27.6564 10.2725C27.1213 10.2725 26.6875 10.7063 26.6875 11.2414C26.6875 11.7765 27.1213 12.2103 27.6564 12.2103Z" stroke="url(#paint12_linear_1731_6275)" stroke-width="1.5" stroke-miterlimit="10" stroke-linecap="round" stroke-linejoin="round"/>
<path d="M25.4406 7.97492C25.9757 7.97492 26.4095 7.54113 26.4095 7.00602C26.4095 6.4709 25.9757 6.03711 25.4406 6.03711C24.9055 6.03711 24.4717 6.4709 24.4717 7.00602C24.4717 7.54113 24.9055 7.97492 25.4406 7.97492Z" stroke="url(#paint13_linear_1731_6275)" stroke-width="1.5" stroke-miterlimit="10" stroke-linecap="round" stroke-linejoin="round"/>
<path d="M11.6777 4.67676C13.5433 4.67676 15.1956 5.58971 16.2123 6.9932" stroke="url(#paint14_linear_1731_6275)" stroke-width="1.5" stroke-miterlimit="10" stroke-linecap="round" stroke-linejoin="round"/>
</g>
<defs>
<linearGradient id="paint0_linear_1731_6275" x1="3.40625" y1="19.6406" x2="6.49082" y2="24.1882" gradientUnits="userSpaceOnUse">
<stop offset="0.18" stop-color="#6D30FB"/>
<stop offset="1" stop-color="#C13DFF"/>
</linearGradient>
<linearGradient id="paint1_linear_1731_6275" x1="10.0889" y1="21.9102" x2="12.2866" y2="22.3282" gradientUnits="userSpaceOnUse">
<stop offset="0.18" stop-color="#6D30FB"/>
<stop offset="1" stop-color="#C13DFF"/>
</linearGradient>
<linearGradient id="paint2_linear_1731_6275" x1="1.11035" y1="1.65137" x2="16.2708" y2="9.56607" gradientUnits="userSpaceOnUse">
<stop offset="0.18" stop-color="#6D30FB"/>
<stop offset="1" stop-color="#C13DFF"/>
</linearGradient>
<linearGradient id="paint3_linear_1731_6275" x1="8.59668" y1="4.67676" x2="20.2398" y2="11.035" gradientUnits="userSpaceOnUse">
<stop offset="0.18" stop-color="#6D30FB"/>
<stop offset="1" stop-color="#C13DFF"/>
</linearGradient>
<linearGradient id="paint4_linear_1731_6275" x1="10.9219" y1="11.2412" x2="14.7013" y2="15.9387" gradientUnits="userSpaceOnUse">
<stop offset="0.18" stop-color="#6D30FB"/>
<stop offset="1" stop-color="#C13DFF"/>
</linearGradient>
<linearGradient id="paint5_linear_1731_6275" x1="15.8369" y1="8.41895" x2="17.9064" y2="9.51743" gradientUnits="userSpaceOnUse">
<stop offset="0.18" stop-color="#6D30FB"/>
<stop offset="1" stop-color="#C13DFF"/>
</linearGradient>
<linearGradient id="paint6_linear_1731_6275" x1="16.1943" y1="14.5674" x2="28.2886" y2="20.4015" gradientUnits="userSpaceOnUse">
<stop offset="0.18" stop-color="#6D30FB"/>
<stop offset="1" stop-color="#C13DFF"/>
</linearGradient>
<linearGradient id="paint7_linear_1731_6275" x1="18.5469" y1="19.751" x2="20.5107" y2="20.2936" gradientUnits="userSpaceOnUse">
<stop offset="0.18" stop-color="#6D30FB"/>
<stop offset="1" stop-color="#C13DFF"/>
</linearGradient>
<linearGradient id="paint8_linear_1731_6275" x1="24.6523" y1="19.751" x2="26.6162" y2="20.2936" gradientUnits="userSpaceOnUse">
<stop offset="0.18" stop-color="#6D30FB"/>
<stop offset="1" stop-color="#C13DFF"/>
</linearGradient>
<linearGradient id="paint9_linear_1731_6275" x1="21.5576" y1="19.751" x2="23.2696" y2="20.1554" gradientUnits="userSpaceOnUse">
<stop offset="0.18" stop-color="#6D30FB"/>
<stop offset="1" stop-color="#C13DFF"/>
</linearGradient>
<linearGradient id="paint10_linear_1731_6275" x1="21.3691" y1="7.84766" x2="22.867" y2="9.8602" gradientUnits="userSpaceOnUse">
<stop offset="0.18" stop-color="#6D30FB"/>
<stop offset="1" stop-color="#C13DFF"/>
</linearGradient>
<linearGradient id="paint11_linear_1731_6275" x1="21.5244" y1="11.2412" x2="22.2501" y2="13.218" gradientUnits="userSpaceOnUse">
<stop offset="0.18" stop-color="#6D30FB"/>
<stop offset="1" stop-color="#C13DFF"/>
</linearGradient>
<linearGradient id="paint12_linear_1731_6275" x1="26.6875" y1="10.2725" x2="28.4815" y2="11.2189" gradientUnits="userSpaceOnUse">
<stop offset="0.18" stop-color="#6D30FB"/>
<stop offset="1" stop-color="#C13DFF"/>
</linearGradient>
<linearGradient id="paint13_linear_1731_6275" x1="24.4717" y1="6.03711" x2="26.2657" y2="6.98355" gradientUnits="userSpaceOnUse">
<stop offset="0.18" stop-color="#6D30FB"/>
<stop offset="1" stop-color="#C13DFF"/>
</linearGradient>
<linearGradient id="paint14_linear_1731_6275" x1="11.6777" y1="4.67676" x2="14.2745" y2="7.35858" gradientUnits="userSpaceOnUse">
<stop offset="0.18" stop-color="#6D30FB"/>
<stop offset="1" stop-color="#C13DFF"/>
</linearGradient>
<clipPath id="clip0_1731_6275">
<rect width="30" height="30" fill="white"/>
</clipPath>
</defs>
</svg>
