<svg width="30" height="30" viewBox="0 0 30 30" fill="none" xmlns="http://www.w3.org/2000/svg">
<g clip-path="url(#clip0_1731_6311)">
<path d="M27.9089 11.525C27.7788 11.3826 27.6235 11.2818 27.4501 11.2256V10.2266C27.4501 9.78008 27.1759 9.40215 26.7505 9.26387L25.38 8.81797C25.3518 8.80918 25.3407 8.79688 25.3331 8.76816C25.1198 7.95781 24.7964 7.17617 24.371 6.44492C24.3558 6.41855 24.3552 6.40273 24.3692 6.37461L25.0208 5.09316C25.2229 4.70117 25.1485 4.22773 24.8356 3.91543L23.5343 2.61348C23.2196 2.29883 22.7591 2.22559 22.3583 2.42773L21.0763 3.08164C21.0487 3.0957 21.0311 3.09512 21.0048 3.07988C20.2759 2.65332 19.4948 2.3293 18.6862 2.11836C18.6546 2.10957 18.6411 2.09668 18.6311 2.06738L18.1864 0.700391C18.0517 0.280859 17.6643 -0.000976562 17.2231 -0.000976562H15.3809C14.9427 -0.000976562 14.5559 0.279688 14.4183 0.698633L13.9724 2.06914C13.9647 2.09375 13.9536 2.10898 13.922 2.11719C13.1128 2.32871 12.3317 2.65215 11.5993 3.07988C11.5735 3.09512 11.5571 3.0957 11.5296 3.08164L10.2452 2.42715C9.85263 2.22793 9.38036 2.30293 9.06982 2.61348L7.76786 3.91543C7.45732 4.22598 7.38232 4.69824 7.58212 5.09141L8.23661 6.3752C8.25068 6.40215 8.25009 6.41855 8.23427 6.44551C7.80888 7.17441 7.48427 7.95605 7.2704 8.76816C7.26279 8.79688 7.25165 8.80918 7.22177 8.81855L5.85185 9.26387C5.43407 9.40098 5.15341 9.7877 5.15341 10.226V11.2262C4.99403 11.2783 4.84989 11.3668 4.72802 11.4904C4.51767 11.7008 4.4081 11.968 4.41103 12.2609C4.41571 13.4809 4.41982 14.5344 2.35087 17.1893C2.34032 17.2027 2.33095 17.2168 2.32157 17.2314C1.79071 18.091 1.67118 18.7654 1.95536 19.2928C2.25126 19.8418 2.89286 20.0322 3.49462 20.1049C3.42782 20.3275 3.43661 20.5291 3.47177 20.6896C3.53857 20.9973 3.72489 21.2598 3.95634 21.4631C3.70204 21.7672 3.67157 22.0848 3.67626 22.2482C3.68974 22.7064 3.97216 23.1324 4.42626 23.4143C3.96454 24.6758 3.99618 25.6063 4.52118 26.249C5.27763 27.176 6.88017 27.3406 9.84267 26.7811L10.3378 28.8189C10.5059 29.5145 11.1229 30.0002 11.8384 30.0002H23.045C23.5683 30.0002 24.0358 29.75 24.3282 29.3141C24.62 28.8787 24.6722 28.3502 24.4718 27.8639C22.4403 22.9484 23.8612 20.9686 25.5059 18.6764C26.6474 17.0855 27.9411 15.2832 28.1895 12.3482C28.2159 12.0365 28.1181 11.7512 27.9089 11.525ZM6.14364 10.1562L7.51064 9.71152C7.84521 9.6043 8.08837 9.34766 8.17802 9.00723C8.37021 8.27656 8.662 7.57402 9.04404 6.91953C9.22157 6.6166 9.23212 6.26269 9.07216 5.94922L8.41825 4.66602C8.40185 4.63379 8.40595 4.60449 8.43114 4.5793L9.7331 3.27734C9.75829 3.25215 9.78759 3.24746 9.81923 3.26387L11.103 3.91836C11.4165 4.07832 11.7698 4.06777 12.0727 3.89082C12.7308 3.50703 13.4321 3.21582 14.1628 3.02539C14.5026 2.9334 14.7587 2.68965 14.8653 2.35859L15.3101 0.991602C15.3218 0.956445 15.3446 0.938867 15.3809 0.938867H17.2231C17.2589 0.938867 17.2823 0.955859 17.2935 0.99043L17.7393 2.36094C17.8489 2.69258 18.1044 2.93457 18.4448 3.02656C19.1743 3.21699 19.8757 3.50762 20.5302 3.89082C20.8337 4.06895 21.1882 4.07891 21.5022 3.91894L22.7825 3.26562C22.8165 3.24863 22.8452 3.25273 22.8704 3.27793L24.1724 4.57988C24.1976 4.60508 24.2022 4.63379 24.1852 4.6666L23.5325 5.9498C23.3726 6.26328 23.3831 6.6166 23.5601 6.91836C23.9427 7.57578 24.2333 8.27891 24.4255 9.00781C24.5151 9.34766 24.7583 9.6043 25.0911 9.71152L26.4593 10.1562C26.4944 10.168 26.5108 10.1902 26.5108 10.2266V11.1723H21.3517C21.3517 11.1641 21.3522 11.1564 21.3522 11.1482C21.3522 8.36269 19.087 6.09629 16.302 6.09629C13.5165 6.09629 11.2501 8.36269 11.2501 11.1482C11.2501 11.1564 11.2501 11.1641 11.2507 11.1723H6.0915V10.2266C6.09267 10.1908 6.10966 10.1674 6.14364 10.1562ZM23.8753 14.825C24.2063 14.825 24.4759 15.0934 24.4759 15.4238C24.4759 15.7549 24.2063 16.0244 23.8753 16.0244C23.5454 16.0244 23.2765 15.7549 23.2765 15.4238C23.2765 15.0934 23.5448 14.825 23.8753 14.825ZM12.1899 11.1729C12.1899 11.1646 12.1893 11.1564 12.1893 11.1488C12.1893 8.88066 14.0345 7.03555 16.3026 7.03555C18.5696 7.03555 20.4142 8.88066 20.4142 11.1488C20.4142 11.157 20.4136 11.1646 20.4136 11.1729H12.1899ZM8.72939 14.825C9.06044 14.825 9.32997 15.0934 9.32997 15.4238C9.32997 15.7549 9.06044 16.0244 8.72939 16.0244C8.39833 16.0244 8.1288 15.7549 8.1288 15.4238C8.1288 15.0934 8.39833 14.825 8.72939 14.825ZM27.2544 12.2697C27.0276 14.9463 25.8663 16.5646 24.7436 18.1297C23.011 20.5443 21.3739 22.8254 23.6046 28.2225C23.686 28.4193 23.6667 28.6162 23.5489 28.792C23.4306 28.9689 23.2559 29.0627 23.045 29.0627H11.8401C11.5548 29.0627 11.3186 28.8764 11.2513 28.5992L10.6501 26.1242C10.5979 25.9104 10.4069 25.7656 10.1948 25.7656C10.1638 25.7656 10.1321 25.7686 10.1011 25.775C9.09267 25.9801 6.02353 26.6047 5.25009 25.6566C4.83232 25.1451 5.13232 24.1273 5.45751 23.3645C5.50849 23.2443 5.50732 23.1084 5.45458 22.9895C5.40185 22.8705 5.30107 22.7785 5.17743 22.7363C4.81532 22.6127 4.62138 22.3842 4.61611 22.2213C4.61259 22.093 4.75732 21.9564 5.00341 21.8563C5.18857 21.7807 5.30517 21.5967 5.29521 21.3975C5.28466 21.1982 5.14931 21.0271 4.95771 20.9715C4.7245 20.9035 4.43212 20.6838 4.39052 20.491C4.35653 20.3357 4.51474 20.1611 4.65302 20.0416C4.7995 19.915 4.85341 19.7117 4.78896 19.5295C4.7245 19.3473 4.554 19.223 4.36064 19.2172L4.30204 19.2154C3.86611 19.2025 2.95966 19.1768 2.78271 18.848C2.73349 18.7566 2.66786 18.4678 3.10849 17.7465C5.36083 14.8502 5.35556 13.591 5.35087 12.2557C5.35029 12.2135 5.362 12.1865 5.39482 12.1531C5.42118 12.1262 5.44521 12.1115 5.49736 12.1115H8.26064V13.9602C7.64071 14.1588 7.19071 14.74 7.19071 15.4238C7.19071 16.2723 7.88095 16.9625 8.72939 16.9625C9.57782 16.9625 10.2681 16.2723 10.2681 15.4238C10.2681 14.7395 9.81806 14.1588 9.19872 13.9602V12.1115H13.3343V15.9301H11.9767C11.7177 15.9301 11.5073 16.1398 11.5073 16.3994V17.8854C10.8874 18.084 10.438 18.6658 10.438 19.3508C10.438 20.1992 11.1282 20.8895 11.9767 20.8895C12.8251 20.8895 13.5153 20.1992 13.5153 19.3508C13.5153 18.6658 13.0653 18.084 12.446 17.8854V16.8687H13.8036C14.0626 16.8687 14.2729 16.659 14.2729 16.3994V12.1115H18.3341V16.3994C18.3341 16.6584 18.5438 16.8687 18.8034 16.8687H20.1593V17.8859C19.5405 18.0852 19.0911 18.6664 19.0911 19.3508C19.0911 20.1992 19.7813 20.8895 20.6298 20.8895C21.4776 20.8895 22.1673 20.1992 22.1673 19.3508C22.1673 18.6652 21.7173 18.0834 21.0974 17.8848V16.3994C21.0974 16.1404 20.8876 15.9301 20.628 15.9301H19.2722V12.1115H20.8571H20.8583H20.8595H23.4065V13.9607C22.7878 14.1594 22.3384 14.7406 22.3384 15.4244C22.3384 16.2729 23.028 16.9631 23.8759 16.9631C24.7243 16.9631 25.4145 16.2729 25.4145 15.4244C25.4145 14.74 24.9645 14.1594 24.3452 13.9607V12.1121H27.1097C27.1571 12.1121 27.1852 12.1244 27.2186 12.1607C27.2491 12.193 27.2585 12.2223 27.2544 12.2697ZM11.9761 18.7496C12.3071 18.7496 12.5767 19.0191 12.5767 19.3502C12.5767 19.6812 12.3071 19.9508 11.9761 19.9508C11.645 19.9508 11.3755 19.6812 11.3755 19.3502C11.3755 19.0191 11.645 18.7496 11.9761 18.7496ZM20.6298 18.7496C20.9597 18.7496 21.2286 19.0191 21.2286 19.3502C21.2286 19.6812 20.9602 19.9508 20.6298 19.9508C20.2987 19.9508 20.0292 19.6812 20.0292 19.3502C20.0292 19.0191 20.2987 18.7496 20.6298 18.7496Z" fill="url(#paint0_linear_1731_6311)"/>
</g>
<defs>
<linearGradient id="paint0_linear_1731_6311" x1="1.80566" y1="-0.000976562" x2="27.5016" y2="11.9227" gradientUnits="userSpaceOnUse">
<stop offset="0.18" stop-color="#6D30FB"/>
<stop offset="1" stop-color="#C13DFF"/>
</linearGradient>
<clipPath id="clip0_1731_6311">
<rect width="30" height="30" fill="white"/>
</clipPath>
</defs>
</svg>
