<svg width="30" height="30" viewBox="0 0 30 30" fill="none" xmlns="http://www.w3.org/2000/svg">
<path d="M22.7244 2.63477H6.99031C4.47219 2.63477 2.5 4.59133 2.5 7.08914V16.0313C2.5 18.5323 4.47219 20.4916 6.99031 20.4916H8.92844C9.32281 20.4916 9.64281 20.172 9.64281 19.7773C9.64281 19.3829 9.32313 19.0629 8.92844 19.0629H6.99031C5.27344 19.0629 3.92844 17.7313 3.92844 16.031V7.08914C3.92844 5.39227 5.27344 4.0632 6.99031 4.0632H22.7241C24.5384 4.0632 26.0713 5.44883 26.0713 7.08914V9.0632C26.0713 9.45758 26.3909 9.77758 26.7856 9.77758C27.1803 9.77758 27.5 9.45789 27.5 9.0632V7.08914C27.5 4.67477 25.3128 2.63477 22.7244 2.63477Z" fill="url(#paint0_linear_1731_6256)"/>
<path d="M13.9798 15.6531L17.7064 12.7478C18.1108 12.4472 18.3523 11.9753 18.3523 11.4853C18.3523 11.0409 18.1502 10.6353 17.8033 10.3778L13.9667 7.45781C13.7083 7.26563 13.4161 7.16406 13.1217 7.16406C12.3723 7.16406 11.7852 7.815 11.7852 8.64531V14.4753C11.7852 15.3056 12.372 15.9566 13.1217 15.9566C13.4161 15.9566 13.7083 15.855 13.9798 15.6531ZM13.2139 8.68L16.9236 11.4834C16.9258 11.5016 16.9086 11.5616 16.8414 11.6116L13.2142 14.4356L13.2139 8.68Z" fill="url(#paint1_linear_1731_6256)"/>
<path d="M24.675 20.5655C26.1131 20.5655 27.2831 19.3955 27.2831 17.9571C27.2831 16.5186 26.1131 15.3486 24.675 15.3486C23.2369 15.3486 22.0669 16.5186 22.0669 17.9571C22.0669 18.0952 22.0869 18.228 22.1078 18.3605L18.3175 20.6461L14.0306 18.0614C13.6922 17.8574 13.2534 17.9661 13.05 18.3043C12.8462 18.6418 12.955 19.0808 13.2928 19.2846L16.9344 21.4805L13.2928 23.6764C12.9553 23.8802 12.8462 24.3189 13.05 24.6568C13.1844 24.8793 13.4203 25.0024 13.6625 25.0024C13.7881 25.0024 13.9153 24.9693 14.0309 24.8996L18.3178 22.3149L22.0847 24.5861C22.0809 24.6439 22.0672 24.6993 22.0672 24.7577C22.0672 26.1961 23.2372 27.3661 24.6753 27.3661C26.1134 27.3661 27.2834 26.1961 27.2834 24.7577C27.2834 23.3196 26.1134 22.1496 24.6753 22.1496C23.8153 22.1496 23.0572 22.5733 22.5819 23.2174L19.7012 21.4805L22.7175 19.6618C23.1953 20.2105 23.8912 20.5655 24.675 20.5655ZM24.675 16.7771C25.3253 16.7771 25.8547 17.3064 25.8547 17.9571C25.8547 18.6077 25.3256 19.1371 24.675 19.1371C24.0247 19.1371 23.4953 18.6077 23.4953 17.9571C23.4953 17.3064 24.0244 16.7771 24.675 16.7771ZM24.675 23.578C25.3253 23.578 25.8547 24.1071 25.8547 24.7577C25.8547 25.4083 25.3256 25.9377 24.675 25.9377C24.0247 25.9377 23.4953 25.4083 23.4953 24.7577C23.4953 24.1071 24.0244 23.578 24.675 23.578Z" fill="url(#paint2_linear_1731_6256)"/>
<defs>
<linearGradient id="paint0_linear_1731_6256" x1="2.5" y1="2.63477" x2="21.643" y2="16.7739" gradientUnits="userSpaceOnUse">
<stop offset="0.18" stop-color="#6D30FB"/>
<stop offset="1" stop-color="#C13DFF"/>
</linearGradient>
<linearGradient id="paint1_linear_1731_6256" x1="11.7852" y1="7.16406" x2="18.5125" y2="9.81493" gradientUnits="userSpaceOnUse">
<stop offset="0.18" stop-color="#6D30FB"/>
<stop offset="1" stop-color="#C13DFF"/>
</linearGradient>
<linearGradient id="paint2_linear_1731_6256" x1="12.9473" y1="15.3486" x2="25.0999" y2="22.9969" gradientUnits="userSpaceOnUse">
<stop offset="0.18" stop-color="#6D30FB"/>
<stop offset="1" stop-color="#C13DFF"/>
</linearGradient>
</defs>
</svg>
