<svg width="40" height="55" viewBox="0 0 40 55" fill="none" xmlns="http://www.w3.org/2000/svg">
<path d="M39.7146 51.7424C39.7135 52.5551 39.3913 53.3344 38.8179 53.909C38.2444 54.4837 37.4668 54.8069 36.6552 54.8076H4.01459C3.20414 54.8076 2.42645 54.485 1.85193 53.9108C1.2785 53.3365 0.955205 52.5575 0.954113 51.7448V3.87493C0.95302 3.47196 1.03273 3.07294 1.18564 2.70061C1.33965 2.32829 1.56465 1.99001 1.84973 1.70513C2.13371 1.42025 2.47125 1.19425 2.84261 1.04016C3.21506 0.886172 3.61264 0.807046 4.01459 0.807374H24.9627L39.7146 15.8815V51.7424Z" fill="#23A566"/>
<path d="M26.5869 15.4895L39.7143 28.0627V15.7948H28.0854C27.5776 15.8006 27.0773 15.6744 26.6328 15.4285L26.5869 15.4895Z" fill="#1C8F5A"/>
<path d="M39.713 15.8579H28.0525C27.241 15.8572 26.4633 15.534 25.8899 14.9594C25.3165 14.3847 24.9932 13.6055 24.9932 12.7927V0.725098L39.713 15.8579Z" fill="#8ED1B1"/>
<path fill-rule="evenodd" clip-rule="evenodd" d="M30.38 44.8537H10.21V27.3298H30.38V44.8537ZM21.5494 29.8577V32.9253H27.9006V29.8625L21.5494 29.8577ZM21.5494 34.8572V37.788H27.9006V34.8425L21.5494 34.8572ZM21.5494 39.6563V42.3698H27.9006V39.6417L21.5494 39.6563ZM19.0558 42.3551V39.6417H12.7057V42.3551H19.0558ZM19.0558 37.7562V34.8425H12.7057V37.7708L19.0558 37.7562ZM19.0558 32.957V29.8577H12.7057V32.9253L19.0558 32.957Z" fill="white"/>
</svg>
