<svg width="30" height="30" viewBox="0 0 30 30" fill="none" xmlns="http://www.w3.org/2000/svg">
<path d="M14.5078 15.7594C14.5078 16.875 15.4172 17.7844 16.5328 17.7844C17.6484 17.7844 18.5578 16.875 18.5578 15.7594C18.5578 14.6437 17.6484 13.7344 16.5328 13.7344C15.4172 13.7344 14.5078 14.6437 14.5078 15.7594ZM17.6625 15.7594C17.6625 16.3828 17.1562 16.8938 16.5328 16.8938C15.9094 16.8938 15.3984 16.3875 15.3984 15.7594C15.3984 15.1312 15.9047 14.6297 16.5328 14.6297C17.1609 14.6297 17.6625 15.1359 17.6625 15.7594Z" fill="url(#paint0_linear_1731_6265)"/>
<path d="M11.9064 15.7594C11.9064 14.6437 10.9971 13.7344 9.88145 13.7344C8.76582 13.7344 7.85645 14.6437 7.85645 15.7594C7.85645 16.875 8.76582 17.7844 9.88145 17.7844C10.9971 17.7844 11.9064 16.875 11.9064 15.7594ZM8.75176 15.7594C8.75176 15.1359 9.25801 14.6297 9.88145 14.6297C10.5049 14.6297 11.0158 15.1359 11.0158 15.7594C11.0158 16.3828 10.5096 16.8938 9.88145 16.8938C9.25332 16.8938 8.75176 16.3875 8.75176 15.7594Z" fill="url(#paint1_linear_1731_6265)"/>
<path d="M17.0391 18.9238H9.375C9.12656 18.9238 8.92969 19.1254 8.92969 19.3691C8.92969 20.827 10.1156 22.0129 11.5734 22.0129H14.85C16.3078 22.0129 17.4938 20.827 17.4938 19.3691C17.4938 19.1207 17.2922 18.9238 17.0484 18.9238H17.0391ZM14.8453 21.1176H11.5688C10.7578 21.1176 10.0734 20.5645 9.87656 19.8145H16.5328C16.3359 20.5645 15.6516 21.1176 14.8406 21.1176H14.8453Z" fill="url(#paint2_linear_1731_6265)"/>
<path d="M26.7422 0.46875H16.2281C15.2437 0.46875 14.4422 1.27031 14.4422 2.25469V7.90781C14.4422 8.89219 15.2437 9.69375 16.2281 9.69375H16.5938V11.0859H9.75469V8.90156C10.3547 8.49844 10.7203 7.82344 10.7203 7.0875C10.7203 5.87813 9.73594 4.89375 8.52656 4.89375C7.31719 4.89375 6.33281 5.87813 6.33281 7.0875C6.33281 7.82812 6.69844 8.49844 7.30313 8.90625V11.3109C6.06094 11.7703 5.14219 12.9047 5.00156 14.2641H3.45C2.3625 14.2641 1.47656 15.15 1.47656 16.2375V19.3406C1.47656 19.6875 1.57031 20.0297 1.74375 20.325C2.09531 20.9344 2.75156 21.3094 3.45 21.3094H5.00156C5.18438 23.0906 6.69844 24.4875 8.53125 24.4875H17.8875C19.7203 24.4875 21.2297 23.0906 21.4125 21.3094H22.2797V24.8344C22.2797 25.5516 21.6984 26.1328 20.9859 26.1328H15.4781C14.9719 25.5516 14.1328 25.1953 13.2094 25.1953C11.6953 25.1953 10.4578 26.1656 10.4578 27.3609C10.4578 28.5562 11.6906 29.5266 13.2094 29.5266C14.1281 29.5266 14.9719 29.1703 15.4781 28.5891H20.9859C23.0531 28.5891 24.7359 26.9062 24.7359 24.8344V20.2031C24.8672 19.9359 24.9422 19.6406 24.9422 19.3359V16.2328C24.9422 15.1453 24.0562 14.2594 22.9688 14.2594H21.4125C21.2578 12.7781 20.1938 11.5687 18.7875 11.2031L20.3016 9.68906H26.7469C27.7313 9.68906 28.5328 8.8875 28.5328 7.90313V2.25469C28.5328 1.27031 27.7313 0.46875 26.7469 0.46875H26.7422ZM8.52656 5.78906C9.24375 5.78906 9.825 6.37031 9.825 7.0875C9.825 7.58437 9.54844 8.02969 9.10313 8.25C8.83125 8.39062 8.5125 8.41875 8.22188 8.35312C8.12344 8.32969 8.02969 8.29688 7.94063 8.25469C7.49531 8.02969 7.21875 7.58437 7.21875 7.0875C7.21875 6.37031 7.80469 5.78906 8.52188 5.78906H8.52656ZM8.19375 11.1047V9.25781C8.19375 9.25781 8.21719 9.25781 8.22656 9.25781C8.325 9.27188 8.42813 9.28125 8.53125 9.28125C8.63438 9.28125 8.73281 9.27188 8.83594 9.25781H8.86875V11.0859H8.53594C8.42344 11.0859 8.31094 11.0906 8.20312 11.1L8.19375 11.1047ZM2.5125 19.8797C2.41875 19.7156 2.36719 19.5281 2.36719 19.3406V16.2375C2.36719 15.6422 2.85 15.1547 3.44531 15.1547H4.97812V20.4188H3.44531C3.06094 20.4188 2.70469 20.2125 2.5125 19.8797ZM13.2047 28.6359C12.1969 28.6359 11.3484 28.0547 11.3484 27.3656C11.3484 26.6766 12.1969 26.0953 13.2047 26.0953C13.9219 26.0953 14.5828 26.3859 14.8875 26.8359C15.0047 27.0047 15.0609 27.1828 15.0609 27.3656C15.0609 27.5484 15.0047 27.7266 14.8875 27.8953C14.5828 28.3453 13.9219 28.6359 13.2047 28.6359ZM23.8359 24.8391C23.8359 26.4188 22.5562 27.6984 20.9812 27.6984H15.9234C15.9234 27.6984 15.9234 27.6797 15.9234 27.6703C15.9422 27.5672 15.9516 27.4688 15.9516 27.3656C15.9516 27.2625 15.9422 27.1594 15.9234 27.0609C15.9234 27.0516 15.9234 27.0422 15.9234 27.0328H20.9812C22.1859 27.0328 23.1703 26.0484 23.1703 24.8391V21.3C23.1703 21.3 23.1844 21.3 23.1937 21.3C23.2969 21.2859 23.4 21.2672 23.5031 21.2391C23.5219 21.2344 23.5453 21.225 23.5641 21.2203C23.6437 21.1969 23.7234 21.1641 23.7984 21.1266C23.8125 21.1219 23.8266 21.1172 23.8453 21.1078V24.8391H23.8359ZM24.0422 16.2375V19.3406C24.0422 19.5281 23.9906 19.7156 23.8969 19.8797C23.7047 20.2125 23.3484 20.4188 22.9641 20.4188H21.4266V15.1547H22.9641C23.5594 15.1547 24.0422 15.6375 24.0422 16.2328V16.2375ZM18.0047 11.9812C19.4109 12.0469 20.5312 13.2094 20.5312 14.6297V20.9438C20.5312 22.4062 19.3406 23.5969 17.8781 23.5969H8.52188C7.05938 23.5969 5.86406 22.4062 5.86406 20.9438V20.8781C5.86406 20.8781 5.86406 20.8687 5.86406 20.8641V14.7094C5.86406 14.7094 5.86406 14.7 5.86406 14.6953V14.6297C5.86406 13.3922 6.71719 12.3562 7.86563 12.0656C7.95938 12.0422 8.05313 12.0234 8.14219 12.0094C8.16563 12.0094 8.18438 12 8.20781 12C8.31094 11.9859 8.41406 11.9812 8.52188 11.9812H16.5891V12.3188C16.5891 12.4969 16.6969 12.6609 16.8656 12.7312C16.9172 12.75 16.9688 12.7594 17.0203 12.7641H17.0344C17.0437 12.7641 17.0531 12.7594 17.0625 12.7594C17.1 12.7594 17.1375 12.75 17.175 12.7359L17.2172 12.7219C17.2641 12.6984 17.3109 12.675 17.3484 12.6328L18 11.9812H18.0047ZM27.6281 7.90781C27.6281 8.4 27.2297 8.79844 26.7375 8.79844H20.1094C19.9922 8.79844 19.8797 8.84531 19.7953 8.92969L17.4844 11.2406V9.24844C17.4844 9 17.2828 8.80313 17.0391 8.80313H16.2281C15.7359 8.80313 15.3375 8.40469 15.3375 7.9125V2.25469C15.3375 1.7625 15.7359 1.36406 16.2281 1.36406H26.7422C27.2344 1.36406 27.6328 1.7625 27.6328 2.25469V7.90781H27.6281Z" fill="url(#paint3_linear_1731_6265)"/>
<path d="M25.0028 2.32012H17.9997C17.4044 2.32012 16.8888 2.74668 16.7997 3.30918C16.7434 3.65605 16.8419 4.00293 17.0669 4.26543C17.2919 4.52793 17.62 4.67793 17.9622 4.67793H24.9981C25.6497 4.67793 26.1794 4.14824 26.1794 3.49668C26.1794 2.84512 25.6497 2.31543 24.9981 2.31543L25.0028 2.32012ZM25.0028 3.7873H17.9669C17.8497 3.7873 17.7794 3.72637 17.7466 3.68887C17.7138 3.65137 17.6622 3.57168 17.6809 3.4498C17.6997 3.31855 17.8403 3.21543 17.9997 3.21543H25.0028C25.1622 3.21543 25.2888 3.34199 25.2888 3.50137C25.2888 3.66074 25.1622 3.7873 25.0028 3.7873Z" fill="url(#paint4_linear_1731_6265)"/>
<path d="M25.0028 5.48418H17.9997C17.4044 5.48418 16.8888 5.91074 16.7997 6.47324C16.7434 6.82012 16.8419 7.16699 17.0669 7.42949C17.2919 7.69199 17.62 7.84199 17.9622 7.84199H24.9981C25.6497 7.84199 26.1794 7.3123 26.1794 6.66074C26.1794 6.00918 25.6497 5.47949 24.9981 5.47949L25.0028 5.48418ZM25.0028 6.95137H17.9669C17.8497 6.95137 17.7794 6.89043 17.7466 6.85293C17.7138 6.81543 17.6622 6.73574 17.6809 6.61387C17.6997 6.48262 17.8403 6.37949 17.9997 6.37949H25.0028C25.1622 6.37949 25.2888 6.50605 25.2888 6.66543C25.2888 6.82481 25.1622 6.95137 25.0028 6.95137Z" fill="url(#paint5_linear_1731_6265)"/>
<defs>
<linearGradient id="paint0_linear_1731_6265" x1="14.5078" y1="13.7344" x2="18.2572" y2="15.7124" gradientUnits="userSpaceOnUse">
<stop offset="0.18" stop-color="#6D30FB"/>
<stop offset="1" stop-color="#C13DFF"/>
</linearGradient>
<linearGradient id="paint1_linear_1731_6265" x1="7.85645" y1="13.7344" x2="11.6059" y2="15.7124" gradientUnits="userSpaceOnUse">
<stop offset="0.18" stop-color="#6D30FB"/>
<stop offset="1" stop-color="#C13DFF"/>
</linearGradient>
<linearGradient id="paint2_linear_1731_6265" x1="8.92969" y1="18.9238" x2="12.1582" y2="23.6459" gradientUnits="userSpaceOnUse">
<stop offset="0.18" stop-color="#6D30FB"/>
<stop offset="1" stop-color="#C13DFF"/>
</linearGradient>
<linearGradient id="paint3_linear_1731_6265" x1="1.47656" y1="0.46875" x2="27.2718" y2="13.14" gradientUnits="userSpaceOnUse">
<stop offset="0.18" stop-color="#6D30FB"/>
<stop offset="1" stop-color="#C13DFF"/>
</linearGradient>
<linearGradient id="paint4_linear_1731_6265" x1="16.7842" y1="2.31543" x2="18.8426" y2="6.63395" gradientUnits="userSpaceOnUse">
<stop offset="0.18" stop-color="#6D30FB"/>
<stop offset="1" stop-color="#C13DFF"/>
</linearGradient>
<linearGradient id="paint5_linear_1731_6265" x1="16.7842" y1="5.47949" x2="18.8426" y2="9.79801" gradientUnits="userSpaceOnUse">
<stop offset="0.18" stop-color="#6D30FB"/>
<stop offset="1" stop-color="#C13DFF"/>
</linearGradient>
</defs>
</svg>
