<svg width="61" height="51" viewBox="0 0 61 51" fill="none" xmlns="http://www.w3.org/2000/svg">
<path d="M27.7025 0.758773L5.27766 10.0561C4.03032 10.5732 4.0434 12.3484 5.29839 12.8468L27.8161 21.7942C29.7953 22.5804 31.9983 22.5804 33.9764 21.7942L56.4952 12.8463C57.7491 12.3484 57.7633 10.5736 56.516 10.0564L34.0922 0.758447C32.0453 -0.0897298 29.7472 -0.0897298 27.7014 0.758447" fill="#FCB400"/>
<path d="M32.8936 26.6802V49.0325C32.8936 50.0953 33.9628 50.8237 34.9491 50.4319L60.0406 40.673C60.3202 40.5618 60.5605 40.369 60.7298 40.1194C60.8991 39.8699 60.9887 39.5752 60.9887 39.2736V16.9216C60.9887 15.8585 59.9194 15.1305 58.9331 15.5222L33.8416 25.2812C33.562 25.3923 33.3217 25.5852 33.1524 25.8347C32.9831 26.0842 32.8936 26.3785 32.8936 26.6802Z" fill="#18BFFF"/>
<path d="M27.0311 27.834L19.5844 31.4367L18.8286 31.8028L3.10937 39.35C2.11327 39.8316 0.84082 39.1041 0.84082 37.9949V17.0157C0.84082 16.6145 1.04616 16.268 1.3214 16.0074C1.43499 15.8947 1.56278 15.7983 1.70258 15.7212C2.0783 15.4954 2.61348 15.4351 3.06894 15.6156L26.9055 25.0795C28.1179 25.5612 28.2129 27.2621 27.0311 27.834Z" fill="#F82B60"/>
</svg>
