<svg width="50" height="50" viewBox="0 0 50 50" fill="none" xmlns="http://www.w3.org/2000/svg">
<path d="M10.9447 31.6724C10.9447 34.5147 8.65119 36.8118 5.8146 36.8118C2.97801 36.8118 0.685547 34.5147 0.685547 31.6724C0.685547 28.8301 2.97801 26.532 5.8146 26.532H10.9447V31.6724ZM13.5092 31.6724C13.5092 28.8301 15.8017 26.532 18.6383 26.532C21.4749 26.532 23.7673 28.8301 23.7673 31.6724V44.521C23.7673 47.3643 21.4749 49.6614 18.6383 49.6614C15.8017 49.6614 13.5092 47.3643 13.5092 44.521V31.6724Z" fill="#E01E5A"/>
<path d="M18.6383 11.035C15.8017 11.035 13.5092 8.73789 13.5092 5.89454C13.5092 3.05223 15.8017 0.755127 18.6383 0.755127C21.4749 0.755127 23.7673 3.05223 23.7673 5.89454V11.035H18.6383ZM18.6383 13.6438C21.4749 13.6438 23.7673 15.9409 23.7673 18.7832C23.7673 21.6255 21.4749 23.9226 18.6383 23.9226H5.77555C2.93896 23.9226 0.646484 21.6255 0.646484 18.7832C0.646484 15.9409 2.93896 13.6438 5.77555 13.6438H18.6383Z" fill="#36C5F0"/>
<path d="M39.1958 18.7832C39.1958 15.9409 41.4882 13.6438 44.3258 13.6438C47.1624 13.6438 49.4549 15.9409 49.4549 18.7832C49.4549 21.6255 47.1624 23.9226 44.3258 23.9226H39.1958V18.7832ZM36.6312 18.7832C36.6312 21.6255 34.3387 23.9226 31.5022 23.9226C28.6656 23.9226 26.3721 21.6255 26.3721 18.7832V5.89454C26.3721 3.05223 28.6656 0.755127 31.5022 0.755127C34.3387 0.755127 36.6312 3.05223 36.6312 5.89454V18.7832Z" fill="#2EB67D"/>
<path d="M31.5022 39.3815C34.3387 39.3815 36.6312 41.6786 36.6312 44.521C36.6312 47.3643 34.3387 49.6614 31.5022 49.6614C28.6656 49.6614 26.3721 47.3643 26.3721 44.521V39.3815H31.5022ZM31.5022 36.8118C28.6656 36.8118 26.3721 34.5147 26.3721 31.6724C26.3721 28.8301 28.6656 26.532 31.5022 26.532H44.3638C47.2014 26.532 49.4939 28.8301 49.4939 31.6724C49.4939 34.5147 47.2014 36.8118 44.3638 36.8118H31.5022Z" fill="#ECB22E"/>
</svg>
