<svg width="44" height="48" viewBox="0 0 44 48" fill="none" xmlns="http://www.w3.org/2000/svg">
<mask id="mask0_1740_11853" style="mask-type:luminance" maskUnits="userSpaceOnUse" x="0" y="0" width="44" height="48">
<path d="M43.4604 0.169189H0.564453V47.7504H43.4604V0.169189Z" fill="white"/>
</mask>
<g mask="url(#mask0_1740_11853)">
<path d="M43.4601 41.7964C43.4776 45.0633 40.8486 47.7227 37.5905 47.7402C37.348 47.7424 37.1045 47.7293 36.8642 47.6998C33.8398 47.251 31.6248 44.6146 31.6991 41.5535V6.35688C31.627 3.2914 33.8475 0.654944 36.874 0.210609C40.1103 -0.169156 43.0429 2.15211 43.4219 5.39488C43.4492 5.63456 43.4623 5.87314 43.4601 6.11392V41.7964Z" fill="#F9AB00"/>
<path d="M6.44606 35.963C9.69431 35.963 12.3277 38.6017 12.3277 41.8565C12.3277 45.1113 9.69431 47.7499 6.44606 47.7499C3.1978 47.7499 0.564453 45.1113 0.564453 41.8565C0.564453 38.6017 3.1978 35.963 6.44606 35.963ZM21.9217 18.102C18.6571 18.2826 16.1253 21.0241 16.2017 24.2997V40.1284C16.2017 44.4251 18.0891 47.032 20.8524 47.5879C24.0428 48.2358 27.1501 46.1707 27.7967 42.9739C27.8776 42.5832 27.9158 42.1859 27.9147 41.7864V24.025C27.9202 20.7582 25.2824 18.1064 22.0233 18.0999C21.9894 18.0999 21.9545 18.0999 21.9217 18.102Z" fill="#E37400"/>
</g>
</svg>
