<svg width="54" height="60" viewBox="0 0 54 60" fill="none" xmlns="http://www.w3.org/2000/svg">
<path d="M51.2605 28.5783C49.9579 26.3337 48.1257 24.5333 45.8349 23.1773C44.1231 22.1792 42.348 21.5456 40.3477 21.2731V14.1374C42.348 13.2871 43.5894 11.4036 43.5894 9.20597C43.5894 6.21054 41.1922 3.78311 38.2054 3.78311C35.2162 3.78311 32.777 6.21054 32.777 9.20597C32.777 11.4036 33.9468 13.2871 35.947 14.1374V21.2763C34.3469 21.5084 32.6875 22.0074 31.172 22.7757C28.0768 20.4205 17.9273 12.6928 11.9901 8.18049C12.1309 7.67158 12.2393 7.14736 12.2393 6.59358C12.2393 3.27639 9.55808 0.587402 6.24596 0.587402C2.93395 0.587402 0.253906 3.27639 0.253906 6.59358C0.253906 9.91077 2.93668 12.6009 6.2488 12.6009C7.37862 12.6009 8.42346 12.2692 9.32522 11.7253L10.5782 12.6775L27.7951 25.1068C26.885 25.9451 26.0372 26.8973 25.3592 27.9654C23.985 30.1444 23.1453 32.5412 23.1453 35.1569V35.7019C23.1453 37.5373 23.4933 39.2708 24.0861 40.8982C24.6082 42.3199 25.3716 43.6124 26.3169 44.7801L20.6029 50.5204C19.7747 50.2107 18.8755 50.1472 18.0124 50.3376C17.1493 50.5269 16.3589 50.9614 15.7358 51.5896C15.3044 52.0197 14.9624 52.5308 14.7298 53.0945C14.4971 53.6581 14.3783 54.2622 14.3803 54.8729C14.3808 56.1118 14.8628 57.2773 15.7381 58.154C16.1673 58.5874 16.6777 58.9299 17.24 59.163C17.8022 59.3972 18.4052 59.5165 19.0139 59.5143C19.6227 59.5165 20.2258 59.3972 20.7883 59.163C21.3507 58.9299 21.8615 58.5863 22.2907 58.154C22.7219 57.7239 23.0637 57.2128 23.2966 56.6491C23.5293 56.0855 23.6484 55.4825 23.647 54.8729C23.647 54.3924 23.5729 53.924 23.4337 53.4797L29.3397 47.5611C30.1494 48.1214 31.024 48.5931 31.9642 49.0002C33.8184 49.8035 35.8651 50.2927 38.105 50.2927H38.5155C40.9918 50.2927 43.3278 49.7094 45.5236 48.5176C47.8377 47.2579 49.6487 45.5353 51.0169 43.3355C52.3923 41.1302 53.1496 38.693 53.1496 36.0116V35.8781C53.1496 33.2406 52.5403 30.8077 51.2605 28.5783ZM44.0443 40.9945C42.4412 42.7795 40.5986 43.8794 38.5155 43.8794H38.1723C36.9825 43.8794 35.8187 43.5489 34.6793 42.9503C33.3951 42.2903 32.419 41.3491 31.6201 40.1573C30.7944 38.9874 30.3462 37.7102 30.3462 36.3564V35.9449C30.3462 34.6141 30.6012 33.3522 31.2436 32.1593C31.9305 30.8569 32.8583 29.8435 34.0921 29.0369C35.3034 28.2369 36.5972 27.8451 38.0382 27.8451H38.1723C39.4788 27.8451 40.7158 28.1033 41.8832 28.7009C43.0725 29.34 44.0443 30.2112 44.7976 31.3582C45.5293 32.5051 45.9646 33.7429 46.1046 35.0912C46.1265 35.3714 46.1378 35.6581 46.1378 35.9328C46.1378 37.7616 45.4401 39.4558 44.0443 40.9945Z" fill="#F8761F"/>
</svg>
