<svg width="30" height="30" viewBox="0 0 30 30" fill="none" xmlns="http://www.w3.org/2000/svg">
<g clip-path="url(#clip0_1731_6316)">
<path fill-rule="evenodd" clip-rule="evenodd" d="M26.875 3.64313V5.36625L23.9938 8.24594C22.9938 6.91657 21.7062 5.81531 20.225 5.03531L21.5281 3.72938C22.4312 3.59407 23.125 2.81469 23.125 1.875C23.125 0.840312 22.2844 0 21.25 0C20.2156 0 19.375 0.840312 19.375 1.875C19.375 2.48563 19.6687 3.02843 20.1187 3.37093L19.0063 4.48532C17.7625 4.01032 16.4094 3.75 15 3.75C13.5906 3.75 12.2375 4.01032 10.9937 4.48532L9.88129 3.37093C10.3313 3.02843 10.625 2.48563 10.625 1.875C10.625 0.840312 9.78438 0 8.75 0C7.71562 0 6.875 0.840312 6.875 1.875C6.875 2.81469 7.56878 3.59407 8.47191 3.72938L9.77501 5.03531C8.29376 5.81499 7.00624 6.91626 6.00624 8.24594L3.125 5.36625V3.64313C3.85313 3.38563 4.375 2.69062 4.375 1.875C4.375 0.840312 3.53437 0 2.5 0C1.46563 0 0.625 0.840312 0.625 1.875C0.625 2.69062 1.14688 3.38563 1.875 3.64313V5.625C1.875 5.79063 1.94065 5.94969 2.0594 6.06688L5.29686 9.30626C4.31561 10.9769 3.75 12.9231 3.75 15C3.75 16.5597 4.06878 18.0456 4.64378 19.3966C4.64378 19.3994 4.64691 19.4022 4.64691 19.4047C4.83754 19.85 5.05311 20.2803 5.29686 20.6937L2.0594 23.9331C1.94065 24.0503 1.875 24.2094 1.875 24.375V26.3569C1.14688 26.6144 0.625 27.3094 0.625 28.125C0.625 29.1597 1.46563 30 2.5 30C3.53437 30 4.375 29.1597 4.375 28.125C4.375 27.3094 3.85313 26.6144 3.125 26.3569V24.6338L6.00624 21.7541C7.00624 23.0834 8.29376 24.1847 9.77501 24.9647L8.47191 26.2706C7.56878 26.4059 6.875 27.1853 6.875 28.125C6.875 29.1597 7.71562 30 8.75 30C9.78438 30 10.625 29.1597 10.625 28.125C10.625 27.5144 10.3313 26.9716 9.88129 26.6291L10.9937 25.5147C12.2375 25.9897 13.5906 26.25 15 26.25C16.4094 26.25 17.7625 25.9897 19.0063 25.5147L20.1187 26.6291C19.6687 26.9716 19.375 27.5144 19.375 28.125C19.375 29.1597 20.2156 30 21.25 30C22.2844 30 23.125 29.1597 23.125 28.125C23.125 27.1853 22.4312 26.4059 21.5281 26.2706L20.225 24.9647C21.7062 24.185 22.9938 23.0837 23.9938 21.7541L26.875 24.6338V26.3569C26.1469 26.6144 25.625 27.3094 25.625 28.125C25.625 29.1597 26.4656 30 27.5 30C28.5344 30 29.375 29.1597 29.375 28.125C29.375 27.3094 28.8531 26.6144 28.125 26.3569V24.375C28.125 24.2094 28.0593 24.0503 27.9406 23.9331L24.7031 20.6937C25.6875 19.0231 26.25 17.0769 26.25 15C26.25 12.9231 25.6875 10.9769 24.7031 9.30626L27.9406 6.06688C28.0593 5.94969 28.125 5.79063 28.125 5.625V3.64313C28.8531 3.38563 29.375 2.69062 29.375 1.875C29.375 0.840312 28.5344 0 27.5 0C26.4656 0 25.625 0.840312 25.625 1.875C25.625 2.69062 26.1469 3.38563 26.875 3.64313ZM27.5 28.75C27.1562 28.75 26.875 28.47 26.875 28.125C26.875 27.78 27.1562 27.5 27.5 27.5C27.8438 27.5 28.125 27.78 28.125 28.125C28.125 28.47 27.8438 28.75 27.5 28.75ZM2.5 28.75C2.15625 28.75 1.875 28.47 1.875 28.125C1.875 27.78 2.15625 27.5 2.5 27.5C2.84375 27.5 3.125 27.78 3.125 28.125C3.125 28.47 2.84375 28.75 2.5 28.75ZM21.25 28.75C20.9062 28.75 20.625 28.47 20.625 28.125C20.625 27.78 20.9062 27.5 21.25 27.5C21.5938 27.5 21.875 27.78 21.875 28.125C21.875 28.47 21.5938 28.75 21.25 28.75ZM8.75 28.75C8.40625 28.75 8.125 28.47 8.125 28.125C8.125 27.78 8.40625 27.5 8.75 27.5C9.09375 27.5 9.375 27.78 9.375 28.125C9.375 28.47 9.09375 28.75 8.75 28.75ZM21.6125 22.4978L12.8125 13.6963C12.6469 13.5306 12.4219 13.4375 12.1875 13.4375C11.9531 13.4375 11.7281 13.5306 11.5625 13.6963L5.96565 19.2922C7.57503 22.6662 11.0156 25 15 25C17.5344 25 19.85 24.0547 21.6125 22.4978ZM24.6969 17.4547L22.2781 15.0378C22.2563 15.0137 22.2219 15 22.1875 15C22.1531 15 22.1187 15.0137 22.0969 15.0378L19.0094 18.125L22.4969 21.6141C23.5344 20.44 24.3 19.0206 24.6969 17.4547ZM24.9563 15.9469C24.9844 15.6356 25 15.3197 25 15C25 9.48094 20.5187 5 15 5C9.48125 5 5 9.48094 5 15C5 16.0541 5.1625 17.0703 5.46562 18.0247L10.6781 12.8125C11.0781 12.4122 11.6219 12.1875 12.1875 12.1875C12.7531 12.1875 13.2969 12.4122 13.6969 12.8125L18.125 17.2412L21.2125 14.1541C21.4718 13.8953 21.8219 13.75 22.1875 13.75C22.5531 13.75 22.9032 13.8953 23.1625 14.1541L24.9563 15.9469ZM17.8125 8.75C16.4344 8.75 15.3125 9.87031 15.3125 11.25C15.3125 12.6297 16.4344 13.75 17.8125 13.75C19.1906 13.75 20.3125 12.6297 20.3125 11.25C20.3125 9.87031 19.1906 8.75 17.8125 8.75ZM17.8125 10C18.5031 10 19.0625 10.56 19.0625 11.25C19.0625 11.94 18.5031 12.5 17.8125 12.5C17.1219 12.5 16.5625 11.94 16.5625 11.25C16.5625 10.56 17.1219 10 17.8125 10ZM27.5 1.25C27.8438 1.25 28.125 1.53 28.125 1.875C28.125 2.22 27.8438 2.5 27.5 2.5C27.1562 2.5 26.875 2.22 26.875 1.875C26.875 1.53 27.1562 1.25 27.5 1.25ZM2.5 1.25C2.84375 1.25 3.125 1.53 3.125 1.875C3.125 2.22 2.84375 2.5 2.5 2.5C2.15625 2.5 1.875 2.22 1.875 1.875C1.875 1.53 2.15625 1.25 2.5 1.25ZM21.25 1.25C21.5938 1.25 21.875 1.53 21.875 1.875C21.875 2.22 21.5938 2.5 21.25 2.5C20.9062 2.5 20.625 2.22 20.625 1.875C20.625 1.53 20.9062 1.25 21.25 1.25ZM8.75 1.25C9.09375 1.25 9.375 1.53 9.375 1.875C9.375 2.22 9.09375 2.5 8.75 2.5C8.40625 2.5 8.125 2.22 8.125 1.875C8.125 1.53 8.40625 1.25 8.75 1.25Z" fill="url(#paint0_linear_1731_6316)"/>
</g>
<defs>
<linearGradient id="paint0_linear_1731_6316" x1="0.625" y1="0" x2="27.7226" y2="13.7001" gradientUnits="userSpaceOnUse">
<stop offset="0.18" stop-color="#6D30FB"/>
<stop offset="1" stop-color="#C13DFF"/>
</linearGradient>
<clipPath id="clip0_1731_6316">
<rect width="30" height="30" fill="white"/>
</clipPath>
</defs>
</svg>
