<svg width="68" height="68" viewBox="0 0 68 68" fill="none" xmlns="http://www.w3.org/2000/svg">
<mask id="mask0_1740_11897" style="mask-type:luminance" maskUnits="userSpaceOnUse" x="0" y="0" width="68" height="68">
<path d="M67.6402 0.21167H0.810547V67.1745H67.6402V0.21167Z" fill="white"/>
</mask>
<g mask="url(#mask0_1740_11897)">
<path d="M42.5791 33.7076C42.5802 36.1222 42.1455 38.517 41.2957 40.7765C39.0402 41.6275 36.6493 42.0638 34.2398 42.0642H34.2114C31.7287 42.061 29.3509 41.6064 27.1566 40.7775C26.3068 38.5177 25.871 36.1226 25.8721 33.7076V33.6784C25.871 31.2644 26.3057 28.87 27.1544 26.6107C29.4099 25.758 31.8008 25.3216 34.2114 25.3227H34.2398C36.6504 25.3215 39.0413 25.7578 41.2968 26.6104C42.1465 28.8695 42.5813 31.264 42.5791 33.6781V33.7076ZM67.1764 28.1129H47.6711L61.4629 14.2932C60.3805 12.7695 59.1725 11.3391 57.853 10.0167C56.5325 8.69573 55.106 7.48585 53.5856 6.40172L39.7938 20.2215V0.677784C37.96 0.3685 36.1032 0.212655 34.2431 0.21167H34.2081C32.3163 0.212655 30.4628 0.373753 28.6562 0.677784V20.2215L14.8645 6.40172C13.3441 7.48563 11.9176 8.6953 10.5992 10.018L10.5927 10.0233C9.27434 11.344 8.06851 12.7722 6.98719 14.2932L20.7811 28.1129H1.27584C1.27584 28.1129 0.810547 31.7836 0.810547 33.6815V33.7046C0.810547 35.6025 0.971101 37.4626 1.27584 39.2732H20.7811L6.98828 53.0929C9.15748 56.144 11.8193 58.8113 14.8645 60.9853L28.6562 47.1647V66.7094C30.489 67.017 32.3437 67.1727 34.2016 67.1745H34.2485C36.1064 67.1728 37.9611 67.0173 39.7938 66.7094V47.1647L53.5867 60.9853C55.106 59.9009 56.5336 58.6918 57.853 57.3705L57.8563 57.3673C59.1746 56.0449 60.3805 54.6152 61.4629 53.0929L47.67 39.2732H67.1764C67.4801 37.4657 67.6384 35.6112 67.6406 33.7174V33.6687C67.6384 31.7749 67.4801 29.9204 67.1764 28.1129Z" fill="#FF4A00"/>
</g>
</svg>
