<svg width="30" height="30" viewBox="0 0 30 30" fill="none" xmlns="http://www.w3.org/2000/svg">
<g opacity="0.9">
<path d="M15.0005 11.892C15.2177 11.892 15.3937 11.7159 15.3937 11.4988C15.3937 11.2817 15.2177 11.1057 15.0005 11.1057C14.7834 11.1057 14.6074 11.2817 14.6074 11.4988C14.6074 11.7159 14.7834 11.892 15.0005 11.892Z" fill="#6D30FB"/>
<path d="M15.5632 8.89222C15.5632 9.2027 15.3108 9.4551 15.0004 9.4551C14.6899 9.4551 14.4375 9.2027 14.4375 8.89222C14.4375 8.58175 14.6899 8.32935 15.0004 8.32935C15.3108 8.32935 15.5632 8.58175 15.5632 8.89222Z" fill="#6D30FB"/>
<path d="M15.7354 6.2876C15.7354 6.69412 15.407 7.02247 15.0005 7.02247C14.594 7.02247 14.2656 6.69412 14.2656 6.2876C14.2656 5.88108 14.594 5.55273 15.0005 5.55273C15.4048 5.55273 15.7354 5.88108 15.7354 6.2876Z" fill="#6D30FB"/>
<path d="M15.0006 4.59008C15.5014 4.59008 15.9075 4.18407 15.9075 3.68322C15.9075 3.18238 15.5014 2.77637 15.0006 2.77637C14.4998 2.77637 14.0938 3.18238 14.0938 3.68322C14.0938 4.18407 14.4998 4.59008 15.0006 4.59008Z" fill="#6D30FB"/>
<path d="M16.0796 1.07885C16.0796 1.67523 15.5971 2.15769 15.0007 2.15769C14.4043 2.15769 13.9219 1.67523 13.9219 1.07885C13.9219 0.482464 14.4043 0 15.0007 0C15.5949 0 16.0796 0.482464 16.0796 1.07885Z" fill="#6D30FB"/>
<path d="M14.6074 18.5035C14.6074 18.2868 14.7839 18.1104 15.0005 18.1104C15.2172 18.1104 15.3937 18.2868 15.3937 18.5035C15.3937 18.7201 15.2172 18.8966 15.0005 18.8966C14.7839 18.8944 14.6074 18.7201 14.6074 18.5035Z" fill="#6D30FB"/>
<path d="M14.4355 21.1078C14.4355 20.7973 14.6879 20.5449 14.9984 20.5449C15.3089 20.5449 15.5613 20.7973 15.5613 21.1078C15.5613 21.4183 15.3089 21.6707 14.9984 21.6707C14.6879 21.6707 14.4355 21.4183 14.4355 21.1078Z" fill="#6D30FB"/>
<path d="M14.2637 23.7124C14.2637 23.3059 14.592 22.9775 14.9985 22.9775C15.4051 22.9775 15.7334 23.3059 15.7334 23.7124C15.7334 24.1189 15.4051 24.4473 14.9985 24.4473C14.5942 24.4473 14.2637 24.1189 14.2637 23.7124Z" fill="#6D30FB"/>
<path d="M15.9057 26.3542C15.9284 25.8538 15.5412 25.4298 15.0408 25.4072C14.5405 25.3845 14.1165 25.7717 14.0938 26.272C14.0711 26.7724 14.4583 27.1964 14.9587 27.2191C15.459 27.2417 15.883 26.8545 15.9057 26.3542Z" fill="#6D30FB"/>
<path d="M13.9199 28.9211C13.9199 28.3248 14.4024 27.8423 14.9988 27.8423C15.5951 27.8423 16.0776 28.3248 16.0776 28.9211C16.0776 29.5175 15.5951 30 14.9988 30C14.4046 30.0022 13.9199 29.5175 13.9199 28.9211Z" fill="#6D30FB"/>
<path d="M18.5035 15.392C18.2868 15.392 18.1104 15.2155 18.1104 14.9988C18.1104 14.7822 18.2868 14.6057 18.5035 14.6057C18.7201 14.6057 18.8966 14.7822 18.8966 14.9988C18.8944 15.2177 18.7201 15.392 18.5035 15.392Z" fill="#6D30FB"/>
<path d="M21.1078 15.564C20.7973 15.564 20.5449 15.3116 20.5449 15.0011C20.5449 14.6906 20.7973 14.4382 21.1078 14.4382C21.4183 14.4382 21.6707 14.6906 21.6707 15.0011C21.6707 15.3116 21.4183 15.564 21.1078 15.564Z" fill="#6D30FB"/>
<path d="M23.7124 15.7361C23.3059 15.7361 22.9775 15.4077 22.9775 15.0012C22.9775 14.5947 23.3059 14.2664 23.7124 14.2664C24.1189 14.2664 24.4473 14.5947 24.4473 15.0012C24.4473 15.4077 24.1189 15.7361 23.7124 15.7361Z" fill="#6D30FB"/>
<path d="M26.317 15.908C25.8167 15.908 25.4102 15.5014 25.4102 15.0011C25.4102 14.5008 25.8167 14.0942 26.317 14.0942C26.8173 14.0942 27.2239 14.5008 27.2239 15.0011C27.2239 15.5014 26.8173 15.908 26.317 15.908Z" fill="#6D30FB"/>
<path d="M28.9206 16.0801C28.3243 16.0801 27.8418 15.5976 27.8418 15.0012C27.8418 14.4048 28.3243 13.9224 28.9206 13.9224C29.517 13.9224 29.9995 14.4048 29.9995 15.0012C29.9995 15.5976 29.517 16.0801 28.9206 16.0801Z" fill="#6D30FB"/>
<path d="M11.4966 15.3941C11.7138 15.3941 11.8898 15.2181 11.8898 15.001C11.8898 14.7839 11.7138 14.6079 11.4966 14.6079C11.2795 14.6079 11.1035 14.7839 11.1035 15.001C11.1035 15.2181 11.2795 15.3941 11.4966 15.3941Z" fill="#6D30FB"/>
<path d="M8.89198 14.436C9.20245 14.436 9.45486 14.6884 9.45486 14.9989C9.45486 15.3094 9.20245 15.5618 8.89198 15.5618C8.5815 15.5618 8.3291 15.3094 8.3291 14.9989C8.3291 14.6884 8.5815 14.436 8.89198 14.436Z" fill="#6D30FB"/>
<path d="M6.2876 14.2642C6.69412 14.2642 7.02246 14.5925 7.02246 14.999C7.02246 15.4056 6.69412 15.7339 6.2876 15.7339C5.88107 15.7339 5.55273 15.4056 5.55273 14.999C5.55273 14.5947 5.88107 14.2642 6.2876 14.2642Z" fill="#6D30FB"/>
<path d="M3.68323 14.092C4.18357 14.092 4.59009 14.4986 4.59009 14.9989C4.59009 15.4992 4.18357 15.9058 3.68323 15.9058C3.1829 15.9058 2.77637 15.4992 2.77637 14.9989C2.77637 14.4986 3.1829 14.092 3.68323 14.092Z" fill="#6D30FB"/>
<path d="M1.07885 13.9199C1.67523 13.9199 2.1577 14.4024 2.1577 14.9988C2.1577 15.5952 1.67523 16.0776 1.07885 16.0776C0.48247 16.0776 0 15.5952 0 14.9988C0 14.4046 0.48247 13.9199 1.07885 13.9199Z" fill="#6D30FB"/>
<path d="M18.229 13.5895C18.0414 13.6967 17.8024 13.6341 17.6929 13.4465C17.5857 13.2589 17.6482 13.0199 17.8359 12.9104C18.0235 12.8032 18.2625 12.8658 18.3719 13.0534C18.4814 13.241 18.4166 13.48 18.229 13.5895Z" fill="#6D30FB"/>
<path d="M20.572 12.4347C20.3017 12.5911 19.9577 12.4972 19.8014 12.2292C19.645 11.9589 19.7388 11.615 20.0069 11.4586C20.2771 11.3022 20.6211 11.3961 20.7775 11.6641C20.9338 11.9344 20.84 12.2783 20.572 12.4347Z" fill="#6D30FB"/>
<path d="M22.9134 11.2821C22.5605 11.4853 22.1115 11.3647 21.9083 11.0118C21.705 10.6589 21.8256 10.2099 22.1785 10.0067C22.5315 9.80341 22.9804 9.92402 23.1837 10.2769C23.3869 10.6276 23.2663 11.0788 22.9134 11.2821Z" fill="#6D30FB"/>
<path d="M25.254 10.1273C24.8206 10.3775 24.2645 10.23 24.0143 9.79448C23.7641 9.36116 23.9115 8.80498 24.3471 8.55481C24.7827 8.30465 25.3366 8.45207 25.5868 8.88763C25.8369 9.32319 25.6895 9.87713 25.254 10.1273Z" fill="#6D30FB"/>
<path d="M27.5969 8.97471C27.081 9.27179 26.4198 9.09533 26.1227 8.57936C25.8257 8.06339 26.0021 7.40223 26.5181 7.10516C27.0341 6.80808 27.6952 6.98454 27.9923 7.50051C28.2894 8.01648 28.1129 8.6754 27.5969 8.97471Z" fill="#6D30FB"/>
<path d="M11.7714 16.4126C11.9591 16.3054 12.1981 16.368 12.3075 16.5556C12.4147 16.7432 12.3522 16.9822 12.1645 17.0917C11.9769 17.1989 11.7379 17.1363 11.6285 16.9487C11.519 16.7589 11.5838 16.5199 11.7714 16.4126Z" fill="#6D30FB"/>
<path d="M9.42874 17.5653C9.69901 17.4089 10.043 17.5028 10.1994 17.7708C10.3557 18.0411 10.2619 18.385 9.99386 18.5414C9.72359 18.6977 9.37961 18.6039 9.22325 18.3359C9.0669 18.0656 9.16071 17.7216 9.42874 17.5653Z" fill="#6D30FB"/>
<path d="M7.08773 18.7203C7.44064 18.517 7.8896 18.6376 8.09287 18.9906C8.29613 19.3435 8.17551 19.7924 7.8226 19.9957C7.46968 20.199 7.02072 20.0783 6.81746 19.7254C6.6142 19.3725 6.73481 18.9236 7.08773 18.7203Z" fill="#6D30FB"/>
<path d="M4.74651 19.8727C5.17984 19.6225 5.73602 19.7699 5.98618 20.2055C6.23635 20.6388 6.08893 21.195 5.65337 21.4452C5.22004 21.6953 4.66387 21.5479 4.4137 21.1124C4.16353 20.679 4.31095 20.1229 4.74651 19.8727Z" fill="#6D30FB"/>
<path d="M2.40383 21.0275C2.9198 20.7304 3.58096 20.9069 3.87803 21.4229C4.1751 21.9388 3.99864 22.6 3.48267 22.8971C2.9667 23.1941 2.30555 23.0177 2.00848 22.5017C1.7114 21.9835 1.88786 21.3246 2.40383 21.0275Z" fill="#6D30FB"/>
<path d="M17.0927 12.1621C16.9854 12.3497 16.7442 12.4145 16.5566 12.3051C16.369 12.1978 16.3042 11.9566 16.4136 11.769C16.5208 11.5814 16.7621 11.5166 16.9497 11.626C17.1351 11.7355 17.1999 11.9745 17.0927 12.1621Z" fill="#6D30FB"/>
<path d="M18.5426 9.99337C18.3863 10.2636 18.0423 10.3552 17.772 10.1989C17.5017 10.0425 17.4102 9.69853 17.5665 9.42826C17.7229 9.15799 18.0668 9.06641 18.3371 9.22276C18.6074 9.37912 18.699 9.7231 18.5426 9.99337Z" fill="#6D30FB"/>
<path d="M19.9942 7.82211C19.791 8.17502 19.342 8.29564 18.9891 8.09238C18.6362 7.88912 18.5156 7.44016 18.7188 7.08724C18.9221 6.73433 19.371 6.61371 19.724 6.81697C20.0769 7.02023 20.1975 7.47143 19.9942 7.82211Z" fill="#6D30FB"/>
<path d="M21.4457 5.65337C21.1955 6.0867 20.6393 6.23635 20.206 5.98618C19.7727 5.73601 19.623 5.17984 19.8732 4.74651C20.1233 4.31319 20.6795 4.16353 21.1128 4.4137C21.5462 4.66387 21.6958 5.22004 21.4457 5.65337Z" fill="#6D30FB"/>
<path d="M22.8956 3.48439C22.5985 4.00036 21.9374 4.17681 21.4214 3.87974C20.9054 3.58266 20.729 2.92151 21.0261 2.40554C21.3231 1.88957 21.9843 1.71311 22.5003 2.01018C23.0185 2.30726 23.1949 2.96618 22.8956 3.48439Z" fill="#6D30FB"/>
<path d="M12.9082 17.8378C13.0155 17.6502 13.2567 17.5854 13.4443 17.6949C13.6319 17.8021 13.6967 18.0433 13.5873 18.231C13.4801 18.4186 13.2388 18.4834 13.0512 18.3739C12.8658 18.2645 12.801 18.0255 12.9082 17.8378Z" fill="#6D30FB"/>
<path d="M11.4591 20.0066C11.6154 19.7364 11.9594 19.6448 12.2297 19.8011C12.5 19.9575 12.5915 20.3015 12.4352 20.5717C12.2788 20.842 11.9349 20.9336 11.6646 20.7772C11.3943 20.6209 11.3027 20.2769 11.4591 20.0066Z" fill="#6D30FB"/>
<path d="M10.0069 22.1778C10.2102 21.8249 10.6591 21.7043 11.012 21.9075C11.365 22.1108 11.4856 22.5598 11.2823 22.9127C11.0791 23.2656 10.6301 23.3862 10.2772 23.183C9.92427 22.9797 9.80365 22.5285 10.0069 22.1778Z" fill="#6D30FB"/>
<path d="M8.55481 24.3466C8.80498 23.9133 9.36116 23.7636 9.79448 24.0138C10.2278 24.264 10.3775 24.8201 10.1273 25.2535C9.87712 25.6868 9.32095 25.8364 8.88762 25.5863C8.4543 25.3361 8.30465 24.7822 8.55481 24.3466Z" fill="#6D30FB"/>
<path d="M7.10566 26.5178C7.40273 26.0019 8.06389 25.8254 8.57986 26.1225C9.09583 26.4196 9.27229 27.0807 8.97521 27.5967C8.67814 28.1127 8.01699 28.2891 7.50102 27.992C6.98281 27.6927 6.80635 27.0338 7.10566 26.5178Z" fill="#6D30FB"/>
<path d="M16.2853 11.7178C16.2295 11.9278 16.015 12.0506 15.8051 11.9948C15.5951 11.9389 15.4723 11.7245 15.5281 11.5146C15.5839 11.3046 15.7984 11.1817 16.0083 11.2376C16.2161 11.2957 16.3411 11.5101 16.2853 11.7178Z" fill="#6D30FB"/>
<path d="M17.1249 9.2473C17.0445 9.54884 16.734 9.72753 16.4347 9.64712C16.1332 9.5667 15.9545 9.25623 16.0349 8.95692C16.1153 8.65538 16.4258 8.47669 16.7251 8.5571C17.0266 8.63751 17.2053 8.94576 17.1249 9.2473Z" fill="#6D30FB"/>
<path d="M17.9653 6.77474C17.8604 7.16786 17.4561 7.40016 17.0652 7.29518C16.6721 7.19019 16.4398 6.78591 16.5447 6.39502C16.6497 6.0019 17.054 5.7696 17.4449 5.87458C17.838 5.97956 18.0703 6.38385 17.9653 6.77474Z" fill="#6D30FB"/>
<path d="M18.8051 4.30417C18.6755 4.78887 18.1774 5.07477 17.6927 4.94522C17.208 4.81567 16.9221 4.31757 17.0517 3.83287C17.1812 3.34817 17.6793 3.06227 18.164 3.19182C18.6487 3.32137 18.9346 3.81947 18.8051 4.30417Z" fill="#6D30FB"/>
<path d="M19.6447 1.83145C19.4906 2.40773 18.8986 2.74948 18.3224 2.59536C17.7461 2.44124 17.4043 1.84932 17.5585 1.27305C17.7126 0.696767 18.3045 0.35502 18.8808 0.509141C19.4593 0.665496 19.801 1.25741 19.6447 1.83145Z" fill="#6D30FB"/>
<path d="M13.7145 18.2824C13.7703 18.0724 13.9848 17.9496 14.1947 18.0054C14.4047 18.0612 14.5275 18.2757 14.4717 18.4856C14.4158 18.6956 14.2014 18.8184 13.9915 18.7626C13.7837 18.7068 13.6586 18.4901 13.7145 18.2824Z" fill="#6D30FB"/>
<path d="M12.8747 20.7528C12.9551 20.4513 13.2656 20.2726 13.5649 20.353C13.8665 20.4334 14.0452 20.7439 13.9647 21.0432C13.8843 21.3447 13.5739 21.5234 13.2745 21.443C12.973 21.3626 12.7943 21.0544 12.8747 20.7528Z" fill="#6D30FB"/>
<path d="M12.035 23.2253C12.14 22.8322 12.5443 22.5999 12.9351 22.7049C13.3283 22.8099 13.5606 23.2142 13.4556 23.6051C13.3506 23.9982 12.9463 24.2305 12.5554 24.1255C12.1623 24.0205 11.93 23.6185 12.035 23.2253Z" fill="#6D30FB"/>
<path d="M11.1952 25.6957C11.3248 25.211 11.8229 24.9251 12.3076 25.0546C12.7923 25.1842 13.0782 25.6823 12.9486 26.167C12.8191 26.6517 12.321 26.9376 11.8363 26.808C11.3516 26.6785 11.0657 26.1804 11.1952 25.6957Z" fill="#6D30FB"/>
<path d="M10.3553 28.1683C10.5095 27.592 11.1014 27.2503 11.6776 27.4044C12.2539 27.5585 12.5957 28.1504 12.4415 28.7267C12.2874 29.303 11.6955 29.6447 11.1192 29.4906C10.543 29.3365 10.2012 28.7446 10.3553 28.1683Z" fill="#6D30FB"/>
<path d="M14.4718 11.5168C14.5277 11.7267 14.4048 11.9412 14.1949 11.997C13.9849 12.0529 13.7705 11.93 13.7146 11.72C13.6588 11.5101 13.7816 11.2957 13.9916 11.2398C14.2016 11.1817 14.416 11.3068 14.4718 11.5168Z" fill="#6D30FB"/>
<path d="M13.9647 8.95455C14.0452 9.2561 13.8665 9.56434 13.5649 9.64475C13.2634 9.72516 12.9551 9.54647 12.8747 9.24493C12.7943 8.94339 12.973 8.63514 13.2745 8.55473C13.5739 8.47656 13.8843 8.65525 13.9647 8.95455Z" fill="#6D30FB"/>
<path d="M13.4556 6.39502C13.5606 6.78814 13.3283 7.19019 12.9351 7.29518C12.542 7.40016 12.14 7.16786 12.035 6.77474C11.93 6.38162 12.1623 5.97956 12.5554 5.87458C12.9485 5.7696 13.3506 6.0019 13.4556 6.39502Z" fill="#6D30FB"/>
<path d="M12.9485 3.8351C13.078 4.3198 12.7899 4.81791 12.3074 4.94746C11.8227 5.07701 11.3246 4.78887 11.1951 4.3064C11.0655 3.8217 11.3537 3.3236 11.8361 3.19405C12.3208 3.06227 12.8189 3.35041 12.9485 3.8351Z" fill="#6D30FB"/>
<path d="M12.4396 1.27305C12.5937 1.84932 12.252 2.44124 11.6757 2.59536C11.0994 2.74948 10.5075 2.40773 10.3534 1.83145C10.1993 1.25518 10.541 0.663262 11.1173 0.509141C11.6936 0.35502 12.2855 0.696767 12.4396 1.27305Z" fill="#6D30FB"/>
<path d="M15.5291 18.4856C15.4732 18.2757 15.5961 18.0612 15.8061 18.0054C16.016 17.9496 16.2304 18.0724 16.2863 18.2824C16.3421 18.4923 16.2193 18.7068 16.0093 18.7626C15.7994 18.8184 15.5849 18.6934 15.5291 18.4856Z" fill="#6D30FB"/>
<path d="M16.5936 21.4582C16.9044 21.4522 17.1514 21.1953 17.1454 20.8845C17.1393 20.5736 16.8824 20.3266 16.5716 20.3327C16.2608 20.3388 16.0137 20.5957 16.0198 20.9065C16.0259 21.2173 16.2828 21.4643 16.5936 21.4582Z" fill="#6D30FB"/>
<path d="M16.5457 23.6051C16.4407 23.2119 16.673 22.8099 17.0662 22.7049C17.4593 22.5999 17.8613 22.8322 17.9663 23.2253C18.0713 23.6185 17.839 24.0205 17.4459 24.1255C17.055 24.2305 16.6507 23.9982 16.5457 23.6051Z" fill="#6D30FB"/>
<path d="M17.0525 26.1671C16.923 25.6824 17.2111 25.1843 17.6936 25.0547C18.1783 24.9252 18.6764 25.2133 18.8059 25.6958C18.9355 26.1805 18.6473 26.6786 18.1649 26.8081C17.6802 26.9377 17.1821 26.6495 17.0525 26.1671Z" fill="#6D30FB"/>
<path d="M17.5614 28.7267C17.4073 28.1504 17.749 27.5585 18.3253 27.4044C18.9016 27.2503 19.4935 27.592 19.6476 28.1683C19.8017 28.7446 19.46 29.3365 18.8837 29.4906C18.3074 29.6447 17.7155 29.303 17.5614 28.7267Z" fill="#6D30FB"/>
<path d="M12.8014 12.2469C12.9555 12.4011 12.9555 12.649 12.8014 12.8009C12.6472 12.955 12.3993 12.955 12.2474 12.8009C12.0933 12.6468 12.0933 12.3988 12.2474 12.2469C12.3993 12.0928 12.6472 12.0928 12.8014 12.2469Z" fill="#6D30FB"/>
<path d="M11.0814 10.2838C11.3026 10.5049 11.3026 10.86 11.0814 11.0812C10.8603 11.3023 10.5051 11.3023 10.284 11.0812C10.0629 10.86 10.0629 10.5049 10.284 10.2838C10.5029 10.0626 10.8603 10.0626 11.0814 10.2838Z" fill="#6D30FB"/>
<path d="M9.35951 8.32035C9.64765 8.60849 9.64765 9.07309 9.35951 9.36123C9.07137 9.64937 8.60678 9.64937 8.31864 9.36123C8.0305 9.07309 8.0305 8.60849 8.31864 8.32035C8.60678 8.03221 9.07361 8.03221 9.35951 8.32035Z" fill="#6D30FB"/>
<path d="M7.63957 6.35669C7.99472 6.71184 7.99472 7.28589 7.63957 7.64104C7.28442 7.99618 6.71038 7.99618 6.35523 7.64104C6.00008 7.28589 6.00008 6.71184 6.35523 6.35669C6.71038 6.00154 7.28666 6.00154 7.63957 6.35669Z" fill="#6D30FB"/>
<path d="M5.91934 4.39352C6.3415 4.81568 6.3415 5.49917 5.91934 5.9191C5.49718 6.34126 4.81369 6.34126 4.39377 5.9191C3.97161 5.49694 3.97161 4.81345 4.39377 4.39352C4.81369 3.97136 5.49718 3.97136 5.91934 4.39352Z" fill="#6D30FB"/>
<path d="M17.1996 17.755C17.0455 17.6009 17.0455 17.3529 17.1996 17.201C17.3537 17.0469 17.6016 17.0469 17.7535 17.201C17.9076 17.3552 17.9076 17.6031 17.7535 17.755C17.6016 17.9069 17.3537 17.9069 17.1996 17.755Z" fill="#6D30FB"/>
<path d="M18.9198 19.7186C18.6986 19.4975 18.6986 19.1423 18.9198 18.9212C19.1409 18.7001 19.496 18.7001 19.7172 18.9212C19.9383 19.1423 19.9383 19.4975 19.7172 19.7186C19.4983 19.9375 19.1409 19.9375 18.9198 19.7186Z" fill="#6D30FB"/>
<path d="M20.6419 21.6818C20.3537 21.3936 20.3537 20.929 20.6419 20.6409C20.93 20.3528 21.3946 20.3528 21.6828 20.6409C21.9709 20.929 21.9709 21.3936 21.6828 21.6818C21.3946 21.9677 20.9278 21.9677 20.6419 21.6818Z" fill="#6D30FB"/>
<path d="M23.0026 23.9089C23.5034 23.9089 23.9094 23.5029 23.9094 23.0021C23.9094 22.5012 23.5034 22.0952 23.0026 22.0952C22.5017 22.0952 22.0957 22.5012 22.0957 23.0021C22.0957 23.5029 22.5017 23.9089 23.0026 23.9089Z" fill="#6D30FB"/>
<path d="M24.0813 25.6086C23.6591 25.1864 23.6591 24.5029 24.0813 24.083C24.5034 23.6608 25.1869 23.6608 25.6068 24.083C26.029 24.5051 26.029 25.1886 25.6068 25.6086C25.1869 26.0285 24.5034 26.0285 24.0813 25.6086Z" fill="#6D30FB"/>
<path d="M11.7183 13.7145C11.9283 13.7703 12.0511 13.9848 11.9953 14.1947C11.9394 14.4047 11.725 14.5275 11.515 14.4717C11.3051 14.4158 11.1822 14.2014 11.2381 13.9915C11.2939 13.7837 11.5106 13.6586 11.7183 13.7145Z" fill="#6D30FB"/>
<path d="M9.24754 12.8747C9.54908 12.9551 9.72777 13.2656 9.64736 13.5649C9.56695 13.8665 9.25648 14.0452 8.95717 13.9647C8.65563 13.8843 8.47693 13.5739 8.55735 13.2746C8.63776 12.973 8.946 12.7943 9.24754 12.8747Z" fill="#6D30FB"/>
<path d="M6.77498 12.0348C7.1681 12.1398 7.4004 12.5441 7.29542 12.935C7.19044 13.3281 6.78615 13.5604 6.39526 13.4554C6.00214 13.3504 5.76985 12.9462 5.87483 12.5553C5.97981 12.1644 6.3841 11.9299 6.77498 12.0348Z" fill="#6D30FB"/>
<path d="M4.30466 11.195C4.78936 11.3245 5.07526 11.8226 4.94571 12.3073C4.81616 12.792 4.31806 13.0779 3.83336 12.9484C3.34866 12.8188 3.06276 12.3207 3.19231 11.836C3.32186 11.3513 3.81996 11.0654 4.30466 11.195Z" fill="#6D30FB"/>
<path d="M1.83195 10.3551C2.40822 10.5092 2.74997 11.1011 2.59585 11.6774C2.44173 12.2537 1.84982 12.5954 1.27354 12.4413C0.697258 12.2872 0.355508 11.6953 0.509629 11.119C0.66375 10.5427 1.25567 10.201 1.83195 10.3551Z" fill="#6D30FB"/>
<path d="M18.2826 16.2856C18.0727 16.2297 17.9498 16.0153 18.0056 15.8053C18.0615 15.5954 18.2759 15.4725 18.4859 15.5284C18.6958 15.5842 18.8187 15.7986 18.7628 16.0086C18.707 16.2185 18.4903 16.3414 18.2826 16.2856Z" fill="#6D30FB"/>
<path d="M20.7531 17.1252C20.4515 17.0448 20.2728 16.7344 20.3532 16.435C20.4337 16.1357 20.7441 15.9548 21.0434 16.0352C21.345 16.1156 21.5237 16.4261 21.4433 16.7254C21.3628 17.027 21.0546 17.2057 20.7531 17.1252Z" fill="#6D30FB"/>
<path d="M23.2253 17.9653C22.8322 17.8604 22.5999 17.4561 22.7049 17.0652C22.8099 16.6721 23.2142 16.4398 23.6051 16.5447C23.9982 16.6497 24.2305 17.054 24.1255 17.4449C24.0205 17.838 23.6162 18.0703 23.2253 17.9653Z" fill="#6D30FB"/>
<path d="M25.6957 18.8051C25.211 18.6755 24.9251 18.1774 25.0546 17.6927C25.1842 17.208 25.6823 16.9221 26.167 17.0517C26.6517 17.1812 26.9376 17.6793 26.808 18.164C26.6785 18.6487 26.1804 18.9346 25.6957 18.8051Z" fill="#6D30FB"/>
<path d="M28.169 19.6471C27.5928 19.493 27.251 18.9011 27.4051 18.3248C27.5593 17.7485 28.1512 17.4068 28.7275 17.5609C29.3037 17.715 29.6455 18.3069 29.4914 18.8832C29.3372 19.4595 28.7453 19.8012 28.169 19.6471Z" fill="#6D30FB"/>
</g>
</svg>
