<svg width="196" height="347" viewBox="0 0 196 347" fill="none" xmlns="http://www.w3.org/2000/svg">
<path opacity="0.3" d="M184.667 6C184.667 8.94552 187.054 11.3333 190 11.3333C192.946 11.3333 195.333 8.94552 195.333 6C195.333 3.05448 192.946 0.666667 190 0.666667C187.054 0.666667 184.667 3.05448 184.667 6ZM7.29289 346.707C7.68342 347.098 8.31658 347.098 8.70711 346.707L15.0711 340.343C15.4616 339.953 15.4616 339.319 15.0711 338.929C14.6805 338.538 14.0474 338.538 13.6569 338.929L8 344.586L2.34315 338.929C1.95262 338.538 1.31946 338.538 0.928932 338.929C0.538408 339.319 0.538408 339.953 0.928932 340.343L7.29289 346.707ZM190 6H189V98.8627H190H191V6H190ZM8 280.863H7V346H8H9V280.863H8ZM99 189.863V188.863C48.1898 188.863 7 230.052 7 280.863H8H9C9 231.157 49.2944 190.863 99 190.863V189.863ZM190 98.8627H189C189 148.568 148.706 188.863 99 188.863V189.863V190.863C149.81 190.863 191 149.673 191 98.8627H190Z" fill="white"/>
</svg>
