<svg width="74" height="74" viewBox="0 0 74 74" fill="none" xmlns="http://www.w3.org/2000/svg">
<path d="M35.8438 31.2188H33.5312C32.7649 31.2196 32.0301 31.5244 31.4882 32.0663C30.9462 32.6082 30.6414 33.343 30.6406 34.1094V41.625C30.6406 41.9317 30.7624 42.2258 30.9793 42.4426C31.1961 42.6594 31.4902 42.7812 31.7969 42.7812C32.1035 42.7812 32.3976 42.6594 32.6145 42.4426C32.8313 42.2258 32.9531 41.9317 32.9531 41.625V38.1562H36.4219V41.625C36.4219 41.9317 36.5437 42.2258 36.7605 42.4426C36.9774 42.6594 37.2715 42.7812 37.5781 42.7812C37.8848 42.7812 38.1789 42.6594 38.3957 42.4426C38.6126 42.2258 38.7344 41.9317 38.7344 41.625V34.1094C38.7336 33.343 38.4288 32.6082 37.8868 32.0663C37.3449 31.5244 36.6101 31.2196 35.8438 31.2188ZM32.9531 35.8438V34.1094C32.9533 33.9561 33.0143 33.8092 33.1227 33.7008C33.2311 33.5924 33.378 33.5314 33.5312 33.5312H35.8438C35.997 33.5314 36.1439 33.5924 36.2523 33.7008C36.3607 33.8092 36.4217 33.9561 36.4219 34.1094V35.8438H32.9531Z" fill="#E7F95D"/>
<path d="M41.0469 32.375V41.625C41.0469 41.9317 41.1687 42.2258 41.3855 42.4426C41.6024 42.6594 41.8965 42.7812 42.2031 42.7812C42.5098 42.7812 42.8039 42.6594 43.0207 42.4426C43.2376 42.2258 43.3594 41.9317 43.3594 41.625V32.375C43.3594 32.0683 43.2376 31.7742 43.0207 31.5574C42.8039 31.3406 42.5098 31.2188 42.2031 31.2188C41.8965 31.2188 41.6024 31.3406 41.3855 31.5574C41.1687 31.7742 41.0469 32.0683 41.0469 32.375Z" fill="#E7F95D"/>
<path d="M65.0622 20.8137C61.5878 14.7761 48.4739 17.5278 37.0198 22.9354L37.0177 22.9369C34.3609 21.6732 31.628 20.5761 28.8348 19.6519C30.8252 11.7403 34.0327 6.9375 37.0277 6.9375C37.6405 6.98289 38.2374 7.15388 38.7813 7.43982C39.3252 7.72576 39.8045 8.12054 40.1893 8.59961C40.2937 8.70978 40.4188 8.79832 40.5574 8.86015C40.696 8.92199 40.8454 8.95593 40.9971 8.96002C41.1488 8.9641 41.2999 8.93827 41.4416 8.88399C41.5833 8.8297 41.713 8.74804 41.8232 8.64365C41.9333 8.53925 42.0219 8.41419 42.0837 8.27558C42.1456 8.13697 42.1795 7.98755 42.1836 7.83583C42.1877 7.68411 42.1618 7.53307 42.1076 7.39133C42.0533 7.2496 41.9716 7.11994 41.8672 7.00977C41.2714 6.29685 40.533 5.71642 39.6996 5.30573C38.8661 4.89504 37.956 4.66317 37.0277 4.625C32.6264 4.625 28.8272 10.2665 26.6158 18.9754C17.971 16.5391 11.1904 17.0066 8.99313 20.8125C5.49778 26.8635 14.4051 36.7966 24.8482 44.0226C25.082 46.9775 25.5014 49.9148 26.1039 52.8171C18.231 55.0891 12.5281 54.684 10.994 52.0278C10.7271 51.477 10.5765 50.8772 10.5516 50.2656C10.5267 49.654 10.6281 49.0439 10.8495 48.4733C10.8925 48.3277 10.9064 48.175 10.8904 48.024C10.8744 47.873 10.8288 47.7267 10.7562 47.5933C10.6837 47.4599 10.5855 47.3421 10.4675 47.2467C10.3494 47.1512 10.2137 47.08 10.0681 47.037C9.92244 46.994 9.76978 46.9801 9.6188 46.9961C9.46781 47.0121 9.32145 47.0576 9.18808 47.1302C8.91872 47.2767 8.71861 47.5243 8.63176 47.8184C8.31394 48.689 8.18189 49.6165 8.24413 50.5412C8.30636 51.4659 8.5615 52.3673 8.99313 53.1875C10.2962 55.4447 13.2105 56.5287 17.1716 56.5287C20.3726 56.451 23.5487 55.9437 26.6147 55.0203C28.8259 63.7316 32.6257 69.375 37.0277 69.375C44.0186 69.375 48.1672 56.6965 49.2071 44.0274C51.6304 42.3587 53.9474 40.5407 56.1446 38.5838C61.998 44.2624 64.5547 49.4389 63.0614 52.0279C62.7184 52.5349 62.2747 52.966 61.758 53.2943C61.2413 53.6226 60.6626 53.8411 60.0578 53.9361C59.9101 53.9714 59.7708 54.0355 59.6479 54.1246C59.525 54.2137 59.4208 54.3262 59.3413 54.4556C59.2618 54.5849 59.2086 54.7287 59.1847 54.8787C59.1608 55.0286 59.1666 55.1818 59.2019 55.3295C59.2732 55.6278 59.46 55.8855 59.7213 56.046C59.8507 56.1255 59.9945 56.1787 60.1445 56.2026C60.2944 56.2266 60.4476 56.2207 60.5953 56.1854C61.5057 56.0189 62.3721 55.6668 63.1406 55.1511C63.9091 54.6353 64.5632 53.9669 65.0622 53.1875C67.2598 49.3788 64.2739 43.2697 57.8401 37C64.2739 30.7304 67.2598 24.6215 65.0622 20.8137ZM24.5629 37C24.5629 38.3746 24.598 39.7232 24.6591 41.0483C14.6425 33.7546 8.82241 25.7315 10.9962 21.9688C12.5283 19.3147 18.2311 18.9095 26.1041 21.1819C25.0488 26.3878 24.5324 31.6884 24.5629 37ZM37.0277 67.0625C34.0327 67.0625 30.8252 62.2597 28.8348 54.3482C33.8542 52.6619 38.6877 50.466 43.2595 47.7947C44.4531 47.105 45.6086 46.4001 46.7261 45.68C45.4151 58.0097 41.3755 67.0625 37.0277 67.0625ZM42.1033 45.7916C37.7309 48.3503 33.1162 50.4702 28.3265 52.1204C27.3323 47.1424 26.8461 42.0763 26.8754 37C26.8461 31.9234 27.3323 26.857 28.3267 21.8787C33.1164 23.529 37.7311 25.6493 42.1033 28.2084C46.4994 30.7156 50.6306 33.6611 54.4337 36.9999C50.6306 40.3389 46.4994 43.2844 42.1033 45.7916ZM56.1445 35.4161C52.1754 31.9138 47.8578 28.8275 43.2595 26.2053C42.0658 25.517 40.8779 24.8692 39.6959 24.2619C51.0226 19.2486 60.9041 18.2237 63.0591 21.9688C64.5539 24.5598 61.9977 29.7371 56.1445 35.4161Z" fill="#E7F95D"/>
<path d="M41.1045 13.7495C41.1045 14.4356 41.3079 15.1062 41.6891 15.6766C42.0702 16.2471 42.612 16.6917 43.2458 16.9542C43.8796 17.2168 44.5771 17.2855 45.25 17.1516C45.9228 17.0178 46.5409 16.6874 47.026 16.2023C47.5111 15.7172 47.8415 15.0991 47.9753 14.4262C48.1092 13.7534 48.0405 13.0559 47.7779 12.4221C47.5154 11.7882 47.0708 11.2465 46.5004 10.8654C45.9299 10.4842 45.2593 10.2808 44.5732 10.2808C43.6536 10.2818 42.7719 10.6475 42.1216 11.2978C41.4713 11.9481 41.1055 12.8299 41.1045 13.7495ZM44.5732 12.5933C44.8019 12.5933 45.0255 12.6611 45.2156 12.7881C45.4058 12.9152 45.554 13.0958 45.6415 13.307C45.729 13.5183 45.7519 13.7508 45.7073 13.9751C45.6627 14.1994 45.5525 14.4054 45.3908 14.5671C45.2291 14.7288 45.0231 14.8389 44.7988 14.8835C44.5745 14.9282 44.342 14.9053 44.1308 14.8177C43.9195 14.7302 43.7389 14.582 43.6119 14.3919C43.4848 14.2017 43.417 13.9782 43.417 13.7495C43.4172 13.4429 43.5391 13.1489 43.7559 12.9321C43.9727 12.7154 44.2666 12.5935 44.5732 12.5933Z" fill="#E7F95D"/>
<path d="M13.1201 45.5601C13.8062 45.5601 14.4768 45.3566 15.0473 44.9755C15.6177 44.5943 16.0623 44.0526 16.3248 43.4187C16.5874 42.7849 16.6561 42.0875 16.5222 41.4146C16.3884 40.7417 16.058 40.1236 15.5729 39.6385C15.0878 39.1534 14.4697 38.8231 13.7968 38.6892C13.124 38.5554 12.4265 38.6241 11.7927 38.8866C11.1589 39.1491 10.6171 39.5937 10.236 40.1642C9.85481 40.7346 9.65137 41.4053 9.65137 42.0913C9.65237 43.011 10.0182 43.8927 10.6684 44.543C11.3187 45.1933 12.2005 45.5591 13.1201 45.5601ZM13.1201 40.9351C13.3488 40.9351 13.5724 41.0029 13.7625 41.1299C13.9526 41.257 14.1008 41.4376 14.1884 41.6488C14.2759 41.8601 14.2988 42.0926 14.2542 42.3169C14.2095 42.5412 14.0994 42.7472 13.9377 42.9089C13.776 43.0706 13.57 43.1807 13.3457 43.2253C13.1214 43.27 12.8889 43.2471 12.6776 43.1595C12.4664 43.072 12.2858 42.9238 12.1587 42.7337C12.0317 42.5435 11.9639 42.32 11.9639 42.0913C11.9641 41.7847 12.086 41.4907 12.3028 41.2739C12.5195 41.0572 12.8135 40.9353 13.1201 40.9351Z" fill="#E7F95D"/>
<path d="M53.3906 51.6904C52.7046 51.6904 52.0339 51.8939 51.4635 52.275C50.8931 52.6562 50.4485 53.1979 50.1859 53.8317C49.9234 54.4656 49.8547 55.163 49.9885 55.8359C50.1224 56.5088 50.4527 57.1268 50.9378 57.612C51.423 58.0971 52.041 58.4274 52.7139 58.5613C53.3868 58.6951 54.0842 58.6264 54.7181 58.3639C55.3519 58.1013 55.8936 57.6568 56.2748 57.0863C56.6559 56.5159 56.8594 55.8452 56.8594 55.1592C56.8584 54.2395 56.4926 53.3578 55.8423 52.7075C55.192 52.0572 54.3103 51.6914 53.3906 51.6904ZM53.3906 56.3154C53.1619 56.3154 52.9384 56.2476 52.7482 56.1206C52.5581 55.9935 52.4099 55.8129 52.3224 55.6017C52.2349 55.3904 52.212 55.1579 52.2566 54.9336C52.3012 54.7093 52.4113 54.5033 52.573 54.3416C52.7347 54.1799 52.9408 54.0698 53.1651 54.0252C53.3893 53.9805 53.6218 54.0034 53.8331 54.0909C54.0444 54.1785 54.225 54.3267 54.352 54.5168C54.4791 54.7069 54.5469 54.9305 54.5469 55.1592C54.5467 55.4658 54.4248 55.7598 54.208 55.9765C53.9912 56.1933 53.6972 56.3152 53.3906 56.3154Z" fill="#E7F95D"/>
</svg>
