<svg width="74" height="74" viewBox="0 0 74 74" fill="none" xmlns="http://www.w3.org/2000/svg">
<path d="M53.1875 36.1326C43.784 36.1326 36.1328 43.7831 36.1328 53.1873C36.1328 62.5914 43.784 70.2419 53.1875 70.2419C62.591 70.2419 70.2422 62.5914 70.2422 53.1873C70.2422 43.7831 62.591 36.1326 53.1875 36.1326ZM53.1875 68.5076C44.7403 68.5076 37.8672 61.635 37.8672 53.1873C37.8672 44.7395 44.7403 37.8669 53.1875 37.8669C61.6347 37.8669 68.5078 44.7395 68.5078 53.1873C68.5078 61.635 61.6347 68.5076 53.1875 68.5076ZM60.7382 48.3235C61.0769 48.6623 61.0769 49.211 60.7382 49.5497L52.5755 57.7124C52.1814 58.107 51.6631 58.304 51.1449 58.304C50.6266 58.304 50.1083 58.107 49.7142 57.7124L45.6368 53.635C45.2981 53.2962 45.2981 52.7474 45.6368 52.4087C45.9756 52.0701 46.5244 52.07 46.863 52.4087L50.9404 56.4861C51.0534 56.5991 51.2362 56.5991 51.3492 56.4861L59.5118 48.3235C59.8506 47.9847 60.3995 47.9847 60.7382 48.3235ZM20.8125 42.2763C21.3624 42.2763 21.9123 42.1351 22.4023 41.8517L36.2773 33.8416C37.2575 33.2758 37.8672 32.2206 37.8672 31.0876V15.0662C37.8672 13.9336 37.2575 12.8784 36.2773 12.3128L22.4023 4.30205C21.4222 3.73525 20.2028 3.73525 19.2227 4.30205L5.34766 12.3128C4.3675 12.8785 3.75781 13.9337 3.75781 15.0662V31.0876C3.75781 32.2207 4.3675 33.2759 5.34766 33.841L19.2227 41.8517C19.7127 42.1351 20.2626 42.2763 20.8125 42.2763ZM12.6667 10.0894L27.1616 18.4584L20.8126 22.1239L6.3174 13.7553L12.6667 10.0894ZM35.4102 32.3393L21.6797 40.2666V23.626L28.0391 19.9543V25.4554C28.0391 25.9342 28.4274 26.3226 28.9062 26.3226C29.3851 26.3226 29.7734 25.9342 29.7734 25.4554V18.953L36.1328 15.2815V31.0876C36.1328 31.6025 35.8561 32.0819 35.4102 32.3393ZM20.0898 5.80355C20.3123 5.67486 20.563 5.61046 20.8125 5.61046C21.062 5.61046 21.3127 5.67486 21.5352 5.80355L35.3077 13.7552L28.896 17.4569L14.4009 9.08811L20.0898 5.80355ZM5.49219 31.0875V15.2813L19.9453 23.6259V40.2664L6.21484 32.3386C5.76888 32.0816 5.49219 31.6024 5.49219 31.0875ZM32.8605 62.4373C32.8605 62.9161 32.4721 63.3044 31.9933 63.3044H16.1875C13.1592 63.3044 10.6953 60.8406 10.6953 57.8123V44.4347C10.6953 43.9559 11.0837 43.5675 11.5625 43.5675C12.0413 43.5675 12.4297 43.9559 12.4297 44.4347V57.8123C12.4297 59.8843 14.1155 61.5701 16.1875 61.5701H31.9933C32.4721 61.5701 32.8605 61.9585 32.8605 62.4373ZM42.377 11.5623C42.377 11.0835 42.7654 10.6951 43.2442 10.6951H57.8125C60.8408 10.6951 63.3047 13.1589 63.3047 16.1873V31.9931C63.3047 32.4719 62.9163 32.8603 62.4375 32.8603C61.9587 32.8603 61.5703 32.4719 61.5703 31.9931V16.1873C61.5703 14.1153 59.8845 12.4294 57.8125 12.4294H43.2442C42.7654 12.4294 42.377 12.0411 42.377 11.5623Z" fill="#E7F95D"/>
</svg>
