<svg width="74" height="74" viewBox="0 0 74 74" fill="none" xmlns="http://www.w3.org/2000/svg">
<g clip-path="url(#clip0_1741_12037)">
<path d="M42.8615 5.86123C42.8615 4.73894 42.5393 3.64025 41.9333 2.69568C41.3272 1.75112 40.4627 1.0004 39.4425 0.532718C38.4223 0.0650401 37.2893 -0.0999325 36.1781 0.0574025C35.0669 0.214737 34.0242 0.687765 33.174 1.42028C32.3237 2.1528 31.7016 3.114 31.3816 4.18969C31.0616 5.26538 31.0571 6.41033 31.3687 7.48849C31.6803 8.56666 32.2948 9.53271 33.1393 10.2719C33.9838 11.011 35.0227 11.4922 36.1327 11.6582V19.3143H13.2048C11.8264 19.3159 10.5049 19.8642 9.53025 20.8388C8.55557 21.8135 8.00731 23.135 8.00574 24.5134V25.0297H5.44364C4.37712 25.0309 3.35463 25.4551 2.60048 26.2093C1.84634 26.9634 1.42212 27.9859 1.4209 29.0524V53.4059C1.42212 54.4725 1.84634 55.4949 2.60048 56.2491C3.35463 57.0032 4.37712 57.4274 5.44364 57.4287H8.00574V57.9448C8.00731 59.3232 8.55557 60.6447 9.53024 61.6194C10.5049 62.5941 11.8264 63.1424 13.2048 63.144H29.7444L36.2648 73.5922C36.3427 73.717 36.4511 73.82 36.5798 73.8914C36.7085 73.9628 36.8533 74.0002 37.0004 74.0002C37.1476 74.0002 37.2924 73.9628 37.4211 73.8914C37.5498 73.82 37.6582 73.717 37.7361 73.5922L44.2565 63.144H60.7949C62.1733 63.1424 63.4948 62.5941 64.4695 61.6194C65.4442 60.6447 65.9924 59.3232 65.994 57.9448V57.4287H68.5561C69.6226 57.4274 70.6451 57.0032 71.3993 56.2491C72.1534 55.4949 72.5776 54.4725 72.5788 53.4059V29.0524C72.5776 27.9859 72.1534 26.9634 71.3993 26.2093C70.6451 25.4551 69.6226 25.0309 68.5561 25.0297H65.994V24.5134C65.9924 23.135 65.4442 21.8135 64.4695 20.8388C63.4948 19.8642 62.1733 19.3159 60.7949 19.3143H37.8671V11.6582C39.2551 11.4487 40.5222 10.7487 41.4385 9.68522C42.3548 8.62169 42.8596 7.26503 42.8615 5.86123ZM5.44364 55.6939C4.83694 55.6932 4.25528 55.4519 3.82628 55.0229C3.39728 54.5938 3.15596 54.0122 3.15527 53.4055V29.052C3.15608 28.4454 3.39744 27.8638 3.82643 27.4349C4.25542 27.006 4.83701 26.7647 5.44364 26.7641H8.00574V55.6939H5.44364ZM68.5561 26.7641C69.1628 26.7647 69.7445 27.0061 70.1735 27.4351C70.6025 27.8641 70.8438 28.4457 70.8445 29.0524V53.4059C70.8438 54.0126 70.6025 54.5943 70.1735 55.0233C69.7445 55.4523 69.1628 55.6936 68.5561 55.6943H65.994V26.7641H68.5561ZM64.2596 24.5134V57.9444C64.2586 58.8629 63.8932 59.7436 63.2437 60.3932C62.5942 61.0427 61.7135 61.4081 60.7949 61.4092H43.7749C43.6277 61.4092 43.483 61.4466 43.3543 61.518C43.2256 61.5894 43.1172 61.6924 43.0393 61.8172L36.9999 71.4946L30.9605 61.8172C30.8826 61.6924 30.7741 61.5894 30.6454 61.518C30.5167 61.4466 30.372 61.4092 30.2248 61.4092H13.2048C12.2862 61.4081 11.4056 61.0427 10.756 60.3932C10.1065 59.7436 9.74115 58.8629 9.74012 57.9444V24.5134C9.74119 23.5948 10.1066 22.7142 10.7561 22.0647C11.4056 21.4152 12.2863 21.0498 13.2048 21.0487H60.7949C61.7135 21.0498 62.5941 21.4152 63.2436 22.0647C63.8932 22.7142 64.2585 23.5948 64.2596 24.5134ZM32.8726 5.86123C32.8726 5.04493 33.1146 4.24696 33.5681 3.56822C34.0216 2.88948 34.6662 2.36046 35.4203 2.04806C36.1745 1.73565 37.0043 1.6539 37.805 1.81313C38.6056 1.97237 39.341 2.36544 39.9182 2.94264C40.4954 3.51983 40.8885 4.25524 41.0478 5.05585C41.2071 5.85645 41.1253 6.68631 40.8129 7.44047C40.5006 8.19463 39.9716 8.83923 39.2929 9.29274C38.6141 9.74625 37.8162 9.98832 36.9999 9.98832C35.9057 9.98709 34.8566 9.55189 34.0829 8.77818C33.3091 8.00447 32.8739 6.95544 32.8726 5.86123ZM24.205 41.7548C25.3643 41.7548 26.4976 41.411 27.4615 40.767C28.4254 40.1229 29.1767 39.2074 29.6204 38.1363C30.064 37.0653 30.1801 35.8867 29.9539 34.7496C29.7277 33.6126 29.1695 32.5681 28.3497 31.7484C27.5299 30.9286 26.4855 30.3704 25.3484 30.1442C24.2114 29.9181 23.0328 30.0342 21.9617 30.4778C20.8906 30.9215 19.9752 31.6728 19.3311 32.6368C18.6871 33.6007 18.3433 34.734 18.3433 35.8934C18.3451 37.4474 18.9632 38.9373 20.0621 40.0362C21.161 41.1351 22.6509 41.7531 24.205 41.7548ZM24.205 31.7661C25.0212 31.7661 25.8192 32.0082 26.4979 32.4617C27.1766 32.9152 27.7056 33.5598 28.018 34.3139C28.3304 35.0681 28.4121 35.8979 28.2529 36.6986C28.0936 37.4992 27.7006 38.2346 27.1233 38.8118C26.5461 39.389 25.8107 39.782 25.0101 39.9413C24.2095 40.1005 23.3797 40.0188 22.6255 39.7064C21.8714 39.3941 21.2268 38.8651 20.7733 38.1863C20.3198 37.5076 20.0777 36.7097 20.0777 35.8934C20.0789 34.7991 20.5142 33.7501 21.2879 32.9764C22.0617 32.2027 23.1107 31.7673 24.205 31.7661ZM49.7948 41.7548C50.9541 41.7549 52.0874 41.4111 53.0514 40.767C54.0153 40.123 54.7667 39.2075 55.2103 38.1364C55.654 37.0654 55.7701 35.8868 55.5439 34.7497C55.3177 33.6127 54.7595 32.5682 53.9397 31.7484C53.1199 30.9287 52.0755 30.3704 50.9384 30.1442C49.8014 29.9181 48.6228 30.0342 47.5517 30.4778C46.4806 30.9215 45.5652 31.6728 44.9211 32.6368C44.277 33.6007 43.9333 34.734 43.9333 35.8934C43.935 37.4474 44.5531 38.9373 45.652 40.0362C46.7509 41.135 48.2408 41.7531 49.7948 41.7548ZM49.7948 31.7661C50.6111 31.7661 51.4091 32.0081 52.0878 32.4616C52.7665 32.9151 53.2956 33.5597 53.608 34.3138C53.9204 35.068 54.0021 35.8979 53.8429 36.6985C53.6836 37.4991 53.2906 38.2345 52.7134 38.8117C52.1362 39.3889 51.4008 39.782 50.6002 39.9413C49.7996 40.1006 48.9697 40.0188 48.2155 39.7064C47.4614 39.3941 46.8168 38.8651 46.3633 38.1864C45.9098 37.5076 45.6677 36.7097 45.6677 35.8934C45.669 34.7992 46.1042 33.7502 46.8779 32.9765C47.6516 32.2028 48.7006 31.7674 49.7948 31.7661ZM46.5368 51.685C46.5368 51.915 46.4454 52.1356 46.2828 52.2982C46.1201 52.4608 45.8996 52.5522 45.6696 52.5522H27.9755C27.7455 52.5522 27.5249 52.4608 27.3623 52.2982C27.1997 52.1356 27.1083 51.915 27.1083 51.685C27.1083 51.455 27.1997 51.2344 27.3623 51.0718C27.5249 50.9092 27.7455 50.8178 27.9755 50.8178H45.6696C45.8996 50.8178 46.1201 50.9092 46.2828 51.0718C46.4454 51.2344 46.5368 51.455 46.5368 51.685Z" fill="#E7F95D"/>
</g>
<defs>
<clipPath id="clip0_1741_12037">
<rect width="74" height="74" fill="white"/>
</clipPath>
</defs>
</svg>
