<svg width="74" height="74" viewBox="0 0 74 74" fill="none" xmlns="http://www.w3.org/2000/svg">
<path d="M38.0117 45.5273C38.0117 46.091 37.5637 46.5391 37 46.5391C31.7391 46.5391 27.4609 42.2609 27.4609 37C27.4609 36.4363 27.909 35.9883 28.4727 35.9883C29.0363 35.9883 29.4844 36.4363 29.4844 37C29.4844 41.148 32.852 44.5156 37 44.5156C37.5637 44.5156 38.0117 44.9637 38.0117 45.5273ZM68.7102 62.8133V54.5172C68.7102 54.2426 68.609 53.9969 68.4211 53.7945L61.6137 46.9871C65.6461 44.4867 69.3027 41.3504 72.4535 37.6504C72.7715 37.2746 72.7715 36.7109 72.4535 36.3352C69.3027 32.6352 65.6316 29.4988 61.6137 26.9984L68.4211 20.191C68.609 20.0031 68.7102 19.743 68.7102 19.4828V11.1867C70.9793 10.7242 72.6992 8.70078 72.6992 6.30156C72.6992 3.54102 70.459 1.30078 67.6984 1.30078C64.9379 1.30078 62.6977 3.54102 62.6977 6.30156C62.6977 8.71523 64.4031 10.7242 66.6867 11.1867V19.0637L59.807 25.9434C54.9363 23.2117 49.5887 21.3617 44.0242 20.509L47.941 16.5922C48.1289 16.4043 48.2301 16.1441 48.2301 15.884V11.1867C50.4992 10.7242 52.2191 8.70078 52.2191 6.30156C52.2191 3.54102 49.9789 1.30078 47.2184 1.30078C44.4578 1.30078 42.2176 3.54102 42.2176 6.30156C42.2176 8.71523 43.9231 10.7242 46.2066 11.1867V15.4504L41.4805 20.191C39.9918 20.0465 38.5031 19.9742 37 19.9742C35.4969 19.9742 33.9938 20.0465 32.5195 20.191L27.7789 15.4504V11.1867C30.048 10.7242 31.768 8.70078 31.768 6.30156C31.768 3.54102 29.5277 1.30078 26.7672 1.30078C24.0066 1.30078 21.7664 3.54102 21.7664 6.30156C21.7664 8.71523 23.4719 10.7242 25.7555 11.1867V15.8695C25.7555 16.1441 25.8566 16.3898 26.059 16.5777L29.9758 20.4945C24.3969 21.3473 19.0637 23.1973 14.193 25.9289L7.31328 19.0492V11.1867C9.58242 10.7242 11.3023 8.70078 11.3023 6.30156C11.2879 3.54102 9.04766 1.30078 6.30156 1.30078C3.54102 1.30078 1.30078 3.54102 1.30078 6.30156C1.30078 8.71523 3.00625 10.7242 5.28984 11.1867V19.4828C5.28984 19.7574 5.39102 20.0031 5.57891 20.191L12.3863 26.9984C8.35391 29.4988 4.69727 32.6352 1.54648 36.3352C1.22852 36.7109 1.22852 37.2746 1.54648 37.6504C4.69727 41.3504 8.36836 44.4867 12.3863 46.9871L5.57891 53.7945C5.39102 53.9824 5.28984 54.2426 5.28984 54.5172V62.8133C3.00625 63.2758 1.30078 65.2992 1.30078 67.6984C1.30078 70.459 3.54102 72.6992 6.30156 72.6992C9.06211 72.6992 11.3023 70.459 11.3023 67.6984C11.3023 65.2848 9.59688 63.2758 7.31328 62.8133V54.9363L14.193 48.0566C19.0637 50.7883 24.4113 52.6383 29.9758 53.491L26.059 57.4078C25.8711 57.5957 25.7555 57.8559 25.7555 58.1305V62.8133C23.4863 63.2758 21.7664 65.2992 21.7664 67.6984C21.7664 70.459 24.0066 72.6992 26.7672 72.6992C29.5277 72.6992 31.768 70.459 31.768 67.6984C31.768 65.2848 30.0625 63.2758 27.7789 62.8133V58.5496L32.5195 53.809C34.0082 53.9535 35.4969 54.0258 37 54.0258C38.5031 54.0258 40.0063 53.9535 41.4805 53.809L46.2211 58.5496V62.8133C43.952 63.2758 42.232 65.2992 42.232 67.6984C42.232 70.459 44.4723 72.6992 47.2328 72.6992C49.9934 72.6992 52.2336 70.459 52.2336 67.6984C52.2336 65.2848 50.5281 63.2758 48.2445 62.8133V58.1305C48.2445 57.8559 48.1434 57.6102 47.9555 57.4078L44.0387 53.491C49.6176 52.6383 54.9508 50.7883 59.8215 48.0566L66.7012 54.9363V62.8133C64.432 63.2758 62.7121 65.2992 62.7121 67.6984C62.7121 70.459 64.9524 72.6992 67.7129 72.6992C70.4734 72.6992 72.7137 70.459 72.7137 67.6984C72.6992 65.2992 70.9938 63.2758 68.7102 62.8133ZM64.7356 6.30156C64.7356 4.66836 66.0652 3.32422 67.7129 3.32422C69.3606 3.32422 70.6758 4.65391 70.6758 6.30156C70.6758 7.94922 69.3461 9.27891 67.6984 9.27891C66.0508 9.27891 64.7356 7.93477 64.7356 6.30156ZM44.2699 6.30156C44.2699 4.66836 45.5996 3.32422 47.2473 3.32422C48.8949 3.32422 50.2246 4.65391 50.2246 6.30156C50.2246 7.94922 48.8949 9.27891 47.2473 9.27891C45.5996 9.27891 44.2699 7.93477 44.2699 6.30156ZM23.7898 6.30156C23.7898 4.66836 25.1195 3.32422 26.7672 3.32422C28.4148 3.32422 29.7445 4.65391 29.7445 6.30156C29.7445 7.94922 28.4148 9.27891 26.7672 9.27891C25.1195 9.27891 23.7898 7.93477 23.7898 6.30156ZM3.32422 6.30156C3.32422 4.65391 4.65391 3.32422 6.30156 3.32422C7.94922 3.32422 9.27891 4.65391 9.27891 6.30156C9.27891 7.94922 7.94922 9.27891 6.30156 9.27891C4.65391 9.27891 3.32422 7.93477 3.32422 6.30156ZM9.26445 67.6984C9.26445 69.3316 7.93477 70.6758 6.28711 70.6758C4.63945 70.6758 3.32422 69.3461 3.32422 67.6984C3.32422 66.0508 4.65391 64.7211 6.30156 64.7211C7.94922 64.7211 9.26445 66.0652 9.26445 67.6984ZM29.7301 67.6984C29.7301 69.3316 28.4004 70.6758 26.7527 70.6758C25.1051 70.6758 23.7754 69.3461 23.7754 67.6984C23.7754 66.0508 25.1051 64.7211 26.7527 64.7211C28.4004 64.7211 29.7301 66.0652 29.7301 67.6984ZM50.2102 67.6984C50.2102 69.3316 48.8805 70.6758 47.2328 70.6758C45.5852 70.6758 44.2555 69.3461 44.2555 67.6984C44.2555 66.0508 45.5852 64.7211 47.2328 64.7211C48.8805 64.7211 50.2102 66.0652 50.2102 67.6984ZM37 52.0023C24.2234 52.0023 12.1262 46.5391 3.65664 37C12.1262 27.4609 24.2234 21.9977 37 21.9977C49.7766 21.9977 61.8738 27.4609 70.3434 37C61.8738 46.5391 49.7766 52.0023 37 52.0023ZM67.6984 70.6758C66.0652 70.6758 64.7211 69.3461 64.7211 67.6984C64.7211 66.0508 66.0508 64.7211 67.6984 64.7211C69.3461 64.7211 70.6758 66.0508 70.6758 67.6984C70.6758 69.3461 69.3461 70.6758 67.6984 70.6758ZM44.6023 30.843C44.6023 32.057 43.6051 33.0543 42.391 33.0543C41.177 33.0543 40.1797 32.057 40.1797 30.843C40.1797 29.6289 41.177 28.6316 42.391 28.6316C43.6195 28.6316 44.6023 29.6289 44.6023 30.843ZM37 22.9949C29.282 22.9949 22.9949 29.282 22.9949 37C22.9949 44.718 29.282 51.0051 37 51.0051C44.718 51.0051 51.0051 44.718 51.0051 37C51.0051 29.282 44.718 22.9949 37 22.9949ZM37 48.9816C30.3949 48.9816 25.0184 43.6051 25.0184 37C25.0184 30.3949 30.3949 25.0184 37 25.0184C43.6051 25.0184 48.9816 30.3949 48.9816 37C48.9816 43.6051 43.6051 48.9816 37 48.9816Z" fill="#E7F95D"/>
</svg>
