<svg width="70" height="70" viewBox="0 0 70 70" fill="none" xmlns="http://www.w3.org/2000/svg">
<path d="M28.7592 0C26.4349 0.00136404 24.1682 0.722902 22.2709 2.06535C20.3736 3.40779 18.9389 5.30518 18.1641 7.49648H17.5144C14.5321 7.49648 11.672 8.68119 9.5632 10.79C7.4544 12.8988 6.26969 15.7589 6.26969 18.7412C6.26655 20.4193 6.64239 22.0764 7.36917 23.5889C5.17365 24.5764 3.31015 26.1771 2.00282 28.1986C0.695491 30.2201 0 32.5762 0 34.9836C0 37.3909 0.695491 39.7471 2.00282 41.7685C3.31015 43.79 5.17365 45.3907 7.36917 46.3782C6.64239 47.8907 6.26655 49.5479 6.26969 51.2259C6.26969 54.2082 7.4544 57.0684 9.5632 59.1772C11.672 61.2859 14.5321 62.4707 17.5144 62.4707H18.1641C19.0516 64.9669 20.7919 67.0696 23.0783 68.408C25.3646 69.7465 28.0501 70.2347 30.6613 69.7865C33.2724 69.3384 35.6414 67.9827 37.3507 65.9585C39.0599 63.9344 39.9995 61.3717 40.0039 58.7224V51.2259H37.5051V58.7224C37.4925 60.852 36.7034 62.9039 35.2856 64.4931C33.8679 66.0823 31.919 67.0996 29.8046 67.3541C27.6902 67.6086 25.5556 67.0829 23.8012 65.8756C22.0468 64.6682 20.7932 62.8623 20.2756 60.7964C20.2072 60.5192 20.0459 60.2738 19.8186 60.101C19.5913 59.9283 19.3116 59.8386 19.0262 59.8469H18.8263C18.3926 59.9204 17.9542 59.9621 17.5144 59.9718C15.1949 59.9718 12.9703 59.0504 11.3301 57.4102C9.68996 55.77 8.76852 53.5455 8.76852 51.2259C8.76637 49.5146 9.27064 47.841 10.2178 46.4157C10.3257 46.2538 10.3943 46.069 10.4182 45.876C10.4421 45.6829 10.4205 45.487 10.3553 45.3037C10.2897 45.1202 10.1821 44.9546 10.0411 44.8201C9.90008 44.6856 9.72956 44.5859 9.54316 44.5291C7.5061 43.8964 5.72485 42.6287 4.45987 40.9112C3.19488 39.1937 2.51251 37.1166 2.51251 34.9836C2.51251 32.8505 3.19488 30.7734 4.45987 29.0559C5.72485 27.3385 7.5061 26.0707 9.54316 25.4381C9.72956 25.3812 9.90008 25.2816 10.0411 25.1471C10.1821 25.0125 10.2897 24.8469 10.3553 24.6634C10.4205 24.4802 10.4421 24.2842 10.4182 24.0912C10.3943 23.8981 10.3257 23.7133 10.2178 23.5514C9.27064 22.1262 8.76637 20.4525 8.76852 18.7412C8.76852 16.4216 9.68996 14.1971 11.3301 12.5569C12.9703 10.9167 15.1949 9.99531 17.5144 9.99531C17.9664 9.99902 18.4174 10.0366 18.8638 10.1078C19.1738 10.1575 19.4912 10.0888 19.7528 9.91514C20.0145 9.7415 20.2011 9.47572 20.2756 9.17069C20.7932 7.10488 22.0468 5.2989 23.8012 4.09157C25.5556 2.88424 27.6902 2.35852 29.8046 2.61305C31.919 2.86758 33.8679 3.88485 35.2856 5.47403C36.7034 7.06321 37.4925 9.11509 37.5051 11.2447V18.7412H40.0039V11.2447C40.0039 8.26243 38.8192 5.4023 36.7104 3.2935C34.6016 1.18471 31.7415 0 28.7592 0ZM37.5051 43.7295H40.0039V26.2377H37.5051V43.7295Z" fill="url(#paint0_linear_1648_3255)"/>
<path d="M54.9968 57.5979V52.4753C54.9968 51.6549 54.8352 50.8426 54.5213 50.0847C54.2074 49.3267 53.7472 48.6381 53.1671 48.058C52.587 47.4779 51.8983 47.0177 51.1404 46.7038C50.3825 46.3898 49.5701 46.2282 48.7498 46.2282H31.158C30.2175 46.2258 29.2885 46.4358 28.4405 46.8425C27.5924 47.2492 26.8472 47.8422 26.2603 48.5771L24.2612 51.076C23.9123 51.5099 23.4711 51.8606 22.9697 52.1026C22.4683 52.3447 21.9193 52.472 21.3626 52.4753H8.76846C8.43709 52.4753 8.1193 52.6069 7.88499 52.8413C7.65068 53.0756 7.51904 53.3934 7.51904 53.7247C7.51904 54.0561 7.65068 54.3739 7.88499 54.6082C8.1193 54.8425 8.43709 54.9741 8.76846 54.9741H21.3626C22.3031 54.9766 23.232 54.7666 24.0801 54.3599C24.9281 53.9531 25.6734 53.3602 26.2603 52.6252L28.2593 50.1264C28.6082 49.6925 29.0494 49.3418 29.5508 49.0998C30.0522 48.8577 30.6012 48.7304 31.158 48.7271H48.7498C49.7438 48.7271 50.6972 49.122 51.4002 49.8249C52.1031 50.5278 52.498 51.4812 52.498 52.4753V57.5979C50.9812 57.9075 49.6333 58.7693 48.7158 60.0163C47.7982 61.2632 47.3764 62.8064 47.532 64.3466C47.6876 65.8869 48.4095 67.3146 49.5579 68.3528C50.7063 69.391 52.1993 69.9658 53.7474 69.9658C55.2955 69.9658 56.7885 69.391 57.9369 68.3528C59.0853 67.3146 59.8073 65.8869 59.9629 64.3466C60.1185 62.8064 59.6966 61.2632 58.7791 60.0163C57.8615 58.7693 56.5137 57.9075 54.9968 57.5979ZM53.7474 67.4683C53.0061 67.4683 52.2814 67.2484 51.665 66.8366C51.0486 66.4247 50.5682 65.8393 50.2845 65.1544C50.0008 64.4695 49.9266 63.7159 50.0712 62.9888C50.2158 62.2617 50.5728 61.5938 51.097 61.0696C51.6212 60.5454 52.2891 60.1884 53.0162 60.0438C53.7433 59.8992 54.4969 59.9734 55.1818 60.2571C55.8667 60.5408 56.4521 61.0212 56.864 61.6376C57.2758 62.254 57.4957 62.9787 57.4957 63.72C57.4957 64.7141 57.1008 65.6675 56.3978 66.3704C55.6949 67.0734 54.7415 67.4683 53.7474 67.4683ZM59.9945 6.24702C59.9942 5.06503 59.6587 3.90737 59.0268 2.90849C58.3949 1.9096 57.4925 1.11048 56.4246 0.603948C55.3566 0.0974116 54.1669 -0.0957574 52.9936 0.046876C51.8202 0.189509 50.7114 0.662092 49.7959 1.40974C48.8804 2.15738 48.1958 3.14941 47.8217 4.2706C47.4475 5.39178 47.399 6.59612 47.682 7.74374C47.9649 8.89136 48.5676 9.93515 49.4201 10.7539C50.2726 11.5726 51.3399 12.1327 52.498 12.3691V17.4917C52.498 18.4858 52.1031 19.4392 51.4002 20.1421C50.6972 20.8451 49.7438 21.24 48.7498 21.24H31.158C30.596 21.2389 30.0414 21.1114 29.5354 20.867C29.0293 20.6226 28.5847 20.2676 28.2344 19.8281L26.2353 17.3293C25.6498 16.5999 24.908 16.0114 24.0646 15.607C23.2213 15.2026 22.2979 14.9927 21.3626 14.9929H8.76846C8.43709 14.9929 8.1193 15.1245 7.88499 15.3589C7.65068 15.5932 7.51904 15.911 7.51904 16.2423C7.51904 16.5737 7.65068 16.8915 7.88499 17.1258C8.1193 17.3601 8.43709 17.4917 8.76846 17.4917H21.3626C21.9246 17.4928 22.4791 17.6203 22.9852 17.8647C23.4912 18.1091 23.9359 18.4641 24.2862 18.9036L26.2853 21.4024C26.8708 22.1318 27.6126 22.7204 28.4559 23.1247C29.2993 23.5291 30.2227 23.739 31.158 23.7388H48.7498C49.5701 23.7388 50.3825 23.5772 51.1404 23.2633C51.8983 22.9493 52.587 22.4892 53.1671 21.9091C53.7472 21.329 54.2074 20.6403 54.5213 19.8824C54.8352 19.1245 54.9968 18.3121 54.9968 17.4917V12.3691C56.4079 12.0811 57.6761 11.3144 58.5868 10.1988C59.4975 9.08317 59.9948 7.68716 59.9945 6.24702ZM53.7474 9.99526C53.0061 9.99526 52.2814 9.77543 51.665 9.36356C51.0486 8.9517 50.5682 8.36631 50.2845 7.68141C50.0008 6.9965 49.9266 6.24286 50.0712 5.51577C50.2158 4.78868 50.5728 4.12081 51.097 3.59661C51.6212 3.07241 52.2891 2.71542 53.0162 2.5708C53.7433 2.42617 54.4969 2.5004 55.1818 2.78409C55.8667 3.06779 56.4521 3.54821 56.864 4.16461C57.2758 4.781 57.4957 5.50568 57.4957 6.24702C57.4957 7.24111 57.1008 8.19449 56.3978 8.89742C55.6949 9.60035 54.7415 9.99526 53.7474 9.99526ZM61.2439 26.2376C59.1426 26.2401 57.1124 26.999 55.5247 28.3756C53.9371 29.7522 52.8981 31.6543 52.598 33.7341H26.1353C25.8257 32.2173 24.9639 30.8694 23.717 29.9519C22.4701 29.0344 20.9269 28.6125 19.3866 28.7681C17.8463 28.9237 16.4187 29.6457 15.3804 30.794C14.3422 31.9424 13.7674 33.4354 13.7674 34.9835C13.7674 36.5316 14.3422 38.0246 15.3804 39.173C16.4187 40.3214 17.8463 41.0434 19.3866 41.199C20.9269 41.3546 22.4701 40.9327 23.717 40.0152C24.9639 39.0976 25.8257 37.7498 26.1353 36.2329H52.598C52.8375 37.8926 53.5491 39.4484 54.648 40.715C55.7469 41.9816 57.1868 42.9056 58.7961 43.3769C60.4053 43.8482 62.1162 43.8469 63.7247 43.3732C65.3333 42.8995 66.7718 41.9734 67.8688 40.7052C68.9658 39.4369 69.6751 37.8801 69.9122 36.2201C70.1493 34.5601 69.9042 32.8669 69.206 31.3423C68.5079 29.8176 67.3862 28.5259 65.9745 27.6208C64.5628 26.7158 62.9208 26.2357 61.2439 26.2376ZM20.0132 38.7318C19.2719 38.7318 18.5472 38.5119 17.9308 38.1001C17.3144 37.6882 16.834 37.1028 16.5503 36.4179C16.2666 35.733 16.1923 34.9794 16.337 34.2523C16.4816 33.5252 16.8386 32.8573 17.3628 32.3331C17.887 31.8089 18.5549 31.4519 19.2819 31.3073C20.009 31.1627 20.7627 31.2369 21.4476 31.5206C22.1325 31.8043 22.7179 32.2847 23.1298 32.9011C23.5416 33.5175 23.7614 34.2422 23.7614 34.9835C23.7614 35.9776 23.3665 36.931 22.6636 37.6339C21.9607 38.3369 21.0073 38.7318 20.0132 38.7318ZM61.2439 41.2306C60.0084 41.2306 58.8005 40.8642 57.7732 40.1778C56.7459 39.4913 55.9452 38.5157 55.4724 37.3742C54.9995 36.2327 54.8758 34.9766 55.1169 33.7648C55.3579 32.553 55.9529 31.4398 56.8266 30.5662C57.7002 29.6925 58.8133 29.0975 60.0252 28.8565C61.237 28.6154 62.4931 28.7392 63.6346 29.212C64.7761 29.6848 65.7517 30.4855 66.4382 31.5128C67.1246 32.5402 67.491 33.748 67.491 34.9835C67.491 36.6403 66.8328 38.2293 65.6613 39.4009C64.4897 40.5724 62.9007 41.2306 61.2439 41.2306Z" fill="url(#paint1_linear_1648_3255)"/>
<defs>
<linearGradient id="paint0_linear_1648_3255" x1="0" y1="0" x2="43.3924" y2="13.0922" gradientUnits="userSpaceOnUse">
<stop offset="0.18" stop-color="#6D30FB"/>
<stop offset="1" stop-color="#C13DFF"/>
</linearGradient>
<linearGradient id="paint1_linear_1648_3255" x1="7.51904" y1="0.0012207" x2="68.0304" y2="28.5103" gradientUnits="userSpaceOnUse">
<stop offset="0.18" stop-color="#6D30FB"/>
<stop offset="1" stop-color="#C13DFF"/>
</linearGradient>
</defs>
</svg>
