<svg width="74" height="74" viewBox="0 0 74 74" fill="none" xmlns="http://www.w3.org/2000/svg">
<path d="M9.88414 45.7758C6.80568 51.4733 10.1748 57.4164 16.0821 59.013C16.1693 60.5599 16.7513 64.5119 20.3087 67.1568C22.5424 68.8275 25.7061 69.7494 28.8645 69.1013C30.4309 68.7017 32.8606 67.6045 33.5827 66.2289C33.7341 65.9454 33.6572 65.9953 33.6774 58.819C34.871 58.6271 35.787 57.6178 35.787 56.3955C35.787 55.0369 34.6582 53.9317 33.2707 53.9317C32.1477 53.9317 31.2053 54.6601 30.8821 55.656H25.1394L20.3949 49.4474C20.1473 49.1232 19.6834 49.061 19.3577 49.3092C19.033 49.5573 18.9708 50.0217 19.2194 50.3464L24.186 56.8455C24.3257 57.0286 24.543 57.136 24.7737 57.136H30.8825C31.0949 57.7898 31.572 58.324 32.1974 58.6151V65.6296C31.3657 66.723 29.2726 67.4678 28.5325 67.6598C24.8325 68.4152 21.9809 66.5594 21.1937 65.9707C17.54 63.2535 17.5366 58.9301 17.5486 58.4459C17.5568 58.0909 17.3121 57.7796 16.9647 57.7045C11.321 56.4886 8.31435 50.9086 11.4831 45.9743C11.699 45.6385 11.6094 45.1915 11.2803 44.965C7.14599 42.1191 4.78993 37.3382 7.27727 33.2734C7.97584 32.1311 9.51317 30.1944 11.6392 30.232C12.3441 30.2363 12.9689 30.4411 13.4883 30.7109C13.8202 30.9662 14.1729 31.2037 14.5453 31.4229C14.8782 31.618 15.3041 31.5265 15.5257 31.2109C15.7473 30.8964 15.6904 30.4637 15.3946 30.2171C15.0974 29.9685 14.7293 29.702 14.2986 29.4655C11.0806 26.9137 10.2099 21.94 12.6895 18.5009C14.5381 15.9353 17.8477 14.8152 20.4209 15.0899C20.8642 15.1357 21.2395 14.7896 21.2395 14.3543V13.3546C21.2395 9.39299 24.5777 6.17043 28.6809 6.17043C30.2653 6.17043 31.5921 6.63896 32.8068 7.93756V9.72975C32.8068 10.1383 33.1383 10.4698 33.5468 10.4698C33.9553 10.4698 34.2868 10.1383 34.2868 9.72975C34.2353 7.76657 34.4114 7.52526 34.1076 7.17203C32.5969 5.41576 30.7719 4.69043 28.6809 4.69043C23.7615 4.69043 19.7595 8.57736 19.7595 13.3546V13.569C17.2721 13.5367 13.6911 14.5788 11.4889 17.6356C9.05279 21.0144 9.34859 25.5136 11.5906 28.752C9.46741 28.7626 7.48877 30.0918 6.01503 32.5007C3.71253 36.2632 4.49043 41.6119 9.88414 45.7758ZM33.2707 55.4117C33.8421 55.4117 34.307 55.853 34.307 56.3955C34.307 56.938 33.8421 57.3793 33.2707 57.3793C32.6989 57.3793 32.2335 56.938 32.2335 56.3955C32.2335 55.853 32.6989 55.4117 33.2707 55.4117Z" fill="#E7F95D"/>
<path d="M40.4525 10.568C40.861 10.568 41.1925 10.2366 41.1925 9.82803V7.93756C42.4297 6.61811 43.7435 6.16994 45.3184 6.16994C49.4216 6.16994 52.7598 9.39299 52.7598 13.3551V14.3547C52.7598 14.8098 53.1668 15.1451 53.5827 15.0899C56.2001 14.8012 59.4811 15.9629 61.3103 18.5013C63.7805 21.9275 62.9313 26.9021 59.7007 29.4665C59.27 29.703 58.9024 29.9694 58.6051 30.2175C58.3093 30.4642 58.2525 30.8968 58.4741 31.2114C58.6967 31.5265 59.123 31.6195 59.4545 31.4234C59.8264 31.2047 60.1791 30.9667 60.511 30.7113C61.0304 30.4411 61.6552 30.2363 62.3601 30.232C62.4588 30.2832 64.6827 29.9409 66.722 33.2729C67.2703 34.1686 67.583 35.1766 67.682 36.2633C66.1142 36.266 63.7099 36.2568 63.4509 36.2713C63.1152 35.4607 62.3059 34.8864 61.3594 34.8864C60.1136 34.8864 59.1004 35.8793 59.1004 37.1001C59.1004 38.3209 60.1136 39.3138 61.3594 39.3138C62.3755 39.3138 63.2267 38.6491 63.5098 37.7433H67.6704C67.2011 41.6687 63.5105 44.4198 62.719 44.966C62.3904 45.1924 62.3008 45.639 62.5166 45.9748C65.7292 50.9773 62.5895 56.5082 57.0346 57.705C56.6872 57.7801 56.4425 58.0913 56.4507 58.4464C56.4627 58.9306 56.4593 63.2535 52.8056 65.9707C48.8373 68.9287 43.1636 67.8108 41.3221 65.8109V58.8184C42.1725 58.4226 42.766 57.5802 42.766 56.5988C42.766 55.2402 41.6367 54.135 40.2487 54.135C38.8612 54.135 37.7324 55.2402 37.7324 56.5988C37.7324 57.8211 38.6484 58.8304 39.8421 59.0223V66.0902C39.8421 66.1838 39.9199 66.446 40.0001 66.5479C42.0533 69.1594 48.7687 70.8267 53.6896 67.1578C57.2475 64.5119 57.83 60.5604 57.9172 59.0135C63.8458 57.4111 67.1864 51.4609 64.1156 45.7758C69.517 41.5985 70.2836 36.2574 67.9843 32.5002C66.51 30.0913 64.5319 28.7621 62.4082 28.752C64.6038 25.6663 64.9847 21.0672 62.5109 17.6361C60.3087 14.5793 56.6829 13.5386 54.2398 13.5685V13.3551C54.2398 8.57687 50.2377 4.68994 45.3184 4.68994C43.3175 4.68994 41.4713 5.34033 39.8922 7.17106C39.5844 7.52744 39.7628 7.83381 39.7125 9.82803C39.7125 10.2366 40.044 10.568 40.4525 10.568ZM61.3594 37.8338C60.9297 37.8338 60.5804 37.5048 60.5804 37.1001C60.5804 36.6954 60.9297 36.3664 61.3594 36.3664C61.7892 36.3664 62.1385 36.6954 62.1385 37.1001C62.1385 37.5048 61.7892 37.8338 61.3594 37.8338ZM40.2487 57.5826C39.6773 57.5826 39.2124 57.1413 39.2124 56.5988C39.2124 56.0563 39.6773 55.615 40.2487 55.615C40.8206 55.615 41.286 56.0563 41.286 56.5988C41.286 57.1413 40.8206 57.5826 40.2487 57.5826Z" fill="#E7F95D"/>
<path d="M33.381 24.9353C33.381 24.5268 33.0495 24.1953 32.641 24.1953C32.2324 24.1953 31.901 24.5268 31.901 24.9353V27.7016H31.41C28.7627 27.7016 26.6044 29.7291 26.3438 32.3083H23.6492C23.2406 32.3083 22.9092 32.6398 22.9092 33.0483C22.9092 33.4569 23.2406 33.7883 23.6492 33.7883H26.2922V36.956H23.6492C23.2406 36.956 22.9092 37.2874 22.9092 37.696C22.9092 38.1045 23.2406 38.436 23.6492 38.436H26.2922V41.4148H23.6492C23.2406 41.4148 22.9092 41.7462 22.9092 42.1548C22.9092 42.5633 23.2406 42.8948 23.6492 42.8948H26.3002C26.3438 45.6796 28.615 47.9331 31.41 47.9331H31.901V50.6445C31.901 51.0531 32.2324 51.3845 32.641 51.3845C33.0495 51.3845 33.381 51.0531 33.381 50.6445V47.9331H36.4961V50.6445C36.4961 51.0531 36.8275 51.3845 37.2361 51.3845C37.6446 51.3845 37.9761 51.0531 37.9761 50.6445V47.9331H41.2854V50.6445C41.2854 51.0531 41.6168 51.3845 42.0254 51.3845C42.4339 51.3845 42.7654 51.0531 42.7654 50.6445V47.9331H43.0617C45.8562 47.9331 48.1274 45.6796 48.171 42.8948H50.4756C50.8842 42.8948 51.2156 42.5633 51.2156 42.1548C51.2156 41.7462 50.8842 41.4148 50.4756 41.4148H48.179V38.436H50.4756C50.8842 38.436 51.2156 38.1045 51.2156 37.696C51.2156 37.2874 50.8842 36.956 50.4756 36.956H48.179V33.7883H50.4756C50.8842 33.7883 51.2156 33.4569 51.2156 33.0483C51.2156 32.6398 50.8842 32.3083 50.4756 32.3083H48.1274C47.8669 29.7291 45.7085 27.7016 43.0617 27.7016H42.7654V24.9353C42.7654 24.5268 42.4339 24.1953 42.0254 24.1953C41.6168 24.1953 41.2854 24.5268 41.2854 24.9353V27.7016H37.9761V24.9353C37.9761 24.5268 37.6446 24.1953 37.2361 24.1953C36.8275 24.1953 36.4961 24.5268 36.4961 24.9353V27.7016H33.381V24.9353ZM43.0617 29.1816C45.0673 29.1816 46.699 30.8134 46.699 32.819V42.8153C46.699 44.8214 45.0673 46.4531 43.0617 46.4531H31.41C29.4039 46.4531 27.7722 44.8214 27.7722 42.8153V32.819C27.7722 30.8134 29.4039 29.1816 31.41 29.1816H43.0617Z" fill="#E7F95D"/>
<path d="M17.6176 37.0999C17.6176 35.8574 16.6068 34.8467 15.3648 34.8467C14.4155 34.8467 13.6054 35.4386 13.2741 36.2713C13.2599 36.2704 13.2479 36.2631 13.2335 36.2631H8.55934C8.15079 36.2631 7.81934 36.5945 7.81934 37.0031C7.81934 37.4116 8.15079 37.7431 8.55934 37.7431H13.2165C13.4954 38.6705 14.3474 39.3527 15.3648 39.3527C16.6068 39.3527 17.6176 38.3419 17.6176 37.0999ZM15.3648 37.8727C14.9385 37.8727 14.5916 37.5258 14.5916 37.0999C14.5916 36.6736 14.9385 36.3267 15.3648 36.3267C15.7907 36.3267 16.1376 36.6736 16.1376 37.0999C16.1376 37.5258 15.7907 37.8727 15.3648 37.8727Z" fill="#E7F95D"/>
<path d="M45.408 55.8591C44.9994 55.8591 44.668 56.1905 44.668 56.5991C44.668 57.0076 44.9994 57.3391 45.408 57.3391H48.7447C48.9755 57.3391 49.1928 57.2316 49.3325 57.0485L55.5727 48.8842C57.2371 49.3367 58.7583 48.0929 58.7583 46.5199C58.7583 45.1613 57.629 44.0562 56.2411 44.0562C54.1222 44.0562 52.9397 46.4733 54.3177 48.0893L48.379 55.8591H45.408ZM56.2411 45.5362C56.8129 45.5362 57.2783 45.9775 57.2783 46.5199C57.2783 47.0624 56.8129 47.5037 56.2411 47.5037C55.6697 47.5037 55.2048 47.0624 55.2048 46.5199C55.2048 45.9775 55.6697 45.5362 56.2411 45.5362Z" fill="#E7F95D"/>
<path d="M41.8661 17.0218L46.9605 18.4339L50.5363 24.2884C50.676 24.5167 50.9193 24.6425 51.1683 24.6425C51.742 24.6425 52.1015 24.0113 51.7995 23.5166L48.0715 17.413C47.9737 17.2531 47.8186 17.136 47.6374 17.0859L42.5343 15.6714C42.7639 14.1188 41.5271 12.8564 40.0534 12.8564C38.6659 12.8564 37.5371 13.9616 37.5371 15.3202C37.5371 17.5347 40.2979 18.622 41.8661 17.0218ZM40.0534 14.3364C40.6253 14.3364 41.0907 14.7777 41.0907 15.3202C41.0907 15.8627 40.6253 16.304 40.0534 16.304C39.482 16.304 39.0171 15.8627 39.0171 15.3202C39.0171 14.7777 39.482 14.3364 40.0534 14.3364Z" fill="#E7F95D"/>
<path d="M55.4613 27.8217C55.4613 26.4631 54.332 25.3579 52.944 25.3579C51.5565 25.3579 50.4277 26.4631 50.4277 27.8217C50.4277 29.1803 51.5565 30.2855 52.944 30.2855C54.332 30.2855 55.4613 29.1803 55.4613 27.8217ZM52.944 28.8055C52.3726 28.8055 51.9077 28.3642 51.9077 27.8217C51.9077 27.2792 52.3726 26.8379 52.944 26.8379C53.5159 26.8379 53.9813 27.2792 53.9813 27.8217C53.9813 28.3642 53.5159 28.8055 52.944 28.8055Z" fill="#E7F95D"/>
<path d="M30.9482 15.1171C30.9482 16.4757 32.0775 17.5814 33.4655 17.5814C34.853 17.5814 35.9818 16.4757 35.9818 15.1171C35.9818 13.7585 34.853 12.6533 33.4655 12.6533C32.0775 12.6533 30.9482 13.7585 30.9482 15.1171ZM34.5018 15.1171C34.5018 15.6601 34.0369 16.1014 33.4655 16.1014C32.8936 16.1014 32.4282 15.6601 32.4282 15.1171C32.4282 14.5746 32.8936 14.1333 33.4655 14.1333C34.0369 14.1333 34.5018 14.5746 34.5018 15.1171Z" fill="#E7F95D"/>
<path d="M22.0701 25.5794L26.5584 18.2306L29.0636 17.5359C29.4577 17.4266 29.6884 17.019 29.5791 16.6254C29.4697 16.2308 29.0592 16 28.6685 16.1099L25.8815 16.8826C25.7003 16.9327 25.5452 17.0498 25.4474 17.2098L20.6804 25.0146C19.1285 24.8793 17.9424 26.0771 17.9424 27.4565C17.9424 28.8151 19.0717 29.9203 20.4596 29.9203C22.7885 29.9203 23.8787 27.0696 22.0701 25.5794ZM19.4224 27.4565C19.4224 26.9141 19.8878 26.4728 20.4596 26.4728C21.031 26.4728 21.4959 26.9141 21.4959 27.4565C21.4959 27.999 21.031 28.4403 20.4596 28.4403C19.8878 28.4403 19.4224 27.999 19.4224 27.4565Z" fill="#E7F95D"/>
<path d="M17.278 48.7801C18.6655 48.7801 19.7943 47.6749 19.7943 46.3163C19.7943 44.9577 18.6655 43.8521 17.278 43.8521C15.89 43.8521 14.7607 44.9577 14.7607 46.3163C14.7607 47.6749 15.89 48.7801 17.278 48.7801ZM17.278 45.3321C17.8494 45.3321 18.3143 45.7734 18.3143 46.3163C18.3143 46.8588 17.8494 47.3001 17.278 47.3001C16.7061 47.3001 16.2407 46.8588 16.2407 46.3163C16.2407 45.7734 16.7061 45.3321 17.278 45.3321Z" fill="#E7F95D"/>
<path d="M32.0471 41.3999C32.375 41.3999 32.5982 41.3126 32.8573 40.735L33.4522 39.3317H37.611C38.1587 40.5437 38.2485 40.9763 38.5479 41.2368C38.8496 41.5003 39.6356 41.4962 39.727 40.9162C39.7869 40.5361 39.7529 40.767 36.4251 33.3328C36.2465 32.9355 35.9766 32.6797 35.5425 32.6797C35.0979 32.6797 34.8289 32.9282 34.6471 33.3328L31.4541 40.4084C31.2055 40.9834 31.4812 41.3999 32.0471 41.3999ZM35.5179 34.4577H35.5425L37.0839 38.0985H33.9876L35.5179 34.4577Z" fill="#E7F95D"/>
<path d="M41.7347 41.3999C42.2543 41.3999 42.509 41.0986 42.509 40.6019V33.4781C42.509 32.9513 42.2252 32.6797 41.7347 32.6797C41.2352 32.6797 40.9609 32.9616 40.9609 33.4781V40.6019C40.9609 41.0924 41.2241 41.3999 41.7347 41.3999Z" fill="#E7F95D"/>
</svg>
