<svg width="170" height="170" viewBox="0 0 170 170" fill="none" xmlns="http://www.w3.org/2000/svg">
<path d="M133.734 133.705C133.987 133.745 134.239 133.784 134.478 133.811C134.677 133.837 134.876 133.851 135.088 133.877C135.049 133.877 135.009 133.864 134.956 133.864C134.584 133.811 134.172 133.758 133.734 133.705Z" fill="#6D30FB"/>
<path d="M148.015 132.656C147.47 132.815 146.912 132.961 146.354 133.081C146.806 132.975 147.338 132.828 148.015 132.656Z" fill="#6D30FB"/>
<path d="M135.036 132.736C134.531 132.603 134.026 132.444 133.521 132.271C133.575 132.563 133.614 132.842 133.654 133.121C134.677 133.4 135.7 133.612 136.75 133.758C138.57 133.997 140.416 134.023 142.236 133.824L142.807 133.758C143.963 133.612 144.481 133.532 145.345 133.333C145.637 133.267 145.956 133.187 146.354 133.094C144.813 133.426 143.232 133.599 141.652 133.612C139.433 133.625 137.201 133.333 135.036 132.736Z" fill="#6D30FB"/>
<path d="M148.015 132.656C148.028 132.656 148.028 132.656 148.041 132.643L148.214 132.59C148.187 132.603 148.161 132.603 148.147 132.616C148.108 132.63 148.054 132.643 148.015 132.656Z" fill="#6D30FB"/>
<path d="M132.897 129.005C133.004 129.496 133.11 130.001 133.203 130.505C139.659 133.293 148.254 134.063 157.248 128.169L157.261 128.155C157.261 128.155 157.274 128.156 157.274 128.142C157.952 127.651 158.311 127.385 158.789 126.987C159.267 126.576 159.878 126.018 161.06 124.916C161.393 124.584 161.751 124.173 162.11 123.775C162.097 123.788 162.07 123.815 162.057 123.828C155.202 131.129 143.698 134.156 132.897 129.005Z" fill="#6D30FB"/>
<path d="M163.052 122.713C162.747 123.071 162.441 123.43 162.109 123.775C162.455 123.403 162.773 123.031 163.052 122.713Z" fill="#6D30FB"/>
<path d="M167.569 114.243C167.025 115.345 166.374 116.42 165.63 117.456C164.886 118.491 164.049 119.473 163.119 120.416C160.701 122.845 157.859 124.691 154.79 125.952C151.721 127.213 148.44 127.877 145.132 127.943C141.824 128.01 138.49 127.492 135.328 126.363C134.119 125.939 132.924 125.408 131.781 124.81C131.795 124.837 131.795 124.863 131.808 124.89C131.848 125.009 131.874 125.129 131.914 125.248C132.074 125.766 132.22 126.257 132.366 126.748C133.229 127.187 134.106 127.572 134.996 127.917C138.145 129.111 141.466 129.696 144.76 129.682C148.055 129.669 151.323 129.045 154.378 127.824C157.433 126.602 160.263 124.77 162.694 122.341C163.332 121.704 163.93 121.04 164.474 120.35C165.019 119.659 165.524 118.956 165.989 118.226C166.454 117.495 166.865 116.752 167.237 115.982C167.49 115.451 167.729 114.92 167.941 114.376C168.034 114.137 168.127 113.885 168.22 113.646C168.247 113.553 168.287 113.446 168.313 113.354C168.579 112.544 168.858 111.561 169.084 110.778C169.084 110.765 169.097 110.751 169.097 110.738C169.097 110.712 169.11 110.685 169.11 110.659C169.217 110.181 169.336 109.636 169.443 109.092C169.31 109.689 169.15 110.274 168.964 110.858C168.579 111.999 168.114 113.141 167.569 114.243Z" fill="#6D30FB"/>
<path d="M169.403 109.079C169.51 108.588 169.616 108.083 169.682 107.592C169.695 107.499 169.709 107.406 169.722 107.313C169.722 107.34 169.709 107.38 169.709 107.406C169.629 107.924 169.523 108.495 169.403 109.079Z" fill="#6D30FB"/>
<path d="M129.735 119.301C130.067 120.071 130.4 120.92 130.692 121.704C146.912 130.293 170.625 120.735 169.987 99.5204L169.961 99.1885C169.868 98.2062 169.695 96.9981 169.535 95.8963C169.482 95.5378 169.429 95.1926 169.389 94.874C169.429 95.113 169.456 95.3387 169.482 95.5777C172.046 115.929 148.294 129.257 129.735 119.301Z" fill="#6D30FB"/>
<path d="M166.972 95.9228C166.48 97.8345 165.696 99.7329 164.607 101.565C163.531 103.41 162.149 105.189 160.489 106.862C158.058 109.304 155.228 111.269 152.199 112.756C149.17 114.23 145.929 115.212 142.688 115.677C139.446 116.128 136.191 116.062 133.123 115.451C130.918 115.013 128.805 114.269 126.853 113.247C127.278 114.07 127.729 114.933 128.075 115.663C128.115 115.743 128.141 115.823 128.181 115.902C130.041 116.898 132.033 117.655 134.106 118.146C137.214 118.889 140.509 119.062 143.79 118.703C147.071 118.345 150.326 117.442 153.382 116.022C156.437 114.601 159.267 112.663 161.698 110.221C163.278 108.641 164.58 106.955 165.616 105.189C166.653 103.437 167.436 101.605 167.941 99.7726C168.459 97.9273 168.698 96.0688 168.685 94.2368C168.672 92.5243 168.433 90.8383 167.955 89.2054C167.915 89.0859 167.888 88.9664 167.848 88.8469C167.755 88.5681 167.649 88.2496 167.543 87.9443C167.264 87.1478 166.945 86.2847 166.666 85.5148C167.184 87.0414 167.49 88.6346 167.556 90.2542C167.662 92.1128 167.463 94.0244 166.972 95.9228Z" fill="#6D30FB"/>
<path d="M163.77 81.0013C163.943 82.7935 163.77 84.6918 163.279 86.6168C162.787 88.5417 161.95 90.5065 160.794 92.4447C159.639 94.3829 158.151 96.2945 156.331 98.1132C153.9 100.556 151.097 102.6 148.134 104.22C145.159 105.84 142.023 107.021 138.888 107.725C135.767 108.428 132.645 108.667 129.735 108.375C127.357 108.136 125.126 107.565 123.106 106.61C123.306 106.941 123.505 107.26 123.678 107.565C124.01 108.123 124.395 108.773 124.78 109.424C126.786 110.42 128.991 111.07 131.303 111.402C134.292 111.827 137.467 111.721 140.655 111.123C143.843 110.526 147.018 109.424 150.021 107.871C153.023 106.318 155.826 104.3 158.27 101.857C160.037 100.091 161.472 98.2194 162.601 96.3211C163.73 94.4094 164.527 92.4579 165.019 90.533C165.51 88.5948 165.683 86.683 165.537 84.8378C165.417 83.258 165.045 81.7314 164.448 80.2844C164.355 80.0454 164.248 79.8197 164.142 79.594C163.664 78.5984 162.986 77.3372 162.455 76.2885C162.508 76.3947 162.548 76.4876 162.601 76.5938C163.239 77.9877 163.624 79.4613 163.77 81.0013Z" fill="#6D30FB"/>
<path d="M155.255 82.7404C154.02 84.6787 152.439 86.6301 150.526 88.5418C148.082 90.9845 145.332 93.1219 142.462 94.9008C139.58 96.6797 136.564 98.0869 133.602 99.0693C130.639 100.052 127.717 100.609 125.02 100.689C122.615 100.755 120.397 100.437 118.471 99.7065C119.161 100.689 119.852 101.698 120.49 102.64C122.469 103.477 124.728 103.915 127.132 103.981C129.922 104.061 132.937 103.636 135.966 102.773C139.008 101.91 142.077 100.596 145 98.8834C147.922 97.1709 150.685 95.0734 153.13 92.6307C155.003 90.7589 156.544 88.8206 157.739 86.8691C158.948 84.9309 159.812 82.9794 160.343 81.1076C160.875 79.2225 161.061 77.4038 160.914 75.7046C160.768 74.0053 160.263 72.4388 159.427 71.0449L157.474 67.9516L157.381 67.8056L157.182 67.5135C157.208 67.5667 157.248 67.6065 157.274 67.6596C158.045 68.8942 158.497 70.3147 158.616 71.8546C158.749 73.461 158.523 75.2265 157.965 77.0585C157.407 78.8905 156.504 80.8155 155.255 82.7404Z" fill="#6D30FB"/>
<path d="M148.281 72.598C146.953 74.4831 145.292 76.4213 143.339 78.386C140.895 80.8287 138.211 83.0591 135.435 84.9973C132.672 86.9355 129.816 88.5816 127.066 89.856C124.303 91.1305 121.632 92.0332 119.201 92.4978C116.93 92.9359 114.884 92.9625 113.184 92.5643C113.277 92.6838 113.37 92.8032 113.463 92.9094C114.087 93.6794 114.831 94.6618 115.508 95.5645C117.315 96.1088 119.441 96.2282 121.765 95.9627C124.316 95.6574 127.092 94.9008 129.935 93.7458C132.791 92.5908 135.701 91.0508 138.517 89.179C141.333 87.3071 144.043 85.1168 146.488 82.6741C148.427 80.7359 150.048 78.7843 151.336 76.8726C152.625 74.9609 153.595 73.1025 154.219 71.3634C154.844 69.6111 155.136 67.9781 155.069 66.5046C155.016 65.1903 154.684 64.0088 154.073 63.0131C153.993 62.8936 153.927 62.7741 153.847 62.6547L153.05 61.5529L152.333 60.5572L151.283 59.1632C151.987 60.0925 152.32 61.2741 152.32 62.6282C152.32 63.9955 151.974 65.5488 151.283 67.2215C150.619 68.9075 149.609 70.7128 148.281 72.598Z" fill="#6D30FB"/>
<path d="M143.498 57.2516C142.662 58.7384 141.506 60.4112 140.071 62.2034C138.636 63.9956 136.909 65.9073 134.917 67.8986C132.472 70.3413 129.855 72.6644 127.225 74.7752C124.595 76.886 121.938 78.7712 119.414 80.351C116.89 81.9307 114.512 83.1918 112.4 84.0547C110.354 84.891 108.587 85.3292 107.219 85.316C107.298 85.4089 107.378 85.5018 107.458 85.5814C108.162 86.3912 109.012 87.4001 109.783 88.3293C111.297 88.5152 113.197 88.2498 115.349 87.586C117.594 86.8957 120.105 85.7806 122.735 84.3336C125.365 82.8866 128.102 81.0943 130.785 79.0631C133.482 77.032 136.126 74.7486 138.57 72.306C140.549 70.3279 142.25 68.3898 143.645 66.5578C145.04 64.7257 146.129 62.9999 146.899 61.4201C147.67 59.8536 148.121 58.4331 148.228 57.2251C148.334 56.0967 148.135 55.1541 147.63 54.4505C147.603 54.4106 147.564 54.3576 147.524 54.3178L147.019 53.6938L146.62 53.2026L144.668 50.8661C145.146 51.4369 145.279 52.2999 145.079 53.3752C144.867 54.4638 144.335 55.7647 143.498 57.2516Z" fill="#6D30FB"/>
<path d="M102.025 79.5276C102.516 80.0454 103.008 80.5897 103.486 81.1075C104.642 80.8685 106.209 80.1649 108.069 79.1029C109.969 78.0143 112.174 76.5407 114.538 74.7751C116.903 73.0227 119.44 70.9916 121.991 68.7878C124.542 66.5841 127.105 64.2078 129.563 61.7652C131.569 59.7606 133.336 57.8755 134.837 56.1364C136.338 54.3973 137.574 52.8308 138.517 51.4634C139.46 50.096 140.111 48.9278 140.443 48.0118C140.775 47.0958 140.788 46.432 140.47 46.0736L140.337 45.9276L138.105 43.4981L137.361 42.6884C137.374 42.7016 137.374 42.7149 137.388 42.7281C137.547 42.9671 137.401 43.4716 136.989 44.2283C136.551 45.0248 135.793 46.0736 134.771 47.3613C133.748 48.6491 132.446 50.1492 130.892 51.8352C129.337 53.5211 127.544 55.393 125.538 57.3976C123.094 59.8403 120.556 62.2564 118.072 64.5265C115.588 66.7966 113.157 68.9339 110.898 70.819C108.653 72.7041 106.581 74.3237 104.828 75.5849C103.101 76.8195 101.706 77.709 100.723 78.1338C100.802 78.2135 100.882 78.3063 100.962 78.386C101.081 78.5054 101.201 78.6382 101.32 78.771C101.307 78.7577 101.307 78.7444 101.294 78.7311L102.025 79.5276Z" fill="#6D30FB"/>
<path d="M96.6835 73.9653C102.489 68.4826 131.064 40.1129 132.83 38.0021L132.751 37.9225C131.861 37.033 130.864 36.0506 130.067 35.2674C129.908 35.1214 129.748 34.9621 129.589 34.8028L129.496 34.7098C129.496 34.7098 129.496 34.7098 129.483 34.7098C129.35 34.6036 128.898 34.8161 128.194 35.3073C127.477 35.8117 126.48 36.6215 125.245 37.6968C124.01 38.7721 122.548 40.1129 120.888 41.6795C119.227 43.246 117.367 45.0514 115.361 47.0693C112.917 49.512 110.473 52.021 108.148 54.4637C105.823 56.9064 103.631 59.2694 101.665 61.4466C99.6991 63.6238 97.9854 65.6017 96.6171 67.2479C95.2753 68.8808 94.279 70.1819 93.7344 71.0581C93.8274 71.1377 93.9203 71.2306 94 71.3103C94.7971 72.0935 95.7935 73.0759 96.6835 73.9653Z" fill="#6D30FB"/>
<path d="M110.313 32.0415C108.546 33.5018 106.634 35.241 104.628 37.2323C102.183 39.6749 99.8319 42.2637 97.6799 44.8656C95.5278 47.4676 93.575 50.0563 91.9277 52.5255C90.2804 54.9815 88.9254 57.2914 87.969 59.3225C87.0391 61.3006 86.4944 62.9866 86.4014 64.2743C86.4944 64.354 86.6007 64.4469 86.6804 64.5133C87.5306 65.2434 88.58 66.186 89.4967 67.0489C89.7756 65.9338 90.5063 64.3938 91.6089 62.5618C92.7381 60.6899 94.2392 58.5127 96.0193 56.1763C97.7994 53.8398 99.8585 51.3307 102.077 48.7951C104.296 46.2595 106.687 43.7107 109.144 41.268C111.15 39.2634 113.037 37.4978 114.764 35.9977C116.491 34.4975 118.058 33.2496 119.413 32.2938C120.768 31.3379 121.911 30.6742 122.814 30.3157C123.704 29.9573 124.342 29.9307 124.687 30.2361L121.831 27.7005L121.153 27.1031C121.114 27.0765 121.074 27.0367 121.034 27.0102C120.542 26.665 119.798 26.6119 118.855 26.8509C117.832 27.1031 116.584 27.6739 115.136 28.5501C113.714 29.413 112.08 30.5945 110.313 32.0415Z" fill="#6D30FB"/>
<path d="M88.6307 66.2633C88.6316 66.264 88.6324 66.2647 88.6332 66.2655L88.6307 66.2633Z" fill="#6D30FB"/>
<path d="M79.9719 58.8313C80.6361 59.3756 81.3402 59.9465 81.9911 60.4908C81.8184 58.9774 82.1107 57.0923 82.7882 54.9549C83.5055 52.7247 84.6347 50.2289 86.096 47.6137C87.5573 44.9984 89.364 42.2769 91.4098 39.5952C93.4556 36.9136 95.7537 34.2718 98.1981 31.8291C100.177 29.8511 102.117 28.1651 103.95 26.7712C105.783 25.3773 107.51 24.2887 109.078 23.5187C110.646 22.7487 112.054 22.2973 113.249 22.1779C114.392 22.0717 115.335 22.2708 116.039 22.7886C116.066 22.8151 116.105 22.8416 116.132 22.8549L115.893 22.6558L112.731 20.1468L112.466 19.9343C112.412 19.8945 112.346 19.8547 112.293 19.8149C111.456 19.2307 110.393 18.9652 109.158 18.9918C107.843 19.0183 106.328 19.39 104.681 20.0936C103.034 20.7972 101.24 21.8327 99.3671 23.1735C97.494 24.5143 95.5545 26.187 93.5751 28.1385C91.1308 30.5812 88.8724 33.2496 86.9063 35.9844C84.9402 38.7191 83.2398 41.5335 81.9114 44.2549C80.583 46.9764 79.5999 49.5917 79.0685 51.968C78.5637 54.2115 78.4574 56.2161 78.7896 57.8623C78.8693 57.9286 78.9622 57.995 79.0287 58.0614C79.2811 58.2606 79.5468 58.4862 79.8257 58.7119L80.0649 58.911C80.0383 58.8712 80.0117 58.8446 79.9719 58.8313Z" fill="#6D30FB"/>
<path d="M94.0532 12.885C92.2598 13.4691 90.3735 14.3851 88.4738 15.6197C86.5741 16.8543 84.6478 18.4208 82.7482 20.2927C80.3038 22.7221 78.1385 25.4701 76.3451 28.3243C74.5517 31.1918 73.1037 34.1788 72.0808 37.1126C71.0579 40.0465 70.4601 42.9406 70.3273 45.609C70.221 47.9985 70.4867 50.2023 71.1908 52.1007C71.762 52.5122 72.3199 52.9104 72.7982 53.2821C73.2631 53.6273 73.7812 54.0123 74.2993 54.4106C73.7281 52.5919 73.6085 50.4545 73.8742 48.0915C74.1664 45.5426 74.9236 42.7548 76.0661 39.9005C77.2219 37.0463 78.7629 34.1257 80.6227 31.3113C82.4958 28.4969 84.6877 25.7887 87.1321 23.346C89.0583 21.4344 90.9978 19.828 92.8975 18.5403C94.7972 17.2659 96.6437 16.2968 98.384 15.6729C100.124 15.0489 101.771 14.7568 103.246 14.7966C104.721 14.8497 106.036 15.2347 107.125 15.9782L104.216 13.9736L103.352 13.3761C103.246 13.3098 103.126 13.2434 103.02 13.1771C101.864 12.5398 100.549 12.1814 99.1146 12.1018C97.5736 12.0487 95.8466 12.3008 94.0532 12.885Z" fill="#6D30FB"/>
<path d="M65.6121 42.5688C65.5191 39.7677 65.9176 36.7409 66.7679 33.7008C67.6181 30.6608 68.9199 27.5809 70.6336 24.6603C72.334 21.7397 74.433 18.9651 76.8906 16.5357C78.7239 14.7037 80.6368 13.2036 82.5365 12.0221C84.4494 10.8406 86.3624 9.97767 88.2222 9.43338C90.082 8.90236 91.8887 8.68991 93.5758 8.80939C95.2497 8.92887 96.8172 9.36696 98.2254 10.1369C98.2387 10.1369 98.2519 10.1502 98.2652 10.1502L98.1855 10.1104L94.9175 8.22527L94.6917 8.09255C94.6652 8.07927 94.6253 8.06596 94.5987 8.05268C93.1109 7.30925 91.4769 6.87119 89.7499 6.75171C87.9831 6.61896 86.1366 6.81808 84.2369 7.32255C82.3505 7.84029 80.4243 8.66337 78.5113 9.81834C76.6116 10.9733 74.7252 12.4469 72.9185 14.2258C70.4742 16.6552 68.4018 19.443 66.7679 22.4034C65.1339 25.3639 63.9117 28.4837 63.1811 31.6034C62.4372 34.7098 62.1715 37.803 62.4239 40.697C62.6231 43.1132 63.1943 45.3833 64.1508 47.4144C65.1073 48.0118 66.0771 48.649 67.007 49.2597C67.0203 49.2597 67.0336 49.273 67.0469 49.273C66.1568 47.2684 65.6918 44.9982 65.6121 42.5688Z" fill="#6D30FB"/>
<path d="M58.8238 44.2548C59.3153 44.5203 59.7935 44.7858 60.2452 45.0513C59.2356 43.0334 58.5581 40.8165 58.2127 38.48C57.7743 35.4798 57.8673 32.2937 58.4518 29.1076C59.0363 25.9215 60.1389 22.7354 61.6932 19.7351C63.2475 16.7349 65.2667 13.9337 67.7111 11.5043C69.4646 9.76524 71.3111 8.34472 73.1975 7.22958C75.0839 6.11445 77.0234 5.31792 78.9497 4.82673C80.8759 4.33554 82.7756 4.14972 84.6221 4.28247C86.4288 4.41523 88.1558 4.84 89.7765 5.57015C89.803 5.58343 89.8429 5.59674 89.8695 5.61002L89.7366 5.55686L87.1462 4.3887L86.4421 4.0966C86.2428 4.01695 86.0435 3.93732 85.8443 3.87094C84.3166 3.31337 82.6958 2.98148 81.0486 2.87528C79.1755 2.76908 77.2493 2.95491 75.3363 3.43283C73.4101 3.92402 71.4971 4.70731 69.624 5.79589C67.7509 6.88448 65.9442 8.26513 64.2438 9.95111C61.7995 12.3805 59.8068 15.1949 58.319 18.2217C56.8178 21.2485 55.8082 24.4612 55.3167 27.7004C54.8251 30.9263 54.8517 34.1655 55.423 37.2188C55.8481 39.4757 56.5654 41.6263 57.6016 43.591C57.9071 43.7504 58.2127 43.9229 58.5182 44.0955C58.5448 44.1088 58.5846 44.1221 58.6112 44.1354L58.8238 44.2548Z" fill="#6D30FB"/>
<path d="M51.8229 40.7634C52.4207 41.0289 53.0716 41.321 53.6561 41.613L53.789 41.6661C53.7624 41.6528 53.7225 41.6396 53.696 41.6263C53.8288 41.6927 53.9351 41.7458 54.0679 41.7989C44.6227 24.1957 59.3153 -3.3509 81.0353 2.13186C80.0257 1.82653 78.7106 1.48135 77.6212 1.20256C77.5017 1.17601 77.3821 1.13618 77.2626 1.10963C77.1696 1.08308 77.0633 1.05654 76.957 1.04327C76.4389 0.937062 75.8278 0.830829 75.3496 0.764452C57.057 -1.61185 41.3946 21.4476 51.8229 40.7634Z" fill="#6D30FB"/>
<path d="M50.9062 6.80477C48.4618 9.2209 46.602 12.0619 45.3267 15.1285C44.0514 18.1951 43.3473 21.4742 43.241 24.7931C43.1348 28.0986 43.613 31.444 44.689 34.6035C45.154 35.9842 45.7518 37.3383 46.4426 38.6393C46.695 38.7323 46.9474 38.8119 47.1865 38.9049C47.6382 39.0774 48.1563 39.2766 48.6877 39.4757C40.0129 23.1602 49.7105 -0.682554 71.0055 0.113972C71.0188 0.113972 71.032 0.113972 71.0453 0.113972L70.8992 0.100684L69.8099 0.0210344H69.77C69.7567 0.0210344 69.7568 0.0210344 69.7435 0.0210344C68.601 -0.0187919 67.0999 0.00775895 65.9707 0.0210344C64.6157 0.0874116 63.274 0.286546 61.9322 0.605157C60.6038 0.923768 59.2886 1.36186 58.0133 1.9327C56.738 2.50355 55.5026 3.18059 54.307 4.00367C53.1114 4.81347 51.9689 5.74273 50.9062 6.80477Z" fill="#6D30FB"/>
<path d="M39.2551 25.8021C39.2684 29.0811 39.8928 32.3735 41.1282 35.4932C41.3806 36.1171 41.6596 36.7278 41.9518 37.3384C42.5629 37.4977 43.2006 37.657 43.8382 37.8429C36.6248 23.8639 42.3902 6.92444 57.7337 1.46823C57.7603 1.45495 57.7736 1.45493 57.8001 1.44165C57.7736 1.45493 57.7337 1.46824 57.7072 1.48152C56.4452 1.91961 54.8112 2.55676 53.6023 3.0745C52.9248 3.39311 52.0613 3.88431 51.3838 4.24275C51.3705 4.25603 51.3439 4.25605 51.3306 4.26933C51.3173 4.2826 51.3041 4.28263 51.2908 4.2959C50.879 4.53486 50.4672 4.80031 50.0553 5.06582C49.6435 5.34461 49.2317 5.63671 48.8199 5.94205C48.4214 6.24738 48.0228 6.56597 47.6376 6.91113C47.2523 7.24301 46.8671 7.60143 46.5084 7.97315C44.0773 10.3893 42.2441 13.217 41.0352 16.2438C39.8396 19.2706 39.2418 22.523 39.2551 25.8021Z" fill="#6D30FB"/>
<path d="M38.4847 36.5949C38.9497 36.6746 39.4146 36.7542 39.853 36.8472C36.16 28.5235 37.1563 19.2042 43.0413 11.3451L41.8855 12.8584C41.8191 12.9514 41.766 13.031 41.7128 13.1107C41.2612 13.7479 41.0087 14.1329 40.6634 14.7037C40.3578 15.2348 39.9726 15.9251 39.3217 17.1597C39.3217 17.173 39.3084 17.1863 39.3084 17.1995L39.2685 17.2792L39.0161 17.8102C37.9533 20.1069 37.2759 22.5496 36.9969 25.0321C36.7179 27.5146 36.8242 30.0501 37.3024 32.5326C37.5681 33.9 37.9666 35.2674 38.4847 36.5949Z" fill="#6D30FB"/>
<path d="M36.4783 36.3029C36.5049 36.3029 36.5181 36.3029 36.5447 36.3162C36.7173 36.3427 36.9164 36.3693 37.089 36.3825C36.7173 35.0815 36.4518 33.754 36.3057 32.4265C36.1199 30.7139 36.1332 28.9881 36.3323 27.2889C36.3589 27.1163 36.3721 26.9437 36.3987 26.7711L36.3456 27.1694C36.2394 28.0588 36.173 28.4836 36.1464 29.174C36.1199 29.7183 36.1066 30.4351 36.0933 31.6698C36.0933 31.8954 36.0801 32.1344 36.0801 32.3999C36.0801 33.0106 36.1199 33.5947 36.173 34.1788C36.2261 34.909 36.3323 35.6258 36.4783 36.3029Z" fill="#6D30FB"/>
<path d="M9.65811 91.9932C9.65811 91.9799 9.64481 91.9668 9.64481 91.9402C9.59168 91.7942 9.53855 91.6481 9.48541 91.502C9.47212 91.4755 9.47214 91.4623 9.45885 91.4358C9.45885 91.4225 9.44556 91.3959 9.44556 91.3826C9.39242 91.2233 9.33929 91.064 9.28615 90.9047C9.28615 90.8914 9.28614 90.8914 9.27285 90.8781C9.21971 90.7321 9.17988 90.5861 9.12674 90.4401C9.12674 90.4135 9.11347 90.4002 9.10019 90.3737C9.10019 90.3604 9.08689 90.3338 9.08689 90.3205C9.03375 90.1612 8.99389 90.0019 8.95404 89.8559C8.03741 89.1523 7.20052 88.3957 6.44331 87.6124C5.68609 86.8159 5.00859 85.9795 4.41079 85.1033C3.81299 84.2272 3.29487 83.3244 2.8432 82.3818C2.45795 81.572 2.13912 80.749 1.88672 79.9126C2.21883 80.9879 2.65724 82.2757 2.98935 83.2713C3.06905 83.4837 3.13545 83.6828 3.21516 83.8819C4.95542 88.2628 7.878 90.586 9.65811 91.9932Z" fill="#6D30FB"/>
<path d="M12.2347 97.7813C12.2214 97.7681 12.2214 97.7416 12.2081 97.7283C12.1151 97.5425 12.0221 97.3566 11.9291 97.1707C11.9291 97.1574 11.9159 97.1574 11.9159 97.1441C11.9026 97.1176 11.8893 97.1044 11.8893 97.0779C11.8096 96.9186 11.7299 96.7593 11.6502 96.6C11.6369 96.5734 11.6236 96.5468 11.6103 96.5202C11.597 96.507 11.597 96.4804 11.5838 96.4671C11.4908 96.2812 11.411 96.1088 11.3181 95.9229C11.3181 95.9096 11.3048 95.9096 11.3048 95.8963C11.2915 95.8698 11.2782 95.8564 11.2782 95.8299C11.1985 95.6706 11.1321 95.5246 11.0657 95.3653C11.0524 95.3387 11.0391 95.3123 11.0258 95.2857C7.34602 92.697 6.29654 90.7189 5.20722 88.6347C5.19393 88.6214 5.19395 88.5948 5.18066 88.5815C5.67219 89.6569 6.38953 91.0641 6.90762 92.1261C7.06704 92.4315 7.22645 92.7234 7.41244 93.0155C7.55857 93.2545 7.718 93.5068 7.8907 93.7457C8.24938 94.2635 8.6612 94.7679 9.09958 95.2326C9.53797 95.7105 10.0295 96.1619 10.5476 96.5867C11.079 96.9982 11.6369 97.4096 12.2347 97.7813Z" fill="#6D30FB"/>
<path d="M15.7823 103.902C15.7292 103.822 15.676 103.729 15.6229 103.649C15.583 103.583 15.5432 103.53 15.5033 103.463C15.4103 103.304 15.304 103.145 15.211 102.985C15.1712 102.932 15.1314 102.866 15.1048 102.813C15.1048 102.8 15.0915 102.786 15.0915 102.786C15.0782 102.76 15.0649 102.733 15.0384 102.707C14.9321 102.534 14.8258 102.362 14.7195 102.189C14.7062 102.162 14.6797 102.136 14.6664 102.109C14.6531 102.096 14.6531 102.07 14.6398 102.056C14.5203 101.857 14.4007 101.658 14.2944 101.472C14.2944 101.459 14.2811 101.445 14.2679 101.432C13.7498 101.153 13.2715 100.848 12.8199 100.516C12.3682 100.184 11.9564 99.8392 11.5711 99.4675C11.1859 99.0958 10.8272 98.7108 10.5084 98.2992C10.2693 98.0072 10.0567 97.6886 9.85742 97.3833L11.611 100.251L11.7571 100.49C11.7837 100.53 11.8102 100.583 11.8501 100.622C12.0626 100.954 12.3018 101.26 12.5542 101.565C12.8464 101.91 13.1652 102.229 13.5106 102.534C13.856 102.84 14.2413 103.132 14.6398 103.397C15.0384 103.663 15.4768 103.915 15.9417 104.14C15.8886 104.061 15.8354 103.981 15.7823 103.902Z" fill="#6D30FB"/>
<path d="M20.1127 110.247C20.0995 110.234 20.0862 110.207 20.0729 110.194C19.9002 109.955 19.7275 109.716 19.5548 109.477C19.5415 109.451 19.515 109.424 19.5017 109.397C19.4485 109.331 19.4087 109.265 19.3556 109.198C19.2493 109.052 19.1563 108.906 19.05 108.774C18.9969 108.694 18.9437 108.614 18.8906 108.548C18.8242 108.455 18.771 108.375 18.7046 108.282C18.6515 108.216 18.5983 108.136 18.5585 108.07C18.16 107.911 17.788 107.725 17.4426 107.526C17.0972 107.327 16.7651 107.114 16.4728 106.875C16.1673 106.636 15.9016 106.397 15.6492 106.132C15.4366 105.906 15.2507 105.68 15.078 105.441C15.0381 105.388 14.9982 105.335 14.9717 105.282L15.1045 105.468L17.4293 108.707C17.6153 108.96 17.8145 109.185 18.0404 109.397C18.2662 109.61 18.5054 109.822 18.771 110.008C19.0367 110.194 19.329 110.367 19.6345 110.526C19.9401 110.685 20.2722 110.818 20.6309 110.937C20.5113 110.778 20.3917 110.606 20.2721 110.446C20.1924 110.367 20.1526 110.313 20.1127 110.247Z" fill="#6D30FB"/>
<path d="M25.413 117.124C25.3599 117.057 25.3067 116.991 25.2403 116.911C25.1207 116.765 24.9879 116.606 24.8683 116.447C24.8019 116.367 24.7487 116.301 24.6823 116.221C24.6026 116.128 24.5362 116.035 24.4565 115.942C24.3901 115.862 24.3369 115.783 24.2705 115.703C24.151 115.557 24.0314 115.411 23.9118 115.252C23.8587 115.185 23.8056 115.106 23.7391 115.039C23.7126 115.013 23.6993 114.986 23.6727 114.96C23.3672 114.893 23.0882 114.814 22.8225 114.707C22.5568 114.601 22.3177 114.495 22.0919 114.362C21.8661 114.23 21.6668 114.084 21.4808 113.924C21.3878 113.845 21.2948 113.765 21.2151 113.672C21.1354 113.592 21.0557 113.499 20.9893 113.406L21.959 114.615L23.6993 116.779L23.7258 116.805C24.4033 117.575 25.0145 117.694 26.0374 117.894C25.8381 117.641 25.6255 117.402 25.4262 117.15C25.4528 117.164 25.4263 117.15 25.413 117.124Z" fill="#6D30FB"/>
<path d="M32.0157 124.771C31.8696 124.611 31.7234 124.452 31.5773 124.293C31.5108 124.213 31.4444 124.147 31.378 124.067C31.2983 123.974 31.2186 123.881 31.1256 123.788C31.0459 123.709 30.9795 123.629 30.8998 123.549C30.7669 123.403 30.6474 123.257 30.5145 123.111C30.4481 123.045 30.3817 122.965 30.3285 122.899C30.302 122.872 30.2754 122.846 30.2488 122.806C30.0363 122.554 29.8105 122.315 29.5979 122.062C29.3721 122.076 29.1728 122.076 28.9868 122.062C28.8009 122.049 28.6281 122.023 28.482 121.969C28.3359 121.93 28.1898 121.863 28.0702 121.797C27.9772 121.744 27.8975 121.677 27.8311 121.611C27.8045 121.584 27.7779 121.558 27.7646 121.545L30.0496 124.107L30.7669 124.89C30.8334 124.956 30.8998 125.009 30.9928 125.049C31.0857 125.089 31.192 125.116 31.3116 125.129C31.4312 125.142 31.5773 125.142 31.7234 125.116C31.8695 125.089 32.0422 125.063 32.2415 125.023C32.2149 124.996 32.2017 124.983 32.1751 124.956C32.1219 124.903 32.0688 124.837 32.0157 124.771Z" fill="#6D30FB"/>
<path d="M38.4846 131.554C38.4049 131.474 38.3252 131.395 38.2322 131.302C38.0994 131.169 37.9665 131.036 37.8336 130.89C37.7539 130.811 37.6875 130.744 37.6078 130.665C37.5813 130.638 37.5414 130.598 37.5148 130.572C37.2757 130.333 37.0366 130.094 36.7975 129.841C36.7842 129.828 36.7709 129.815 36.7576 129.788C36.7045 129.735 36.6513 129.682 36.5982 129.629C36.4255 129.457 36.2528 129.284 36.0934 129.098C35.9473 129.191 35.8277 129.271 35.7082 129.324C35.6019 129.39 35.4956 129.43 35.4159 129.47C35.3362 129.496 35.2697 129.523 35.2166 129.523C35.1768 129.523 35.1502 129.523 35.1369 129.51C35.1236 129.51 35.1104 129.496 35.1104 129.496L36.6646 131.089L38.3252 132.762C38.3252 132.762 38.3252 132.736 38.3518 132.709C38.3783 132.682 38.4182 132.629 38.458 132.563C38.5111 132.497 38.5776 132.417 38.6573 132.337C38.737 132.244 38.83 132.138 38.9496 132.019C38.8831 131.952 38.8167 131.886 38.7503 131.82C38.6706 131.74 38.5776 131.647 38.4846 131.554Z" fill="#6D30FB"/>
<path d="M46.1635 140.13C46.1104 140.024 46.0705 139.904 46.044 139.772C46.0174 139.639 46.0041 139.493 46.0174 139.32C46.0174 139.148 46.044 138.975 46.0838 138.776C45.951 138.656 45.8049 138.524 45.672 138.404C45.5923 138.338 45.5126 138.258 45.4329 138.192C45.393 138.165 45.3665 138.126 45.3266 138.099C45.0742 137.873 44.8218 137.634 44.5694 137.409C44.5561 137.395 44.5428 137.382 44.5295 137.369C44.4764 137.329 44.4366 137.276 44.3834 137.236C44.1974 137.063 43.9981 136.891 43.8122 136.705C43.7457 136.652 43.6926 136.585 43.6262 136.532C43.5332 136.439 43.4402 136.36 43.3472 136.267C43.2542 136.174 43.1612 136.094 43.0682 136.001C43.0018 136.174 42.9487 136.32 42.9088 136.453C42.869 136.585 42.8424 136.705 42.8424 136.811C42.8291 136.917 42.8424 137.01 42.8557 137.077C42.869 137.143 42.9088 137.196 42.9487 137.249C42.9487 137.249 42.9487 137.249 42.962 137.263L43.1745 137.462L43.666 137.926H43.6793L45.3798 139.48L46.3761 140.382C46.3495 140.356 46.3229 140.329 46.2964 140.303C46.2432 140.263 46.2034 140.196 46.1635 140.13Z" fill="#6D30FB"/>
<path d="M54.3334 147.14C54.1872 146.967 54.0677 146.781 53.9614 146.569C53.8551 146.356 53.7488 146.131 53.6691 145.892C53.5894 145.64 53.523 145.387 53.4699 145.095C53.2042 144.883 52.9518 144.67 52.6861 144.458C52.6728 144.445 52.6595 144.445 52.6595 144.431C52.6197 144.392 52.5798 144.365 52.5267 144.325C52.3141 144.153 52.1149 143.98 51.9023 143.821C51.8359 143.768 51.7827 143.715 51.7163 143.661C51.6233 143.582 51.5304 143.502 51.4374 143.422C51.3311 143.343 51.2381 143.25 51.1318 143.17C50.999 143.064 50.8794 142.958 50.7465 142.852C50.6536 142.785 50.5738 142.706 50.4941 142.639C50.4543 142.599 50.4012 142.56 50.3613 142.533C50.3746 142.785 50.4012 143.011 50.441 143.223C50.4809 143.436 50.5473 143.622 50.6137 143.807C50.6802 143.98 50.7731 144.139 50.8661 144.285C50.9591 144.418 51.0654 144.524 51.1717 144.631C51.1849 144.644 51.1982 144.657 51.2115 144.657L51.6101 144.976L52.3672 145.6L54.7983 147.604C54.692 147.525 54.599 147.432 54.5193 147.339C54.4529 147.272 54.3865 147.206 54.3334 147.14Z" fill="#6D30FB"/>
<path d="M63.3802 154.136C63.4333 154.175 63.4864 154.215 63.5395 154.255C63.5793 154.282 63.6059 154.308 63.6457 154.335L63.1943 154.003C63.2607 154.043 63.3138 154.083 63.3802 154.136Z" fill="#6D30FB"/>
<path d="M62.0653 152.848C61.8395 152.556 61.6269 152.224 61.4276 151.879C61.2284 151.534 61.0557 151.162 60.9096 150.764C60.8431 150.711 60.7634 150.658 60.697 150.618C60.5642 150.525 60.4313 150.432 60.2984 150.339C60.2453 150.299 60.1922 150.273 60.1523 150.233C60.0859 150.18 60.0195 150.14 59.9531 150.087C59.8202 149.994 59.6874 149.901 59.5545 149.795C59.5014 149.755 59.4482 149.715 59.3818 149.675C59.3154 149.635 59.2623 149.582 59.1959 149.543C59.063 149.45 58.9301 149.343 58.7973 149.25C58.7309 149.211 58.6778 149.157 58.6113 149.118C58.5582 149.078 58.5051 149.038 58.4386 148.998C58.3058 148.892 58.173 148.799 58.0401 148.693C57.9737 148.64 57.9072 148.587 57.8408 148.547C57.9471 148.892 58.0667 149.211 58.2128 149.503C58.359 149.795 58.505 150.074 58.6777 150.339C58.8504 150.591 59.0364 150.83 59.2357 151.043C59.435 151.255 59.6608 151.454 59.8866 151.613L63.1812 154.016C63.0483 153.91 62.9155 153.791 62.7959 153.684C62.5435 153.406 62.2911 153.14 62.0653 152.848Z" fill="#6D30FB"/>
<path d="M71.0186 159.167C70.5935 158.848 70.1817 158.49 69.7964 158.092C69.4112 157.693 69.0525 157.269 68.7072 156.804C68.375 156.339 68.0562 155.835 67.7639 155.291C67.6975 155.251 67.6311 155.211 67.5647 155.171C67.4451 155.091 67.3256 155.025 67.206 154.945C67.1662 154.919 67.1263 154.892 67.0865 154.879C67.02 154.839 66.9536 154.799 66.8872 154.76C66.7676 154.68 66.6481 154.613 66.5152 154.534C66.4754 154.507 66.4222 154.481 66.3824 154.454C66.316 154.414 66.2628 154.375 66.1964 154.335C66.0768 154.255 65.9573 154.175 65.8244 154.096C65.7713 154.069 65.7182 154.029 65.6783 154.003C65.6252 153.963 65.572 153.936 65.5056 153.897C65.386 153.817 65.2532 153.737 65.1336 153.658C65.0805 153.618 65.0274 153.591 64.9609 153.551C65.1868 154.029 65.4392 154.481 65.7182 154.892C65.9971 155.304 66.2894 155.689 66.6082 156.047C66.927 156.406 67.2591 156.724 67.6178 157.016C67.6975 157.083 67.7905 157.149 67.8702 157.215C68.1492 157.428 68.4414 157.627 68.7337 157.8L71.271 159.379C71.2578 159.366 71.2445 159.366 71.2445 159.353C71.1913 159.3 71.1116 159.233 71.0186 159.167Z" fill="#6D30FB"/>
<path d="M76.9431 162.154C76.3851 161.663 75.8538 161.132 75.349 160.548C74.8442 159.964 74.3659 159.34 73.9275 158.663C73.8611 158.636 73.7947 158.596 73.7283 158.57C73.622 158.517 73.5157 158.464 73.4094 158.41C73.3829 158.397 73.3563 158.384 73.3165 158.371C73.25 158.344 73.1969 158.304 73.1305 158.278C73.0242 158.225 72.9179 158.172 72.8117 158.118C72.7718 158.105 72.7452 158.079 72.7054 158.065C72.6522 158.039 72.5858 157.999 72.5327 157.972C72.4264 157.919 72.3201 157.866 72.2006 157.8C72.1607 157.773 72.1208 157.76 72.081 157.733C72.0278 157.707 71.9747 157.68 71.9083 157.641C71.802 157.587 71.6825 157.521 71.5762 157.468C71.5364 157.441 71.4832 157.415 71.4434 157.401C71.8153 158.025 72.2271 158.596 72.6522 159.141C73.0906 159.672 73.5423 160.163 74.0338 160.614C74.512 161.066 75.0302 161.464 75.5615 161.835C75.7874 161.981 76.0132 162.128 76.239 162.274C76.5578 162.459 76.8767 162.645 77.2088 162.805L77.4878 162.951L79.4672 163.946C79.2015 163.8 78.9357 163.641 78.6833 163.482C78.0988 163.07 77.5143 162.632 76.9431 162.154Z" fill="#6D30FB"/>
<path d="M79.9455 164.172C80.1446 164.278 80.3438 164.371 80.5429 164.464C80.5562 164.477 80.5694 164.477 80.596 164.49L79.4941 163.933C79.6402 164.013 79.7862 164.092 79.9455 164.172Z" fill="#6D30FB"/>
<path d="M89.1247 167.889C88.753 167.756 88.3414 167.624 87.9033 167.464C88.3149 167.624 88.7131 167.756 89.1247 167.889Z" fill="#6D30FB"/>
<path d="M83.7848 165.261C82.9479 164.676 82.1641 164.013 81.4069 163.269C80.6497 162.526 79.9456 161.716 79.2814 160.827C79.2282 160.813 79.1618 160.787 79.1086 160.773C79.0157 160.747 78.9227 160.707 78.8297 160.68C78.8031 160.667 78.7898 160.667 78.7632 160.654C78.7101 160.641 78.6437 160.614 78.5906 160.601C78.4976 160.574 78.4046 160.534 78.3116 160.508C78.285 160.495 78.2584 160.495 78.2319 160.481C78.1787 160.468 78.1256 160.442 78.0725 160.415C77.9795 160.375 77.8865 160.349 77.7935 160.309C77.7669 160.296 77.7404 160.282 77.7005 160.282C77.6474 160.269 77.5942 160.242 77.5411 160.216C77.4481 160.176 77.3551 160.15 77.2488 160.11C77.209 160.096 77.1824 160.083 77.1426 160.07C77.6872 160.84 78.2717 161.557 78.8961 162.207C79.5205 162.858 80.1714 163.455 80.8489 163.999C81.5264 164.544 82.2438 165.022 82.9877 165.433C83.6254 165.792 84.2763 166.11 84.9538 166.389C85.0601 166.429 85.1664 166.482 85.2726 166.522C85.6313 166.654 86.0299 166.801 86.4417 166.96C86.9199 167.132 87.4247 167.305 87.9029 167.477C87.3848 167.278 86.8667 167.053 86.3752 166.814C85.4852 166.362 84.6217 165.845 83.7848 165.261Z" fill="#6D30FB"/>
<path d="M90.7853 167.517C89.4834 166.84 88.2214 166.017 87.0391 165.061C85.8568 164.106 84.7276 163.004 83.7047 161.782C83.6515 161.782 83.6117 161.769 83.5586 161.769C83.4789 161.756 83.3992 161.756 83.3195 161.742C83.3062 161.742 83.2929 161.742 83.2796 161.742C83.2265 161.742 83.1866 161.729 83.1335 161.729C83.0538 161.716 82.9741 161.716 82.8944 161.703C82.8811 161.703 82.8678 161.703 82.8412 161.703C82.7881 161.689 82.7482 161.689 82.6951 161.676C82.6154 161.663 82.5357 161.65 82.456 161.636C82.4294 161.636 82.4161 161.636 82.3895 161.623C82.3497 161.61 82.2965 161.61 82.2567 161.596C82.177 161.583 82.0973 161.57 82.0176 161.557C81.991 161.557 81.9645 161.543 81.9512 161.543C82.8014 162.605 83.7047 163.548 84.6745 164.398C85.6442 165.247 86.6539 165.991 87.7166 166.641C88.7794 167.292 89.8687 167.823 90.9979 168.261C92.127 168.699 93.2828 169.031 94.4651 169.27C95.2489 169.416 96.2053 169.548 97.122 169.681C96.3382 169.548 95.5677 169.363 94.7972 169.15C93.4422 168.739 92.0872 168.194 90.7853 167.517Z" fill="#6D30FB"/>
<path d="M97.1357 169.668C97.5608 169.748 97.9859 169.801 98.4243 169.854C98.6236 169.88 98.8229 169.894 99.0354 169.92C98.9956 169.92 98.9557 169.907 98.9026 169.907C98.3579 169.827 97.7601 169.761 97.1357 169.668Z" fill="#6D30FB"/>
<path d="M111.948 168.699C111.403 168.858 110.845 169.004 110.287 169.124C110.739 169.018 111.27 168.872 111.948 168.699Z" fill="#6D30FB"/>
<path d="M98.9689 168.779C96.7903 168.181 94.6781 167.278 92.6721 166.07C90.6794 164.862 88.7931 163.335 87.106 161.517C87.0661 161.53 87.0395 161.53 86.9997 161.543C86.9465 161.557 86.8801 161.583 86.8137 161.596C86.8004 161.596 86.8004 161.596 86.7871 161.596C86.7473 161.61 86.7074 161.61 86.6809 161.623C86.6277 161.636 86.5613 161.65 86.5082 161.663C86.4949 161.663 86.4949 161.663 86.4816 161.676C86.4418 161.689 86.4019 161.689 86.3753 161.703C86.3089 161.716 86.2558 161.729 86.1893 161.729C86.1761 161.729 86.1628 161.729 86.1495 161.742C86.1096 161.742 86.0698 161.756 86.0432 161.756C85.9768 161.769 85.9237 161.769 85.8572 161.782C85.844 161.782 85.8307 161.782 85.8174 161.782C87.1857 163.322 88.6868 164.65 90.2809 165.752C91.8751 166.854 93.5622 167.756 95.3157 168.433C97.0693 169.11 98.8626 169.562 100.683 169.801C102.503 170.04 104.349 170.066 106.169 169.867L106.74 169.801C107.896 169.655 108.414 169.575 109.278 169.376C109.57 169.309 109.889 169.23 110.287 169.137C108.733 169.469 107.165 169.641 105.585 169.655C103.366 169.668 101.134 169.376 98.9689 168.779Z" fill="#6D30FB"/>
<path d="M111.948 168.699C111.962 168.699 111.962 168.699 111.975 168.685L112.147 168.632C112.121 168.646 112.094 168.646 112.081 168.659C112.041 168.672 112.001 168.685 111.948 168.699Z" fill="#6D30FB"/>
<path d="M89.4041 160.004C89.3908 160.017 89.3775 160.043 89.3509 160.07C89.3376 160.083 89.3244 160.11 89.2978 160.123C89.2845 160.15 89.2579 160.176 89.2314 160.203C89.2181 160.216 89.2181 160.229 89.2048 160.242L89.1915 160.256C89.1517 160.309 89.0985 160.349 89.0587 160.389C89.0188 160.428 88.9923 160.455 88.9524 160.495C88.9258 160.521 88.8993 160.535 88.8727 160.561C88.8594 160.574 88.8594 160.574 88.8462 160.588L88.8329 160.601C88.793 160.628 88.7532 160.667 88.7133 160.694C88.7 160.707 88.6734 160.72 88.6602 160.734C88.6469 160.747 88.6336 160.747 88.6336 160.76C88.6203 160.774 88.607 160.774 88.5938 160.787C94.1068 166.389 107.165 173.412 121.194 164.212L121.207 164.199C121.207 164.199 121.22 164.199 121.22 164.185C121.898 163.694 122.256 163.429 122.735 163.03C123.213 162.619 123.824 162.061 125.006 160.959C125.338 160.628 125.697 160.216 126.056 159.818C126.043 159.831 126.016 159.857 126.003 159.871C117.514 168.885 101.958 171.381 89.4041 160.004Z" fill="#6D30FB"/>
<path d="M126.986 158.756C126.68 159.114 126.375 159.473 126.043 159.818C126.388 159.446 126.707 159.074 126.986 158.756Z" fill="#6D30FB"/>
<path d="M131.503 150.286C130.958 151.388 130.307 152.463 129.563 153.499C128.819 154.534 127.982 155.516 127.053 156.459C124.635 158.888 121.792 160.734 118.723 161.995C115.654 163.256 112.373 163.92 109.065 163.986C105.758 164.053 102.423 163.535 99.2615 162.406C96.0998 161.278 93.1108 159.565 90.4805 157.229C90.4805 157.242 90.4805 157.255 90.4805 157.269C90.4672 157.362 90.4539 157.455 90.4407 157.547C90.4407 157.561 90.4407 157.561 90.4407 157.574C90.4274 157.68 90.4008 157.773 90.3875 157.879C90.3875 157.893 90.3875 157.906 90.3875 157.906C90.3875 157.919 90.3743 157.946 90.3743 157.959C90.361 158.025 90.3344 158.105 90.3211 158.172C90.3211 158.185 90.3078 158.211 90.3078 158.225C90.3078 158.238 90.2945 158.251 90.2945 158.251C90.268 158.344 90.2414 158.437 90.2148 158.517C90.2148 158.517 90.2148 158.517 90.2148 158.53C92.8186 160.933 95.7943 162.738 98.9294 163.933C102.078 165.128 105.399 165.712 108.693 165.699C111.988 165.685 115.256 165.061 118.311 163.84C121.367 162.619 124.196 160.787 126.627 158.357C127.265 157.72 127.863 157.056 128.408 156.366C128.952 155.676 129.457 154.972 129.922 154.242C130.387 153.512 130.799 152.768 131.171 151.998C131.423 151.467 131.662 150.936 131.875 150.392C131.968 150.153 132.061 149.901 132.154 149.662C132.18 149.569 132.22 149.463 132.247 149.37C132.512 148.56 132.791 147.578 133.017 146.794C133.017 146.781 133.03 146.768 133.03 146.755C133.03 146.728 133.044 146.702 133.044 146.675C133.15 146.197 133.27 145.653 133.376 145.108C133.243 145.706 133.084 146.29 132.898 146.874C132.512 148.042 132.047 149.184 131.503 150.286Z" fill="#6D30FB"/>
<path d="M133.336 145.122C133.442 144.63 133.535 144.126 133.615 143.635C133.628 143.542 133.641 143.449 133.655 143.356C133.655 143.383 133.641 143.422 133.641 143.449C133.562 143.953 133.455 144.537 133.336 145.122Z" fill="#6D30FB"/>
<path d="M133.468 131.939C133.415 131.581 133.362 131.236 133.322 130.917C133.362 131.156 133.389 131.382 133.415 131.621C136.139 153.26 109.131 166.973 90.2275 153.193C90.2275 153.207 90.2276 153.22 90.2408 153.233C90.2674 153.379 90.294 153.525 90.3205 153.671V153.685C90.3205 153.698 90.3206 153.724 90.3338 153.738C90.3604 153.857 90.3737 153.977 90.3869 154.096C90.3869 154.109 90.4002 154.136 90.4002 154.149C90.4002 154.176 90.4003 154.189 90.4135 154.215C90.4268 154.322 90.4401 154.428 90.4534 154.521C90.4534 154.547 90.4667 154.574 90.4667 154.6C90.4667 154.614 90.4667 154.614 90.4667 154.627C90.48 154.76 90.4933 154.893 90.5065 155.025V155.038C106.448 167.969 134.637 158.663 133.933 135.564L133.907 135.232C133.8 134.249 133.628 133.028 133.468 131.939Z" fill="#6D30FB"/>
<path d="M131.768 124.81C131.688 124.545 131.582 124.266 131.489 123.974C131.21 123.178 130.891 122.315 130.612 121.545C131.13 123.071 131.436 124.664 131.502 126.284C131.595 128.156 131.382 130.067 130.891 131.966C130.399 133.877 129.616 135.776 128.526 137.608C127.45 139.453 126.069 141.232 124.408 142.905C121.977 145.348 119.148 147.312 116.119 148.799C113.09 150.286 109.848 151.255 106.607 151.72C103.366 152.171 100.111 152.118 97.0422 151.494C93.9735 150.883 91.0908 149.715 88.5801 147.976C88.5801 147.989 88.5934 148.003 88.5934 148.016C88.6598 148.188 88.7262 148.361 88.7926 148.534C88.7926 148.547 88.8059 148.56 88.8059 148.573C88.8192 148.6 88.8192 148.627 88.8325 148.64C88.8856 148.786 88.9388 148.932 88.9919 149.078C89.0052 149.104 89.0052 149.118 89.0184 149.144C89.0184 149.158 89.0317 149.171 89.0317 149.171C89.0982 149.343 89.1513 149.503 89.2044 149.662C89.2044 149.675 89.2177 149.689 89.2177 149.702C89.231 149.728 89.231 149.742 89.2443 149.768C89.2974 149.914 89.3373 150.047 89.3904 150.193C89.4037 150.22 89.4037 150.233 89.417 150.259C91.9809 152.144 94.9167 153.446 98.0253 154.189C101.134 154.932 104.428 155.105 107.71 154.746C110.991 154.388 114.246 153.485 117.301 152.065C120.356 150.644 123.186 148.706 125.617 146.263C127.198 144.684 128.5 142.998 129.536 141.232C130.572 139.48 131.356 137.648 131.861 135.816C132.379 133.97 132.618 132.112 132.605 130.28C132.591 128.567 132.352 126.881 131.874 125.248C131.834 125.129 131.808 125.009 131.768 124.89C131.781 124.863 131.781 124.837 131.768 124.81Z" fill="#6D30FB"/>
<path d="M126.853 113.261C126.693 112.955 126.534 112.65 126.388 112.371C126.441 112.478 126.481 112.57 126.534 112.677C127.172 114.044 127.557 115.517 127.703 117.057C127.876 118.85 127.703 120.748 127.211 122.673C126.72 124.598 125.883 126.563 124.727 128.501C123.572 130.439 122.084 132.351 120.264 134.17C117.833 136.612 115.03 138.657 112.067 140.276C109.092 141.896 105.956 143.077 102.821 143.781C99.6994 144.485 96.5776 144.723 93.6683 144.431C90.759 144.153 88.049 143.343 85.7109 141.989C85.7242 142.015 85.7375 142.042 85.7508 142.068C85.8438 142.241 85.9368 142.4 86.0165 142.573C86.0298 142.6 86.0431 142.626 86.0563 142.653C86.0563 142.666 86.0696 142.679 86.0696 142.679C86.1759 142.865 86.2689 143.064 86.3752 143.25C86.3884 143.263 86.3884 143.276 86.4017 143.303C86.415 143.33 86.4283 143.356 86.4416 143.383C86.5213 143.542 86.6143 143.715 86.694 143.874C86.7073 143.9 86.7205 143.914 86.7338 143.94C86.7338 143.953 86.7471 143.954 86.7471 143.967C86.8401 144.153 86.9331 144.339 87.0261 144.524C87.0394 144.538 87.0394 144.551 87.0527 144.577C89.4704 146.104 92.2601 147.06 95.2491 147.485C98.2381 147.91 101.413 147.803 104.601 147.206C107.79 146.609 110.965 145.507 113.967 143.954C116.969 142.4 119.772 140.382 122.217 137.94C123.983 136.174 125.418 134.302 126.547 132.404C127.676 130.492 128.473 128.541 128.965 126.616C129.457 124.678 129.629 122.766 129.483 120.921C129.364 119.341 128.992 117.814 128.407 116.367C128.341 116.221 128.274 116.062 128.208 115.916C128.168 115.836 128.141 115.757 128.102 115.677C127.73 114.947 127.278 114.07 126.853 113.261Z" fill="#6D30FB"/>
<path d="M82.1245 136.068C82.1511 136.094 82.1644 136.134 82.1909 136.161C82.3371 136.4 82.4965 136.625 82.6426 136.864C82.6559 136.878 82.6559 136.891 82.6691 136.904C82.6957 136.957 82.7356 137.01 82.7621 137.05C82.8684 137.223 82.9747 137.382 83.081 137.555C83.1208 137.621 83.1607 137.674 83.2006 137.741C83.2537 137.82 83.3068 137.913 83.36 137.993C83.4131 138.072 83.4662 138.165 83.5194 138.245C85.7113 139.36 88.2885 139.944 91.0782 140.011C93.8679 140.09 96.8835 139.665 99.9123 138.802C102.954 137.94 106.023 136.625 108.946 134.913C111.868 133.2 114.631 131.103 117.076 128.66C118.949 126.788 120.49 124.85 121.686 122.899C122.894 120.96 123.758 119.009 124.289 117.137C124.821 115.252 125.007 113.433 124.86 111.734C124.714 110.035 124.21 108.468 123.373 107.074L121.42 103.981L121.327 103.835L121.128 103.543C121.154 103.596 121.194 103.636 121.221 103.689C121.991 104.924 122.443 106.344 122.562 107.884C122.695 109.49 122.469 111.256 121.911 113.088C121.353 114.92 120.45 116.845 119.201 118.77C117.966 120.708 116.385 122.66 114.485 124.571C112.041 127.014 109.291 129.151 106.422 130.93C103.539 132.709 100.537 134.116 97.561 135.099C94.5986 136.081 91.676 136.639 88.9792 136.718C86.2825 136.798 83.8116 136.386 81.7393 135.444C81.819 135.577 81.912 135.709 81.9917 135.829C82.0315 135.922 82.0714 135.988 82.1245 136.068Z" fill="#6D30FB"/>
<path d="M77.3552 129.284C77.3951 129.337 77.4217 129.377 77.4615 129.43C77.5944 129.616 77.7405 129.802 77.8733 129.988C77.9132 130.054 77.9663 130.107 78.0062 130.173C78.0726 130.266 78.139 130.359 78.2054 130.452C78.2719 130.545 78.3383 130.638 78.4047 130.731C78.4977 130.85 78.5774 130.97 78.6704 131.089C78.7368 131.169 78.7899 131.262 78.8564 131.342C78.8829 131.381 78.9095 131.421 78.9361 131.448C80.8357 132.138 83.134 132.297 85.6846 131.992C88.2352 131.687 91.0116 130.93 93.8545 129.775C96.7106 128.62 99.6199 127.08 102.436 125.208C105.252 123.337 107.963 121.146 110.407 118.703C112.346 116.765 113.967 114.814 115.256 112.902C116.544 110.99 117.514 109.132 118.138 107.393C118.763 105.64 119.055 104.008 118.989 102.534C118.935 101.22 118.603 100.038 117.992 99.0425C117.913 98.9231 117.846 98.8036 117.766 98.6841L116.969 97.5823L116.252 96.5866L115.203 95.1926C115.907 96.1219 116.239 97.3034 116.239 98.6575C116.239 100.025 115.893 101.578 115.203 103.251C114.525 104.937 113.515 106.742 112.174 108.614C110.845 110.499 109.185 112.437 107.232 114.402C104.788 116.845 102.104 119.075 99.3277 121.013C96.5645 122.952 93.7084 124.598 90.9585 125.872C88.1953 127.147 85.5251 128.049 83.0941 128.514C80.6763 128.979 78.4977 128.992 76.7441 128.501C76.9301 128.753 77.1161 128.992 77.3021 129.244C77.342 129.271 77.3552 129.271 77.3552 129.284Z" fill="#6D30FB"/>
<path d="M107.431 93.2944C106.594 94.7812 105.438 96.4539 104.004 98.2461C102.569 100.038 100.842 101.95 98.8494 103.941C96.4051 106.384 93.7881 108.707 91.1577 110.818C88.5274 112.929 85.8705 114.814 83.3465 116.394C80.8225 117.973 78.4445 119.235 76.3323 120.097C74.2334 120.96 72.4001 121.412 71.0186 121.372C71.0318 121.385 71.0318 121.385 71.0451 121.398C71.085 121.438 71.1116 121.478 71.1514 121.531C71.3241 121.73 71.4835 121.929 71.6562 122.129C71.7094 122.182 71.7492 122.248 71.8023 122.301C71.882 122.394 71.9618 122.487 72.0282 122.58C72.1079 122.673 72.1876 122.779 72.2673 122.872C72.3736 122.991 72.4666 123.111 72.5728 123.244C72.6393 123.323 72.7189 123.416 72.7854 123.496C72.8252 123.536 72.8518 123.576 72.8917 123.615C73.0909 123.868 73.3035 124.12 73.5027 124.359C75.057 124.598 77.0231 124.319 79.2682 123.629C81.5132 122.938 84.024 121.823 86.6543 120.376C89.2846 118.929 92.0212 117.137 94.7047 115.106C97.4014 113.075 100.045 110.791 102.489 108.349C104.469 106.371 106.169 104.432 107.564 102.6C108.959 100.768 110.048 99.0425 110.819 97.4627C111.589 95.8962 112.041 94.4759 112.147 93.2678C112.253 92.1394 112.054 91.1967 111.549 90.4798C111.523 90.44 111.483 90.3869 111.443 90.3471L110.938 89.7232L110.54 89.232L108.587 86.8955C109.065 87.4664 109.198 88.3293 108.999 89.4046C108.799 90.4932 108.268 91.8075 107.431 93.2944Z" fill="#6D30FB"/>
<path d="M65.2933 114.92C65.3996 115.04 65.5059 115.159 65.6121 115.265C65.6918 115.358 65.7715 115.438 65.8645 115.531C65.9044 115.571 65.9442 115.624 65.9841 115.664C66.2099 115.916 66.4358 116.168 66.6749 116.407C66.6749 116.407 66.6749 116.407 66.6882 116.42C66.7147 116.447 66.728 116.46 66.7546 116.487C66.9539 116.712 67.1664 116.938 67.3657 117.164C68.5214 116.938 70.1156 116.221 72.0152 115.133C73.9149 114.044 76.1201 112.57 78.4847 110.805C80.8494 109.052 83.3867 107.021 85.9373 104.817C88.4879 102.614 91.0518 100.237 93.5094 97.7947C95.5154 95.7901 97.2822 93.905 98.7833 92.1659C100.284 90.4268 101.52 88.8603 102.463 87.4929C103.406 86.1256 104.057 84.9574 104.389 84.0414C104.721 83.1254 104.735 82.4616 104.416 82.1032L104.283 81.9572L102.051 79.5277L101.307 78.7179C101.321 78.7312 101.321 78.7445 101.334 78.7578C101.493 78.9967 101.347 79.5012 100.935 80.2579C100.497 81.0544 99.7398 82.1032 98.7169 83.3909C97.694 84.6786 96.3921 86.1787 94.8378 87.8647C94.4792 88.2497 94.1205 88.648 93.7353 89.0462C92.46 90.4136 91.0385 91.874 89.4842 93.4272C88.634 94.2768 87.7706 95.1263 86.8938 95.9627C85.2731 97.5292 83.6258 99.0825 82.0051 100.556C81.4604 101.047 80.9291 101.538 80.3977 102.016C80.318 102.096 80.225 102.176 80.1453 102.255C79.4279 102.893 78.7238 103.516 78.0198 104.127C76.9304 105.083 75.8677 105.999 74.8315 106.849C74.4861 107.141 74.154 107.406 73.8219 107.685C73.2906 108.123 72.7724 108.535 72.2676 108.933C71.0056 109.942 69.8233 110.844 68.7605 111.601C68.0166 112.145 67.3391 112.597 66.7148 112.995C65.8778 113.526 65.1605 113.938 64.6025 114.177C64.6557 114.23 64.7088 114.283 64.7619 114.349C64.8549 114.442 64.9346 114.535 65.0276 114.628C65.1073 114.721 65.2003 114.827 65.2933 114.92Z" fill="#6D30FB"/>
<path d="M58.2521 107.725C58.3052 107.765 58.3451 107.818 58.3982 107.858C58.6506 108.096 58.8897 108.335 59.1421 108.588L59.1554 108.601C59.3016 108.747 59.4477 108.88 59.5806 109.026C59.6735 109.119 59.7665 109.212 59.8728 109.304C59.926 109.358 59.9658 109.397 60.0189 109.45C60.1119 109.543 60.1916 109.623 60.2846 109.716L60.6034 110.035C66.3423 104.605 95.0101 76.1425 96.7769 74.0317L96.7105 73.9653L96.6972 73.952C95.8071 73.0625 94.8108 72.0801 94.0137 71.2969C93.934 71.2172 93.8411 71.1244 93.7481 71.0447C93.6817 70.9783 93.6019 70.9119 93.5355 70.8323L93.4425 70.7393C93.4425 70.7393 93.4425 70.7393 93.4292 70.7393C93.2964 70.6331 92.8447 70.8456 92.1406 71.3367C91.4233 71.8412 90.4269 72.6509 89.1915 73.7262C87.956 74.8015 86.4948 76.1424 84.8342 77.7089C83.1737 79.2754 81.3138 81.0942 79.3079 83.0988C76.8636 85.5415 74.4192 88.0504 72.0945 90.4931C69.7697 92.9358 67.5777 95.2988 65.6117 97.476C63.6456 99.6532 61.9319 101.631 60.5636 103.277C59.1953 104.924 58.199 106.251 57.6543 107.127C57.7739 107.233 57.8801 107.353 57.9997 107.459C58.0661 107.552 58.1591 107.632 58.2521 107.725Z" fill="#6D30FB"/>
<path d="M59.9657 92.219C61.7459 89.8825 63.8049 87.3734 66.0234 84.8378C66.5282 84.2669 67.0463 83.6829 67.5644 83.112C68.9327 81.5986 70.3675 80.0852 71.8155 78.5984C72.2406 78.1603 72.6657 77.7355 73.0908 77.3107C75.0967 75.3061 76.9831 73.5405 78.7101 72.0404C79.4142 71.4297 80.0917 70.8588 80.7426 70.3411C81.6858 69.5844 82.5626 68.9073 83.3596 68.3365C83.798 68.0179 84.2098 67.7523 84.6084 67.5001C85.4187 66.9824 86.1493 66.5974 86.7471 66.3584C87.3981 66.0929 87.9162 66.0132 88.2881 66.1061C88.3014 66.1061 88.3014 66.1061 88.3147 66.1061C88.421 66.1327 88.5007 66.1859 88.5804 66.239C88.5937 66.2523 88.6203 66.2521 88.6335 66.2654L86.4017 64.2742L85.7907 63.7298L85.1132 63.1325C85.0733 63.106 85.0334 63.0661 84.9936 63.0396C84.5021 62.6944 83.7582 62.6413 82.815 62.8803C81.7921 63.1325 80.5433 63.7033 79.0953 64.5795C77.6473 65.4557 76.0133 66.6371 74.2465 68.0974C72.4797 69.5577 70.5667 71.2969 68.5608 73.2882C66.1164 75.7309 63.7651 78.3196 61.613 80.9216C59.461 83.5236 57.5081 86.1123 55.8609 88.5815C54.2136 91.0375 52.8586 93.3474 51.9021 95.3785C50.9457 97.3964 50.3877 99.1354 50.3213 100.436C50.5604 100.649 50.8128 100.861 51.0519 101.074C51.0652 101.087 51.0785 101.1 51.0918 101.113C51.1051 101.127 51.105 101.127 51.1183 101.14C51.3707 101.366 51.6231 101.578 51.8622 101.804C51.9154 101.844 51.9553 101.883 52.0084 101.937C52.1014 102.016 52.1944 102.109 52.2874 102.189C52.4069 102.295 52.5265 102.401 52.6328 102.507C52.739 102.6 52.8453 102.707 52.9516 102.799C53.0446 102.879 53.1376 102.972 53.2306 103.052C53.2837 103.105 53.3368 103.145 53.39 103.198C53.483 102.786 53.669 102.295 53.8948 101.764C54.28 100.861 54.8114 99.8125 55.5288 98.631C55.6217 98.4849 55.728 98.3124 55.821 98.1664C56.5649 96.9583 57.4417 95.6574 58.4513 94.2502C58.9562 93.5731 59.4477 92.9093 59.9657 92.219Z" fill="#6D30FB"/>
<path d="M62.1445 67.8721C64.1238 65.894 66.0633 64.208 67.8966 62.814C69.7298 61.4201 71.4568 60.3316 73.0244 59.5616C74.592 58.7916 76.0001 58.3403 77.1957 58.2208C78.3381 58.1146 79.2813 58.3137 79.9854 58.8314C80.012 58.858 80.0518 58.8846 80.0784 58.8978L79.8393 58.6987L76.6776 56.1896L76.4119 55.9772C76.3588 55.9374 76.2923 55.8975 76.2392 55.8577C75.4023 55.2736 74.3395 55.0081 73.1041 55.0346C71.7889 55.0612 70.2745 55.4329 68.6273 56.1365C66.98 56.8401 65.1866 57.8756 63.3135 59.2164C61.4404 60.5573 59.5008 62.23 57.5215 64.1814C55.0771 66.6241 52.8188 69.2925 50.8527 72.0273C48.8866 74.762 47.1862 77.5764 45.8577 80.2979C44.5293 83.0193 43.5463 85.6345 43.0149 88.0108C42.4835 90.3738 42.3772 92.4979 42.8023 94.1839C43.068 94.383 43.3337 94.5954 43.5994 94.8078C43.6526 94.8477 43.6924 94.8876 43.7455 94.9141C43.8385 94.9938 43.9315 95.0601 44.0245 95.1397C44.144 95.2326 44.2769 95.339 44.3964 95.4319C44.5027 95.5115 44.609 95.6044 44.7153 95.684C44.8083 95.7637 44.9146 95.8434 45.0076 95.9231C45.0607 95.9762 45.1271 96.016 45.1802 96.0691C45.3928 96.2417 45.6186 96.4276 45.8312 96.6001C45.871 96.6267 45.9109 96.6664 45.9507 96.693C45.964 96.693 45.964 96.7063 45.9773 96.7063C45.7647 95.1663 46.057 93.2148 46.7611 90.9845C47.4784 88.7542 48.6076 86.2586 50.0689 83.6433C51.5302 81.028 53.3369 78.3065 55.3827 75.6249C57.4019 72.9432 59.6868 70.3015 62.1445 67.8721Z" fill="#6D30FB"/>
<path d="M51.0785 59.4023C53.0047 57.4906 54.9442 55.8842 56.8439 54.5965C58.7436 53.322 60.5901 52.353 62.3304 51.729C64.0706 51.1051 65.7179 50.8131 67.1925 50.8529C68.667 50.906 69.9822 51.2909 71.0715 52.0343L68.1622 50.0297L67.2988 49.4324C67.2058 49.366 67.0995 49.3129 66.9932 49.2598C66.9799 49.2598 66.9666 49.2465 66.9534 49.2465C65.7976 48.6093 64.4825 48.2509 63.0477 48.1712C61.4669 48.0916 59.7532 48.3438 57.9598 48.9146C56.1664 49.4988 54.28 50.4148 52.3803 51.6494C50.4807 52.884 48.5544 54.4505 46.6548 56.3224C44.2104 58.7518 42.0451 61.4998 40.2517 64.354C38.4583 67.2215 37.0103 70.2085 35.9874 73.1423C34.9645 76.0762 34.3667 78.9703 34.2338 81.6386C34.1143 84.307 34.4597 86.7364 35.3497 88.7808C35.4294 88.8339 35.4959 88.887 35.5756 88.9268C35.7084 89.0198 35.8412 89.1126 35.9741 89.1923C36.0139 89.2188 36.0538 89.2455 36.0936 89.272C36.1601 89.3251 36.2398 89.3649 36.3062 89.418C36.439 89.511 36.5719 89.6038 36.7048 89.6968C36.7579 89.7233 36.7977 89.7632 36.8376 89.7898C36.904 89.8296 36.9704 89.8827 37.0369 89.9225C37.1697 90.0154 37.3025 90.1083 37.4354 90.2012C37.4885 90.2411 37.5416 90.281 37.5948 90.3075C37.6612 90.3474 37.7144 90.3872 37.7808 90.4403C37.9136 90.5332 38.0465 90.6261 38.1793 90.7323C38.2457 90.7721 38.2989 90.8119 38.352 90.865C37.6479 88.9534 37.4885 86.6435 37.7808 84.0946C38.073 81.5457 38.8302 78.7578 39.9727 75.9036C41.1152 73.0493 42.6694 70.1288 44.5293 67.3144C46.4422 64.5398 48.6341 61.8317 51.0785 59.4023Z" fill="#6D30FB"/>
<path d="M28.8936 84.7584C29.0132 84.8247 29.146 84.9044 29.2656 84.9708C29.2922 84.9841 29.3054 84.9972 29.332 85.0105C29.3984 85.0503 29.4781 85.0903 29.5578 85.1434C29.6774 85.2098 29.797 85.2893 29.9298 85.3557C29.9564 85.369 29.9829 85.3823 30.0095 85.4088C30.0759 85.4487 30.1556 85.4884 30.2221 85.5283C30.3416 85.5947 30.4612 85.6743 30.594 85.7407C30.6339 85.7673 30.6604 85.7806 30.7003 85.8072C30.7667 85.847 30.8331 85.8868 30.8995 85.9266C31.0191 86.0063 31.1387 86.0727 31.2715 86.1523C31.3114 86.1789 31.3512 86.2054 31.3911 86.2319C30.2486 84.0282 29.6508 81.4262 29.5578 78.6251C29.4649 75.824 29.8634 72.7971 30.7136 69.757C31.5638 66.717 32.8657 63.6371 34.5794 60.7165C36.2798 57.7959 38.3787 55.0214 40.8363 52.592C42.6695 50.76 44.5825 49.2598 46.4822 48.0783C48.3951 46.8968 50.3081 46.0339 52.1679 45.4896C54.0277 44.9586 55.8344 44.7462 57.5215 44.8657C59.1954 44.9851 60.7629 45.4232 62.1711 46.1932C62.1844 46.1932 62.1976 46.2065 62.2109 46.2065L62.1312 46.1666L58.8633 44.2815L58.6374 44.1487C58.6108 44.1355 58.571 44.1222 58.5445 44.109C57.0566 43.3655 55.4226 42.9275 53.6956 42.808C51.9288 42.6752 50.0823 42.8744 48.1959 43.3788C46.3095 43.8966 44.3833 44.7196 42.4703 45.8746C40.5706 47.0296 38.6842 48.5031 36.8775 50.282C34.4332 52.7114 32.3609 55.4993 30.7269 58.4597C29.0929 61.4201 27.8707 64.5398 27.1401 67.6596C26.3961 70.766 26.1304 73.8592 26.3828 76.7532C26.6353 79.6473 27.3925 82.3423 28.7076 84.6389C28.7475 84.6655 28.8139 84.7185 28.8936 84.7584Z" fill="#6D30FB"/>
<path d="M53.6692 41.5998L51.0787 40.4315L50.3747 40.1395C50.1754 40.0599 49.9762 39.9802 49.7769 39.9138C48.2492 39.3562 46.6285 39.0243 44.9812 38.9181C43.1081 38.8119 41.1819 38.9978 39.2689 39.4757C37.3427 39.9669 35.4297 40.7501 33.5566 41.8387C31.6968 42.9273 29.8768 44.308 28.1764 45.994C25.7321 48.4234 23.7394 51.2377 22.2516 54.2645C20.7504 57.2913 19.7408 60.504 19.2493 63.7432C18.7578 66.9691 18.7844 70.2083 19.3556 73.2617C19.9268 76.315 21.056 79.1827 22.7431 81.6784C22.7829 81.6917 22.8361 81.7182 22.8759 81.7314C23.0221 81.7978 23.1549 81.8509 23.301 81.9173C23.3143 81.9173 23.3143 81.9173 23.3276 81.9306C23.394 81.9571 23.4604 81.9838 23.5136 82.0103C23.6331 82.0634 23.7527 82.1165 23.8723 82.1696C23.8856 82.1696 23.8988 82.1827 23.9121 82.1827C23.9786 82.2093 24.045 82.2492 24.1114 82.2758C24.2309 82.3289 24.3372 82.382 24.4568 82.4351C24.4701 82.4483 24.4966 82.4484 24.5099 82.4616C24.5763 82.4882 24.6428 82.5279 24.7092 82.5545C24.8155 82.6076 24.935 82.6607 25.0413 82.7138C25.0679 82.7271 25.0944 82.7404 25.1077 82.7537C23.5667 80.3243 22.5837 77.5232 22.1453 74.5362C21.7069 71.536 21.7999 68.3498 22.3844 65.1637C22.9689 61.9776 24.0715 58.7915 25.6258 55.7912C27.1801 52.791 29.1993 49.9899 31.6437 47.5604C33.3972 45.8214 35.2437 44.4009 37.1301 43.2858C39.0165 42.1707 40.956 41.3741 42.8823 40.8829C44.8085 40.3917 46.7082 40.2058 48.5547 40.3386C50.3614 40.4714 52.0884 40.8962 53.7091 41.6264C53.7356 41.6396 53.7755 41.6529 53.8021 41.6661L53.6692 41.5998Z" fill="#6D30FB"/>
<path d="M44.9681 38.1746C43.9585 37.8693 42.6433 37.5242 41.554 37.2454C41.4344 37.2189 41.3148 37.179 41.1953 37.1525C41.1023 37.1259 40.996 37.0993 40.8898 37.086C40.3717 36.9798 39.7606 36.8737 39.2824 36.8073C19.9668 34.3115 3.58712 60.0924 17.6819 79.9392C17.6952 79.9392 17.6952 79.9392 17.7084 79.9392C17.8147 79.9658 17.921 79.9924 18.0273 80.019C18.0672 80.0322 18.1203 80.0454 18.1601 80.0587H18.1734C18.3328 80.0985 18.4922 80.1516 18.6516 80.1914C18.6649 80.1914 18.6782 80.2047 18.7048 80.2047C18.8509 80.2445 18.9971 80.2844 19.1432 80.3376H19.1564C19.2096 80.3508 19.2627 80.3773 19.3158 80.3905C19.4221 80.4304 19.5284 80.457 19.648 80.4968C19.6612 80.4968 19.6613 80.4969 19.6746 80.5101C19.3956 80.0986 19.0103 79.5675 18.7446 79.1427C7.82484 61.6324 22.7034 32.5459 44.9681 38.1746Z" fill="#6D30FB"/>
<path d="M14.8388 42.8476C12.3944 45.2637 10.5346 48.1047 9.25933 51.1713C7.98402 54.2379 7.27994 57.5169 7.17366 60.8358C7.06739 64.1414 7.54562 67.4868 8.62166 70.6464C9.6977 73.8192 11.3715 76.8062 13.6432 79.4347C13.6565 79.4347 13.6697 79.4347 13.683 79.4347C13.7494 79.4347 13.8292 79.4347 13.8956 79.4347C13.9354 79.4347 13.9753 79.4347 14.0151 79.4347C14.0284 79.4347 14.0417 79.4347 14.0417 79.4347C14.1214 79.4347 14.1878 79.4347 14.2675 79.4347C14.3074 79.4347 14.3605 79.4347 14.4004 79.4347C14.4137 79.4347 14.4137 79.4347 14.4269 79.4347C14.5066 79.4347 14.5996 79.448 14.6793 79.448C14.7192 79.448 14.7591 79.448 14.7989 79.448H14.8122C14.9318 79.4613 15.0513 79.4613 15.1576 79.4746C15.1709 79.4746 15.1841 79.4746 15.2107 79.4746C2.36469 63.4113 11.8232 35.2673 34.9381 36.1302C34.9514 36.1302 34.9647 36.1302 34.9779 36.1302L34.8318 36.1169L33.7425 36.0373H33.7026C33.6894 36.0373 33.6894 36.0373 33.6761 36.0373C32.5469 35.9974 31.0457 36.024 29.9033 36.0373H29.89C28.535 36.1169 27.1933 36.3028 25.8648 36.6214C24.5364 36.94 23.2212 37.3781 21.9459 37.9489C20.6706 38.5198 19.4352 39.1968 18.2396 40.0199C17.044 40.8563 15.9015 41.7855 14.8388 42.8476Z" fill="#6D30FB"/>
<path d="M3.18869 61.8447C3.20198 65.1237 3.82635 68.4161 5.0618 71.5358C6.29725 74.6555 8.14378 77.6027 10.6147 80.1781C10.628 80.1649 10.6412 80.1648 10.6545 80.1516C10.6944 80.125 10.7475 80.0984 10.7874 80.0851C10.814 80.0718 10.8405 80.0585 10.8671 80.0453C10.8804 80.0453 10.8937 80.032 10.9069 80.032C10.9601 80.0054 10.9999 79.9922 11.0531 79.9657C11.0797 79.9524 11.1062 79.9391 11.1328 79.9258C11.1461 79.9258 11.1594 79.9125 11.1726 79.9125C11.2258 79.886 11.2789 79.8727 11.332 79.8594C11.3586 79.8461 11.3985 79.833 11.425 79.8197C11.4383 79.8197 11.4383 79.8197 11.4516 79.8064C11.5047 79.7931 11.5712 79.7665 11.6243 79.7532C11.6642 79.74 11.6907 79.7267 11.7306 79.7267C-0.902918 65.044 4.11861 43.7635 21.6673 37.5241C21.6939 37.5108 21.7072 37.5108 21.7337 37.4976C21.7072 37.5108 21.6673 37.5241 21.6275 37.5373C20.3655 37.9754 18.7315 38.6127 17.5226 39.1304C16.8451 39.449 15.9816 39.9402 15.3041 40.2987C15.2908 40.3119 15.2642 40.3119 15.2509 40.3252C15.2376 40.3384 15.2244 40.3385 15.2111 40.3517C14.7993 40.5907 14.3875 40.8562 13.9756 41.1217C13.5638 41.4005 13.152 41.6925 12.7402 41.9979C12.3417 42.3032 11.9431 42.6219 11.5579 42.967C11.1726 43.2989 10.7874 43.6573 10.4287 44.0291C7.99767 46.4452 6.16439 49.2728 4.9555 52.2996C3.77319 55.3132 3.17541 58.5656 3.18869 61.8447Z" fill="#6D30FB"/>
<path d="M3.85245 75.784C5.11447 78.0807 6.76173 80.2314 8.78096 82.1696C8.79424 82.1563 8.79427 82.143 8.80755 82.1297C8.83412 82.0633 8.87394 81.9969 8.90051 81.9438C8.90051 81.9306 8.91381 81.9172 8.91381 81.904C8.92709 81.8907 8.92708 81.8774 8.94036 81.8641C8.96693 81.811 9.00681 81.7446 9.04666 81.6915C9.05995 81.6782 9.05993 81.6651 9.07322 81.6518L9.08651 81.6385C9.13965 81.5589 9.17948 81.4925 9.23262 81.4261C9.23262 81.4261 9.23262 81.4261 9.23262 81.4128C9.24591 81.3995 9.24593 81.3995 9.25922 81.3862C9.29907 81.3331 9.35222 81.2667 9.39207 81.2136C9.40535 81.2003 9.40534 81.2003 9.41862 81.187C0.0265405 71.3101 -0.956526 58.1011 6.90785 47.494C6.93442 47.4542 6.96098 47.4144 6.98755 47.3878L6.80159 47.6268L5.96467 48.7287L5.83181 48.9012C5.76539 48.9942 5.71225 49.0738 5.65911 49.1535C5.20744 49.7907 4.95507 50.1757 4.60967 50.7465C4.30413 51.2776 3.91887 51.9679 3.26793 53.2025C3.26793 53.2157 3.25463 53.2291 3.25463 53.2423L3.21478 53.322L2.96238 53.853C1.89962 56.1496 1.22213 58.5923 0.943159 61.0748C0.664186 63.5573 0.770476 66.0929 1.24872 68.5754C1.71367 71.0579 2.59043 73.4874 3.85245 75.784Z" fill="#6D30FB"/>
<path d="M8.19646 85.3954C8.19646 85.3821 8.19646 85.3555 8.19646 85.3423C8.19646 85.2493 8.19646 85.1565 8.19646 85.0635C8.19646 85.037 8.19646 85.0238 8.19646 84.9972C8.19646 84.984 8.19646 84.9839 8.19646 84.9707C8.19646 84.8512 8.19648 84.745 8.20976 84.6255V84.6122C8.20976 84.5989 8.20976 84.5723 8.20976 84.559C8.20976 84.4661 8.22303 84.3865 8.23631 84.2936C8.23631 84.2803 8.23631 84.2537 8.23631 84.2405C8.23631 84.2272 8.23631 84.2006 8.23631 84.1873C8.2496 84.1076 8.24963 84.0281 8.26291 83.9484C8.26291 83.9219 8.26288 83.9085 8.27617 83.882C6.69532 82.4615 5.34031 80.9083 4.21114 79.2489C3.08196 77.5894 2.19192 75.8372 1.5277 74.0184C0.863479 72.1997 0.425079 70.341 0.225812 68.4559C0.0398306 66.7434 0.0531409 65.0176 0.252407 63.3183C0.278976 63.1458 0.292244 62.9732 0.318813 62.8007L0.265664 63.1989C0.159389 64.0884 0.0929747 64.5132 0.0664059 65.2035C0.039837 65.7478 0.0265413 66.4647 0.0132569 67.6993C0.0132569 67.925 0 68.1638 0 68.4294C0 69.04 0.039863 69.6243 0.0930007 70.2084C0.850213 78.5454 6.32336 83.643 8.19646 85.3954Z" fill="#6D30FB"/>
<path d="M0.677734 74.9077C0.677734 74.9343 0.691023 74.9476 0.691023 74.9742C0.770675 75.4521 0.876894 75.9299 0.996373 76.3946C1.02292 76.5008 1.04947 76.5938 1.07602 76.7C0.929992 76.0761 0.797213 75.452 0.677734 74.9077Z" fill="#6D30FB"/>
<path d="M4.3975 85.0901C4.9953 85.9662 5.67281 86.8026 6.43002 87.5991C7.18723 88.3957 8.02413 89.1523 8.94075 89.8426C8.9009 89.6833 8.84779 89.524 8.80794 89.378C8.80794 89.3647 8.79464 89.3514 8.79464 89.3249C8.78136 89.2983 8.78137 89.2585 8.76809 89.232C8.74152 89.1258 8.71491 89.0196 8.68834 88.9001C8.67506 88.8736 8.67508 88.8469 8.66179 88.8204C8.66179 88.7938 8.64849 88.7807 8.64849 88.7541C8.62192 88.6346 8.59536 88.5151 8.56879 88.4089C8.56879 88.3824 8.55553 88.3557 8.55553 88.3292C8.55553 88.3159 8.55553 88.3161 8.55553 88.3028C8.52896 88.1568 8.4891 88.0106 8.46253 87.8779C8.46253 87.8646 8.46253 87.8646 8.46253 87.8513C7.37321 86.9751 6.40346 86.0326 5.52669 85.0369C4.6632 84.0413 3.8927 82.9792 3.24177 81.8906C2.59083 80.7888 2.04617 79.6604 1.62107 78.4789C1.40851 77.8948 1.20922 77.2974 1.0498 76.6868C1.27564 77.6559 1.52806 78.6515 1.72732 79.4746C1.75389 79.5675 1.78046 79.6471 1.80703 79.74C1.82031 79.7931 1.83359 79.8329 1.84688 79.886C2.11257 80.7224 2.43139 81.5587 2.80336 82.3552C3.2816 83.2978 3.79971 84.2139 4.3975 85.0901Z" fill="#6D30FB"/>
</svg>
