<svg width="184" height="170" viewBox="0 0 184 170" fill="none" xmlns="http://www.w3.org/2000/svg">
<g opacity="0.9">
<path d="M171.689 103.885C171.647 103.997 171.577 104.096 171.507 104.208L171.493 104.236C170.946 105.037 170.26 105.781 169.448 106.427C167.823 107.719 165.708 108.717 163.103 109.279C161.45 109.63 159.601 109.84 157.584 109.869C144.797 109.995 128.55 102.902 117.148 92.943C114.375 90.5271 111.91 87.9426 109.837 85.2458C109.711 85.0772 109.585 84.9226 109.445 84.74C108.325 83.2512 107.372 81.7904 106.602 80.3717L107.05 80.1611C107.428 79.9925 107.848 79.838 108.268 79.6553C108.381 79.6273 108.493 79.5711 108.591 79.5149C110.159 78.8969 111.406 77.4501 112.246 75.2168C112.428 74.7252 112.582 74.1914 112.736 73.6296C112.75 73.6015 112.751 73.5594 112.765 73.5313C112.877 73.0116 112.989 72.4778 113.087 71.8879C113.213 71.0311 113.311 70.1181 113.381 69.1348C113.507 66.8453 113.409 64.317 113.101 61.6482C112.779 58.6424 112.19 55.468 111.392 52.1812C110.902 50.2007 110.341 48.178 109.711 46.1414C107.092 37.812 103.254 29.3282 98.7723 22.3052C97.8059 20.8022 96.7974 19.3555 95.7749 17.993C95.5228 17.6418 95.2567 17.2906 95.0046 16.9676C93.1418 14.5938 91.3349 12.6835 89.6121 11.2087C87.119 9.08774 84.822 7.87976 82.8192 7.59884C82.1328 7.51456 81.5026 7.52865 80.9143 7.64102H80.8723C80.34 7.85171 79.8218 8.06241 79.3036 8.25905C79.3876 8.21691 79.4716 8.16068 79.5557 8.11854C79.6257 8.09045 79.6958 8.0483 79.7658 8.02021L79.5557 8.10448C78.6033 8.49777 77.6648 8.87704 76.7684 9.27033L76.2362 9.49512C76.2222 9.49512 76.2222 9.49504 76.2222 9.50909H76.1802C74.4014 10.3097 72.0763 11.4616 70.2695 12.3043C70.5497 12.1779 70.8578 12.0936 71.18 12.0796C71.6842 12.0374 72.2445 12.1077 72.8607 12.3043C74.5555 12.8381 76.6704 14.3129 79.0375 16.7147C80.7182 18.3862 82.539 20.5072 84.4719 23.0777C84.5839 23.2181 84.6819 23.3867 84.794 23.5272C86.0265 25.1846 87.2311 26.9403 88.4357 28.7663C92.3294 34.8062 96.013 41.7028 99.0244 48.5011C99.9488 50.608 100.817 52.715 101.616 54.7938C102.974 58.3334 104.109 61.7466 104.949 64.921C105.649 67.5617 106.168 70.0338 106.42 72.2531C106.532 73.1802 106.602 74.0229 106.63 74.8235C106.658 75.9472 106.616 76.9305 106.49 77.7732C106.21 79.6554 105.537 80.8352 104.515 81.3409C104.515 81.3549 104.501 81.355 104.487 81.355C104.445 81.3831 104.389 81.4252 104.347 81.4392C105.285 83.2231 106.49 85.1193 107.974 87.0858C108.156 87.3246 108.353 87.5774 108.521 87.8022C119.221 101.567 139.194 114.153 153.621 116.133C155.091 116.344 156.45 116.428 157.697 116.386C159.924 116.344 161.772 115.936 163.243 115.206C164.167 114.757 164.938 114.167 165.554 113.464C165.68 113.324 165.806 113.155 165.932 113.001C165.946 112.987 165.96 112.959 165.974 112.931L166.478 112.2C166.492 112.186 166.506 112.172 166.52 112.158C166.605 112.06 166.66 111.933 166.731 111.835C166.745 111.821 166.759 111.821 166.759 111.807C167.179 111.203 167.627 110.529 168.089 109.841C168.621 109.012 169.168 108.141 169.686 107.256L170.134 106.554C170.204 106.427 170.274 106.315 170.344 106.203C170.428 106.076 170.484 105.964 170.568 105.851L171.157 104.812C171.339 104.517 171.493 104.222 171.661 103.955C171.843 103.66 171.997 103.365 172.165 103.084C172.207 103 172.249 102.902 172.291 102.831C172.249 102.902 172.207 102.944 172.179 103.014C172.123 103.126 172.053 103.225 171.997 103.337L172.389 102.649C172.389 102.635 172.403 102.635 172.403 102.621C172.249 102.902 172.095 103.169 171.941 103.449C171.843 103.618 171.773 103.758 171.689 103.885Z" fill="#6D30FB"/>
<path d="M48.2793 25.929L48.2933 25.915H48.2793C48.2793 25.915 48.2793 25.915 48.2793 25.929Z" fill="#6D30FB"/>
<path d="M156.072 125.291C155.526 125.741 154.783 126.022 153.845 126.106C152.71 126.204 151.324 126.022 149.643 125.558C148.803 125.319 147.878 125.01 146.898 124.617C141.505 122.468 134.937 118.338 128.368 113.197C124.53 110.192 120.678 106.849 117.093 103.351C112.723 99.1092 108.689 94.6567 105.439 90.3024C103.745 88.0269 102.344 85.934 101.28 84.0378C101.153 83.8271 101.041 83.6024 100.901 83.3917C100.901 83.3777 100.887 83.3776 100.887 83.3636C100.453 83.6445 99.9909 83.9114 99.6128 84.1361L99.5287 84.1783C99.2766 84.3468 98.9965 84.5294 98.6884 84.712C98.6464 84.7401 98.5903 84.7823 98.5483 84.7963C98.7584 84.6699 98.8705 84.3609 98.8705 83.8973C98.8705 83.476 98.7724 82.9282 98.5903 82.2399C98.4083 81.5938 98.1562 80.7932 97.82 79.8802C97.5679 79.234 97.2738 78.4896 96.9236 77.689C96.0272 75.6382 94.9067 73.2925 93.5621 70.7221C91.7553 67.2106 89.5703 63.3198 87.1752 59.2605C82.7633 51.802 77.5949 43.7957 72.6227 36.8008C71.4042 35.1012 70.2137 33.4578 69.0511 31.8846C67.7906 30.1991 66.6141 28.6821 65.5216 27.3618C62.9445 24.2014 60.8995 21.9961 59.4429 20.7741C58.9246 20.3527 58.4764 20.0437 58.0982 19.8752C57.7761 19.7066 57.51 19.6645 57.3279 19.7066C57.3139 19.7066 57.3 19.7066 57.3 19.7066C57.2159 19.7487 57.1318 19.805 57.0758 19.8471C57.0898 19.8331 57.1039 19.819 57.1179 19.8049C57.0058 19.8892 56.8937 19.9454 56.7817 20.0297C55.9273 20.5635 55.073 21.1112 54.3026 21.6309C54.2046 21.7152 54.0925 21.7714 53.9944 21.8416L53.8824 21.9259C52.972 22.5439 51.9356 23.2884 50.8991 24.0328C50.8851 24.0328 50.8851 24.0469 50.8711 24.0469C50.773 24.1171 50.675 24.1733 50.5909 24.2436C50.4929 24.3278 50.3949 24.384 50.2968 24.4542C49.9467 24.693 49.5965 24.9458 49.2603 25.1846C49.1483 25.2689 49.0503 25.3531 48.9522 25.4093C48.8822 25.4796 48.8261 25.5077 48.7561 25.5498C48.7281 25.5779 48.6861 25.6201 48.6581 25.6341C48.644 25.6482 48.6301 25.6481 48.6161 25.6621C48.5881 25.6902 48.546 25.7043 48.518 25.7324C48.476 25.7746 48.4199 25.8167 48.3779 25.8447L48.3359 25.8869C48.3639 25.915 48.5741 26.196 48.9803 26.7016C49.2884 27.109 49.7085 27.6427 50.2267 28.3309C51.6834 30.2272 53.9385 33.2331 56.9358 37.2221C57.426 37.8683 57.9162 38.5425 58.4345 39.2307C61.2637 42.9951 64.373 47.1527 67.5525 51.4087C69.5694 54.1196 71.6283 56.8726 73.6592 59.5835C77.9452 65.3424 82.091 70.9328 85.5505 75.5961C87.3854 78.0823 89.024 80.3156 90.4107 82.1838C90.9149 82.872 91.3631 83.4759 91.7553 84.0378C92.3155 84.7962 92.7918 85.4284 93.1699 85.9481C93.9823 87.0858 94.3745 87.6336 94.3745 87.6617C93.7442 88.1393 93.0019 88.7011 92.3996 89.1927C92.3016 89.277 92.2175 89.3613 92.1195 89.4174C92.1195 89.4315 92.1054 89.4315 92.0914 89.4456C92.0774 89.4596 92.0494 89.4736 92.0214 89.5158L92.0354 89.5298C92.7638 90.3867 93.5621 91.3418 94.4165 92.4233C95.453 93.7437 96.5875 95.2185 97.82 96.8338C99.1366 98.5755 100.481 100.43 101.84 102.326C106.658 109.068 111.686 116.639 116.098 123.718C118.549 127.651 120.79 131.429 122.709 134.843C124.222 137.525 125.524 139.969 126.547 142.076C126.911 142.821 127.233 143.509 127.499 144.127C127.975 145.195 128.312 146.079 128.536 146.782C128.858 147.821 128.928 148.481 128.746 148.748C128.732 148.776 128.704 148.79 128.69 148.804C128.956 148.636 129.222 148.453 129.474 148.299L130.048 147.92L130.118 147.877C132.009 146.571 134.376 144.829 136.379 143.355C136.743 143.088 137.093 142.821 137.43 142.582C137.416 142.582 137.402 142.568 137.402 142.568C137.262 142.498 136.897 142.104 136.323 141.444C135.833 140.882 135.203 140.124 134.446 139.197C134.012 138.663 133.536 138.087 133.018 137.455C131.393 135.447 129.432 132.988 127.261 130.221C122.695 124.434 117.177 117.327 111.742 110.234C111.714 110.192 111.672 110.149 111.644 110.107C107.666 104.924 103.731 99.7413 100.257 95.1061C99.7949 94.474 99.3326 93.8701 98.9125 93.3082C97.1337 90.9345 95.7471 89.0382 94.6266 87.5353C94.9347 87.3106 95.2428 87.0577 95.5649 86.833L96.4614 86.1869L96.9936 85.8076C97.0216 85.8076 97.0356 85.7936 97.0636 85.7795L97.1897 85.6953C97.3158 85.611 97.4278 85.5267 97.5399 85.4564C97.5539 85.4564 97.5539 85.4424 97.5679 85.4424C97.806 85.2738 98.0721 85.1053 98.3242 84.9367C99.5848 87.0577 101.28 89.5579 103.423 92.3812C104.627 93.9824 105.902 95.6259 107.26 97.2833C114.487 106.16 123.606 115.571 131.603 122.552C135.217 125.685 138.578 128.339 141.463 130.235C142.22 130.741 142.934 131.162 143.578 131.528C144.853 132.244 145.903 132.708 146.772 132.946C147.626 133.185 148.27 133.171 148.705 132.918C148.733 132.904 148.775 132.876 148.803 132.848C148.831 132.82 148.873 132.778 148.901 132.764L148.943 132.722L148.985 132.679L149.993 131.724L150.063 131.654C150.077 131.64 150.091 131.626 150.105 131.612C150.273 131.443 150.455 131.275 150.638 131.106C151.338 130.432 152.08 129.674 152.795 128.929C152.963 128.761 153.117 128.592 153.285 128.424C153.691 128.002 154.097 127.567 154.489 127.145C154.503 127.117 154.531 127.103 154.545 127.075C154.559 127.061 154.573 127.047 154.573 127.033L154.657 126.949C155.007 126.569 155.372 126.162 155.764 125.741C155.722 125.783 155.694 125.825 155.652 125.867C155.68 125.825 155.722 125.783 155.764 125.755C155.876 125.642 155.974 125.53 156.072 125.418C156.1 125.404 156.114 125.375 156.156 125.333C156.226 125.263 156.282 125.193 156.352 125.109C156.282 125.151 156.254 125.207 156.212 125.249C156.114 125.277 156.1 125.291 156.072 125.291Z" fill="#6D30FB"/>
<path d="M156.548 124.814C156.562 124.786 156.59 124.743 156.618 124.715C156.506 124.842 156.38 124.968 156.281 125.109C156.366 125.01 156.45 124.912 156.548 124.814Z" fill="#6D30FB"/>
<path d="M5.43484 134.126C5.51887 134.309 5.58888 134.477 5.67292 134.646C5.78497 134.857 5.88306 135.053 5.9811 135.25C5.65896 134.576 5.35077 133.887 5.05664 133.213C5.1827 133.522 5.30878 133.831 5.43484 134.126Z" fill="#6D30FB"/>
<path d="M76.8105 106.61C76.8386 106.792 76.8527 106.975 76.8808 107.158C76.8667 107.031 76.8526 106.877 76.8245 106.694L76.8105 106.61Z" fill="#6D30FB"/>
<path d="M183.79 57.7295C183.79 57.7015 183.79 57.6734 183.79 57.6312L183.776 57.5469C183.762 57.3924 183.762 57.2239 183.748 57.0834C183.72 56.7182 183.692 56.339 183.65 55.9317C183.622 55.5665 183.594 55.1872 183.552 54.822C183.552 54.8079 183.552 54.7799 183.552 54.7658C183.552 54.7799 183.552 54.7939 183.552 54.822C183.566 55.0467 183.58 55.2715 183.594 55.4822C183.664 56.5918 183.734 57.5188 183.776 58.3335C183.72 57.5188 183.664 56.5918 183.594 55.4822C184.042 63.8396 180.961 75.3575 164.363 84.2065C164.377 84.4313 164.391 84.656 164.434 84.8948C164.405 84.67 164.391 84.4453 164.349 84.2065C161.66 85.5268 158.859 86.5662 156.016 87.3388C151.856 88.4484 147.584 88.9962 143.396 88.9962C132.051 88.9962 121.154 85.0352 114.179 77.7032C114.487 77.6189 114.809 77.5627 115.103 77.4924L115.51 77.4082L115.524 77.3941C115.538 77.3941 115.538 77.3941 115.538 77.3941C115.636 77.3801 115.734 77.3661 115.832 77.352C123.885 84.0379 135.679 86.3695 147.346 83.9536C150.763 83.2513 154.181 82.1557 157.472 80.6247C159.265 79.7819 161.044 78.8268 162.781 77.7312C178.286 67.9551 184.813 51.2121 179.336 37.77C178.86 36.7306 178.482 35.8597 178.104 35.0732C178.076 35.0029 178.034 34.9327 177.992 34.8485C177.669 34.1321 177.347 33.4859 177.025 32.8539C176.633 32.1094 176.255 31.365 175.779 30.5644C175.582 30.2554 175.4 29.9323 175.218 29.6092C174.896 29.1035 174.574 28.5698 174.196 27.9799C176.619 32.1375 177.837 36.7868 177.922 41.5906C177.992 45.2847 177.389 49.0771 176.171 52.7853C173.594 60.5809 168.299 68.0534 160.624 73.714C159.195 74.7675 157.724 75.7226 156.226 76.5935C153.481 78.1807 150.623 79.4449 147.724 80.414C136.673 84.0379 125.202 82.8862 116.868 77.1694H116.798C117.134 77.0992 117.499 77.0429 117.835 76.9587C125.944 81.0742 136.141 80.8494 145.679 76.3125C148.046 75.1748 150.371 73.7983 152.612 72.1409C153.845 71.2279 155.049 70.2447 156.226 69.1772C160.428 65.3566 163.789 60.904 166.254 56.1564C172.221 44.6948 172.963 31.5476 167.599 21.5608C166.955 20.3388 166.212 19.173 165.372 18.0774C163.887 16.0829 162.178 14.3833 160.302 12.9646C158.649 11.7426 156.338 10.2537 154.601 9.13004C154.601 9.13004 154.601 9.13004 154.587 9.13004C154.573 9.116 154.573 9.11597 154.559 9.10192C153.943 8.75077 153.327 8.3856 152.752 8.07658C152.5 7.93612 152.248 7.79561 151.996 7.66919C151.912 7.62705 151.814 7.5709 151.716 7.52877C151.324 7.33212 150.917 7.12144 150.511 6.92479L150.385 6.84052C150.343 6.82647 150.301 6.81239 150.273 6.79834C150.231 6.7843 150.175 6.75622 150.133 6.72813C150.007 6.6579 149.895 6.61575 149.755 6.54552C149.769 6.55957 149.783 6.5596 149.811 6.57364C149.797 6.5596 149.783 6.55957 149.769 6.54552C149.657 6.48934 149.545 6.43316 149.433 6.37698C149.461 6.39102 149.489 6.40511 149.517 6.41915C149.419 6.37702 149.307 6.32078 149.209 6.27864C149.195 6.2646 149.181 6.26458 149.167 6.26458C148.873 6.12412 148.564 5.99775 148.256 5.87134C148.256 5.87134 148.27 5.87135 148.27 5.8854C148.816 6.12418 149.377 6.37698 149.923 6.64385C150.217 6.79836 150.511 6.95289 150.819 7.1074C153.299 8.48392 155.582 10.338 157.57 12.6556C157.977 13.1051 158.369 13.5826 158.733 14.0742C166.899 24.974 166.955 41.6327 159.937 55.5665C157.921 59.5696 155.315 63.3621 152.15 66.7191H152.136L152.122 66.7331C151.1 67.8428 150.049 68.826 148.971 69.7671C147.08 71.4245 145.119 72.8151 143.102 74.009C134.852 78.8549 125.846 79.8522 118.227 76.8744C121.112 76.0457 123.787 74.2197 126.098 71.3402C127.009 70.2306 127.835 68.9664 128.606 67.5618C129.124 66.6067 129.614 65.5813 130.076 64.4998C130.034 64.4998 129.978 64.5138 129.936 64.5138C129.978 64.4998 130.034 64.4998 130.076 64.4857C131.113 61.9855 131.911 59.2606 132.457 56.4092C133.088 53.1786 133.41 49.7935 133.466 46.3241C133.48 44.1048 133.396 41.8434 133.186 39.5961C132.373 30.733 129.782 21.8558 125.664 14.7204C124.81 13.2174 123.871 11.7988 122.863 10.4504C122.527 10.015 122.177 9.57946 121.84 9.15808C119.922 6.82642 117.891 4.97233 115.818 3.62391C113.241 1.92433 110.607 0.997298 108.03 0.828745C107.372 0.800653 106.7 0.80068 106.055 0.856865C105.845 0.870911 105.635 0.898986 105.425 0.927078L101.055 1.67156L100.929 1.6996C100.845 1.71364 100.747 1.72773 100.677 1.74178C100.579 1.75582 100.481 1.76982 100.397 1.78387C98.7302 2.13502 96.7133 2.62664 95.0605 3.01993C95.7889 2.89352 96.5312 2.83737 97.2876 2.87951C99.6826 2.99188 102.246 3.96101 104.823 5.8151C106.658 7.10734 108.493 8.86315 110.313 11.0403C110.762 11.574 111.224 12.15 111.658 12.7399C112.316 13.5967 112.947 14.5238 113.563 15.4649C118.465 23.0076 121.967 32.6994 123.591 42.2788C123.969 44.4419 124.236 46.591 124.404 48.726C124.656 51.9988 124.698 55.1873 124.446 58.2212C124.236 60.9321 123.815 63.5306 123.171 65.9044V65.9184C122.877 66.9719 122.555 67.9692 122.191 68.8822C121.658 70.2446 121.056 71.4666 120.384 72.5341C118.619 75.3433 116.392 77.0992 113.885 77.7874L113.843 77.8014C113.801 77.8155 113.759 77.8155 113.717 77.8295C113.465 77.8998 113.185 77.97 112.89 78.0543C112.876 78.0684 112.863 78.0683 112.863 78.0683C118.395 84.8245 126.981 89.4457 136.463 91.4543C141.449 92.5077 146.66 92.8448 151.828 92.3813C156.17 91.9739 160.456 91.0048 164.504 89.4316C175.989 84.5857 182.277 77.3519 183.734 67.3652C183.748 67.2528 183.762 67.1404 183.776 67.0281C183.776 66.9859 183.776 66.9298 183.79 66.8876C183.804 66.3539 183.832 65.8061 183.86 65.2161C183.86 65.0476 183.874 64.9071 183.874 64.7667V64.6543C183.916 63.6991 183.93 62.8985 183.958 62.1962C183.944 62.9406 183.916 63.7694 183.888 64.7667C183.888 64.7526 183.888 64.7526 183.888 64.7385C183.944 63.7975 183.972 62.8845 184 62.0558C183.944 60.7495 183.874 59.1061 183.79 57.7295Z" fill="#6D30FB"/>
<path d="M117.036 147.695C116.686 145.504 116.084 143.06 115.3 140.419C114.347 137.244 113.101 133.775 111.644 130.221C110.538 127.581 109.347 124.884 108.045 122.187C105.383 116.681 102.344 111.147 99.1505 106.132C97.8339 104.082 96.5174 102.129 95.1868 100.275C94.8646 99.8256 94.5285 99.3762 94.2063 98.9408C92.3435 96.4406 90.5788 94.3617 88.982 92.7043L88.6739 92.3952L88.814 92.2548C88.3798 92.6621 87.4833 92.5778 86.1247 91.9598C85.4664 91.6508 84.6961 91.2295 83.8277 90.6817C83.2114 90.2884 82.5391 89.8388 81.8248 89.3191H81.8108C79.2477 87.465 76.3064 85.007 73.127 82.1135C64.8213 74.5707 55.0729 64.1345 47.4815 54.5831C46.4591 53.3049 45.4786 52.0127 44.5402 50.7907C41.6969 46.9982 39.5819 43.8239 38.2233 41.3658C37.5931 40.214 37.1169 39.2027 36.8088 38.3599C36.3326 37.0958 36.2625 36.1968 36.5566 35.7333C36.5706 35.7052 36.5706 35.6911 36.5846 35.663C36.6126 35.6349 36.6687 35.5788 36.7107 35.5366C36.6267 35.6069 36.5706 35.6631 36.4866 35.7333L35.4221 36.7586L33.9795 38.1211C33.7974 38.3037 33.6013 38.4722 33.4192 38.6689C33.4052 38.6689 33.4053 38.6689 33.3913 38.6829C32.9851 39.0903 32.5788 39.4976 32.2007 39.9049C31.3743 40.7477 30.534 41.6186 29.7916 42.4052C29.6096 42.6159 29.4134 42.8125 29.2314 43.0092C29.1613 43.0794 29.0913 43.1496 29.0213 43.2339C28.9793 43.276 28.9373 43.3322 28.9092 43.3744C28.8812 43.3884 28.8672 43.4165 28.8392 43.4446C28.0969 44.484 28.0968 46.1836 28.8532 48.4591C29.2593 49.7092 29.9037 51.1418 30.7581 52.715C31.9206 54.8219 33.4753 57.2098 35.4642 59.8504C38.0693 63.3339 41.1646 66.9296 44.5261 70.4271C49.3863 75.5118 54.7928 80.4139 60.1012 84.5856C65.8717 89.1365 71.5582 92.8167 76.2503 94.8955H76.2643C77.2168 95.3169 78.0712 95.654 78.8975 95.9349C80.0741 96.3282 81.1105 96.5529 82.0209 96.6372C83.5616 96.7776 84.654 96.4686 85.3263 95.7663L85.3404 95.7523C85.3824 95.7242 85.4244 95.668 85.4524 95.6399C85.5225 95.5697 85.5785 95.5135 85.6485 95.4433L86.1247 94.9516L86.6289 94.4319C88.0435 95.7944 89.5142 97.4518 91.0269 99.4042C91.223 99.6571 91.4191 99.924 91.6292 100.205C92.6656 101.595 93.6881 103.084 94.6825 104.615C99.1365 111.526 103.002 119.827 105.761 127.946C106.448 129.955 107.05 131.949 107.596 133.916C108.507 137.273 109.193 140.559 109.613 143.607C109.991 146.234 110.145 148.72 110.103 150.982C110.089 151.895 110.019 152.751 109.921 153.552C109.781 154.886 109.529 156.038 109.193 157.021C108.563 158.918 107.61 160.224 106.392 160.898C106.35 160.912 106.294 160.94 106.252 160.968C106.014 161.067 105.747 161.179 105.495 161.277C105.635 161.235 105.804 161.179 105.944 161.137L107.722 160.364H107.736C107.736 160.364 107.736 160.35 107.75 160.35C109.823 159.423 112.428 158.145 114.627 157.05C115.006 156.867 115.342 156.712 115.678 156.544C115.79 156.474 115.888 156.417 116 156.333C116.714 155.785 117.163 154.76 117.345 153.243C117.443 152.372 117.443 151.333 117.345 150.111C117.275 149.352 117.177 148.566 117.036 147.695Z" fill="#6D30FB"/>
<path d="M100.159 130.783C98.3942 121.555 94.9206 112.228 90.2285 104.826C89.5002 103.674 88.7299 102.55 87.9315 101.497C87.8895 101.511 87.8615 101.511 87.8195 101.525C87.7774 101.539 87.7494 101.539 87.7074 101.553C87.7774 101.539 87.8615 101.511 87.9315 101.483C87.5394 100.949 87.1331 100.444 86.741 99.966C85.8726 98.9125 85.0042 97.9574 84.1358 97.1006C83.9817 97.2691 83.8417 97.4377 83.7016 97.5922C83.6876 97.6062 83.6736 97.6203 83.6596 97.6343C83.6316 97.6624 83.6176 97.6905 83.5896 97.7186C83.5755 97.7327 83.5616 97.7467 83.5616 97.7607C83.5476 97.7748 83.5195 97.8028 83.5055 97.8309C83.4915 97.845 83.4775 97.8591 83.4635 97.8872C83.4635 97.9012 83.4495 97.9012 83.4495 97.9152C83.1974 98.2242 82.9173 98.5754 82.6512 98.9125C83.1554 99.4463 83.6596 100.008 84.1639 100.612C84.556 101.09 84.9482 101.581 85.3403 102.101C85.4104 102.087 85.4944 102.073 85.5645 102.059C85.5365 102.059 85.5084 102.073 85.4944 102.073C85.4524 102.087 85.3964 102.087 85.3544 102.101C86.2087 103.253 87.0351 104.461 87.7914 105.739C92.2034 113.057 95.0466 122.285 95.9991 131.485C96.2092 133.55 96.3352 135.601 96.3632 137.638C96.4053 141.177 96.1532 144.633 95.5929 147.919C95.1027 150.785 94.3884 153.496 93.422 156.01C93.52 155.996 93.6041 155.982 93.7021 155.954C93.6041 155.968 93.506 155.996 93.422 156.01C93.0158 157.063 92.5816 158.047 92.1054 158.96C91.321 160.491 90.4666 161.853 89.5282 163.033C87.2732 165.898 84.598 167.696 81.7407 168.413L81.4607 168.455C80.9424 168.539 80.4241 168.637 79.9199 168.722C80.2141 168.694 80.5082 168.665 80.8023 168.609C80.8023 168.609 80.8023 168.609 80.8163 168.609H80.8583L83.0994 168.202C83.1554 168.188 83.2114 168.174 83.2674 168.16C83.2954 168.16 83.3235 168.146 83.3515 168.146C83.4075 168.132 83.4495 168.132 83.5055 168.118C83.7716 168.062 84.0518 168.005 84.3459 167.935C85.1163 167.781 85.8866 167.626 86.6429 167.457C87.5673 167.247 88.5058 167.022 89.3322 166.797C89.5142 166.741 89.6963 166.699 89.8644 166.643C90.2006 166.544 90.5086 166.46 90.8308 166.362C90.9008 166.348 90.9709 166.32 91.0409 166.306C91.377 166.207 91.7412 166.109 92.0914 166.011C92.2034 165.969 92.3014 165.941 92.4135 165.898C92.4275 165.898 92.4555 165.884 92.4695 165.87C94.5005 165.07 96.2933 163.482 97.7359 161.081C98.4222 159.957 99.0245 158.651 99.5427 157.176C99.8368 156.319 100.117 155.392 100.355 154.423C100.257 154.451 100.159 154.479 100.075 154.493C100.173 154.465 100.271 154.437 100.355 154.409C100.943 152.007 101.293 149.408 101.433 146.655C101.588 143.481 101.476 140.11 101.083 136.668C100.831 134.716 100.537 132.75 100.159 130.783Z" fill="#6D30FB"/>
<path d="M84.0791 156.81C85.6338 154.128 86.8803 151.248 87.8607 148.186C89.1073 144.31 89.9056 140.208 90.2418 136.036C90.4659 133.143 90.4939 130.221 90.3118 127.342C89.8776 120.895 88.365 114.616 85.8299 109.166C84.9195 107.186 83.8689 105.318 82.6924 103.59C82.3983 103.183 82.1322 102.789 81.838 102.41C81.5299 102.003 81.2218 101.609 80.8997 101.23C80.9977 101.118 81.0817 100.991 81.1517 100.879L81.3198 100.64C80.6195 101.595 79.6391 102.354 78.3645 102.859C77.7202 103.112 77.0059 103.309 76.2215 103.463C76.1375 103.463 76.0815 103.477 76.0115 103.492C75.1991 103.604 74.3447 103.674 73.3923 103.66C72.1598 103.66 70.8152 103.534 69.3585 103.281C54.9881 100.837 34.8051 87.4508 24.2724 73.4328C23.8943 72.9271 23.5441 72.4496 23.2079 71.958C21.5552 69.5842 20.3087 67.3649 19.4543 65.3422C17.7595 61.2829 17.5914 57.954 18.908 55.6505C18.95 55.5521 19.0201 55.4538 19.0901 55.3555L17.2973 57.8698L17.1993 58.0102C17.1853 58.0242 17.1712 58.0383 17.1572 58.0804C17.1432 58.1085 17.1152 58.1507 17.0732 58.1928C16.7651 58.6423 16.4569 59.1339 16.1208 59.6395C15.7006 60.2716 15.2524 60.9599 14.8042 61.6341C14.328 62.3786 13.8798 63.137 13.4316 63.8955C13.4036 63.9377 13.3896 63.9798 13.3476 64.0079L13.2775 64.1343C13.2635 64.1624 13.2495 64.1764 13.2355 64.2186C13.2215 64.2467 13.1935 64.3029 13.1655 64.331C13.1515 64.345 13.1514 64.3591 13.1374 64.3591C13.1094 64.4293 13.0954 64.4714 13.0534 64.5276C13.0394 64.5276 13.0394 64.5417 13.0394 64.5417C12.9553 64.7102 12.8713 64.8506 12.8013 65.0192C10.9525 68.7133 11.5687 73.8121 14.8882 79.6131C15.6446 80.9335 16.5269 82.2538 17.5634 83.6444C18.7819 85.2737 20.1406 86.8609 21.6252 88.406C32.9563 100.219 51.2625 109.321 65.2407 109.573C67.2856 109.616 69.1204 109.461 70.7732 109.138C73.3083 108.632 75.3672 107.719 76.9359 106.469C76.9499 106.455 76.9639 106.441 77.0059 106.427C80.4794 119.35 73.9246 134.59 59.6522 143.874V143.888C57.8874 145.04 56.0526 146.051 54.2038 146.936C51.1784 148.369 48.069 149.45 44.9316 150.195C30.7573 153.524 16.2748 149.703 8.50138 139.351C7.67501 138.242 6.94669 137.09 6.31641 135.91C6.62454 136.542 6.91865 137.09 7.17077 137.595C7.81505 138.817 8.34733 139.773 8.96361 140.756C9.76196 142.02 10.6723 143.34 12.0589 145.335C12.0729 145.349 12.073 145.363 12.087 145.377C12.115 145.405 12.129 145.447 12.185 145.489C12.4652 145.84 12.7732 146.248 13.0954 146.641C13.2915 146.88 13.5016 147.133 13.7117 147.357C22.1434 156.853 36.5138 159.255 50.0579 154.31C52.635 153.369 55.1702 152.147 57.6493 150.686C59.12 149.787 60.5766 148.818 61.9912 147.737C61.9492 147.695 61.9071 147.624 61.8651 147.554C62.5935 147.652 63.2098 146.487 63.77 146.023L65.0866 144.871C65.2267 144.745 65.3808 144.618 65.5208 144.478C65.7589 144.267 65.969 144.043 66.2071 143.818C66.2491 143.79 66.3051 143.734 66.3471 143.691C66.5572 143.481 66.7673 143.284 66.9774 143.073L67.1595 142.891C67.2996 142.722 67.4677 142.568 67.6077 142.413C67.6918 142.329 67.7758 142.231 67.8318 142.16C67.9579 142.034 68.084 141.88 68.224 141.753C68.3081 141.655 68.3921 141.57 68.4621 141.472C68.5742 141.346 68.7002 141.219 68.8123 141.065C68.8963 140.981 68.9803 140.882 69.0503 140.784C69.1624 140.657 69.2744 140.503 69.3865 140.377C69.4705 140.278 69.5546 140.194 69.6246 140.096C69.6527 140.068 69.6667 140.025 69.7087 139.983C69.8067 139.885 69.8907 139.773 69.9608 139.674C70.0308 139.576 70.1008 139.492 70.1708 139.393C70.2969 139.253 70.4089 139.098 70.521 138.944C70.591 138.86 70.647 138.775 70.7171 138.705C70.8571 138.508 71.0112 138.312 71.1513 138.115C71.1793 138.087 71.2213 138.031 71.2353 138.003C71.3754 137.792 71.5294 137.595 71.6695 137.385C71.6975 137.357 71.7395 137.315 71.7535 137.286C71.7955 137.216 71.8516 137.146 71.8936 137.076C71.9357 137.005 71.9776 136.949 72.0197 136.879C72.0337 136.865 72.0477 136.837 72.0898 136.795C72.1178 136.753 72.1598 136.696 72.1738 136.654C72.2018 136.626 72.2158 136.584 72.2438 136.57C72.3138 136.472 72.3699 136.373 72.4259 136.289C72.5099 136.177 72.5939 136.064 72.6499 135.952C72.664 135.924 72.6779 135.882 72.72 135.854C72.72 135.854 72.72 135.84 72.734 135.84C72.748 135.798 72.776 135.741 72.818 135.699C72.846 135.657 72.8881 135.601 72.9161 135.559C73.0141 135.418 73.0982 135.264 73.1962 135.123C73.2102 135.095 73.2382 135.039 73.2662 135.011C73.2662 135.011 73.2803 134.997 73.2803 134.983C73.3083 134.941 73.3503 134.87 73.3783 134.814C73.4763 134.674 73.5604 134.519 73.6304 134.379C73.7004 134.281 73.7425 134.182 73.8125 134.084C73.8265 134.056 73.8545 134.014 73.8825 133.972C73.8965 133.958 73.9105 133.929 73.9105 133.901C73.9386 133.859 73.9806 133.803 74.0086 133.733C74.0226 133.705 74.0506 133.649 74.0786 133.606C74.1486 133.508 74.1907 133.41 74.2467 133.311C74.2747 133.269 74.2887 133.227 74.3307 133.185C74.3447 133.157 74.3587 133.101 74.3727 133.073C74.4147 133.002 74.4568 132.946 74.4848 132.876C74.4988 132.862 74.4988 132.848 74.5128 132.834C74.5408 132.736 74.5968 132.651 74.6388 132.581C74.6528 132.553 74.6669 132.497 74.7089 132.469C74.7509 132.37 74.8069 132.272 74.8489 132.174C74.877 132.103 74.919 132.033 74.961 131.963C74.961 131.935 74.975 131.921 74.989 131.879C74.989 131.865 75.003 131.851 75.017 131.837C75.031 131.808 75.0451 131.766 75.0591 131.738C75.1011 131.626 75.1571 131.513 75.1991 131.415C75.2411 131.303 75.3111 131.19 75.3672 131.078C75.3672 131.078 75.3812 131.064 75.3812 131.05C75.3952 131.022 75.4092 131.008 75.4092 130.966C75.4512 130.867 75.5072 130.769 75.5493 130.671C75.5633 130.629 75.5772 130.572 75.6193 130.544C75.6333 130.46 75.6613 130.376 75.7173 130.32C75.7173 130.305 75.7313 130.277 75.7313 130.249C75.7453 130.221 75.7454 130.207 75.7594 130.179C75.7734 130.137 75.7874 130.095 75.8014 130.067C75.8294 130.025 75.8434 129.968 75.8714 129.926C75.9414 129.8 75.9834 129.687 76.0394 129.547C76.0534 129.505 76.0815 129.435 76.1095 129.378C76.1376 129.308 76.1515 129.266 76.1796 129.21C76.1936 129.196 76.2076 129.182 76.2076 129.168C76.2076 129.154 76.2075 129.14 76.2215 129.126C76.2355 129.098 76.2496 129.041 76.2636 129.013C76.2916 128.943 76.3056 128.887 76.3336 128.817C76.3476 128.803 76.3476 128.789 76.3476 128.774C76.3756 128.732 76.4176 128.662 76.4317 128.592C76.4457 128.522 76.4737 128.48 76.5017 128.409C76.5297 128.311 76.5857 128.213 76.6137 128.1C76.6418 128.058 76.6557 127.988 76.6838 127.918C76.6978 127.876 76.7258 127.833 76.7538 127.791C76.7678 127.749 76.7678 127.707 76.7818 127.665C76.8238 127.552 76.8659 127.44 76.9079 127.328C76.9359 127.229 76.9779 127.131 77.0059 127.019C77.0199 127.005 77.0199 127.005 77.0199 126.991C77.0899 126.794 77.16 126.583 77.216 126.387C77.244 126.288 77.258 126.19 77.3 126.092C77.314 126.064 77.3281 126.05 77.3281 126.021C77.3701 125.839 77.4261 125.684 77.4681 125.516C77.4821 125.474 77.4962 125.418 77.5102 125.375C77.5242 125.333 77.5241 125.291 77.5381 125.249C77.6081 125.038 77.6782 124.813 77.7342 124.603C77.7622 124.49 77.8043 124.392 77.8183 124.294C77.9023 124.013 77.9583 123.76 78.0144 123.493C78.0564 123.353 78.0984 123.198 78.1124 123.058C78.1965 122.805 78.2385 122.538 78.2805 122.285C78.2945 122.173 78.3225 122.06 78.3505 121.948C78.3505 121.934 78.3505 121.92 78.3645 121.878C78.3785 121.751 78.4065 121.625 78.4345 121.485C78.5046 121.232 78.5326 120.951 78.5606 120.684C78.5746 120.642 78.5746 120.586 78.5746 120.544C78.6026 120.375 78.6167 120.234 78.6447 120.066C78.6447 120.038 78.6447 119.982 78.6587 119.954C78.6587 119.911 78.6726 119.855 78.6726 119.813C78.6866 119.701 78.7007 119.574 78.7147 119.434L78.7567 118.9C78.7707 118.858 78.7707 118.816 78.7707 118.774V118.76C78.7847 118.717 78.7847 118.675 78.7847 118.633C78.7847 118.605 78.7847 118.563 78.7987 118.549V118.38C78.8127 118.31 78.8127 118.268 78.8127 118.198C78.8267 118.113 78.8268 118.057 78.8268 117.973C78.8268 117.931 78.8407 117.875 78.8407 117.804V117.664C78.8547 117.58 78.8547 117.495 78.8547 117.439V117.355C78.8687 117.313 78.8687 117.243 78.8687 117.186V116.976V116.934C78.8827 116.863 78.8827 116.807 78.8827 116.737V116.526C78.8827 116.512 78.8827 116.512 78.8827 116.512V116.414C78.8827 116.33 78.8968 116.231 78.8968 116.133V115.332C78.8968 115.262 78.8968 115.22 78.8827 115.15V114.644C78.8687 114.616 78.8687 114.56 78.8687 114.532V114.405C78.8687 114.321 78.8547 114.223 78.8547 114.124V114.04C78.8547 114.012 78.8547 114.012 78.8407 113.998C78.8407 113.984 78.8407 113.984 78.8407 113.984C78.8547 113.97 78.8407 113.956 78.8407 113.914V113.745C78.8407 113.717 78.8408 113.675 78.8268 113.647C78.8268 113.647 78.8268 113.647 78.8268 113.633C78.8268 113.563 78.8267 113.506 78.8127 113.422C78.8127 113.338 78.8127 113.282 78.7987 113.197C78.7987 113.127 78.7987 113.071 78.7847 112.987V112.916C78.7847 112.888 78.7707 112.846 78.7707 112.818V112.72C78.7567 112.706 78.7567 112.678 78.7567 112.621C78.7567 112.593 78.7567 112.551 78.7427 112.523C78.7427 112.509 78.7427 112.509 78.7427 112.495C78.7287 112.411 78.7287 112.312 78.7147 112.242V112.158C78.7007 112.06 78.6866 111.961 78.6726 111.863V111.751C78.6586 111.708 78.6587 111.652 78.6447 111.61C78.6447 111.568 78.6447 111.526 78.6306 111.484C78.6306 111.456 78.6306 111.414 78.6166 111.385C78.6166 111.301 78.6026 111.203 78.5886 111.133C78.5886 111.119 78.5886 111.09 78.5746 111.062C78.5606 110.95 78.5466 110.852 78.5326 110.739C78.5326 110.725 78.5326 110.725 78.5326 110.725C78.5326 110.697 78.5186 110.683 78.5186 110.641C78.5186 110.627 78.5186 110.627 78.5186 110.613C78.5046 110.543 78.4906 110.472 78.4766 110.388C78.4626 110.262 78.4346 110.135 78.3926 109.995C78.3926 109.953 78.3785 109.896 78.3785 109.854C78.3645 109.826 78.3645 109.77 78.3505 109.742C78.3505 109.7 78.3365 109.644 78.3365 109.602C78.3085 109.489 78.2945 109.391 78.2524 109.278C78.2384 109.208 78.2384 109.166 78.2244 109.096C78.2104 109.054 78.1964 108.998 78.1824 108.927C78.1684 108.857 78.1544 108.801 78.1404 108.731C78.1404 108.689 78.1264 108.646 78.1124 108.604C78.1124 108.576 78.0984 108.52 78.0984 108.492C78.0704 108.394 78.0564 108.295 78.0144 108.197C77.9864 108.085 77.9443 107.972 77.9163 107.86C77.9163 107.846 77.9163 107.832 77.9023 107.818C77.9023 107.776 77.8883 107.705 77.8743 107.649C77.8602 107.635 77.8603 107.607 77.8603 107.607C77.8603 107.593 77.8603 107.579 77.8463 107.565L77.8323 107.551C77.8323 107.537 77.8323 107.509 77.8183 107.481C77.7762 107.298 77.7202 107.143 77.6502 106.961L77.7763 106.68L78.3085 105.627C82.9866 115.655 81.9922 128.508 76.1095 139.702C73.7425 144.211 70.577 148.439 66.6693 152.105C65.5067 153.144 64.3442 154.1 63.1677 154.999C61.1088 156.558 59.0219 157.892 56.921 158.988C46.5704 164.438 35.8415 164.466 26.3453 158.805C26.2893 158.763 26.2193 158.735 26.1632 158.693C26.2473 158.749 26.3313 158.805 26.4153 158.861C26.6955 159.058 26.9756 159.241 27.2277 159.423C27.3398 159.507 27.4658 159.578 27.5919 159.662C27.6479 159.704 27.7039 159.732 27.774 159.774C27.886 159.844 27.9981 159.915 28.1101 159.985C28.5723 160.28 29.0206 160.547 29.4547 160.8C29.5108 160.842 29.5808 160.87 29.6368 160.912C30.1271 161.193 30.7013 161.516 31.2755 161.839C31.2895 161.853 31.3175 161.867 31.3315 161.867C31.7517 162.092 32.1719 162.317 32.5921 162.527C33.3905 162.949 34.1328 163.314 35.0712 163.735C35.5894 163.96 36.1497 164.213 36.822 164.508C36.864 164.522 36.906 164.55 36.9621 164.564C36.9341 164.55 36.9061 164.536 36.8921 164.536C36.3878 164.325 35.8836 164.086 35.3934 163.834C36.5559 164.325 37.8164 164.845 39.049 165.336C46.2762 167.612 54.5539 166.404 62.1453 161.783C64.1482 160.561 66.109 159.114 67.9858 157.415C69.0083 156.487 70.0168 155.504 70.9832 154.437C74.0646 151.052 76.5997 147.259 78.5466 143.242C81.8661 136.402 83.5188 128.943 83.4067 121.808C83.3787 120.094 83.2527 118.408 83.0146 116.751C82.3983 112.355 81.0397 108.197 78.9387 104.517C79.0648 104.292 79.1909 104.081 79.3169 103.871C79.3449 103.857 79.345 103.829 79.359 103.8C79.429 103.702 79.485 103.604 79.541 103.506L80.0313 102.747C80.8296 103.829 81.5579 105.008 82.2022 106.202C84.0791 109.63 85.4237 113.45 86.236 117.495C86.3621 118.198 86.4882 118.886 86.6142 119.602C87.3285 124.195 87.3706 129.013 86.7823 133.789C86.194 138.368 85.0315 142.905 83.2807 147.175C81.9361 150.448 80.2414 153.566 78.1965 156.403C77.3981 157.513 76.5717 158.552 75.7313 159.507C74.2747 161.165 72.748 162.612 71.1653 163.834C65.7869 168.033 59.7922 169.873 54.0636 169.227C55.1701 169.368 56.2907 169.508 57.3552 169.621H57.3971C57.5092 169.635 57.6073 169.649 57.7053 169.649C57.9434 169.677 58.1955 169.691 58.4196 169.733C58.5457 169.733 58.6717 169.747 58.8118 169.747C59.386 169.789 59.9743 169.831 60.5766 169.873C61.2909 169.916 61.9912 169.958 62.6215 169.972C62.6495 169.972 62.6916 169.972 62.7196 169.972C62.8316 169.972 62.9296 169.972 63.0417 169.986C63.1257 169.986 63.2098 169.986 63.2938 169.986C63.3918 169.986 63.4759 169.986 63.5739 169.986C63.77 169.986 63.9801 170 64.1622 170C64.3022 170 64.4423 170 64.5823 170C64.6384 170 64.7084 170 64.7644 170C64.7784 170 64.7925 170 64.8065 170H65.2267C65.6048 170 65.969 169.986 66.3331 169.958C70.591 169.635 74.7789 167.696 78.5045 164.213C79.7791 163.005 81.0117 161.614 82.1742 160.027C82.7344 158.988 83.4068 157.92 84.0791 156.81Z" fill="#6D30FB"/>
<path d="M6.24697 135.784C6.26102 135.812 6.27502 135.84 6.28906 135.854C6.24693 135.784 6.2189 135.7 6.17676 135.629C6.1908 135.686 6.21888 135.728 6.24697 135.784Z" fill="#6D30FB"/>
<path d="M173.047 26.21C173.453 26.7999 173.831 27.3899 174.195 28.0079C173.859 27.4601 173.481 26.8701 173.047 26.21Z" fill="#6D30FB"/>
<path d="M176.212 90.3865C173.075 93.5329 168.621 95.9909 162.962 97.3955C162.948 97.4236 162.948 97.4517 162.934 97.4938C162.948 97.4658 162.948 97.4377 162.962 97.3955C155.819 99.1794 147.864 99.0109 140.202 97.2832C134.306 95.9488 128.577 93.6874 123.549 90.6675C118.745 87.774 114.557 84.1922 111.461 80.0627C111.461 80.0767 111.461 80.0767 111.447 80.0907C111.447 80.0767 111.447 80.0767 111.447 80.0627C111.125 79.6413 110.831 79.2199 110.537 78.7844C110.201 78.8968 109.823 79.0372 109.36 79.2058C109.136 79.2901 108.912 79.3884 108.66 79.4867C109.234 80.4419 109.879 81.397 110.607 82.3662C110.621 82.324 110.649 82.2819 110.663 82.2398C110.649 82.2819 110.635 82.324 110.607 82.3662C112.148 84.4169 113.954 86.3834 115.957 88.2235C119.165 91.1591 122.877 93.7997 126.882 96.019C137.471 101.904 150.105 104.98 160.721 103.534C164.097 103.07 167.01 102.185 169.447 100.949C172.417 99.4463 174.658 97.4096 176.114 95.0217C176.156 94.9515 176.198 94.8954 176.226 94.8251C176.38 94.5723 176.52 94.3054 176.646 94.0525C176.688 93.9823 176.716 93.9121 176.758 93.8419C176.829 93.6874 176.899 93.5329 176.969 93.3784C176.969 93.3643 176.983 93.3503 176.983 93.3363C177.235 92.6901 177.501 91.9878 177.781 91.2714C177.823 91.145 177.879 91.0186 177.921 90.8922C178.761 88.6588 179.644 86.1868 180.372 84.0096C180.386 83.9815 180.386 83.9534 180.4 83.9253C180.4 83.9394 180.386 83.9534 180.386 83.9674C179.532 86.2991 178.117 88.4763 176.212 90.3865Z" fill="#6D30FB"/>
<path d="M36.9485 142.61C41.1784 142.54 45.4643 141.922 49.6241 140.714C52.4254 139.899 55.1566 138.832 57.7898 137.483C70.7175 130.896 77.6786 119.532 76.9783 108.492C76.9503 108.141 76.9363 107.776 76.8803 107.439C76.8943 107.691 76.8943 107.944 76.9083 108.38C76.9083 108.38 76.9083 108.394 76.9083 108.408C75.4657 111.273 73.0426 113.731 69.6811 115.543C67.202 116.878 64.2046 117.861 60.7591 118.423H60.7451C50.5765 120.066 38.6432 117.594 28.3486 112.453C23.4744 110.037 18.9925 107.003 15.2528 103.506C13.404 101.806 11.7372 99.966 10.2946 98.0557C5.39237 91.5103 3.96377 85.0771 5.6025 79.7677C5.63051 79.6834 5.64451 79.5851 5.68653 79.5149C5.68653 79.5008 5.70055 79.4867 5.70055 79.4727C5.70055 79.4586 5.71457 79.4446 5.71457 79.4306C5.82662 79.1216 5.93867 78.8266 6.06473 78.5316C5.96668 78.7423 5.88263 78.9671 5.78458 79.1778C5.6025 79.6272 5.43442 80.0907 5.25234 80.5261C5.23833 80.5542 5.23831 80.5964 5.2243 80.6245C5.21029 80.6526 5.19635 80.6947 5.19635 80.7228C5.05628 81.1301 4.90221 81.5375 4.74814 81.9589C4.62208 82.296 4.51 82.6612 4.36994 83.0264C4.2719 83.3354 4.15989 83.6304 4.06184 83.8972C3.55762 85.358 2.99737 87.2683 2.57719 88.8415C2.54917 89.01 2.49312 89.1645 2.46511 89.305C2.45111 89.333 2.45108 89.3893 2.43707 89.4173C2.43707 89.4314 2.43707 89.4314 2.43707 89.4314C2.43707 89.4455 2.43707 89.4455 2.43707 89.4455C2.43707 89.4455 2.43707 89.4455 2.43707 89.4595C2.42307 89.4595 2.42305 89.4735 2.42305 89.4876C0.0980164 101.076 8.12359 112.158 20.4491 118.956C25.5193 121.752 31.304 123.83 37.4107 124.912C44.3438 126.148 51.655 126.134 58.7422 124.476H58.7562C66.4456 122.37 70.8436 118.83 73.4068 115.571C75.6057 112.748 76.4601 110.135 76.9083 108.759C76.8103 111.68 76.0399 115.74 73.2526 119.968C70.4654 124.224 65.6753 128.648 57.5517 132.328H57.5377C53.7 133.789 49.8062 134.744 45.9405 135.25C40.6041 135.966 35.3377 135.812 30.3655 134.955C14.0062 132.103 0.99444 121.302 0.084034 106.68C0.0700278 106.427 0.0700004 106.146 0.0559942 105.865V106.174C0.0559942 106.259 0.0420598 106.343 0.0420598 106.413V106.554C0.0280535 106.764 0.0280398 106.975 0.0280398 107.186L0 107.79C0 107.888 0.0140199 107.972 0.0140199 108.043C1.36783e-05 108.366 0 108.689 0 109.012C0.0140062 109.531 0.0279954 110.065 0.0700141 110.599C0.0840204 110.739 0.084034 110.908 0.084034 111.048C0.0980403 111.245 0.0980676 111.428 0.112074 111.596C0.112074 111.61 0.112074 111.61 0.112074 111.624V111.821C0.112074 111.933 0.112088 112.046 0.126094 112.158V112.27C0.1401 112.467 0.140042 112.65 0.154048 112.832C0.168054 113.029 0.182102 113.24 0.196108 113.464C0.196108 113.464 0.196108 113.478 0.196108 113.492C0.210114 113.619 0.224148 113.745 0.224148 113.872C0.238154 114.012 0.252116 114.167 0.266122 114.307C0.280128 114.448 0.294176 114.616 0.308182 114.757C0.322188 114.925 0.33615 115.08 0.350156 115.248C0.350156 115.262 0.364176 115.29 0.364176 115.332C0.378182 115.529 0.406178 115.726 0.43419 115.922C0.448196 116.063 0.462186 116.231 0.504204 116.372V116.442C0.504204 116.456 0.504204 116.456 0.504204 116.456C0.51821 116.583 0.532258 116.695 0.546264 116.835C0.546264 116.906 0.560284 116.948 0.560284 117.018V117.06L0.630298 117.467C0.630298 117.482 0.630298 117.481 0.630298 117.496C0.630298 117.524 0.644318 117.538 0.644318 117.566C1.23258 121.527 2.81529 125.389 5.46247 128.943C12.2555 138.017 24.3288 142.807 36.9485 142.61Z" fill="#6D30FB"/>
<path d="M122.807 0.0420937C122.919 0.0561398 123.031 0.0702271 123.143 0.0842732C125.972 0.435426 128.759 1.51693 131.393 3.28674C133.676 4.83181 135.847 6.89658 137.808 9.50916C138.046 9.83222 138.298 10.1975 138.536 10.5346C139.796 12.3325 140.903 14.2989 141.841 16.3777C144.376 21.9821 145.819 28.4293 146.099 35.0451C146.211 37.6857 146.141 40.3544 145.889 42.9951C145.497 47.0966 144.657 51.1418 143.382 54.9764C142.318 58.1368 140.945 61.1568 139.25 63.9238C138.592 65.0475 137.878 66.0869 137.135 67.0561C136.015 68.5309 134.824 69.8653 133.578 71.0312C129.166 75.1326 124.109 77.1693 119.095 77.0569C119.025 77.0429 118.955 77.0288 118.885 77.0288L119.081 77.0569H118.829C118.927 77.0569 119.053 77.0569 119.137 77.071C125.398 78.1806 132.135 76.3827 138.102 71.7756C139.656 70.5957 141.141 69.2051 142.57 67.6601C143.438 66.6909 144.278 65.6655 145.133 64.5559H145.147V64.5419C147.36 61.536 149.209 58.2492 150.665 54.7658C152.528 50.2991 153.747 45.5655 154.293 40.7899C155.357 31.7442 154.055 22.6142 150.301 15.24C149.447 13.5685 148.466 11.9813 147.374 10.5205C145.875 8.51193 144.222 6.84039 142.458 5.46387C139.67 3.30077 136.631 1.92428 133.438 1.27816C133.396 1.26411 133.326 1.25011 133.256 1.23606L132.317 1.09555C131.561 0.969137 130.79 0.814674 130.034 0.702305C129.656 0.660167 129.292 0.603931 128.956 0.561793C128.774 0.547747 128.577 0.533745 128.395 0.519699C127.359 0.393284 126.322 0.294903 125.272 0.19658C125.09 0.182534 124.894 0.182593 124.726 0.168546C124.432 0.140454 124.137 0.126425 123.829 0.098333C123.759 0.098333 123.689 0.0842732 123.619 0.0842732H123.437C123.185 0.0702271 122.905 0.0561398 122.625 0.0420937C122.401 0.0280476 122.149 0.0281059 121.896 0.0140598C121.504 0.0140598 121.084 0 120.678 0C121.028 0.0140461 121.406 0.0280476 121.798 0.0420937C122.107 0.0140015 122.471 0.0280476 122.807 0.0420937Z" fill="#6D30FB"/>
</g>
</svg>
