<svg width="74" height="74" viewBox="0 0 74 74" fill="none" xmlns="http://www.w3.org/2000/svg">
<path d="M24.6547 16.3858H11.2888C11.0926 16.3858 10.9043 16.3078 10.7656 16.169C10.6268 16.0302 10.5488 15.842 10.5488 15.6458C10.5488 15.4495 10.6268 15.2613 10.7656 15.1225C10.9043 14.9837 11.0926 14.9058 11.2888 14.9058H24.6547C24.851 14.9058 25.0392 14.9837 25.178 15.1225C25.3167 15.2613 25.3947 15.4495 25.3947 15.6458C25.3947 15.842 25.3167 16.0302 25.178 16.169C25.0392 16.3078 24.851 16.3858 24.6547 16.3858Z" fill="#E7F95D"/>
<path d="M24.3143 46.1247H10.1996C9.26129 46.1237 8.36171 45.7506 7.69817 45.0872C7.03463 44.4238 6.66133 43.5243 6.66016 42.586V14.5038C6.66133 13.5654 7.03461 12.6658 7.69813 12.0023C8.36164 11.3388 9.26122 10.9655 10.1996 10.9644H46.8858C47.8243 10.9653 48.7241 11.3385 49.3877 12.0021C50.0514 12.6656 50.4248 13.5653 50.426 14.5038V28.6148C50.426 28.8111 50.348 28.9993 50.2092 29.1381C50.0705 29.2769 49.8822 29.3548 49.686 29.3548C49.4897 29.3548 49.3015 29.2769 49.1627 29.1381C49.0239 28.9993 48.946 28.8111 48.946 28.6148V14.5038C48.9454 13.9576 48.7281 13.434 48.3419 13.0479C47.9556 12.6618 47.432 12.4447 46.8858 12.4444H10.1996C9.65356 12.4449 9.13008 12.6621 8.744 13.0482C8.35791 13.4343 8.14074 13.9578 8.14016 14.5038V42.586C8.14094 43.1319 8.35819 43.6552 8.74426 44.0411C9.13032 44.4271 9.65369 44.6441 10.1996 44.6447H24.3143C24.5106 44.6447 24.6988 44.7227 24.8376 44.8615C24.9764 45.0002 25.0543 45.1885 25.0543 45.3847C25.0543 45.581 24.9764 45.7692 24.8376 45.908C24.6988 46.0468 24.5106 46.1247 24.3143 46.1247Z" fill="#E7F95D"/>
<path d="M49.686 20.5386H7.40016C7.2039 20.5386 7.01567 20.4606 6.8769 20.3219C6.73812 20.1831 6.66016 19.9949 6.66016 19.7986C6.66016 19.6023 6.73812 19.4141 6.8769 19.2753C7.01567 19.1366 7.2039 19.0586 7.40016 19.0586H49.686C49.8822 19.0586 50.0705 19.1366 50.2092 19.2753C50.348 19.4141 50.426 19.6023 50.426 19.7986C50.426 19.9949 50.348 20.1831 50.2092 20.3219C50.0705 20.4606 49.8822 20.5386 49.686 20.5386Z" fill="#E7F95D"/>
<path d="M55.3428 54.5823H18.6566C17.7182 54.5813 16.8185 54.2081 16.1549 53.5445C15.4914 52.881 15.1182 51.9813 15.1172 51.0429V45.3848C15.1172 45.1886 15.1952 45.0003 15.3339 44.8616C15.4727 44.7228 15.6609 44.6448 15.8572 44.6448C16.0534 44.6448 16.2417 44.7228 16.3804 44.8616C16.5192 45.0003 16.5972 45.1886 16.5972 45.3848V51.0429C16.5978 51.5889 16.8149 52.1124 17.201 52.4984C17.5871 52.8845 18.1106 53.1017 18.6566 53.1023H55.3428C55.8889 53.1017 56.4123 52.8845 56.7984 52.4984C57.1845 52.1124 57.4017 51.5889 57.4023 51.0429V22.9576C57.4019 22.4115 57.1848 21.8878 56.7987 21.5016C56.4126 21.1153 55.889 20.8981 55.3428 20.8975H49.6856C49.4893 20.8975 49.3011 20.8195 49.1623 20.6807C49.0235 20.542 48.9455 20.3537 48.9455 20.1575C48.9455 19.9612 49.0235 19.773 49.1623 19.6342C49.3011 19.4954 49.4893 19.4175 49.6856 19.4175H55.3428C56.2813 19.4187 57.181 19.792 57.8446 20.4557C58.5081 21.1194 58.8813 22.0192 58.8823 22.9576V51.0429C58.8811 51.9812 58.5078 52.8808 57.8443 53.5443C57.1808 54.2078 56.2812 54.5811 55.3428 54.5823ZM46.8854 46.1248H24.3154C24.1191 46.1248 23.9309 46.0469 23.7921 45.9081C23.6534 45.7693 23.5754 45.5811 23.5754 45.3848C23.5754 45.1886 23.6534 45.0003 23.7921 44.8616C23.9309 44.7228 24.1191 44.6448 24.3154 44.6448H46.8854C47.4314 44.6444 47.955 44.4275 48.3412 44.0415C48.7274 43.6556 48.9448 43.1322 48.9455 42.5861V28.6149C48.9455 28.4187 49.0235 28.2305 49.1623 28.0917C49.3011 27.9529 49.4893 27.8749 49.6856 27.8749C49.8818 27.8749 50.07 27.9529 50.2088 28.0917C50.3476 28.2305 50.4255 28.4187 50.4255 28.6149V42.5861C50.4244 43.5246 50.051 44.4242 49.3873 45.0876C48.7236 45.751 47.8238 46.124 46.8854 46.1248Z" fill="#E7F95D"/>
<path d="M58.143 28.9956H49.6863C49.49 28.9956 49.3018 28.9177 49.163 28.7789C49.0243 28.6401 48.9463 28.4519 48.9463 28.2556C48.9463 28.0594 49.0243 27.8711 49.163 27.7324C49.3018 27.5936 49.49 27.5156 49.6863 27.5156H58.143C58.3393 27.5156 58.5275 27.5936 58.6663 27.7324C58.805 27.8711 58.883 28.0594 58.883 28.2556C58.883 28.4519 58.805 28.6401 58.6663 28.7789C58.5275 28.9177 58.3393 28.9956 58.143 28.9956Z" fill="#E7F95D"/>
<path d="M63.7999 63.0391H27.1136C26.1754 63.0381 25.2758 62.665 24.6122 62.0016C23.9487 61.3382 23.5754 60.4387 23.5742 59.5004V53.8423C23.5742 53.6461 23.6522 53.4579 23.791 53.3191C23.9297 53.1803 24.118 53.1023 24.3142 53.1023C24.5105 53.1023 24.6987 53.1803 24.8375 53.3191C24.9763 53.4579 25.0542 53.6461 25.0542 53.8423V59.5004C25.055 60.0463 25.2723 60.5696 25.6583 60.9555C26.0444 61.3414 26.5678 61.5585 27.1136 61.5591H63.7999C64.3459 61.5587 64.8694 61.3417 65.2557 60.9557C65.6419 60.5698 65.8593 60.0464 65.86 59.5004V31.4144C65.8595 30.8683 65.6422 30.3447 65.2559 29.9586C64.8697 29.5725 64.346 29.3554 63.7999 29.355H50.4259V42.5862C50.4247 43.5246 50.0513 44.4242 49.3876 45.0877C48.7239 45.7511 47.8241 46.1241 46.8857 46.1249H24.3157C24.1194 46.1249 23.9312 46.0469 23.7924 45.9081C23.6537 45.7694 23.5757 45.5811 23.5757 45.3849C23.5757 45.1886 23.6537 45.0004 23.7924 44.8616C23.9312 44.7228 24.1194 44.6449 24.3157 44.6449H46.8857C47.4317 44.6445 47.9553 44.4275 48.3415 44.0416C48.7277 43.6556 48.9451 43.1322 48.9459 42.5862V28.615C48.9459 28.4187 49.0238 28.2305 49.1626 28.0917C49.3014 27.953 49.4896 27.875 49.6859 27.875H63.7999C64.7384 27.876 65.6381 28.2492 66.3018 28.9127C66.9655 29.5762 67.3389 30.4759 67.34 31.4144V59.5004C67.3389 60.4388 66.9655 61.3384 66.3018 62.0018C65.6381 62.6652 64.7383 63.0383 63.7999 63.0391Z" fill="#E7F95D"/>
<path d="M66.5998 37.4522H58.1423C57.9461 37.4522 57.7579 37.3742 57.6191 37.2354C57.4803 37.0967 57.4023 36.9084 57.4023 36.7122C57.4023 36.5159 57.4803 36.3277 57.6191 36.1889C57.7579 36.0501 57.9461 35.9722 58.1423 35.9722H66.5998C66.7961 35.9722 66.9843 36.0501 67.1231 36.1889C67.2618 36.3277 67.3398 36.5159 67.3398 36.7122C67.3398 36.9084 67.2618 37.0967 67.1231 37.2354C66.9843 37.3742 66.7961 37.4522 66.5998 37.4522Z" fill="#E7F95D"/>
<path d="M33.6267 16.3858H30.2478C30.0516 16.3858 29.8633 16.3078 29.7246 16.169C29.5858 16.0302 29.5078 15.842 29.5078 15.6458C29.5078 15.4495 29.5858 15.2613 29.7246 15.1225C29.8633 14.9837 30.0516 14.9058 30.2478 14.9058H33.6267C33.8229 14.9058 34.0111 14.9837 34.1499 15.1225C34.2887 15.2613 34.3667 15.4495 34.3667 15.6458C34.3667 15.842 34.2887 16.0302 34.1499 16.169C34.0111 16.3078 33.8229 16.3858 33.6267 16.3858Z" fill="#E7F95D"/>
<path d="M40.1306 16.3858H36.7517C36.5555 16.3858 36.3672 16.3078 36.2285 16.169C36.0897 16.0302 36.0117 15.842 36.0117 15.6458C36.0117 15.4495 36.0897 15.2613 36.2285 15.1225C36.3672 14.9837 36.5555 14.9058 36.7517 14.9058H40.1306C40.3268 14.9058 40.515 14.9837 40.6538 15.1225C40.7926 15.2613 40.8706 15.4495 40.8706 15.6458C40.8706 15.842 40.7926 16.0302 40.6538 16.169C40.515 16.3078 40.3268 16.3858 40.1306 16.3858Z" fill="#E7F95D"/>
<path d="M46.3984 16.3858H43.0203C42.824 16.3858 42.6358 16.3078 42.497 16.169C42.3582 16.0302 42.2803 15.842 42.2803 15.6458C42.2803 15.4495 42.3582 15.2613 42.497 15.1225C42.6358 14.9837 42.824 14.9058 43.0203 14.9058H46.3984C46.5946 14.9058 46.7829 14.9837 46.9216 15.1225C47.0604 15.2613 47.1384 15.4495 47.1384 15.6458C47.1384 15.842 47.0604 16.0302 46.9216 16.169C46.7829 16.3078 46.5946 16.3858 46.3984 16.3858Z" fill="#E7F95D"/>
<path d="M55.6032 24.7373H52.2244C52.0281 24.7373 51.8399 24.6594 51.7011 24.5206C51.5623 24.3818 51.4844 24.1936 51.4844 23.9973C51.4844 23.8011 51.5623 23.6128 51.7011 23.4741C51.8399 23.3353 52.0281 23.2573 52.2244 23.2573H55.6032C55.7995 23.2573 55.9877 23.3353 56.1265 23.4741C56.2653 23.6128 56.3432 23.8011 56.3432 23.9973C56.3432 24.1936 56.2653 24.3818 56.1265 24.5206C55.9877 24.6594 55.7995 24.7373 55.6032 24.7373Z" fill="#E7F95D"/>
<path d="M64.0615 33.2119H60.6804C60.4842 33.2119 60.2959 33.134 60.1572 32.9952C60.0184 32.8564 59.9404 32.6682 59.9404 32.4719C59.9404 32.2757 60.0184 32.0875 60.1572 31.9487C60.2959 31.8099 60.4842 31.7319 60.6804 31.7319H64.0593C64.2555 31.7319 64.4438 31.8099 64.5825 31.9487C64.7213 32.0875 64.7993 32.2757 64.7993 32.4719C64.7993 32.6682 64.7213 32.8564 64.5825 32.9952C64.4438 33.134 64.2555 33.2119 64.0593 33.2119H64.0615Z" fill="#E7F95D"/>
</svg>
