<svg width="65" height="70" viewBox="0 0 65 70" fill="none" xmlns="http://www.w3.org/2000/svg">
<path fill-rule="evenodd" clip-rule="evenodd" d="M18.2488 67.8785C17.1385 67.8785 16.234 66.9732 16.234 65.8603C16.234 64.749 17.1385 63.8439 18.2488 63.8439C19.3591 63.8439 20.2725 64.7492 20.2725 65.8603C20.2725 66.9734 19.3591 67.8785 18.2488 67.8785ZM18.2488 2.12131C19.3591 2.12131 20.2725 3.02481 20.2725 4.13774C20.2725 5.24901 19.3591 6.15433 18.2488 6.15433C17.1385 6.15433 16.234 5.24901 16.234 4.13774C16.234 3.02481 17.1385 2.12131 18.2488 2.12131ZM18.2488 61.7225C17.0936 61.7225 16.0551 62.199 15.3028 62.9644L2.12213 55.4706V14.5274L15.3028 7.0354C16.0549 7.80006 17.0936 8.27564 18.2488 8.27564C20.5322 8.27564 22.3857 6.4185 22.3857 4.1379C22.3857 1.85548 20.5322 0.000164812 18.2488 0.000164812C15.5055 0.000164812 13.5606 2.61849 14.2463 5.19097L0.537253 12.9874C0.374477 13.0803 0.239088 13.2145 0.144758 13.3764C0.0504271 13.5383 0.000494094 13.7223 0 13.9097V56.0886C0.000173865 56.2761 0.049972 56.4602 0.144335 56.6222C0.238698 56.7842 0.374263 56.9183 0.537253 57.011L14.2463 64.8074C13.5606 67.3799 15.506 70 18.2488 70C20.5322 70 22.3857 68.1429 22.3857 65.8605C22.3857 63.5797 20.532 61.7225 18.2488 61.7225ZM45.989 67.8785C44.8787 67.8785 43.9742 66.9732 43.9742 65.8603C43.9742 64.749 44.8786 63.8439 45.989 63.8439C47.0995 63.8439 48.0038 64.7492 48.0038 65.8603C48.0038 66.9734 47.0993 67.8785 45.989 67.8785ZM45.989 6.15433C44.8787 6.15433 43.9742 5.24901 43.9742 4.13774C43.9742 3.02481 44.8786 2.12131 45.989 2.12131C47.0995 2.12131 48.0038 3.02481 48.0038 4.13774C48.0038 5.24901 47.0993 6.15433 45.989 6.15433ZM63.7006 12.9872L49.9915 5.1908C50.6774 2.61931 48.7328 0 45.989 0C43.7058 0 41.8521 1.85532 41.8521 4.13774C41.8521 6.41834 43.7056 8.27547 45.989 8.27547C47.1442 8.27547 48.1918 7.80006 48.9439 7.03524L62.1246 14.5273V55.4706L48.9439 62.9644C48.1918 62.1988 47.1442 61.7225 45.989 61.7225C43.7058 61.7225 41.8521 63.5797 41.8521 65.8603C41.8521 68.1427 43.7056 69.9998 45.989 69.9998C48.7323 69.9998 50.6774 67.3789 49.9915 64.8072L63.7006 57.0108C63.8659 56.9201 64.0039 56.7867 64.0999 56.6244C64.196 56.4622 64.2467 56.2771 64.2467 56.0885V13.9095C64.2467 13.5289 64.0407 13.177 63.7006 12.9872ZM32.1189 56.024L10.9959 45.5888L19.3233 41.477L31.6532 47.5668C31.9444 47.7142 32.2978 47.7119 32.5935 47.5668L44.9145 41.477L53.2419 45.5888L32.1189 56.024ZM10.9959 34.9994L19.3233 30.8876L31.6532 36.9764C31.9477 37.1247 32.2953 37.122 32.5935 36.9764L44.9145 30.8876L53.2419 34.9994L32.1189 45.433L10.9959 34.9994ZM10.9959 24.4092L32.1189 13.9757L53.2419 24.4092L32.1189 34.8428L10.9959 24.4092ZM56.6983 45.5888C56.6983 45.9935 56.4655 46.3607 56.1073 46.5406L32.5935 58.1578C32.2962 58.3011 31.9471 58.304 31.6532 58.156L8.13036 46.5406C7.34641 46.1501 7.34443 45.0285 8.13036 44.6386L16.9235 40.2941L8.13036 35.9504C7.34592 35.5606 7.34427 34.4392 8.13036 34.0476L16.9235 29.7039L8.13036 25.3594C7.34542 24.9702 7.34542 23.8484 8.13036 23.4594L31.6532 11.8422C31.7994 11.7697 31.9603 11.7321 32.1234 11.7321C32.2865 11.7321 32.4473 11.7697 32.5935 11.8422L56.1073 23.4594C56.8922 23.8485 56.8922 24.9702 56.1073 25.3594L47.3142 29.7039L56.1073 34.0476C56.8934 34.4392 56.8917 35.5606 56.1073 35.9504L47.3142 40.2941L56.1073 44.6386C56.4655 44.8169 56.6983 45.1858 56.6983 45.5888Z" fill="url(#paint0_linear_1618_7195)"/>
<defs>
<linearGradient id="paint0_linear_1618_7195" x1="0" y1="0" x2="61.5921" y2="29.8232" gradientUnits="userSpaceOnUse">
<stop offset="0.18" stop-color="#6D30FB"/>
<stop offset="1" stop-color="#C13DFF"/>
</linearGradient>
</defs>
</svg>
