<svg width="70" height="70" viewBox="0 0 70 70" fill="none" xmlns="http://www.w3.org/2000/svg">
<path d="M47.4681 36.2434V26.2484C47.4681 25.5857 47.2049 24.9501 46.7363 24.4815C46.2677 24.0129 45.6321 23.7496 44.9694 23.7496H34.9743C34.3116 23.7496 33.6761 24.0129 33.2075 24.4815C32.7388 24.9501 32.4756 25.5857 32.4756 26.2484V36.2434C32.4756 36.9061 32.7388 37.5417 33.2075 38.0103C33.6761 38.4789 34.3116 38.7422 34.9743 38.7422H44.9694C45.6321 38.7422 46.2677 38.4789 46.7363 38.0103C47.2049 37.5417 47.4681 36.9061 47.4681 36.2434ZM34.9743 26.2484H44.9694V36.2434H34.9743V26.2484Z" fill="url(#paint0_linear_1648_3260)"/>
<path d="M69.9563 28.7472C69.1192 13.6047 56.388 1.01094 40.9457 0.0739083C36.667 -0.221723 32.3735 0.371608 28.3354 1.81655C24.2973 3.26149 20.6021 5.52676 17.4823 8.46974C14.4762 11.2647 12.08 14.6506 10.4439 18.4152C8.80778 22.1797 7.9671 26.2417 7.97455 30.3464V37.1555C7.97521 37.3568 7.92355 37.5549 7.82462 37.7302L0.328346 51.4734C0.113287 51.8433 0 52.2636 0 52.6915C0 53.1194 0.113287 53.5397 0.328346 53.9097C0.547441 54.2892 0.862475 54.6044 1.24185 54.8236C1.62122 55.0429 2.05158 55.1586 2.48977 55.1591H7.98704V58.9072C8.03311 61.8829 9.257 64.719 11.3905 66.794C13.524 68.8689 16.393 70.0134 19.3689 69.9767H32.4749C34.7944 69.9767 37.0189 69.0553 38.659 67.4152C40.2991 65.775 41.2205 63.5505 41.2205 61.231V44.9891H47.4674C49.1242 44.9891 50.7131 44.331 51.8847 43.1594C53.0562 41.9879 53.7143 40.399 53.7143 38.7422V37.4928H57.4625C57.7938 37.4928 58.1116 37.3612 58.3459 37.1269C58.5802 36.8926 58.7119 36.5748 58.7119 36.2434C58.7119 35.9121 58.5802 35.5943 58.3459 35.36C58.1116 35.1257 57.7938 34.9941 57.4625 34.9941H53.7143V27.4978H57.4625C57.7938 27.4978 58.1116 27.3662 58.3459 27.1319C58.5802 26.8976 58.7119 26.5798 58.7119 26.2484C58.7119 25.9171 58.5802 25.5993 58.3459 25.365C58.1116 25.1307 57.7938 24.999 57.4625 24.999H53.7143V23.7497C53.7143 22.0929 53.0562 20.504 51.8847 19.3324C50.7131 18.1609 49.1242 17.5028 47.4674 17.5028H46.2181V13.7546C46.2181 13.4233 46.0864 13.1055 45.8521 12.8712C45.6178 12.6369 45.3 12.5052 44.9687 12.5052C44.6373 12.5052 44.3195 12.6369 44.0852 12.8712C43.8509 13.1055 43.7193 13.4233 43.7193 13.7546V17.5028H36.223V13.7546C36.223 13.4233 36.0914 13.1055 35.8571 12.8712C35.6228 12.6369 35.305 12.5052 34.9736 12.5052C34.6423 12.5052 34.3245 12.6369 34.0902 12.8712C33.8559 13.1055 33.7243 13.4233 33.7243 13.7546V17.5028H32.4749C30.8181 17.5028 29.2292 18.1609 28.0577 19.3324C26.8861 20.504 26.228 22.0929 26.228 23.7497V24.999H22.4798C22.1485 24.999 21.8307 25.1307 21.5964 25.365C21.3621 25.5993 21.2305 25.9171 21.2305 26.2484C21.2305 26.5798 21.3621 26.8976 21.5964 27.1319C21.8307 27.3662 22.1485 27.4978 22.4798 27.4978H26.228V34.9941H22.4798C22.1485 34.9941 21.8307 35.1257 21.5964 35.36C21.3621 35.5943 21.2305 35.9121 21.2305 36.2434C21.2305 36.5748 21.3621 36.8926 21.5964 37.1269C21.8307 37.3612 22.1485 37.4928 22.4798 37.4928H26.228V38.7422C26.228 40.399 26.8861 41.9879 28.0577 43.1594C29.2292 44.331 30.8181 44.9891 32.4749 44.9891H38.7218V61.231C38.7218 62.8878 38.0636 64.4767 36.8921 65.6483C35.7206 66.8198 34.1317 67.4779 32.4749 67.4779H19.3689C18.2172 67.4944 17.0737 67.2833 16.0039 66.8567C14.934 66.43 13.959 65.7963 13.1348 64.9918C12.3106 64.1873 11.6534 63.2279 11.2009 62.1687C10.7485 61.1096 10.5097 59.9714 10.4983 58.8197V55.0716C10.4983 54.4089 10.235 53.7733 9.76643 53.3047C9.29782 52.8361 8.66225 52.5728 7.99954 52.5728L2.48977 52.6478L9.98605 38.9046C10.2846 38.3606 10.4435 37.751 10.4483 37.1305V30.3464C10.4546 26.5923 11.2345 22.8798 12.7392 19.4405C14.2439 16.0012 16.4412 12.9088 19.194 10.3563C22.0584 7.6287 25.4563 5.5235 29.174 4.17319C32.8917 2.82287 36.8486 2.25666 40.7958 2.5102C54.9637 3.42225 66.6829 15.004 67.4575 28.8721C67.6595 32.5123 67.1313 36.1562 65.904 39.5892C64.6767 43.0222 62.7751 46.1751 60.3111 48.8622C58.4234 50.9321 57.3764 53.6321 57.375 56.4334V68.7273C57.375 69.0587 57.5066 69.3765 57.741 69.6108C57.9753 69.8451 58.293 69.9767 58.6244 69.9767C58.9558 69.9767 59.2735 69.8451 59.5078 69.6108C59.7421 69.3765 59.8738 69.0587 59.8738 68.7273V56.3959C59.8735 54.2139 60.689 52.1105 62.1601 50.4989C64.843 47.5753 66.9146 44.1451 68.2534 40.4098C69.5922 36.6745 70.1712 32.7093 69.9563 28.7472ZM28.7267 38.7422V23.7497C28.7267 22.7556 29.1216 21.8022 29.8245 21.0993C30.5275 20.3964 31.4808 20.0015 32.4749 20.0015H47.4674C48.4615 20.0015 49.4149 20.3964 50.1178 21.0993C50.8207 21.8022 51.2156 22.7556 51.2156 23.7497V38.7422C51.2156 39.7363 50.8207 40.6896 50.1178 41.3925C49.4149 42.0955 48.4615 42.4903 47.4674 42.4903H32.4749C31.4808 42.4903 30.5275 42.0955 29.8245 41.3925C29.1216 40.6896 28.7267 39.7363 28.7267 38.7422Z" fill="url(#paint1_linear_1648_3260)"/>
<defs>
<linearGradient id="paint0_linear_1648_3260" x1="32.4756" y1="23.7496" x2="46.3554" y2="31.0721" gradientUnits="userSpaceOnUse">
<stop offset="0.18" stop-color="#6D30FB"/>
<stop offset="1" stop-color="#C13DFF"/>
</linearGradient>
<linearGradient id="paint1_linear_1648_3260" x1="0" y1="0" x2="64.7955" y2="34.1948" gradientUnits="userSpaceOnUse">
<stop offset="0.18" stop-color="#6D30FB"/>
<stop offset="1" stop-color="#C13DFF"/>
</linearGradient>
</defs>
</svg>
