<svg width="154" height="170" viewBox="0 0 154 170" fill="none" xmlns="http://www.w3.org/2000/svg">
<g opacity="0.9">
<path d="M138.815 50.5628C139.434 51.4107 140.01 52.301 140.516 53.2337C148.75 44.6275 150.9 35.0605 146.586 26.313C145.574 24.5889 144.113 22.3562 143.003 20.7028C148.919 28.7578 147.485 41.0946 138.815 50.5628Z" fill="#6D30FB"/>
<path d="M142.385 57.3742C142.764 58.42 143.087 59.4939 143.354 60.6103C150.745 54.8305 153.738 47.1571 152.08 40.4587L152.052 40.3456C151.575 38.5509 150.816 36.1768 150.254 34.4104C152.909 41.6882 150.212 50.6052 142.385 57.3742Z" fill="#6D30FB"/>
<path d="M144.212 65.4576C144.352 66.6587 144.437 67.8882 144.479 69.1459C150.957 65.3162 154.189 59.9745 153.992 54.7175L153.893 52.4847L153.556 48.7399C154.259 54.6045 151.083 60.8648 144.212 65.4576Z" fill="#6D30FB"/>
<path d="M144.366 74.5301C144.268 75.8444 144.127 77.1869 143.944 78.5435C149.579 76.2542 152.713 72.693 153.233 68.7786L153.724 64.4543L153.851 62.9423C153.528 67.4078 150.338 71.6473 144.366 74.5301Z" fill="#6D30FB"/>
<path d="M142.905 84.3371C142.596 85.7361 142.231 87.1492 141.823 88.5765C146.699 87.5449 149.552 85.3969 150.31 82.6554C150.788 80.9455 151.336 78.642 151.772 76.918C151.041 80.1258 148.062 82.8108 142.905 84.3371Z" fill="#6D30FB"/>
<path d="M139.87 94.5968C139.336 96.0382 138.774 97.4938 138.155 98.9493C142.329 98.9917 144.788 97.9884 145.504 96.2643C146.207 94.5827 147.064 92.3075 147.724 90.6259C146.952 92.7597 144.324 94.2153 139.87 94.5968Z" fill="#6D30FB"/>
<path d="M135.331 105.068C134.6 106.524 133.827 107.98 132.998 109.435C136.511 110.453 138.492 110.424 138.97 109.562L141.907 104.065C141.303 105.266 139.125 105.676 135.331 105.068Z" fill="#6D30FB"/>
<path d="M126.422 119.723C129.274 121.645 130.694 122.507 130.764 122.394L131.41 121.489L134.403 117.094C134.136 117.504 132.478 117.01 129.345 115.469C128.417 116.897 127.434 118.31 126.422 119.723Z" fill="#6D30FB"/>
<path d="M118.512 129.544C120.676 132.385 121.42 134.08 120.915 134.617L123.247 131.961L125.228 129.601C125.341 129.149 124.526 128.117 121.968 125.517C121.449 126.153 120.915 126.789 120.381 127.41C119.762 128.145 119.13 128.852 118.512 129.544Z" fill="#6D30FB"/>
<path d="M109.996 145.428L114.184 141.57L114.647 141.118C115.547 140.242 115.252 138.108 113.509 134.716C112.301 135.889 111.078 137.02 109.842 138.108C111.275 141.895 111.219 144.354 109.996 145.428Z" fill="#6D30FB"/>
<path d="M100.891 145.089C101.495 149.837 100.511 153.031 98.3613 154.472C99.8789 153.441 101.818 151.985 103.308 150.911C105.036 149.597 105.612 146.714 104.657 142.376C103.392 143.323 102.141 144.227 100.891 145.089Z" fill="#6D30FB"/>
<path d="M91.8551 150.388C91.5178 156.196 89.3258 160.068 86.0518 161.679C87.6396 160.888 89.7051 159.743 91.2648 158.895C94.0471 157.327 95.6912 153.737 95.6209 148.382C94.3563 149.102 93.1057 149.781 91.8551 150.388Z" fill="#6D30FB"/>
<path d="M82.9885 153.964C81.485 160.959 77.7612 165.453 73.082 166.88C74.7401 166.371 76.9181 165.566 78.5481 164.986C84.8151 162.443 86.1079 155.603 86.6559 152.692C85.4194 153.158 84.1969 153.582 82.9885 153.964Z" fill="#6D30FB"/>
<path d="M77.9862 155.207C76.8059 155.433 75.6537 155.603 74.5155 155.716C71.5225 164.11 65.6771 169.085 59.2695 169.706L61.2226 169.48L65.1009 168.858C70.7496 167.813 75.6536 163.008 77.9862 155.207Z" fill="#6D30FB"/>
<path d="M69.8368 155.871C68.7548 155.829 67.6869 155.744 66.6471 155.589C61.7291 165.538 52.9749 170.653 44.7266 169.424C46.0053 169.607 47.7336 169.749 49.0263 169.89L50.8812 169.989C58.3566 170.272 65.7759 165.156 69.8368 155.871Z" fill="#6D30FB"/>
<path d="M62.4456 154.628C61.476 154.317 60.5486 153.95 59.6352 153.526C51.6539 165.128 40.5953 169.424 30.0566 165.029C31.8693 165.834 34.3283 166.767 36.1972 167.445C40.8483 168.788 52.7359 170.201 62.4456 154.628Z" fill="#6D30FB"/>
<path d="M56.0237 151.392C55.9254 151.321 55.827 151.251 55.7427 151.18C55.0261 150.643 54.3515 150.063 53.6911 149.442C44.6278 160.493 28.3561 165.933 16.8057 155.9C18.1406 157.129 19.9954 158.67 21.4006 159.814L22.0469 160.281C31.9533 167.502 47.101 163.559 56.0237 151.392Z" fill="#6D30FB"/>
<path d="M50.8528 146.135C50.2486 145.273 49.6865 144.382 49.1807 143.436C38.5857 153.851 21.9768 156.253 12.0985 148.82C9.96269 147.209 8.31863 145.273 7.15234 143.125C8.13596 144.863 9.56922 147.096 10.6652 148.777C11.7051 150.219 12.9698 151.533 14.4873 152.664C24.3516 160.083 40.6513 157.172 50.8528 146.135Z" fill="#6D30FB"/>
<path d="M47.3537 139.253C46.9884 138.207 46.6792 137.119 46.4123 136.002C35.171 144.693 18.0562 145.711 8.16385 138.264C4.74931 135.692 2.64154 132.455 1.8125 128.965L1.96705 129.615C2.3886 131.24 3.07714 133.388 3.56895 134.999C4.62282 137.995 6.60405 140.708 9.49868 142.885C19.391 150.332 36.3372 148.707 47.3537 139.253Z" fill="#6D30FB"/>
<path d="M6.99775 131.353C16.8901 138.8 34.1594 138.702 45.5834 131.127C45.4569 129.926 45.3726 128.696 45.3445 127.439C33.8644 134.151 16.5388 133.558 6.64646 126.11C2.30452 122.846 0.112413 118.804 0 114.72L0.126502 117.49L0.393486 120.67C0.829085 124.598 3.0071 128.357 6.99775 131.353Z" fill="#6D30FB"/>
<path d="M45.9353 117.999C34.5956 122.521 17.3825 120.161 7.49013 112.714C2.48776 108.94 0.309803 104.602 0.857815 100.645L0.295717 105.506L0.211411 106.467C-0.0977244 110.566 2.08032 114.847 6.84381 118.437C16.7361 125.884 34.0336 127.495 45.4716 122.04C45.5981 120.698 45.7526 119.355 45.9353 117.999Z" fill="#6D30FB"/>
<path d="M10.6093 98.4549C5.14326 94.3426 2.9371 90.1173 3.87856 86.7822C3.38675 88.4921 2.83874 90.7956 2.38909 92.5196C0.295404 104.871 27.8225 117.024 47.0311 112.205C47.3542 110.806 47.7196 109.379 48.1411 107.951C37.2933 110.142 20.4876 105.888 10.6093 98.4549Z" fill="#6D30FB"/>
<path d="M15.8922 83.7015C10.117 79.349 7.74223 75.5476 8.73989 73.1735C8.02326 74.8551 7.16615 77.1162 6.49167 78.812C5.4659 81.61 7.7563 85.6234 13.4191 89.8911C23.3114 97.3385 39.7377 102.723 50.1078 101.917C50.6418 100.462 51.2179 99.006 51.8502 97.5504C41.8876 97.3526 25.7845 91.1489 15.8922 83.7015Z" fill="#6D30FB"/>
<path d="M54.7175 91.4598C55.4622 90.0042 56.2492 88.5487 57.0642 87.0931C48.296 84.4647 33.1764 76.2966 23.2841 68.8493C17.3262 64.3695 14.6283 61.1616 15.345 59.9039L12.3801 65.4011C11.5089 67.1393 14.0662 70.6016 19.9538 75.0389C29.8321 82.4862 45.4013 89.8347 54.7175 91.4598Z" fill="#6D30FB"/>
<path d="M60.7593 81.0729C61.7007 79.6456 62.6702 78.2325 63.696 76.8193C56.4594 71.8026 42.5905 61.7127 32.6982 54.2653C26.67 49.7291 23.5225 47.2278 23.6068 47.1006L22.6091 48.4855L19.9534 52.3858C19.574 52.9794 22.5249 55.7774 28.5249 60.2995C38.4172 67.7327 52.8482 77.0454 60.7593 81.0729Z" fill="#6D30FB"/>
<path d="M68.1924 71.0253C68.614 70.5166 69.0355 70.022 69.4711 69.5132C70.2018 68.6654 70.9324 67.8316 71.6772 67.0261C66.2954 59.7483 53.9019 47.8071 44.0236 40.3598C38.0517 35.8659 34.3562 34.0288 33.5412 34.8909L30.7871 37.9998L29.1992 39.8793C29.6067 39.3988 33.0635 41.5044 39.0775 46.0266C48.9558 53.4739 61.9957 64.6661 68.1924 71.0253Z" fill="#6D30FB"/>
<path d="M76.666 61.8681C77.8744 60.6952 79.0969 59.5788 80.3334 58.5048C76.9611 49.2486 66.1975 35.7105 56.3192 28.2773C50.5019 23.8965 46.2864 22.6105 44.4737 24.165L39.8367 28.4045L39.8086 28.4327C41.1857 27.1044 45.2045 28.6023 51.1061 33.0538C60.9985 40.5011 72.4365 53.4033 76.666 61.8681Z" fill="#6D30FB"/>
<path d="M85.5459 54.2936C86.7965 53.3468 88.0472 52.4565 89.3118 51.6086C88.005 40.7555 78.9417 25.9174 69.0494 18.4842C63.5271 14.3295 58.9041 13.3544 56.136 15.1915C54.6184 16.209 52.6653 17.6645 51.1758 18.7244C53.5505 16.9438 58.0329 18.0178 63.6957 22.2856C73.588 29.7329 83.3679 44.0623 85.5459 54.2936Z" fill="#6D30FB"/>
<path d="M94.5678 48.344C95.8183 47.6374 97.083 46.9733 98.3336 46.3656C99.1205 34.2972 91.7433 18.484 81.865 11.0366C76.7643 7.20697 72.0009 6.33079 68.4739 8.05484C66.8861 8.83208 64.8205 9.97674 63.2607 10.7964C66.5067 8.98753 71.2421 9.86369 76.5395 13.8488C86.4037 21.2961 94.4975 36.7278 94.5678 48.344Z" fill="#6D30FB"/>
<path d="M89.2272 7.84307C99.1195 15.2904 105.513 31.5276 103.518 44.1189C104.754 43.6525 105.977 43.2427 107.185 42.8753C110.024 30.0014 104.319 13.524 94.4263 6.09077C89.9579 2.72745 85.3912 1.78063 81.4708 2.95355L81.1616 3.03834C79.5878 3.51881 77.5363 4.26779 75.9766 4.80479C79.7986 3.3775 84.4918 4.26778 89.2272 7.84307Z" fill="#6D30FB"/>
<path d="M101.508 4.36645C111.401 11.8138 116.178 28.5032 112.174 41.6597C113.34 41.4478 114.506 41.2923 115.644 41.1792C120.45 27.9097 116.319 11.1213 106.427 3.68812C102.843 0.988984 98.9932 -0.113268 95.3116 0.211759L92.7964 0.494408L89.4521 1.01727C93.3304 0.324822 97.5318 1.37055 101.508 4.36645Z" fill="#6D30FB"/>
<path d="M113.045 3.51875C122.937 10.9661 126.183 27.7686 120.31 41.0664C121.392 41.1088 122.445 41.2218 123.485 41.3773C130.103 28.1501 127.448 11.4042 117.555 3.95683C115.153 2.14798 112.553 1.05987 109.883 0.621793C108.422 0.40982 106.469 0.226088 104.993 0.0706407L103.687 0C106.89 0.169579 110.094 1.30009 113.045 3.51875Z" fill="#6D30FB"/>
<path d="M119.79 3.23592C119.34 3.03808 118.877 2.86846 118.413 2.71301C118.849 2.86846 119.312 3.05221 119.79 3.23592Z" fill="#6D30FB"/>
<path d="M127.659 42.3948C128.614 42.7198 129.556 43.1013 130.455 43.5253C138.689 30.8068 137.341 14.4566 127.448 7.00925C126.507 6.30267 125.537 5.70916 124.526 5.21456C123.134 4.57863 121.378 3.8579 119.79 3.25024C121.069 3.80138 122.305 4.52209 123.486 5.41238C133.378 12.8456 135.247 29.3937 127.659 42.3948Z" fill="#6D30FB"/>
<path d="M134.038 45.7016C134.052 45.7158 134.08 45.7299 134.094 45.744C134.881 46.3376 135.626 46.9876 136.342 47.6942C145.293 36.7281 145.687 22.441 137.663 14.5274C136.202 13.1566 134.164 11.4325 132.619 10.1607L132.492 10.0618C132.506 10.0759 132.52 10.09 132.534 10.09C142.413 17.5374 143.087 33.4778 134.038 45.7016Z" fill="#6D30FB"/>
</g>
</svg>
