<?xml version="1.0" encoding="UTF-8" standalone="no"?>
<!-- Created with Inkscape (http://www.inkscape.org/) -->

<svg
   width="49.676132mm"
   height="13.229233mm"
   viewBox="0 0 49.676132 13.229233"
   version="1.1"
   id="svg2347"
   xmlns:inkscape="http://www.inkscape.org/namespaces/inkscape"
   xmlns:sodipodi="http://sodipodi.sourceforge.net/DTD/sodipodi-0.dtd"
   xmlns="http://www.w3.org/2000/svg"
   xmlns:svg="http://www.w3.org/2000/svg">
  <sodipodi:namedview
     id="namedview2349"
     pagecolor="#ffffff"
     bordercolor="#000000"
     borderopacity="0.25"
     inkscape:showpageshadow="2"
     inkscape:pageopacity="0.0"
     inkscape:pagecheckerboard="0"
     inkscape:deskcolor="#d1d1d1"
     inkscape:document-units="mm"
     showgrid="false" />
  <defs
     id="defs2344">
    <rect
       x="43.949543"
       y="2.8352153"
       width="176.74301"
       height="125.76271"
       id="rect417-3" />
  </defs>
  <g
     inkscape:label="Capa 1"
     inkscape:groupmode="layer"
     id="layer1"
     transform="translate(-148.80593,-101.69796)">
    <path
       d="m 158.16448,111.50555 c -0.23386,-0.52628 -0.58901,-0.95805 -1.00179,-1.34784 -0.37857,-0.35795 -0.7973,-0.61777 -1.26019,-0.76652 -0.61147,0.60375 -1.43801,0.95761 -2.33203,0.95761 -0.89779,0 -1.72731,-0.35645 -2.33945,-0.96459 -0.0624,0.0211 -0.1243,0.0442 -0.18505,0.0721 -0.97029,0.44566 -1.67945,1.15909 -2.11425,2.14982 -0.11923,0.27159 -0.14255,0.55695 -0.11584,0.84841 0.016,0.17539 0.0707,0.33168 0.26328,0.43934 0.51115,-0.36147 0.78007,-0.95787 1.24749,-1.39702 0.032,0.13173 0.0567,0.23481 0.0815,0.33779 0.14603,0.60814 0.3828,1.17483 0.73973,1.68849 0.43197,0.6219 0.97781,1.10749 1.70825,1.3017 1.11545,0.29673 2.05546,-0.0654 2.82302,-0.90898 0.44185,-0.48567 0.75007,-1.0559 0.93504,-1.69193 0.0681,-0.23415 0.13239,-0.46942 0.20621,-0.73176 0.0845,0.0965 0.15598,0.1732 0.22199,0.25477 0.23394,0.28908 0.46217,0.58322 0.70072,0.86828 0.0934,0.11158 0.1855,0.23749 0.36502,0.25956 0.15655,-0.12935 0.20508,-0.28686 0.21786,-0.46408 0.0227,-0.31631 -0.0333,-0.61674 -0.16153,-0.90517 z"
       fill="#6d30fb"
       id="path4"
       style="stroke-width:0.264583" />
    <path
       d="m 150.07837,105.59056 c -0.11613,0.0927 -0.2,0.25926 -0.25116,0.49686 -0.12957,0.19383 -0.20583,0.42741 -0.20583,0.6795 0,0.25297 0.0763,0.48789 0.20659,0.68239 0.0532,0.23357 0.15138,0.45691 0.33164,0.54348 0.0522,0.025 0.10785,0.0373 0.16615,0.0373 0.0807,0 0.16737,-0.0254 0.25914,-0.0719 0.006,0.001 0.0122,0.002 0.0183,0.003 0.46864,1.201 1.62002,2.0538 2.9668,2.0538 1.34255,0 2.49066,-0.84764 2.96231,-2.04282 0.0125,-0.002 0.0249,-0.005 0.0373,-0.007 0.0862,0.0418 0.16811,0.0651 0.24418,0.0651 0.0589,0 0.11454,-0.0124 0.16643,-0.0374 0.17904,-0.0859 0.27712,-0.30647 0.33062,-0.53782 0.13248,-0.19976 0.20817,-0.44127 0.20346,-0.70035 -0.004,-0.23853 -0.0767,-0.45911 -0.19708,-0.64434 -0.0505,-0.24993 -0.13568,-0.42437 -0.25557,-0.5198 -0.0299,-0.0237 -0.0591,-0.0399 -0.0865,-0.0517 l -0.17029,-2.26312 c 0.24053,-0.0167 0.4286,-0.22191 0.42407,-0.46953 -0.005,-0.25554 -0.2124,-0.45874 -0.46384,-0.45406 -0.25143,0.005 -0.45154,0.21562 -0.4469,0.47116 0.004,0.24771 0.19981,0.44565 0.44079,0.45329 l -0.0887,2.2911 c -0.0183,0.0106 -0.0366,0.0223 -0.0547,0.0351 -0.0257,-0.007 -0.0518,-0.0125 -0.0782,-0.0175 -0.41543,-1.06794 -1.3702,-1.85837 -2.52368,-2.02239 v -0.1538 c 0.26903,-0.15964 0.45249,-0.45282 0.45249,-0.79157 0,-0.50717 -0.40584,-0.91958 -0.90522,-0.91958 -0.49884,0 -0.90503,0.41241 -0.90503,0.91958 0,0.33177 0.17621,0.62066 0.43619,0.7823 v 0.16842 c -1.13437,0.17386 -2.07165,0.95426 -2.48501,2.00585 -0.0307,0.006 -0.061,0.0117 -0.0908,0.0195 -0.0248,-0.0172 -0.0497,-0.032 -0.0743,-0.0441 l -0.12939,-2.27229 c 0.24062,-0.0122 0.43216,-0.21371 0.43216,-0.46123 0,-0.25544 -0.20376,-0.46236 -0.4551,-0.46236 -0.25115,0 -0.4551,0.20692 -0.4551,0.46236 0,0.24752 0.19172,0.44909 0.43216,0.46123 l -0.12948,2.27526 c -0.019,0.0101 -0.0386,0.0221 -0.0589,0.0381 z m 3.01402,-1.81594 c 0.0664,-0.0111 0.13266,-0.022 0.20085,-0.0282 v -0.20443 -0.26395 c -0.0744,-0.0313 -0.14201,-0.0771 -0.20085,-0.13126 -0.14322,-0.13117 -0.23471,-0.31879 -0.23471,-0.52924 0,-0.39435 0.31604,-0.71524 0.70353,-0.71524 0.38835,0 0.70411,0.32089 0.70411,0.71524 0,0.21828 -0.0989,0.41193 -0.25136,0.54318 -0.0598,0.0514 -0.12647,0.0937 -0.2015,0.12276 v 0.25669 0.20444 c 0.068,0.006 0.13483,0.0148 0.2015,0.0248 1.10503,0.16803 2.01279,0.95013 2.37575,1.99428 0.0601,0.29644 0.0946,0.60137 0.10022,0.91329 0.007,0.37944 -0.0295,0.75039 -0.10324,1.10948 -0.006,0.0169 -0.0119,0.0339 -0.0183,0.0508 -0.42596,1.15133 -1.51773,1.97403 -2.79821,1.97403 -1.25566,0 -2.32977,-0.79148 -2.77255,-1.90784 -0.0998,-0.39645 -0.15374,-0.80914 -0.15374,-1.23348 0,-0.2504 0.0188,-0.49657 0.0544,-0.7379 0.0129,-0.0466 0.0265,-0.0928 0.0419,-0.13832 0.35176,-1.04855 1.2518,-1.83839 2.35215,-2.01914 z"
       fill="#6d30fb"
       id="path6"
       style="stroke-width:0.264583" />
    <path
       d="m 154.93424,108.23321 -0.0262,0.0125 c -0.002,9.5e-4 -0.0362,0.025 -0.10342,0.0646 -0.0683,0.0414 -0.16915,0.0955 -0.29366,0.15611 -0.12526,0.0583 -0.27427,0.12292 -0.43855,0.17452 -0.0822,0.0278 -0.16785,0.0524 -0.25641,0.071 -0.0878,0.0246 -0.17856,0.033 -0.27006,0.0477 -0.091,0.0112 -0.18288,0.0119 -0.27363,0.0152 -0.0887,-0.01 -0.18015,-0.006 -0.26403,-0.0265 -0.0832,-0.0215 -0.16981,-0.028 -0.24193,-0.063 -0.0719,-0.0329 -0.14989,-0.0486 -0.20696,-0.0908 -0.0614,-0.0367 -0.11671,-0.0704 -0.16616,-0.10009 -0.045,-0.0364 -0.0823,-0.0709 -0.11414,-0.0983 -0.0631,-0.0556 -0.0998,-0.0875 -0.0998,-0.0875 0,0 0.0315,0.0364 0.0876,0.10002 0.0285,0.0314 0.0614,0.0718 0.10258,0.11483 0.0466,0.0374 0.0996,0.0796 0.15703,0.12562 0.0546,0.0516 0.13118,0.0785 0.2032,0.12332 0.0733,0.0473 0.16126,0.0668 0.24815,0.10155 0.088,0.0334 0.18449,0.0433 0.2804,0.0664 0.097,0.01 0.19717,0.0222 0.29658,0.0235 0.0991,-0.002 0.20074,10e-4 0.29712,-0.0124 0.0984,-0.007 0.19397,-0.0212 0.28612,-0.0392 0.18402,-0.032 0.35243,-0.0796 0.49517,-0.12456 0.14274,-0.0468 0.2598,-0.0911 0.34105,-0.12695 0.0419,-0.0184 0.0751,-0.0331 0.0977,-0.0429 0.0208,-0.0101 0.0321,-0.0156 0.0321,-0.0156 l 10e-4,-3e-4 c 0.10033,-0.0479 0.14282,-0.16928 0.096,-0.27111 -0.0472,-0.10192 -0.16701,-0.14539 -0.26704,-0.0976 z"
       fill="#ffffff"
       id="path8"
       style="stroke-width:0.264583" />
    <path
       d="m 153.54462,108.21374 c 1.39814,0 2.53129,-0.69366 2.53129,-1.54961 0,-0.85574 -1.13315,-1.5494 -2.53129,-1.5494 -1.39716,0 -2.53004,0.69366 -2.53004,1.5494 -9e-5,0.85595 1.13288,1.54961 2.53004,1.54961 z m 1.05164,-2.15977 c 0.33144,0 0.60055,0.27313 0.60055,0.61016 0,0.33724 -0.269,0.61026 -0.60055,0.61026 -0.33166,0 -0.60058,-0.27302 -0.60058,-0.61026 0,-0.33703 0.26884,-0.61016 0.60058,-0.61016 z m -2.05896,0.0224 c 0.33202,0 0.60055,0.27313 0.60055,0.61016 0,0.33702 -0.26853,0.61026 -0.60055,0.61026 -0.33203,0 -0.60085,-0.27324 -0.60085,-0.61026 0,-0.33703 0.26893,-0.61016 0.60085,-0.61016 z"
       fill="#ffffff"
       id="path10"
       style="stroke-width:0.264583" />
    <path
       d="m 152.72952,106.99396 c 0.16737,-0.10795 0.21656,-0.33293 0.11067,-0.5025 -0.10589,-0.16965 -0.32724,-0.21981 -0.49458,-0.11215 -0.16693,0.10776 -0.21646,0.33263 -0.11042,0.50268 0.10637,0.16938 0.32761,0.21973 0.49433,0.11197 z m -0.40556,-0.45225 c 0.0648,-0.0414 0.14923,-0.0221 0.19032,0.043 0.0402,0.065 0.0215,0.15142 -0.0427,0.19278 -0.064,0.0414 -0.14915,0.0219 -0.19005,-0.0429 -0.0404,-0.0652 -0.0214,-0.15171 0.0424,-0.19288 z"
       fill="#6d30fb"
       id="path12"
       style="stroke-width:0.264583" />
    <path
       d="m 154.37504,106.94991 c 0.15515,0.12438 0.38052,0.0974 0.50268,-0.0605 0.12242,-0.15772 0.0961,-0.3865 -0.0598,-0.51107 -0.15513,-0.12438 -0.38026,-0.0974 -0.50268,0.0605 -0.12261,0.15782 -0.0962,0.38679 0.0598,0.5111 z m 0.25397,-0.39378 c 0.0472,-0.0606 0.1337,-0.071 0.19294,-0.0232 0.0597,0.0476 0.0699,0.13557 0.0231,0.19642 -0.0471,0.0604 -0.1338,0.0706 -0.19304,0.0229 -0.0598,-0.0476 -0.07,-0.13544 -0.023,-0.19611 z"
       fill="#6d30fb"
       id="path14"
       style="stroke-width:0.264583" />
    <path
       d="m 154.03735,102.60384 c 0,-0.2651 -0.2113,-0.47985 -0.47241,-0.47985 -0.26075,0 -0.47194,0.21475 -0.47194,0.47985 0,0.26481 0.21119,0.47966 0.47194,0.47966 0.26104,0 0.47241,-0.21485 0.47241,-0.47966 z"
       fill="#ffffff"
       id="path16"
       style="stroke-width:0.264583" />
    <text
       xml:space="preserve"
       id="text415"
       style="font-style:normal;font-variant:normal;font-weight:normal;font-stretch:normal;font-size:42.6667px;font-family:'Rounded Mplus 1c Bold';-inkscape-font-specification:'Rounded Mplus 1c Bold, ';text-align:center;white-space:pre;shape-inside:url(#rect417-3);display:inline;fill:#ffffff;stroke:#ffffff;stroke-opacity:1"
       transform="matrix(0.26458333,0,0,0.26458333,143.55459,100.43838)"><tspan
         x="53.846716"
         y="44.862635"
         id="tspan2818"><tspan
           style="font-size:37.3333px"
           id="tspan2816">BUCKAPI</tspan></tspan></text>
  </g>
</svg>
