<svg width="159" height="50" viewBox="0 0 159 50" fill="none" xmlns="http://www.w3.org/2000/svg">
<path d="M46.64 39V11H58.8C60.56 11 62.0933 11.3067 63.4 11.92C64.7067 12.5333 65.72 13.4 66.44 14.52C67.16 15.64 67.52 16.96 67.52 18.48V18.96C67.52 20.64 67.12 22 66.32 23.04C65.52 24.08 64.5333 24.84 63.36 25.32V26.04C64.4267 26.0933 65.2533 26.4667 65.84 27.16C66.4267 27.8267 66.72 28.72 66.72 29.84V39H61.44V30.6C61.44 29.96 61.2667 29.44 60.92 29.04C60.6 28.64 60.0533 28.44 59.28 28.44H51.92V39H46.64ZM51.92 23.64H58.24C59.4933 23.64 60.4667 23.3067 61.16 22.64C61.88 21.9467 62.24 21.04 62.24 19.92V19.52C62.24 18.4 61.8933 17.5067 61.2 16.84C60.5067 16.1467 59.52 15.8 58.24 15.8H51.92V23.64ZM81.5134 39.56C79.5401 39.56 77.7668 39.16 76.1934 38.36C74.6201 37.56 73.3801 36.4 72.4734 34.88C71.5668 33.36 71.1134 31.5333 71.1134 29.4V28.76C71.1134 26.6267 71.5668 24.8 72.4734 23.28C73.3801 21.76 74.6201 20.6 76.1934 19.8C77.7668 19 79.5401 18.6 81.5134 18.6C83.4868 18.6 85.2601 19 86.8334 19.8C88.4068 20.6 89.6468 21.76 90.5534 23.28C91.4601 24.8 91.9134 26.6267 91.9134 28.76V29.4C91.9134 31.5333 91.4601 33.36 90.5534 34.88C89.6468 36.4 88.4068 37.56 86.8334 38.36C85.2601 39.16 83.4868 39.56 81.5134 39.56ZM81.5134 35.08C83.0601 35.08 84.3401 34.5867 85.3534 33.6C86.3668 32.5867 86.8734 31.1467 86.8734 29.28V28.88C86.8734 27.0133 86.3668 25.5867 85.3534 24.6C84.3668 23.5867 83.0868 23.08 81.5134 23.08C79.9668 23.08 78.6868 23.5867 77.6734 24.6C76.6601 25.5867 76.1534 27.0133 76.1534 28.88V29.28C76.1534 31.1467 76.6601 32.5867 77.6734 33.6C78.6868 34.5867 79.9668 35.08 81.5134 35.08ZM108.486 39.56C106.699 39.56 105.326 39.2533 104.366 38.64C103.406 38.0267 102.699 37.3467 102.246 36.6H101.526V39H96.5656V11H101.606V21.44H102.326C102.619 20.96 103.006 20.5067 103.486 20.08C103.992 19.6533 104.646 19.3067 105.446 19.04C106.272 18.7467 107.286 18.6 108.486 18.6C110.086 18.6 111.566 19 112.926 19.8C114.286 20.5733 115.379 21.72 116.206 23.24C117.032 24.76 117.446 26.6 117.446 28.76V29.4C117.446 31.56 117.032 33.4 116.206 34.92C115.379 36.44 114.286 37.6 112.926 38.4C111.566 39.1733 110.086 39.56 108.486 39.56ZM106.966 35.16C108.512 35.16 109.806 34.6667 110.846 33.68C111.886 32.6667 112.406 31.2 112.406 29.28V28.88C112.406 26.96 111.886 25.5067 110.846 24.52C109.832 23.5067 108.539 23 106.966 23C105.419 23 104.126 23.5067 103.086 24.52C102.046 25.5067 101.526 26.96 101.526 28.88V29.28C101.526 31.2 102.046 32.6667 103.086 33.68C104.126 34.6667 105.419 35.16 106.966 35.16ZM131.513 39.56C129.54 39.56 127.767 39.16 126.193 38.36C124.62 37.56 123.38 36.4 122.473 34.88C121.567 33.36 121.113 31.5333 121.113 29.4V28.76C121.113 26.6267 121.567 24.8 122.473 23.28C123.38 21.76 124.62 20.6 126.193 19.8C127.767 19 129.54 18.6 131.513 18.6C133.487 18.6 135.26 19 136.833 19.8C138.407 20.6 139.647 21.76 140.553 23.28C141.46 24.8 141.913 26.6267 141.913 28.76V29.4C141.913 31.5333 141.46 33.36 140.553 34.88C139.647 36.4 138.407 37.56 136.833 38.36C135.26 39.16 133.487 39.56 131.513 39.56ZM131.513 35.08C133.06 35.08 134.34 34.5867 135.353 33.6C136.367 32.5867 136.873 31.1467 136.873 29.28V28.88C136.873 27.0133 136.367 25.5867 135.353 24.6C134.367 23.5867 133.087 23.08 131.513 23.08C129.967 23.08 128.687 23.5867 127.673 24.6C126.66 25.5867 126.153 27.0133 126.153 28.88V29.28C126.153 31.1467 126.66 32.5867 127.673 33.6C128.687 34.5867 129.967 35.08 131.513 35.08ZM146.566 39V19.16H151.526V21.4H152.246C152.539 20.6 153.019 20.0133 153.686 19.64C154.379 19.2667 155.179 19.08 156.086 19.08H158.486V23.56H156.006C154.726 23.56 153.672 23.9067 152.846 24.6C152.019 25.2667 151.606 26.3067 151.606 27.72V39H146.566Z" fill="white"/>
<path d="M35.3709 37.068C34.487 35.0789 33.1447 33.447 31.5846 31.9738C30.1538 30.6209 28.5712 29.6389 26.8217 29.0767C24.5106 31.3586 21.3867 32.696 18.0077 32.696C14.6145 32.696 11.4793 31.3488 9.16571 29.0503C8.92973 29.1301 8.69589 29.2175 8.46631 29.3229C4.79907 31.0073 2.11875 33.7037 0.47544 37.4482C0.0248097 38.4747 -0.0633286 39.5532 0.0376012 40.6548C0.0980169 41.3177 0.304852 41.9084 1.03268 42.3153C2.96457 40.9491 3.98097 38.695 5.7476 37.0352C5.86843 37.5331 5.9619 37.9227 6.05572 38.3119C6.60763 40.6104 7.5025 42.7522 8.85155 44.6936C10.4842 47.0441 12.5472 48.8794 15.3079 49.6134C19.5238 50.7349 23.0766 49.3661 25.9776 46.1779C27.6476 44.3423 28.8125 42.1871 29.5116 39.7832C29.7692 38.8982 30.012 38.009 30.291 37.0175C30.6105 37.3822 30.8805 37.6721 31.13 37.9804C32.0142 39.073 32.8768 40.1847 33.7784 41.2621C34.1316 41.6838 34.4795 42.1597 35.158 42.2431C35.7497 41.7542 35.9331 41.1589 35.9814 40.4891C36.0671 39.2936 35.8556 38.1581 35.3709 37.068Z" fill="url(#paint0_linear_1345_6969)"/>
<path d="M4.81043 14.7121C4.37153 15.0624 4.05452 15.692 3.86119 16.59C3.37147 17.3226 3.08325 18.2054 3.08325 19.1582C3.08325 20.1143 3.37147 21.0022 3.86404 21.7373C4.06518 22.6201 4.43621 23.4642 5.11748 23.7914C5.31472 23.886 5.52511 23.9325 5.74545 23.9325C6.05037 23.9325 6.37804 23.8365 6.7249 23.6607C6.748 23.6654 6.7711 23.669 6.7942 23.6733C8.56544 28.2125 12.9172 31.4357 18.0074 31.4357C23.0816 31.4357 27.4208 28.232 29.2034 23.7148C29.2507 23.7062 29.2976 23.6968 29.3442 23.6867C29.6701 23.8448 29.9796 23.9329 30.2671 23.9329C30.4896 23.9329 30.7 23.886 30.8962 23.7917C31.5728 23.4671 31.9435 22.6334 32.1457 21.759C32.6464 21.004 32.9325 20.0912 32.9147 19.112C32.8984 18.2105 32.6248 17.3768 32.1699 16.6767C31.979 15.7321 31.657 15.0728 31.2039 14.7121C31.0909 14.6226 30.9807 14.5612 30.877 14.5168L30.2334 5.96328C31.1424 5.90009 31.8532 5.12453 31.8362 4.18866C31.8187 3.22283 31.0333 2.45485 30.083 2.47254C29.1327 2.49059 28.3765 3.28746 28.3939 4.25329C28.4109 5.18952 29.1491 5.93764 30.0599 5.96652L29.7248 14.6258C29.6555 14.6659 29.5866 14.71 29.518 14.7583C29.4206 14.7331 29.3221 14.7111 29.2223 14.6923C27.6522 10.656 24.0436 7.66856 19.6841 7.04862V6.46732C20.7008 5.86398 21.3942 4.75589 21.3942 3.47557C21.3942 1.5587 19.8603 0 17.9729 0C16.0876 0 14.5523 1.5587 14.5523 3.47557C14.5523 4.72953 15.2183 5.82138 16.2009 6.43229V7.06884C11.9135 7.72597 8.37105 10.6755 6.80877 14.65C6.69292 14.671 6.57812 14.6941 6.46546 14.7237C6.37164 14.6587 6.27747 14.6027 6.18471 14.5569L5.6957 5.96869C6.60513 5.92248 7.32905 5.161 7.32905 4.22549C7.32905 3.26002 6.55893 2.47796 5.60899 2.47796C4.65975 2.47796 3.88891 3.26002 3.88891 4.22549C3.88891 5.161 4.61354 5.92284 5.52227 5.96869L5.0329 14.5681C4.96111 14.6063 4.88684 14.6515 4.81043 14.7121ZM16.202 7.84873C16.4529 7.80685 16.7034 7.76569 16.9611 7.74222V6.96955V5.97194C16.68 5.85351 16.4245 5.68057 16.202 5.47584C15.6607 4.98011 15.3149 4.27099 15.3149 3.47557C15.3149 1.98511 16.5094 0.772309 17.9739 0.772309C19.4417 0.772309 20.6351 1.98511 20.6351 3.47557C20.6351 4.30059 20.2612 5.03246 19.6851 5.52856C19.4591 5.72281 19.2071 5.88276 18.9235 5.99252V6.96269V7.73536C19.1805 7.7563 19.4332 7.79133 19.6851 7.82924C23.8616 8.46434 27.2925 11.4203 28.6643 15.3667C28.8914 16.4871 29.0218 17.6396 29.0432 18.8185C29.0691 20.2526 28.9316 21.6546 28.653 23.0118C28.6299 23.0757 28.6078 23.14 28.5837 23.2036C26.9738 27.5551 22.8474 30.6645 18.0077 30.6645C13.2619 30.6645 9.2023 27.6731 7.52878 23.4538C7.15172 21.9554 6.94772 20.3956 6.94772 18.7918C6.94772 17.8454 7.0188 16.915 7.15349 16.0029C7.20218 15.8267 7.25371 15.652 7.312 15.4801C8.6415 11.5171 12.0433 8.53186 16.202 7.84873Z" fill="url(#paint1_linear_1345_6969)"/>
<path d="M23.1609 24.7001L23.0621 24.7474C23.0532 24.751 22.9253 24.842 22.6712 24.9915C22.4132 25.1478 22.0318 25.3525 21.5613 25.5815C21.0879 25.8017 20.5246 26.0461 19.9038 26.2411C19.5932 26.3462 19.2694 26.4393 18.9346 26.5094C18.6027 26.6022 18.2598 26.634 17.914 26.6896C17.57 26.7318 17.2227 26.7347 16.8798 26.747C16.5447 26.7094 16.1989 26.7235 15.8819 26.647C15.5673 26.5657 15.24 26.5412 14.9675 26.4087C14.6956 26.2844 14.401 26.2249 14.1852 26.0656C13.9532 25.927 13.7442 25.7995 13.5573 25.6873C13.3874 25.5497 13.2463 25.4193 13.1258 25.3157C12.8874 25.1056 12.7488 24.985 12.7488 24.985C12.7488 24.985 12.8678 25.1226 13.08 25.363C13.1877 25.4818 13.3121 25.6345 13.4677 25.797C13.6436 25.9382 13.8441 26.0978 14.0612 26.2718C14.2677 26.4668 14.557 26.5686 14.8292 26.7379C15.1064 26.9167 15.4387 26.9903 15.7671 27.1217C16.0997 27.2481 16.4643 27.2853 16.8268 27.3727C17.1936 27.4102 17.5721 27.4568 17.9477 27.4615C18.3223 27.4525 18.7065 27.4658 19.0707 27.4146C19.4425 27.3871 19.8039 27.3344 20.1522 27.2665C20.8477 27.1456 21.4842 26.9658 22.0237 26.7957C22.5631 26.6188 23.0056 26.4513 23.3126 26.3159C23.4712 26.2462 23.5966 26.1909 23.6819 26.1537C23.7604 26.1155 23.8031 26.0949 23.8031 26.0949L23.8073 26.0938C24.1865 25.9126 24.3472 25.454 24.1702 25.0691C23.9918 24.6839 23.539 24.5196 23.1609 24.7001Z" fill="white"/>
<path d="M17.9108 24.6265C23.195 24.6265 27.4778 22.0048 27.4778 18.7697C27.4778 15.5354 23.195 12.9137 17.9108 12.9137C12.6301 12.9137 8.34839 15.5354 8.34839 18.7697C8.34803 22.0048 12.6301 24.6265 17.9108 24.6265ZM21.8854 16.4636C23.1382 16.4636 24.1553 17.4959 24.1553 18.7697C24.1553 20.0443 23.1385 21.0762 21.8854 21.0762C20.632 21.0762 19.6156 20.0443 19.6156 18.7697C19.6156 17.4959 20.6316 16.4636 21.8854 16.4636ZM14.1035 16.5481C15.3584 16.5481 16.3734 17.5804 16.3734 18.8542C16.3734 20.128 15.3584 21.1607 14.1035 21.1607C12.8487 21.1607 11.8326 20.128 11.8326 18.8542C11.8326 17.5804 12.849 16.5481 14.1035 16.5481Z" fill="white"/>
<path d="M14.8281 20.0163C15.4607 19.6083 15.6465 18.758 15.2464 18.1171C14.8462 17.4759 14.0096 17.2863 13.377 17.6932C12.7462 18.1005 12.5589 18.9504 12.9598 19.5931C13.3618 20.2333 14.198 20.4236 14.8281 20.0163ZM13.2953 18.307C13.5402 18.1507 13.8593 18.2236 14.0146 18.4695C14.1664 18.715 14.096 19.0418 13.8533 19.1981C13.6112 19.3545 13.2896 19.2808 13.135 19.036C12.9822 18.7894 13.054 18.4626 13.2953 18.307Z" fill="url(#paint2_linear_1345_6969)"/>
<path d="M21.0483 19.8498C21.6347 20.3199 22.4866 20.2181 22.9482 19.6212C23.4109 19.0251 23.3114 18.1604 22.7222 17.6896C22.1358 17.2195 21.285 17.3216 20.8223 17.9181C20.3589 18.5146 20.4587 19.38 21.0483 19.8498ZM22.0082 18.3615C22.1866 18.1326 22.5136 18.0932 22.7375 18.2737C22.9631 18.4536 23.0015 18.7861 22.8249 19.0161C22.6469 19.2443 22.3192 19.2829 22.0953 19.1027C21.8693 18.9229 21.8305 18.5908 22.0082 18.3615Z" fill="url(#paint3_linear_1345_6969)"/>
<path d="M19.7713 3.42372C19.7713 2.42177 18.9727 1.61011 17.9858 1.61011C17.0004 1.61011 16.2021 2.42177 16.2021 3.42372C16.2021 4.42458 17.0004 5.2366 17.9858 5.2366C18.9724 5.2366 19.7713 4.42458 19.7713 3.42372Z" fill="white"/>
<defs>
<linearGradient id="paint0_linear_1345_6969" x1="0" y1="39.5253" x2="36" y2="39.5253" gradientUnits="userSpaceOnUse">
<stop stop-color="#AB33F5"/>
<stop offset="1" stop-color="#FF6914"/>
</linearGradient>
<linearGradient id="paint1_linear_1345_6969" x1="3.08325" y1="15.7179" x2="32.9155" y2="15.7179" gradientUnits="userSpaceOnUse">
<stop stop-color="#AB33F5"/>
<stop offset="1" stop-color="#FF6914"/>
</linearGradient>
<linearGradient id="paint2_linear_1345_6969" x1="12.7488" y1="18.8548" x2="15.4572" y2="18.8548" gradientUnits="userSpaceOnUse">
<stop stop-color="#AB33F5"/>
<stop offset="1" stop-color="#FF6914"/>
</linearGradient>
<linearGradient id="paint3_linear_1345_6969" x1="20.531" y1="18.7697" x2="23.2391" y2="18.7697" gradientUnits="userSpaceOnUse">
<stop stop-color="#AB33F5"/>
<stop offset="1" stop-color="#FF6914"/>
</linearGradient>
</defs>
</svg>
